<svg width="114" height="114" viewBox="0 0 114 114" fill="none" xmlns="http://www.w3.org/2000/svg">
<path d="M57 108.656C85.529 108.656 108.656 85.529 108.656 57C108.656 28.471 85.529 5.34375 57 5.34375C28.471 5.34375 5.34375 28.471 5.34375 57C5.34375 85.529 28.471 108.656 57 108.656Z" fill="#22C55E"/>
<path fill-rule="evenodd" clip-rule="evenodd" d="M49.3371 32.1656L55.4539 35.2258C55.9337 35.4665 56.4632 35.5918 57 35.5918C57.5368 35.5918 58.0663 35.4665 58.5461 35.2258L64.6629 32.1656L70.7833 35.2258C71.2632 35.4665 71.7926 35.5918 72.3294 35.5918C72.8663 35.5918 73.3957 35.4665 73.8756 35.2258L78.2111 33.0562V80.9434L73.8756 78.7738C73.3957 78.5331 72.8663 78.4078 72.3294 78.4078C71.7926 78.4078 71.2632 78.5331 70.7833 78.7738L64.6629 81.834L58.5461 78.7738C58.0663 78.5331 57.5368 78.4078 57 78.4078C56.4632 78.4078 55.9337 78.5331 55.4539 78.7738L49.3371 81.834L43.2167 78.7738C42.7368 78.5331 42.2074 78.4078 41.6706 78.4078C41.1337 78.4078 40.6043 78.5331 40.1244 78.7738L35.7889 80.9434V33.0562L40.1244 35.2258C40.6043 35.4665 41.1337 35.5918 41.6706 35.5918C42.2074 35.5918 42.7368 35.4665 43.2167 35.2258L49.3371 32.1656ZM41.6813 32.016L37.2424 29.7965C36.7159 29.5362 36.1318 29.4143 35.5452 29.4424C34.9585 29.4705 34.3888 29.6477 33.8896 29.9571C33.3904 30.2666 32.9784 30.6982 32.6924 31.2111C32.4063 31.7241 32.2558 32.3015 32.2549 32.8888V81.1108C32.2558 81.6981 32.4063 82.2755 32.6924 82.7884C32.9784 83.3014 33.3904 83.733 33.8896 84.0425C34.3888 84.3519 34.9585 84.5291 35.5452 84.5572C36.1318 84.5853 36.7159 84.4634 37.2424 84.203L41.6813 81.9836L47.8016 85.0438C48.282 85.2829 48.8112 85.4073 49.3478 85.4073C49.8843 85.4073 50.4135 85.2829 50.8939 85.0438L57 81.9836L63.1168 85.0438C63.5972 85.2829 64.1264 85.4073 64.6629 85.4073C65.1995 85.4073 65.7287 85.2829 66.2091 85.0438L72.3294 81.9836L76.7683 84.203C77.2948 84.4634 77.8789 84.5853 78.4655 84.5572C79.0522 84.5291 79.622 84.3519 80.1211 84.0425C80.6203 83.733 81.0323 83.3014 81.3183 82.7884C81.6044 82.2755 81.7549 81.6981 81.7558 81.1108V32.8888C81.7549 32.3015 81.6044 31.7241 81.3183 31.2111C81.0323 30.6982 80.6203 30.2666 80.1211 29.9571C79.622 29.6477 79.0522 29.4705 78.4655 29.4424C77.8789 29.4143 77.2948 29.5362 76.7683 29.7965L72.3188 32.016L66.1984 28.9558C65.718 28.7167 65.1888 28.5923 64.6523 28.5923C64.1157 28.5923 63.5865 28.7167 63.1061 28.9558L57 32.016L50.8832 28.9558C50.4029 28.7167 49.8736 28.5923 49.3371 28.5923C48.8005 28.5923 48.2713 28.7167 47.7909 28.9558L41.6813 32.016Z" fill="white"/>
<path fill-rule="evenodd" clip-rule="evenodd" d="M49.084 48.275L55.7388 54.9297C55.9042 55.0956 56.1008 55.2272 56.3172 55.317C56.5336 55.4068 56.7656 55.4531 56.9999 55.4531C57.2342 55.4531 57.4662 55.4068 57.6826 55.317C57.899 55.2272 58.0955 55.0956 58.261 54.9297L68.236 44.9547C68.5605 44.6188 68.74 44.1688 68.736 43.7018C68.7319 43.2348 68.5446 42.788 68.2143 42.4578C67.884 42.1275 67.4373 41.9402 66.9702 41.9361C66.5032 41.932 66.0533 42.1116 65.7173 42.4361L56.9999 51.1535L51.6027 45.7563C51.2667 45.4318 50.8168 45.2523 50.3498 45.2564C49.8827 45.2604 49.436 45.4477 49.1057 45.778C48.7754 46.1083 48.5881 46.555 48.5841 47.0221C48.58 47.4891 48.7595 47.939 49.084 48.275Z" fill="white"/>
<path fill-rule="evenodd" clip-rule="evenodd" d="M50.3418 62.1084H63.6584C64.1308 62.1084 64.5839 61.9207 64.918 61.5867C65.252 61.2526 65.4397 60.7996 65.4397 60.3271C65.4397 59.8547 65.252 59.4017 64.918 59.0676C64.5839 58.7336 64.1308 58.5459 63.6584 58.5459H50.3418C49.8694 58.5459 49.4163 58.7336 49.0823 59.0676C48.7482 59.4017 48.5605 59.8547 48.5605 60.3271C48.5605 60.7996 48.7482 61.2526 49.0823 61.5867C49.4163 61.9207 49.8694 62.1084 50.3418 62.1084Z" fill="white"/>
<path fill-rule="evenodd" clip-rule="evenodd" d="M50.3418 68.7559H63.6584C64.1308 68.7559 64.5839 68.5682 64.918 68.2341C65.252 67.9001 65.4397 67.447 65.4397 66.9746C65.4397 66.5022 65.252 66.0491 64.918 65.7151C64.5839 65.381 64.1308 65.1934 63.6584 65.1934H50.3418C49.8694 65.1934 49.4163 65.381 49.0823 65.7151C48.7482 66.0491 48.5605 66.5022 48.5605 66.9746C48.5605 67.447 48.7482 67.9001 49.0823 68.2341C49.4163 68.5682 49.8694 68.7559 50.3418 68.7559Z" fill="white"/>
</svg>
