<svg width="58" height="59" viewBox="0 0 58 59" fill="none" xmlns="http://www.w3.org/2000/svg">
<path d="M3.625 21.8302C3.625 15.5364 3.625 12.3895 4.8542 9.98559C5.93544 7.87105 7.66072 6.15187 9.78277 5.07446C12.1952 3.84961 15.3533 3.84961 21.6694 3.84961H36.3306C42.6467 3.84961 45.8048 3.84961 48.2172 5.07446C50.3393 6.15187 52.0646 7.87105 53.1458 9.98559C54.375 12.3895 54.375 15.5364 54.375 21.8302V36.4394C54.375 42.7332 54.375 45.8801 53.1458 48.284C52.0646 50.3985 50.3393 52.1177 48.2172 53.1951C45.8048 54.42 42.6467 54.42 36.3306 54.42H21.6694C15.3533 54.42 12.1952 54.42 9.78277 53.1951C7.66072 52.1177 5.93544 50.3985 4.8542 48.284C3.625 45.8801 3.625 42.7332 3.625 36.4394V21.8302Z" fill="white"/>
<path d="M9.0625 42.7881C9.0625 44.225 10.2406 45.3888 11.6921 45.3888H11.7299C10.2562 45.3888 9.0625 44.225 9.0625 42.7881Z" fill="#FBBC05"/>
<path d="M31.6595 22.6327V29.4228L40.8465 22.0389V15.4806C40.8465 14.0437 39.6684 12.8799 38.2169 12.8799H18.3137L18.2959 22.6327H31.6595Z" fill="#FBBC05"/>
<path d="M31.6602 36.2159H18.2744L18.2588 45.39H38.2175C39.6712 45.39 40.8471 44.2262 40.8471 42.7893V36.8683L31.6602 29.4258V36.2159Z" fill="#34A853"/>
<path d="M18.3139 12.8799L9.0625 22.6327H18.2983L18.3139 12.8799Z" fill="#EA4335"/>
<path d="M9.0625 36.2148V42.7882C9.0625 44.2252 10.2562 45.389 11.7299 45.389H18.2583L18.2739 36.2148H9.0625Z" fill="#1967D2"/>
<path d="M18.2983 22.6328H9.0625V36.2152H18.2739L18.2983 22.6328Z" fill="#4285F4"/>
<path d="M48.9244 40.4766V18.1535C48.4065 15.1908 45.1456 18.5869 45.1456 18.5869L40.8489 22.0394V36.8659L46.9994 41.8485C49.22 42.1389 48.9244 40.4766 48.9244 40.4766Z" fill="#34A853"/>
<path d="M31.6594 29.4228L40.8486 36.8675V22.041L31.6594 29.4228Z" fill="#188038"/>
</svg>
