<svg width="58" height="59" viewBox="0 0 58 59" fill="none" xmlns="http://www.w3.org/2000/svg">
<path d="M29 3.96826C15.0041 3.96826 3.625 15.3071 3.625 29.2534C3.625 43.1998 15.0041 54.5386 29 54.5386C42.9959 54.5386 54.375 43.1998 54.375 29.2534C54.375 15.3071 42.9959 3.96826 29 3.96826Z" fill="#FDDD4C"/>
<path d="M17.8873 35.8457C17.3324 35.0086 18.7279 33.7418 18.1603 32.6781C17.8331 32.0646 17.2983 31.6824 16.656 31.6021C16.0396 31.525 15.4045 31.7499 14.9998 32.1894C14.3607 32.8823 14.2613 33.8256 14.3849 34.1594C14.4302 34.2817 14.5013 34.3151 14.5522 34.3223C14.9002 34.3679 15.0961 33.4777 15.2163 33.2924C15.5485 32.7813 16.303 32.6267 16.8241 32.9626C17.812 33.5993 16.9553 34.6284 17.0293 35.4976C17.1012 36.3439 17.6304 36.684 18.1054 36.7198C18.5675 36.7373 18.8907 36.4814 18.9723 36.2946C19.168 35.8488 18.3438 36.5344 17.8873 35.8457Z" fill="black"/>
<path d="M38.5296 28.162C38.2705 28.1263 37.9872 28.1271 37.6926 28.162C37.4688 27.8807 37.2684 27.4253 37.1553 26.8937C36.9541 25.948 36.9751 25.263 37.5367 25.174C38.0982 25.085 38.3696 25.6572 38.5708 26.6028C38.7057 27.2386 38.6799 27.8227 38.5296 28.162Z" fill="black"/>
<path d="M32.3796 28.7246C32.4018 28.9388 32.4097 29.1555 32.4034 29.355C32.9467 29.3867 33.3315 29.6439 33.434 29.807C33.4865 29.8913 33.4655 29.9461 33.4485 29.9715C33.3923 30.0587 33.2718 30.0452 33.0193 30.017C32.7987 29.9923 32.5612 29.9706 32.3144 29.982C32.1801 30.3924 31.7818 30.4308 31.502 30.1273C31.3065 30.1866 30.9226 30.4309 30.8082 30.1654C30.8072 30.0337 30.9455 29.8422 31.1958 29.6731C31.0249 29.3482 30.9104 29.0004 30.8427 28.6403C30.4878 28.704 30.1685 28.8031 29.9182 28.8808C29.8007 28.9172 29.3358 29.1265 29.2813 28.8906C29.2449 28.7277 29.4994 28.4591 29.7685 28.2652C30.0691 28.0526 30.4026 27.9014 30.7483 27.8142C30.7409 27.3012 30.8722 26.9434 31.2462 26.8841C31.7099 26.8106 31.9973 27.1664 32.1962 27.8252C32.7566 27.9803 33.3162 28.365 33.5633 28.7627C33.6594 28.9169 33.678 29.0361 33.6158 29.0988C33.4604 29.2593 32.6 28.7943 32.3796 28.7246Z" fill="black"/>
<path d="M36.0646 31.03C36.4201 31.2016 36.8111 31.1341 36.9388 30.879C37.0664 30.6239 36.8814 30.2782 36.5259 30.1065C36.1704 29.9349 35.7794 30.0024 35.6518 30.2575C35.5241 30.5126 35.7091 30.8583 36.0646 31.03Z" fill="black"/>
<path d="M37.8145 29.7632C37.821 29.3731 38.0609 29.0615 38.3493 29.0663C38.6378 29.0719 38.8664 29.3913 38.8599 29.7807C38.8535 30.1701 38.6135 30.4816 38.3251 30.4769C38.0367 30.4721 37.808 30.1526 37.8145 29.7632Z" fill="black"/>
<path fill-rule="evenodd" clip-rule="evenodd" d="M45.636 34.5416C45.6336 34.5335 45.6417 34.5615 45.636 34.5416C46.2153 34.5416 47.125 35.1964 47.125 36.7786C47.125 38.3529 46.4609 40.1361 46.3042 40.5319C43.9119 46.1709 38.2023 49.3099 31.4013 49.1112C25.0607 48.926 19.6533 45.6353 17.2869 40.2704C15.8561 40.272 14.3809 39.653 13.2595 38.6755C12.0775 37.6456 11.3487 36.313 11.2065 34.9231C11.0959 33.8407 11.2308 32.8339 11.5758 31.9558L10.2467 30.848C4.16472 25.797 23.1872 5.00042 29.2708 10.2198C29.3015 10.2461 31.3407 12.2137 31.3455 12.2184C34.2789 10.9934 42.1386 8.6609 42.1474 14.0907C42.1506 15.8938 40.9824 17.9965 39.1104 19.9045C41.2738 21.8779 40.7033 24.681 41.0478 27.2529L41.7992 27.4579C43.2316 27.8529 44.2504 28.3797 44.7489 28.8947C45.2474 29.4088 45.4946 29.9071 45.5843 30.4912C45.6683 30.9624 45.657 31.7944 45.0252 32.725C45.2527 33.3253 45.4604 33.9238 45.636 34.5416ZM17.1795 38.8074C17.392 38.8122 17.6028 38.7987 17.8097 38.7637C20.0322 38.391 20.6139 36.0166 20.248 33.685C19.8343 31.0522 18.0238 30.124 16.7949 30.0581C16.4532 30.0406 16.1357 30.0708 15.8739 30.1225C13.6804 30.5571 12.4418 32.3928 12.6858 34.7769C12.9064 36.9344 15.1249 38.7534 17.1795 38.8074ZM12.2116 30.7693C12.9476 29.718 14.1506 28.9575 15.516 28.696C17.2538 24.1076 20.1559 19.8799 23.9967 16.9706C26.847 14.6319 29.9212 12.9543 29.9212 12.9543C29.9212 12.9543 28.2657 11.0662 27.7656 10.9271C24.6899 10.1102 18.0472 14.616 13.8056 20.5697C12.0896 22.9783 9.63271 27.2441 10.8074 29.4382C10.952 29.71 11.7721 30.4085 12.2116 30.7693ZM37.148 37.7537C37.1529 37.803 37.1222 37.8538 37.0777 37.8721C37.0777 37.8721 34.6063 39.0029 30.6806 37.8085C30.8218 38.9811 32.2488 39.4255 33.2458 39.5862C38.1102 40.4095 42.658 37.6734 43.6816 36.9845C43.8574 36.8662 43.6795 37.1703 43.6477 37.2149C42.3946 38.8051 39.0256 40.6463 34.6427 40.6455C32.7311 40.6447 30.8204 39.9828 30.1191 38.9648C29.0308 37.3858 30.065 35.0804 31.8788 35.3204C34.9446 35.6609 38.0877 35.4051 40.9258 34.1093C43.4005 32.9793 44.3353 31.7364 44.1947 30.7296C43.9767 29.1692 41.655 28.9252 40.4815 28.5458C39.9709 28.3797 39.7188 28.247 39.6614 27.3022C39.6364 26.8897 39.5637 25.4506 39.537 24.8554C39.4902 23.8135 39.3625 22.3887 38.4641 21.8006C38.2298 21.6473 37.9697 21.5733 37.6958 21.559C37.4774 21.5487 37.3479 21.5786 37.2783 21.5946C37.2627 21.5982 37.25 21.6011 37.2401 21.6028C36.755 21.6839 36.4577 21.9285 36.1072 22.2168C36.087 22.2335 36.0666 22.2502 36.046 22.2671C34.9254 23.1857 33.9794 23.3359 32.9266 23.2914C32.5988 23.2778 32.2609 23.2451 31.9044 23.2107C31.5766 23.1791 31.233 23.1459 30.8672 23.1246L30.4205 23.0991C28.6576 23.0101 26.7671 24.5073 26.4528 26.6338C26.1017 29.0075 27.4331 30.4614 28.299 31.4069C28.513 31.6406 28.6985 31.8432 28.8232 32.0209C28.9032 32.1282 28.9961 32.2792 28.9961 32.423C28.9961 32.5947 28.883 32.7306 28.7723 32.8466C26.9739 34.6656 26.3986 37.5558 27.0765 39.9645C27.1613 40.2649 27.2688 40.5525 27.3956 40.8275C28.9856 44.4822 33.9188 46.1844 38.7372 44.6364C42.1142 43.5513 45.0979 40.9295 45.7055 37.3127C45.8501 36.3702 45.6376 36.0062 45.3484 35.8306C45.0422 35.6454 44.6754 35.7098 44.6754 35.7098C44.6754 35.7098 44.5082 34.5838 44.0347 33.5602C42.6297 34.6505 40.8216 35.4166 39.4449 35.8052C37.2392 36.4276 34.8566 36.6699 32.5773 36.3764C31.6529 36.2574 31.0317 36.1774 30.7655 37.0282C33.8057 38.1232 37.0236 37.6544 37.0236 37.6544C37.0858 37.648 37.1415 37.6925 37.148 37.7537ZM28.3764 16.5033C26.7137 17.3401 24.8571 18.8301 23.3496 20.5442C23.2962 20.6054 23.3754 20.6897 23.4409 20.6428C24.7432 19.7106 26.5287 18.8444 28.8676 18.2834C31.4877 17.6548 34.0101 17.9186 35.5508 18.2659C35.6283 18.2834 35.6768 18.1523 35.6081 18.1141C34.5901 17.5523 33.0276 17.1709 31.9192 17.1629C31.865 17.1621 31.8343 17.1001 31.8666 17.0572C32.0581 16.8037 32.3207 16.5534 32.5606 16.3722C32.614 16.3309 32.5817 16.2459 32.5138 16.2498C31.1349 16.3331 27.9854 17.7641 27.9967 17.712C28.0775 17.3306 28.332 16.8268 28.4637 16.5915C28.4952 16.5359 28.4338 16.4747 28.3764 16.5033Z" fill="black"/>
</svg>
