<svg width="58" height="59" viewBox="0 0 58 59" fill="none" xmlns="http://www.w3.org/2000/svg">
<rect x="13.5" y="3.73096" width="40.5" height="47.25" rx="3.375" fill="#2FB776"/>
<path d="M13.5 39.1685H54V47.606C54 49.4699 52.489 50.981 50.625 50.981H16.875C15.011 50.981 13.5 49.4699 13.5 47.606V39.1685Z" fill="url(#paint0_linear_1560_26067)"/>
<rect x="33.75" y="27.356" width="20.25" height="11.8125" fill="#229C5B"/>
<rect x="33.75" y="15.5435" width="20.25" height="11.8125" fill="#27AE68"/>
<path d="M13.5 7.10596C13.5 5.242 15.011 3.73096 16.875 3.73096H33.75V15.5435H13.5V7.10596Z" fill="#1D854F"/>
<rect x="13.5" y="15.5435" width="20.25" height="11.8125" fill="#197B43"/>
<rect x="13.5" y="27.356" width="20.25" height="11.8125" fill="#1B5B38"/>
<path d="M13.5 20.606C13.5 17.81 15.7666 15.5435 18.5625 15.5435H28.6875C31.4834 15.5435 33.75 17.81 33.75 20.606V40.856C33.75 43.6519 31.4834 45.9185 28.6875 45.9185H13.5V20.606Z" fill="black" fill-opacity="0.3"/>
<rect y="12.1685" width="30.375" height="30.375" rx="3.375" fill="url(#paint1_linear_1560_26067)"/>
<path d="M21.9375 35.7935L17.1823 27.1872L21.7287 18.9185H18.0174L15.2107 24.1979L12.4504 18.9185H8.62307L13.1927 27.1872L8.4375 35.7935H12.1488L15.1411 30.2006L18.1102 35.7935H21.9375Z" fill="white"/>
<defs>
<linearGradient id="paint0_linear_1560_26067" x1="13.5" y1="45.0747" x2="54" y2="45.0747" gradientUnits="userSpaceOnUse">
<stop stop-color="#163C27"/>
<stop offset="1" stop-color="#2A6043"/>
</linearGradient>
<linearGradient id="paint1_linear_1560_26067" x1="0" y1="27.356" x2="30.375" y2="27.356" gradientUnits="userSpaceOnUse">
<stop stop-color="#185A30"/>
<stop offset="1" stop-color="#176F3D"/>
</linearGradient>
</defs>
</svg>
