<svg width="48" height="49" viewBox="0 0 48 49" fill="none" xmlns="http://www.w3.org/2000/svg">
<path d="M43.4014 22.3569C45.9412 22.3569 48 20.298 48 17.7582C48 15.2185 45.9328 13.1596 43.393 13.1596C40.844 13.1596 38.7693 15.2259 38.7693 17.775V22.3569H43.4014ZM30.4616 22.3569C33.0106 22.3569 35.077 20.2905 35.077 17.7415V4.89761C35.077 2.34861 33.0106 0.282227 30.4616 0.282227C27.9126 0.282227 25.8462 2.34861 25.8462 4.89761V17.7415C25.8462 20.2905 27.9126 22.3569 30.4616 22.3569Z" fill="#2EB67D"/>
<path d="M4.59861 26.0367C2.05884 26.0367 -3.8147e-05 28.0956 -3.8147e-05 30.6353C-3.8147e-05 33.1751 2.0672 35.234 4.60696 35.234C7.15597 35.234 9.23073 33.1676 9.23073 30.6186V26.0367H4.59861ZM17.5384 26.0367C14.9894 26.0367 12.923 28.1031 12.923 30.6521V43.4959C12.923 46.045 14.9894 48.1113 17.5384 48.1113C20.0874 48.1113 22.1538 46.0449 22.1538 43.4959V30.6521C22.1538 28.1031 20.0874 26.0367 17.5384 26.0367Z" fill="#E01E5A"/>
<path d="M25.8469 43.4971C25.8469 46.0458 27.9211 48.112 30.4699 48.112C33.0099 48.112 35.0769 46.053 35.0769 43.513C35.0769 40.973 33.0179 38.914 30.4779 38.914L25.8469 38.914L25.8469 43.4971ZM25.8469 30.6357C25.8469 33.1757 27.906 35.2347 30.446 35.2347L43.401 35.2347C45.9409 35.2347 48 33.1757 48 30.6357C48 28.0957 45.9409 26.0366 43.401 26.0366L30.446 26.0366C27.906 26.0366 25.8469 28.0957 25.8469 30.6357Z" fill="#ECB22E"/>
<path d="M22.1531 4.8965C22.1531 2.34771 20.0789 0.28151 17.5301 0.28151C14.9901 0.28151 12.9231 2.34057 12.9231 4.88056C12.9231 7.42054 14.9821 9.4796 17.5221 9.4796L22.1531 9.4796L22.1531 4.8965ZM22.1531 17.7579C22.1531 15.2179 20.094 13.1588 17.554 13.1588L4.59904 13.1588C2.05906 13.1588 3.13165e-07 15.2179 2.01745e-07 17.7579C9.03243e-08 20.2979 2.05906 22.3569 4.59905 22.3569L17.554 22.3569C20.094 22.3569 22.1531 20.2979 22.1531 17.7579Z" fill="#36C5F0"/>
</svg>
