<svg width="58" height="59" viewBox="0 0 58 59" fill="none" xmlns="http://www.w3.org/2000/svg">
<path d="M29 3.96826C15.0041 3.96826 3.625 15.3071 3.625 29.2534C3.625 43.1998 15.0041 54.5386 29 54.5386C42.9959 54.5386 54.375 43.1998 54.375 29.2534C54.375 15.3071 42.9959 3.96826 29 3.96826Z" fill="#F48024"/>
<path d="M35.4176 33.5208L21.9466 31.5805L22.4135 28.6405L35.5865 31.1648L35.4176 33.5208Z" fill="white"/>
<path d="M35.656 30.3927L23.7348 24.8491L24.8276 22.4733L36.7488 28.0168L35.656 30.3927Z" fill="white"/>
<path d="M37.2455 27.4229L27.1125 19.0086L28.8013 17.0287L38.9344 25.4431L37.2455 27.4229Z" fill="white"/>
<path d="M31.4836 14.4549L33.5698 12.8711L41.418 23.3642L39.3317 24.9481L31.4836 14.4549Z" fill="white"/>
<path d="M35.4573 37.4211H21.5493V34.4513H35.4573V37.4211Z" fill="white"/>
<path d="M37.4442 31.4813V39.4007H19.5623V31.4813H16.582V42.3704H40.4245V31.4813H37.4442Z" fill="white"/>
</svg>
