<svg width="54" height="54" viewBox="0 0 54 54" fill="none" xmlns="http://www.w3.org/2000/svg">
<path d="M19.2056 27.9915C14.9236 27.9915 11.4642 31.4509 11.5275 35.6907C11.5697 38.4118 13.0673 40.7743 15.2716 42.0927C14.5228 40.9431 14.0798 39.5825 14.0587 38.1165C13.9954 33.8767 17.4548 30.4173 21.7368 30.4173C22.5806 30.4173 23.3927 30.5544 24.1521 30.797V22.3067C23.3611 22.1907 22.549 22.1274 21.7368 22.1274C21.6947 22.1274 21.663 22.1274 21.6208 22.1274V28.3712C20.8615 28.1286 20.0493 27.9915 19.2056 27.9915Z" fill="#F00044"/>
<path d="M37.7155 2.53125H37.6522H35.4585C36.0913 5.70586 37.8737 8.46914 40.3628 10.3465C38.728 8.18437 37.7366 5.48438 37.7155 2.53125Z" fill="#F00044"/>
<path d="M50.6249 15.4513C49.7917 15.4513 48.9901 15.3669 48.1991 15.2192V21.3048C45.3303 21.3048 42.5459 20.7458 39.9303 19.6278C38.2428 18.9106 36.6713 17.9931 35.2264 16.8856L35.2686 35.6485C35.2475 39.8673 33.5811 43.8224 30.5647 46.8071C28.1073 49.2329 24.9959 50.7833 21.6209 51.279C20.8299 51.395 20.0178 51.4583 19.2057 51.4583C15.5987 51.4583 12.1604 50.2876 9.36548 48.1255C9.68188 48.5052 10.0194 48.8743 10.3885 49.2329C13.426 52.2282 17.4549 53.8841 21.7475 53.8841C22.5596 53.8841 23.3717 53.8208 24.1627 53.7048C27.5377 53.2091 30.6491 51.6587 33.1065 49.2329C36.1229 46.2481 37.7893 42.2931 37.8104 38.0743L37.6522 19.3114C39.0866 20.4188 40.6581 21.347 42.3561 22.0536C44.9823 23.161 47.7667 23.7306 50.6249 23.7306" fill="#F00044"/>
<path d="M10.3569 26.7997C13.3628 23.8149 17.3601 22.1591 21.621 22.1274V19.881C20.83 19.7649 20.0179 19.7017 19.2058 19.7017C14.9026 19.7017 10.8632 21.3575 7.82568 24.3739C4.84092 27.3376 3.13232 31.3876 3.14287 35.5958C3.14287 39.8356 4.81982 43.8118 7.84678 46.8177C8.33193 47.2923 8.82764 47.7353 9.35498 48.136C6.97139 45.2989 5.67412 41.7552 5.66357 38.0216C5.67412 33.8134 7.37217 29.7634 10.3569 26.7997Z" fill="#08FFF9"/>
<path d="M48.1991 15.2193V12.9623H48.178C45.2459 12.9623 42.5459 11.992 40.3733 10.3467C42.2612 12.8357 45.0245 14.6076 48.1991 15.2193Z" fill="#08FFF9"/>
<path d="M21.3045 45.5836C22.3065 45.6363 23.2663 45.4992 24.1522 45.2145C27.2108 44.2125 29.4151 41.3648 29.4151 38.0109L29.4256 25.4602V2.53125H35.4584C35.3002 1.74023 35.2159 0.938672 35.2053 0.105469H26.8944V23.0238L26.8838 35.5746C26.8838 38.9285 24.6795 41.7762 21.6209 42.7781C20.735 43.0734 19.7752 43.2105 18.7733 43.1473C17.4971 43.0734 16.3053 42.6937 15.2717 42.082C16.569 44.0859 18.7838 45.4465 21.3045 45.5836Z" fill="#08FFF9"/>
<path d="M21.621 51.2789C24.996 50.7832 28.1073 49.2328 30.5647 46.807C33.5812 43.8223 35.2476 39.8672 35.2687 35.6484L35.2265 16.8855C36.6608 17.993 38.2323 18.9211 39.9304 19.6277C42.5565 20.7352 45.3409 21.3047 48.1991 21.3047V15.2191C45.0245 14.6074 42.2612 12.8355 40.3733 10.3465C37.8843 8.46914 36.0913 5.70586 35.469 2.53125H29.4257V25.4496L29.4151 38.0004C29.4151 41.3543 27.2108 44.202 24.1522 45.2039C23.2663 45.4992 22.3065 45.6363 21.3046 45.573C18.7733 45.4359 16.569 44.0754 15.2718 42.082C13.0675 40.7742 11.5698 38.4012 11.5276 35.6801C11.4644 31.4402 14.9237 27.9809 19.2058 27.9809C20.0495 27.9809 20.8616 28.118 21.621 28.3605V22.1168C17.3601 22.1484 13.3628 23.8043 10.3569 26.7891C7.37217 29.7527 5.66357 33.8027 5.67412 38.0004C5.67412 41.734 6.97139 45.2777 9.36553 48.1148C12.171 50.277 15.5987 51.4477 19.2058 51.4477C20.0179 51.4582 20.83 51.3949 21.621 51.2789Z" fill="black"/>
</svg>
