<svg width="58" height="59" viewBox="0 0 58 59" fill="none" xmlns="http://www.w3.org/2000/svg">
<path fill-rule="evenodd" clip-rule="evenodd" d="M45.3367 7.58008H12.691C9.686 7.58008 7.25 10.0059 7.25 12.9983V45.5078C7.25 48.5003 9.686 50.9261 12.691 50.9261H45.3367C48.3308 50.911 50.75 48.4896 50.75 45.5078V12.9983C50.75 10.0166 48.3308 7.59521 45.3367 7.58008ZM16.3125 12.9983H23.5625C25.5645 12.9983 27.1875 14.6156 27.1875 16.6105V41.8957C27.1875 43.8906 25.5645 45.5078 23.5625 45.5078H16.3125C14.3105 45.5078 12.6875 43.8906 12.6875 41.8957V16.6105C12.6875 14.6156 14.3105 12.9983 16.3125 12.9983ZM41.6875 12.9983H34.4375C32.4355 12.9983 30.8125 14.6156 30.8125 16.6105V29.2531C30.8125 31.248 32.4355 32.8653 34.4375 32.8653H41.6875C43.6895 32.8653 45.3125 31.248 45.3125 29.2531V16.6105C45.3125 14.6156 43.6895 12.9983 41.6875 12.9983Z" fill="url(#paint0_linear_1560_26078)"/>
<defs>
<linearGradient id="paint0_linear_1560_26078" x1="29.0138" y1="50.9261" x2="29.0138" y2="7.58008" gradientUnits="userSpaceOnUse">
<stop stop-color="#0052CC"/>
<stop offset="0.51698" stop-color="#217EF8"/>
<stop offset="1" stop-color="#2684FF"/>
</linearGradient>
</defs>
</svg>
