<svg width="58" height="58" viewBox="0 0 58 58" fill="none" xmlns="http://www.w3.org/2000/svg">
<path d="M36.9409 9.6665C31.8566 9.6665 27.735 13.9944 27.735 19.3332C27.735 20.1399 27.8291 20.9236 28.0064 21.6727C23.1177 21.6727 15.7542 20.6843 9.60451 14.5231C8.78675 13.7038 7.27882 14.2515 7.33554 15.4077C8.24693 33.9846 16.2028 39.4034 20.2999 39.7406C17.6542 42.3536 13.8111 44.4161 9.94393 45.3418C8.92331 45.5861 8.67118 46.7034 9.66918 47.028C12.4363 47.928 16.3971 48.2747 18.529 48.3332C33.6111 48.3332 45.8694 35.6388 46.1423 19.8704C48.1224 18.5827 49.3908 15.7867 50.1034 13.806C50.277 13.3236 49.4864 12.7616 49.0131 12.9586C47.534 13.5744 45.656 13.7204 44.0564 13.1992C42.368 11.0422 39.8075 9.6665 36.9409 9.6665Z" fill="#03A9F4"/>
</svg>
