<svg width="20" height="21" viewBox="0 0 20 21" fill="none" xmlns="http://www.w3.org/2000/svg">
<g clip-path="url(#clip0_1687_21575)">
<path d="M10 20.3999C15.5228 20.3999 20 15.9228 20 10.3999C20 4.87705 15.5228 0.399902 10 0.399902C4.47715 0.399902 0 4.87705 0 10.3999C0 15.9228 4.47715 20.3999 10 20.3999Z" fill="#F0F0F0"/>
<path d="M9.56543 10.3997H20.0002C20.0002 9.49716 19.8799 8.62278 19.6557 7.79102H9.56543V10.3997Z" fill="#D80027"/>
<path d="M9.56543 5.18244H18.5325C17.9203 4.18354 17.1376 3.30061 16.225 2.57373H9.56543V5.18244Z" fill="#D80027"/>
<path d="M10.0002 20.4C12.3537 20.4 14.5169 19.5865 16.2251 18.2261H3.77539C5.4836 19.5865 7.64676 20.4 10.0002 20.4Z" fill="#D80027"/>
<path d="M1.46797 15.617H18.5325C19.0239 14.8151 19.4051 13.9385 19.6557 13.0083H0.344727C0.595391 13.9385 0.976523 14.8151 1.46797 15.617Z" fill="#D80027"/>
<path d="M4.63219 1.96154H5.54348L4.69582 2.57736L5.01961 3.57381L4.17199 2.95799L3.32437 3.57381L3.60406 2.71299C2.85773 3.33467 2.20359 4.06303 1.66453 4.87459H1.95652L1.41695 5.26658C1.33289 5.40682 1.25227 5.54928 1.175 5.69385L1.43266 6.48686L0.951953 6.1376C0.832461 6.39076 0.723164 6.64963 0.624922 6.91389L0.908789 7.78764H1.95652L1.10887 8.40346L1.43266 9.3999L0.585039 8.78408L0.0773047 9.15299C0.0264844 9.5615 0 9.9776 0 10.3999H10C10 4.87709 10 4.226 10 0.399902C8.02453 0.399902 6.18301 0.972949 4.63219 1.96154ZM5.01961 9.3999L4.17199 8.78408L3.32437 9.3999L3.64816 8.40346L2.80051 7.78764H3.84824L4.17199 6.79119L4.49574 7.78764H5.54348L4.69582 8.40346L5.01961 9.3999ZM4.69582 5.49041L5.01961 6.48686L4.17199 5.87104L3.32437 6.48686L3.64816 5.49041L2.80051 4.87459H3.84824L4.17199 3.87814L4.49574 4.87459H5.54348L4.69582 5.49041ZM8.60656 9.3999L7.75895 8.78408L6.91133 9.3999L7.23512 8.40346L6.38746 7.78764H7.4352L7.75895 6.79119L8.0827 7.78764H9.13043L8.28277 8.40346L8.60656 9.3999ZM8.28277 5.49041L8.60656 6.48686L7.75895 5.87104L6.91133 6.48686L7.23512 5.49041L6.38746 4.87459H7.4352L7.75895 3.87814L8.0827 4.87459H9.13043L8.28277 5.49041ZM8.28277 2.57736L8.60656 3.57381L7.75895 2.95799L6.91133 3.57381L7.23512 2.57736L6.38746 1.96154H7.4352L7.75895 0.965098L8.0827 1.96154H9.13043L8.28277 2.57736Z" fill="#0052B4"/>
</g>
<defs>
<clipPath id="clip0_1687_21575">
<rect width="20" height="20" fill="white" transform="translate(0 0.399902)"/>
</clipPath>
</defs>
</svg>
