<svg width="32" height="32" viewBox="0 0 32 32" fill="none" xmlns="http://www.w3.org/2000/svg">
<path d="M31.8646 13.9131H18.0871H18.087V0.135438C17.4038 0.0465 16.7073 0 16 0C15.2926 0 14.5962 0.0465 13.9131 0.135438V13.9129V13.913H0.135438C0.0465 14.5962 0 15.2927 0 16C0 16.7074 0.0465 17.4038 0.135438 18.0869H13.9129H13.913V31.8646C14.5962 31.9535 15.2926 32 16 32C16.7073 32 17.4038 31.9536 18.0869 31.8646V18.0871V18.087H31.8646C31.9535 17.4038 32 16.7074 32 16C32 15.2927 31.9535 14.5962 31.8646 13.9131Z" fill="#D80027"/>
<path d="M20.1738 20.1739L27.3136 27.3136C27.642 26.9854 27.9552 26.6422 28.2541 26.2865L22.1415 20.1738H20.1738V20.1739Z" fill="#D80027"/>
<path d="M11.8261 20.1738H11.826L4.68628 27.3135C5.01453 27.6419 5.35772 27.9551 5.71347 28.254L11.8261 22.1413V20.1738Z" fill="#D80027"/>
<path d="M11.8261 11.826V11.8258L4.68635 4.68604C4.35797 5.01429 4.04472 5.35747 3.74585 5.71322L9.85854 11.8259H11.8261V11.826Z" fill="#D80027"/>
<path d="M20.1738 11.8264L27.3136 4.68653C26.9854 4.35816 26.6422 4.04491 26.2865 3.74609L20.1738 9.85879V11.8264Z" fill="#D80027"/>
</svg>
