<svg width="72" height="26" viewBox="0 0 72 26" fill="none" xmlns="http://www.w3.org/2000/svg">
<path d="M13.9143 25.9999V14.7461H25.83L27.1084 16.4127L28.4291 14.7461H71.6801V25.2238C71.6801 25.2238 70.549 25.9886 69.2408 25.9999H45.2919L43.8505 24.2259V25.9999H39.1272V22.9716C39.1272 22.9716 38.482 23.3943 37.0871 23.3943H35.4795V25.9999H28.328L27.0514 24.2976L25.7552 25.9999H13.9143Z" fill="white"/>
<path d="M0 6.26442L2.68703 0H7.33398L8.8589 3.50907V0H14.6355L15.5433 2.53625L16.4233 0H42.3542V1.27506C42.3542 1.27506 43.7173 0 45.9576 0L54.3712 0.0294032L55.8698 3.49255V0H60.704L62.0345 1.9893V0H66.913V11.2538H62.0345L60.7594 9.25804V11.2538H53.657L52.9427 9.47978H51.0334L50.3307 11.2538H45.5141C43.5864 11.2538 42.3542 10.0048 42.3542 10.0048V11.2538H35.0919L33.6505 9.47978V11.2538H6.64556L5.9318 9.47978H4.02852L3.31981 11.2538H0V6.26442Z" fill="white"/>
<path d="M3.63618 1.38672L0.0119629 9.81321H2.37152L3.04023 8.12583H6.92778L7.59303 9.81321H10.0046L6.3838 1.38672H3.63618ZM4.97708 3.34782L6.16205 6.2964H3.78864L4.97708 3.34782V3.34782Z" fill="#016FD0"/>
<path d="M10.2543 9.81125V1.38477L13.6073 1.39722L15.5576 6.83009L17.4611 1.38477H20.7874V9.81125H18.6808V3.60226L16.4477 9.81125H14.6002L12.3609 3.60226V9.81125H10.2543Z" fill="#016FD0"/>
<path d="M22.2302 9.81133V1.38477H29.1045V3.26966H24.359V4.71104H28.9937V6.48506H24.359V7.98188H29.1045V9.81133H22.2302Z" fill="#016FD0"/>
<path d="M30.3224 1.38672V9.81328H32.429V6.81963H33.316L35.8419 9.81328H38.4163L35.6444 6.70876C36.782 6.61277 37.9555 5.63638 37.9555 4.12051C37.9555 2.34726 36.5637 1.38672 35.0104 1.38672H30.3224V1.38672ZM32.429 3.27161H34.8371C35.4148 3.27161 35.835 3.72348 35.835 4.15861C35.835 4.71844 35.2905 5.04562 34.8683 5.04562H32.429V3.27161V3.27161Z" fill="#016FD0"/>
<path d="M40.9696 9.81133H38.8186V1.38477H40.9696V9.81133Z" fill="#016FD0"/>
<path d="M46.0692 9.81133H45.6049C43.3584 9.81133 41.9945 8.04148 41.9945 5.6327C41.9945 3.1644 43.3432 1.38477 46.1801 1.38477H48.5085V3.38053H46.0949C44.9433 3.38053 44.1289 4.27926 44.1289 5.65349C44.1289 7.28539 45.0602 7.97079 46.4018 7.97079H46.9562L46.0692 9.81133Z" fill="#016FD0"/>
<path d="M50.655 1.38672L47.0308 9.81321H49.3903L50.059 8.12583H53.9466L54.6118 9.81321H57.0234L53.4026 1.38672H50.655ZM51.9959 3.34782L53.1808 6.2964H50.8074L51.9959 3.34782Z" fill="#016FD0"/>
<path d="M57.2668 9.81133V1.38477H59.9452L63.365 6.67909V1.38477H65.4717V9.81133H62.8799L59.3735 4.37842V9.81133H57.2668Z" fill="#016FD0"/>
<path d="M15.3563 24.5584V16.1318H22.2306V18.0167H17.4851V19.4581H22.1198V21.2321H17.4851V22.729H22.2306V24.5584H15.3563Z" fill="#016FD0"/>
<path d="M49.0386 24.5584V16.1318H55.9129V18.0167H51.1674V19.4581H55.7798V21.2321H51.1674V22.729H55.9129V24.5584H49.0386Z" fill="#016FD0"/>
<path d="M22.498 24.5583L25.8451 20.3971L22.4183 16.1318H25.0724L27.1132 18.7686L29.1609 16.1318H31.711L28.3293 20.3451L31.6825 24.5583H29.0289L27.0474 21.9632L25.114 24.5583H22.498Z" fill="#016FD0"/>
<path d="M31.9304 16.1328V24.5594H34.0925V21.8984H36.31C38.1863 21.8984 39.6086 20.9029 39.6086 18.9671C39.6086 17.3634 38.4931 16.1328 36.5837 16.1328H31.9304V16.1328ZM34.0925 18.0385H36.4278C37.034 18.0385 37.4673 18.41 37.4673 19.0087C37.4673 19.571 37.0362 19.9788 36.4209 19.9788H34.0925V18.0385Z" fill="#016FD0"/>
<path d="M40.5245 16.1318V24.5584H42.6312V21.5647H43.5182L46.0441 24.5584H48.6185L45.8466 21.4539C46.9842 21.3579 48.1576 20.3815 48.1576 18.8656C48.1576 17.0924 46.7658 16.1318 45.2125 16.1318H40.5245V16.1318ZM42.6312 18.0167H45.0393C45.6169 18.0167 46.0371 18.4686 46.0371 18.9037C46.0371 19.4636 45.4927 19.7907 45.0704 19.7907H42.6312V18.0167V18.0167Z" fill="#016FD0"/>
<path d="M56.8903 24.5584V22.729H61.1063C61.7302 22.729 62.0003 22.3918 62.0003 22.0221C62.0003 21.6679 61.731 21.3097 61.1063 21.3097H59.2012C57.5451 21.3097 56.6228 20.3008 56.6228 18.7859C56.6228 17.4348 57.4674 16.1318 59.9283 16.1318H64.0307L63.1437 18.0278H59.5957C58.9174 18.0278 58.7087 18.3837 58.7087 18.7236C58.7087 19.0729 58.9667 19.4581 59.4848 19.4581H61.4806C63.3266 19.4581 64.1277 20.5053 64.1277 21.8766C64.1277 23.3509 63.2351 24.5584 61.3801 24.5584H56.8903Z" fill="#016FD0"/>
<path d="M64.6203 24.5584V22.729H68.8363C69.4602 22.729 69.7303 22.3918 69.7303 22.0221C69.7303 21.6679 69.461 21.3097 68.8363 21.3097H66.9311C65.2751 21.3097 64.3528 20.3008 64.3528 18.7859C64.3528 17.4348 65.1974 16.1318 67.6583 16.1318H71.6769L70.8737 18.0278H67.3256C66.6474 18.0278 66.4386 18.3837 66.4386 18.7236C66.4386 19.0729 66.6966 19.4581 67.2148 19.4581H69.2105C71.0566 19.4581 71.8577 20.5053 71.8577 21.8766C71.8577 23.3509 70.965 24.5584 69.11 24.5584H64.6203Z" fill="#016FD0"/>
</svg>
