<svg width="40" height="40" viewBox="0 0 40 40" fill="none" xmlns="http://www.w3.org/2000/svg">
<g clip-path="url(#clip0_1644_22846)">
<rect width="40" height="40" rx="8" fill="#016FD0"/>
<g clip-path="url(#clip1_1644_22846)">
<path d="M7.74561 27.8727V21.5928H14.3784L15.09 22.5228L15.8252 21.5928H39.9007V27.4396C39.9007 27.4396 39.2711 27.8665 38.5429 27.8727H25.2118L24.4095 26.8828V27.8727H21.7803V26.1829C21.7803 26.1829 21.4211 26.4188 20.6447 26.4188H19.7498V27.8727H15.7689L15.0583 26.9228L14.3368 27.8727H7.74561Z" fill="white"/>
<path d="M0 16.86L1.49572 13.3643H4.08242L4.93127 15.3224V13.3643H8.14677L8.65209 14.7796L9.14197 13.3643H23.5763V14.0758C23.5763 14.0758 24.3351 13.3643 25.5821 13.3643L30.2655 13.3807L31.0997 15.3132V13.3643H33.7906L34.5312 14.4743V13.3643H37.2468V19.6442H34.5312L33.8214 18.5305V19.6442H29.8679L29.4703 18.6543H28.4075L28.0164 19.6442H25.3352C24.2622 19.6442 23.5763 18.9472 23.5763 18.9472V19.6442H19.5337L18.7314 18.6543V19.6442H3.69922L3.30191 18.6543H2.24246L1.84796 19.6442H0V16.86Z" fill="white"/>
<path d="M2.0251 14.1387L0.00769043 18.8409H1.32113L1.69336 17.8993H3.85735L4.22766 18.8409H5.57002L3.55455 14.1387H2.0251ZM2.7715 15.233L3.43111 16.8784H2.10996L2.7715 15.233V15.233Z" fill="#016FD0"/>
<path d="M5.70886 18.8399V14.1377L7.57533 14.1446L8.66093 17.1764L9.72053 14.1377H11.5721V18.8399H10.3994V15.3751L9.1564 18.8399H8.12799L6.8815 15.3751V18.8399H5.70886Z" fill="#016FD0"/>
<path d="M12.3745 18.8399V14.1377H16.201V15.1895H13.5595V15.9938H16.1393V16.9838H13.5595V17.8191H16.201V18.8399H12.3745Z" fill="#016FD0"/>
<path d="M16.8799 14.1387V18.8409H18.0525V17.1704H18.5463L19.9523 18.8409H21.3853L19.8423 17.1085C20.4756 17.0549 21.1288 16.5101 21.1288 15.6642C21.1288 14.6747 20.354 14.1387 19.4894 14.1387H16.8799V14.1387ZM18.0525 15.1905H19.393C19.7145 15.1905 19.9484 15.4426 19.9484 15.6855C19.9484 15.9979 19.6454 16.1804 19.4103 16.1804H18.0525V15.1905V15.1905Z" fill="#016FD0"/>
<path d="M22.8048 18.8399H21.6074V14.1377H22.8048V18.8399Z" fill="#016FD0"/>
<path d="M25.6439 18.8399H25.3854C24.135 18.8399 23.3757 17.8523 23.3757 16.5082C23.3757 15.1308 24.1265 14.1377 25.7056 14.1377H27.0017V15.2514H25.6582C25.0172 15.2514 24.5638 15.7529 24.5638 16.5198C24.5638 17.4304 25.0822 17.8129 25.829 17.8129H26.1376L25.6439 18.8399Z" fill="#016FD0"/>
<path d="M28.1955 14.1387L26.1781 18.8409H27.4915L27.8638 17.8993H30.0278L30.3981 18.8409H31.7404L29.725 14.1387H28.1955ZM28.9419 15.233L29.6015 16.8784H28.2804L28.9419 15.233Z" fill="#016FD0"/>
<path d="M31.8773 18.8399V14.1377H33.3682L35.2718 17.0921V14.1377H36.4445V18.8399H35.0018L33.05 15.8082V18.8399H31.8773Z" fill="#016FD0"/>
<path d="M8.54785 27.0685V22.3662H12.3744V23.418H9.73284V24.2224H12.3126V25.2123H9.73284V26.0476H12.3744V27.0685H8.54785Z" fill="#016FD0"/>
<path d="M27.2979 27.0685V22.3662H31.1244V23.418H28.4828V24.2224H31.0503V25.2123H28.4828V26.0476H31.1244V27.0685H27.2979Z" fill="#016FD0"/>
<path d="M12.5229 27.0685L14.386 24.7463L12.4785 22.3662H13.9559L15.0919 23.8376L16.2317 22.3662H17.6513L15.7689 24.7173L17.6354 27.0685H16.1583L15.0552 25.6203L13.979 27.0685H12.5229Z" fill="#016FD0"/>
<path d="M17.7748 22.3672V27.0694H18.9783V25.5845H20.2126C21.2571 25.5845 22.0488 25.029 22.0488 23.9488C22.0488 23.0539 21.4278 22.3672 20.365 22.3672H17.7748V22.3672ZM18.9783 23.4306H20.2782C20.6156 23.4306 20.8568 23.6379 20.8568 23.972C20.8568 24.2858 20.6169 24.5134 20.2744 24.5134H18.9783V23.4306Z" fill="#016FD0"/>
<path d="M22.5579 22.3662V27.0685H23.7305V25.3979H24.2242L25.6303 27.0685H27.0633L25.5203 25.3361C26.1536 25.2825 26.8068 24.7376 26.8068 23.8917C26.8068 22.9022 26.032 22.3662 25.1674 22.3662H22.5579V22.3662ZM23.7305 23.418H25.0709C25.3925 23.418 25.6264 23.6702 25.6264 23.913C25.6264 24.2254 25.3233 24.408 25.0883 24.408H23.7305V23.418V23.418Z" fill="#016FD0"/>
<path d="M31.6675 27.0685V26.0476H34.0143C34.3615 26.0476 34.5119 25.8595 34.5119 25.6531C34.5119 25.4555 34.362 25.2556 34.0143 25.2556H32.9538C32.0319 25.2556 31.5186 24.6926 31.5186 23.8473C31.5186 23.0933 31.9887 22.3662 33.3585 22.3662H35.6421L35.1483 23.4242H33.1734C32.7958 23.4242 32.6796 23.6228 32.6796 23.8125C32.6796 24.0074 32.8232 24.2224 33.1117 24.2224H34.2226C35.2502 24.2224 35.6961 24.8067 35.6961 25.5719C35.6961 26.3946 35.1992 27.0685 34.1666 27.0685H31.6675Z" fill="#016FD0"/>
<path d="M35.9714 27.0685V26.0476H38.3182C38.6655 26.0476 38.8158 25.8595 38.8158 25.6531C38.8158 25.4555 38.6659 25.2556 38.3182 25.2556H37.2577C36.3359 25.2556 35.8225 24.6926 35.8225 23.8473C35.8225 23.0933 36.2926 22.3662 37.6625 22.3662H39.946L39.4523 23.4242H37.4773C37.0998 23.4242 36.9836 23.6228 36.9836 23.8125C36.9836 24.0074 37.1272 24.2224 37.4156 24.2224H38.5265C39.5541 24.2224 40 24.8067 40 25.5719C40 26.3946 39.5032 27.0685 38.4706 27.0685H35.9714Z" fill="#016FD0"/>
</g>
</g>
<defs>
<clipPath id="clip0_1644_22846">
<rect width="40" height="40" rx="8" fill="white"/>
</clipPath>
<clipPath id="clip1_1644_22846">
<rect width="40" height="40" fill="white"/>
</clipPath>
</defs>
</svg>
