<svg width="84" height="26" viewBox="0 0 84 26" fill="none" xmlns="http://www.w3.org/2000/svg">
<path fill-rule="evenodd" clip-rule="evenodd" d="M52.8127 23.6695C53.4038 22.16 54.7194 18.7772 54.0938 17.9575H54.0984C53.4755 17.136 49.9795 17.5671 48.407 17.761L48.4036 17.7614C47.9252 17.8205 47.8516 17.3929 48.2817 17.0834C51.0739 15.0684 55.6486 15.6448 56.1799 16.3252C56.7112 17.0055 56.035 21.7159 53.4199 23.9648C53.0174 24.3097 52.6333 24.1254 52.8127 23.6695ZM34.0239 25.9991C40.1051 25.9991 47.1867 24.0266 52.065 20.3296V20.3367C52.8723 19.7131 52.18 18.7965 51.3566 19.1556C46.0318 21.4624 40.3158 22.6666 34.5368 22.699C26.519 22.699 18.7635 20.4407 12.4891 16.6917C11.9394 16.3634 11.53 16.9421 11.99 17.365C18.0304 22.9625 25.8883 26.0417 34.0239 25.9991Z" fill="#FF9900"/>
<path fill-rule="evenodd" clip-rule="evenodd" d="M73.7881 14.9297H76.3778H76.3801C76.651 14.9349 76.8762 14.7163 76.8861 14.4382V7.06557C76.8861 6.13955 76.9344 5.30331 77.2978 4.46706C77.5473 3.83093 78.135 3.40264 78.802 3.37097C80.4586 3.37097 80.4427 5.23541 80.4302 6.70013C80.4292 6.82367 80.4281 6.94435 80.4281 7.06084V14.4996C80.4602 14.7383 80.6538 14.9193 80.8881 14.9297H83.5009C83.7487 14.935 83.962 14.7512 84 14.4996V5.8797C84 4.55447 84 2.70953 83.3215 1.61343C82.5878 0.432296 81.4516 0 80.2878 0C78.4938 0 77.4749 0.89294 76.7481 2.76622H76.6975V0.670886C76.6451 0.451839 76.4571 0.295432 76.2375 0.288198H73.8272C73.5725 0.281762 73.3555 0.47689 73.3281 0.73703V14.4382C73.3313 14.7009 73.5326 14.9159 73.7881 14.9297ZM71.3503 7.74379C71.3503 3.42083 69.2642 0.0191519 65.4071 0.0191519C61.6489 0.0191519 59.5628 3.36413 59.5628 7.59969C59.5628 11.8353 61.6236 15.2369 65.4071 15.2369C69.0503 15.2369 71.3503 11.9227 71.3503 7.74379ZM63.3946 7.1678C63.3946 5.49531 63.5166 2.81649 65.4324 2.81649C66.2558 2.81649 66.8377 3.19681 67.1298 4.14173C67.4702 5.23546 67.5185 6.61975 67.5185 7.77254C67.5185 9.53008 67.4426 12.4121 65.4072 12.4121C63.3939 12.4121 63.3944 8.91783 63.3946 7.22323L63.3946 7.1678ZM14.7956 14.9576H17.3923H17.3946C17.525 14.9606 17.6511 14.9103 17.7452 14.8176C17.8393 14.725 17.8936 14.5976 17.896 14.4637V7.20446L17.896 7.09083C17.8949 5.51241 17.8935 3.42482 19.69 3.42482C21.3509 3.42482 21.3252 5.25904 21.3044 6.74023V6.7403V6.74036V6.74043V6.7405C21.3022 6.90017 21.3 7.05574 21.3 7.20446V14.4661C21.3044 14.7283 21.5051 14.9426 21.76 14.9576H24.3636C24.4935 14.96 24.6191 14.9094 24.7127 14.8168C24.8063 14.7242 24.8603 14.5972 24.8627 14.4637V7.20446L24.8624 7.03187C24.8609 6.26273 24.8588 5.22483 25.1065 4.57997C25.3591 3.92081 25.9696 3.47952 26.659 3.45789C27.4111 3.45789 27.993 3.71774 28.1862 4.63903C28.2848 5.08243 28.272 6.11033 28.2635 6.79196C28.2615 6.95282 28.2598 7.0944 28.2598 7.20446V14.4661C28.2631 14.7288 28.4643 14.9438 28.7198 14.9576H31.3165C31.4468 14.9606 31.573 14.9103 31.6671 14.8176C31.7612 14.725 31.8154 14.5976 31.8179 14.4637V5.82017C31.8179 5.60943 31.8214 5.39406 31.825 5.17633C31.8462 3.88572 31.8689 2.51193 31.1624 1.52555C30.3059 0.406678 28.9286 -0.150876 27.5592 0.0669724C26.1898 0.284821 25.0412 1.24421 24.5545 2.57676C23.8254 0.845216 22.7835 0.03968 21.1827 0.03968C19.5819 0.03968 18.3928 0.845216 17.7626 2.57676H17.7143V0.788521C17.7006 0.533643 17.5025 0.330128 17.2543 0.316066H14.8324C14.565 0.313352 14.3444 0.530497 14.3356 0.805057V14.5063C14.3592 14.7528 14.5547 14.9446 14.7956 14.9576ZM10.2764 15.0617C10.1053 15.2141 9.85952 15.2396 9.66226 15.1255C8.92635 14.4966 8.70448 14.1567 8.36376 13.6346C8.30515 13.5448 8.24303 13.4497 8.17416 13.3467C6.74587 14.8396 5.73618 15.2861 3.88928 15.2861C1.70199 15.2861 0 13.8995 0 11.1261C0 8.95994 1.14999 7.48824 2.75999 6.76538C3.94883 6.22956 5.53506 6.06325 6.90643 5.91947L6.90654 5.91945L6.90668 5.91944L6.90683 5.91942L6.90703 5.9194L6.90731 5.91937C7.16198 5.89267 7.40924 5.86674 7.64517 5.83937V5.49448C7.64517 5.42864 7.64568 5.36156 7.64621 5.29359C7.65076 4.70552 7.65582 4.05079 7.33007 3.55741C7.01267 3.06606 6.41007 2.86526 5.87187 2.86526C4.88058 2.86526 3.99738 3.38733 3.78118 4.46689C3.75378 4.71872 3.56511 4.92025 3.32119 4.95824L0.823396 4.67713C0.698757 4.6588 0.586883 4.58879 0.513864 4.48344C0.440844 4.37808 0.413063 4.24659 0.436998 4.11963C1.0143 0.982529 3.77428 0.0352569 6.24677 0.0352569C7.51177 0.0352569 9.16316 0.380149 10.1568 1.36286C11.3232 2.48447 11.3159 3.95278 11.3081 5.5574C11.3074 5.68987 11.3068 5.82327 11.3068 5.95748V10.1127C11.3068 11.2318 11.711 11.7885 12.1368 12.3748C12.1874 12.4445 12.2383 12.5146 12.2888 12.586C12.4544 12.8223 12.4912 13.1175 12.2888 13.2947C11.7575 13.7506 10.8146 14.5916 10.2971 15.0664L10.2764 15.0617ZM7.65646 8.55625L7.65654 8.6856C7.65746 9.66818 7.65823 10.5014 7.17116 11.391C6.75717 12.1422 6.10167 12.6052 5.37027 12.6052C4.37438 12.6052 3.79248 11.8256 3.79248 10.6681C3.79248 8.39561 5.77737 7.98222 7.65646 7.98222V8.55625ZM46.1902 12.3653C46.2408 12.435 46.2918 12.5052 46.3424 12.5768C46.5172 12.8225 46.554 13.1107 46.3309 13.2737C45.7996 13.7296 44.8566 14.5729 44.3391 15.0454C44.167 15.1956 43.9221 15.2201 43.725 15.1068C42.9859 14.4752 42.767 14.1403 42.4214 13.6115L42.4212 13.6112C42.3635 13.5229 42.3023 13.4293 42.2346 13.328C40.8086 14.821 39.792 15.2674 37.952 15.2674C35.7647 15.2674 34.0627 13.8808 34.0627 11.1098C34.0627 8.94125 35.2058 7.46956 36.8342 6.7467C38.0256 6.20884 39.6208 6.04331 40.9962 5.90058C41.2457 5.87468 41.488 5.84953 41.7194 5.82305V5.48524C41.7194 5.42011 41.7199 5.35376 41.7204 5.28653L41.7204 5.28536C41.725 4.69706 41.73 4.04209 41.402 3.55054C41.0938 3.05919 40.4797 2.85603 39.9438 2.85603C38.9525 2.85603 38.0739 3.3781 37.8554 4.45766C37.8273 4.70912 37.639 4.91025 37.3954 4.94901L34.8769 4.67026C34.7514 4.65257 34.6385 4.58246 34.5649 4.47649C34.4914 4.37052 34.4636 4.23807 34.4882 4.1104C35.0678 0.970937 37.8278 0.0260276 40.3003 0.0260276C41.563 0.0260276 43.2144 0.37092 44.2103 1.35363C45.3791 2.46944 45.3709 3.92638 45.3619 5.52279V5.52358V5.52438C45.3611 5.66464 45.3603 5.80597 45.3603 5.94825V10.1059C45.3603 11.2226 45.7644 11.7791 46.1902 12.3653ZM39.4379 12.5911C40.167 12.5911 40.8248 12.1281 41.2365 11.3792C41.7253 10.4848 41.7247 9.64765 41.7241 8.65279L41.7241 8.54687V7.97048C39.845 7.97048 37.8601 8.38151 37.8601 10.6564C37.8601 11.8115 38.442 12.5911 39.4379 12.5911ZM48.541 0.758664V2.7099C48.5397 2.84375 48.5918 2.97232 48.6852 3.06562C48.7787 3.15892 48.9053 3.2088 49.0355 3.20362H53.5067L48.38 10.7629C48.146 11.1684 48.0355 11.6365 48.0626 12.107V14.1032C48.0626 14.3914 48.3731 14.7197 48.6698 14.5567C51.4974 13.0509 54.8599 13.0447 57.6927 14.5402C58.017 14.7126 58.3229 14.3795 58.3229 14.0913V11.9936C58.3142 11.6729 58.1385 11.3816 57.8629 11.2306C56.3702 10.3684 54.6337 10.1156 52.9915 10.1558L57.4167 3.66899C57.8284 3.08787 58.0584 2.71935 58.0584 2.43824V0.758664C58.0597 0.625242 58.0079 0.497055 57.915 0.403828C57.822 0.3106 57.696 0.26043 57.5662 0.264949H49.0263C48.8963 0.257449 48.7693 0.306886 48.6768 0.400997C48.5843 0.495109 48.535 0.625077 48.541 0.758664Z" fill="black"/>
</svg>
