<svg width="340" height="200" viewBox="0 0 340 200" fill="none" xmlns="http://www.w3.org/2000/svg">
<rect width="340" height="200" rx="12" fill="#DD3333"/>
<mask id="mask0_161_5432" style="mask-type:alpha" maskUnits="userSpaceOnUse" x="0" y="0" width="340" height="200">
<rect width="340" height="200" rx="13" fill="#194BFB"/>
</mask>
<g mask="url(#mask0_161_5432)">
<path d="M144 95.5C144 177.514 210.486 244 292.5 244C374.514 244 441 177.514 441 95.5C441 13.4857 374.514 -53 292.5 -53C210.486 -53 144 13.4857 144 95.5ZM399.611 95.5C399.611 154.656 351.656 202.611 292.5 202.611C233.344 202.611 185.389 154.656 185.389 95.5C185.389 36.344 233.344 -11.6115 292.5 -11.6115C351.656 -11.6115 399.611 36.344 399.611 95.5Z" fill="url(#paint0_linear_161_5432)"/>
<path d="M238 95C238 128.137 264.863 155 298 155C331.137 155 358 128.137 358 95C358 61.8629 331.137 35 298 35C264.863 35 238 61.8629 238 95ZM333.209 95C333.209 114.446 317.446 130.209 298 130.209C278.554 130.209 262.791 114.446 262.791 95C262.791 75.5544 278.554 59.7906 298 59.7906C317.446 59.7906 333.209 75.5544 333.209 95Z" fill="url(#paint1_linear_161_5432)"/>
</g>
<rect x="35.25" y="31.1079" width="31.5" height="23.8629" rx="3.75" fill="url(#paint2_linear_161_5432)" stroke="#9F7E3B" stroke-width="0.5"/>
<path d="M35.5 38.3524H44C45.1046 38.3524 46 39.2478 46 40.3524V44.2231M46 54.7403V50.0937M46 50.0937V44.2231M46 50.0937H35.5M46 44.2231H35.5" stroke="black" stroke-opacity="0.76" stroke-width="0.5"/>
<path d="M66.5 38.3524H56.5M56.5 38.3524V44.223M56.5 38.3524V31.3575M56.5 54.7402V50.0937M56.5 50.0937V44.223M56.5 50.0937H66.5M56.5 44.223H66.5" stroke="black" stroke-opacity="0.76" stroke-width="0.5"/>
<path opacity="0.6" d="M236 37.1018C236 34.2053 238.38 31.8572 241.316 31.8572C244.252 31.8572 246.631 34.2053 246.631 37.1018V38.521C245.741 38.1695 244.77 37.9759 243.752 37.9759C239.471 37.9759 236 41.4002 236 45.6244V37.1018Z" fill="white"/>
<path fill-rule="evenodd" clip-rule="evenodd" d="M243.732 53.3501C248.002 53.3501 251.464 49.8909 251.464 45.6238C251.464 41.3567 248.002 37.8976 243.732 37.8976C239.462 37.8976 236 41.3567 236 45.6238C236 49.8909 239.462 53.3501 243.732 53.3501ZM243.732 49.5973C245.928 49.5973 247.708 47.8183 247.708 45.6238C247.708 43.4293 245.928 41.6503 243.732 41.6503C241.536 41.6503 239.756 43.4293 239.756 45.6238C239.756 47.8183 241.536 49.5973 243.732 49.5973Z" fill="white"/>
<path d="M255.715 48.2755V37.4588H259.743C260.326 37.4588 260.854 37.5798 261.328 37.8219C261.802 38.0589 262.176 38.3988 262.449 38.8418C262.728 39.2848 262.867 39.805 262.867 40.4025C262.867 40.6446 262.833 40.8944 262.766 41.1519C262.705 41.4095 262.596 41.6464 262.442 41.8627C262.292 42.0791 262.086 42.2439 261.823 42.3572C262.163 42.4396 262.437 42.5942 262.643 42.8208C262.849 43.0423 263.006 43.2998 263.114 43.5934C263.223 43.8819 263.295 44.178 263.331 44.4819C263.367 44.7858 263.385 45.0614 263.385 45.3087C263.385 45.8649 263.241 46.3672 262.952 46.8153C262.663 47.2634 262.274 47.6188 261.784 47.8815C261.3 48.1442 260.764 48.2755 260.176 48.2755H255.715ZM257.849 46.4599H259.952C260.235 46.4599 260.493 46.3929 260.725 46.259C260.957 46.1199 261.143 45.9319 261.282 45.695C261.421 45.4529 261.491 45.1799 261.491 44.876C261.491 44.6184 261.421 44.3738 261.282 44.142C261.143 43.9102 260.957 43.7222 260.725 43.578C260.493 43.4286 260.235 43.3539 259.952 43.3539H257.849V46.4599ZM257.849 41.5769H259.496C259.836 41.5769 260.127 41.4661 260.369 41.2446C260.612 41.0232 260.733 40.7373 260.733 40.387C260.733 40.0265 260.612 39.7535 260.369 39.5681C260.127 39.3775 259.836 39.2822 259.496 39.2822H257.849V41.5769Z" fill="white"/>
<path d="M269.7 40.5493H271.834V48.2755H269.692L269.592 47.472C269.391 47.7708 269.133 48.0128 268.819 48.1983C268.504 48.3837 268.136 48.4764 267.713 48.4764C267.136 48.4764 266.597 48.3683 266.097 48.1519C265.597 47.9356 265.156 47.6368 264.775 47.2557C264.393 46.8745 264.094 46.4341 263.878 45.9345C263.667 45.4297 263.561 44.8889 263.561 44.312C263.561 43.7608 263.662 43.2457 263.863 42.7667C264.064 42.2877 264.347 41.8653 264.713 41.4996C265.079 41.1339 265.499 40.848 265.973 40.642C266.453 40.436 266.968 40.333 267.52 40.333C267.994 40.333 268.419 40.4334 268.796 40.6343C269.177 40.8352 269.509 41.0901 269.793 41.3992L269.7 40.5493ZM267.659 46.429C268.009 46.429 268.326 46.3388 268.61 46.1585C268.893 45.9783 269.118 45.7362 269.283 45.4323C269.448 45.1232 269.53 44.7833 269.53 44.4124C269.53 44.0364 269.448 43.6964 269.283 43.3925C269.118 43.0886 268.893 42.8466 268.61 42.6663C268.326 42.486 268.009 42.3959 267.659 42.3959C267.303 42.3959 266.981 42.486 266.692 42.6663C266.404 42.8466 266.174 43.0912 266.004 43.4003C265.834 43.7042 265.749 44.0416 265.749 44.4124C265.749 44.7833 265.834 45.1232 266.004 45.4323C266.18 45.7362 266.412 45.9783 266.7 46.1585C266.989 46.3388 267.308 46.429 267.659 46.429Z" fill="white"/>
<path d="M280.107 43.3616V48.2755H277.973V43.9488C277.973 43.6758 277.906 43.4312 277.772 43.2148C277.643 42.9934 277.468 42.8182 277.246 42.6895C277.03 42.5607 276.787 42.4963 276.519 42.4963C276.251 42.4963 276.006 42.5607 275.785 42.6895C275.563 42.8182 275.388 42.9934 275.259 43.2148C275.13 43.4312 275.066 43.6758 275.066 43.9488V48.2755H272.932L272.924 40.5493H275.058L275.066 41.121C275.323 40.8738 275.625 40.6806 275.97 40.5416C276.321 40.4025 276.689 40.333 277.076 40.333C277.638 40.333 278.146 40.4694 278.599 40.7424C279.058 41.0154 279.424 41.3811 279.697 41.8396C279.97 42.2928 280.107 42.8002 280.107 43.3616Z" fill="white"/>
<path d="M288.379 48.2755H285.92L284.281 45.4555L283.338 46.5758V48.2755H281.204V36.6862H283.338V43.2612L285.611 40.5493H288.395L285.742 43.7248L288.379 48.2755Z" fill="white"/>
<path d="M294.237 48.4762C293.505 48.4762 292.817 48.332 292.173 48.0435C291.528 47.7499 290.961 47.3456 290.472 46.8305C289.987 46.3154 289.606 45.7205 289.327 45.0458C289.054 44.3658 288.918 43.6396 288.918 42.867C288.918 42.0892 289.054 41.3629 289.327 40.6881C289.606 40.0082 289.987 39.4133 290.472 38.9034C290.961 38.3883 291.528 37.9865 292.173 37.6981C292.817 37.4045 293.505 37.2577 294.237 37.2577C295.114 37.2577 295.92 37.4611 296.657 37.8681C297.394 38.2698 298.005 38.8081 298.49 39.4829L296.588 40.5104C296.299 40.1705 295.951 39.9001 295.544 39.6992C295.137 39.4932 294.701 39.3901 294.237 39.3901C293.799 39.3901 293.387 39.4803 293 39.6606C292.614 39.8408 292.273 40.0907 291.98 40.41C291.691 40.7294 291.464 41.0976 291.299 41.5149C291.134 41.9321 291.052 42.3828 291.052 42.867C291.052 43.346 291.134 43.7967 291.299 44.219C291.464 44.6363 291.691 45.0045 291.98 45.3239C292.273 45.6381 292.614 45.8879 293 46.0733C293.387 46.2536 293.799 46.3438 294.237 46.3438C294.706 46.3438 295.142 46.2407 295.544 46.0347C295.951 45.8287 296.299 45.5557 296.588 45.2157L298.49 46.251C298.005 46.9207 297.394 47.4589 296.657 47.8658C295.92 48.2728 295.114 48.4762 294.237 48.4762Z" fill="white"/>
<path d="M302.449 48.4762C301.738 48.4762 301.088 48.2934 300.501 47.9276C299.918 47.5619 299.452 47.0726 299.101 46.4597C298.756 45.8416 298.583 45.1591 298.583 44.4122C298.583 43.8456 298.684 43.3176 298.885 42.8283C299.086 42.3338 299.362 41.9012 299.712 41.5303C300.068 41.1543 300.48 40.8607 300.949 40.6495C301.418 40.4383 301.918 40.3327 302.449 40.3327C303.161 40.3327 303.807 40.5156 304.39 40.8813C304.978 41.247 305.444 41.7389 305.789 42.357C306.14 42.9751 306.315 43.6602 306.315 44.4122C306.315 44.9736 306.215 45.499 306.014 45.9884C305.813 46.4777 305.534 46.9104 305.179 47.2864C304.828 47.6572 304.418 47.9483 303.949 48.1594C303.485 48.3706 302.985 48.4762 302.449 48.4762ZM302.449 46.3438C302.779 46.3438 303.076 46.2562 303.338 46.0811C303.601 45.9008 303.807 45.6639 303.957 45.3703C304.106 45.0767 304.181 44.7573 304.181 44.4122C304.181 44.0568 304.101 43.7323 303.941 43.4387C303.787 43.1399 303.578 42.903 303.315 42.7279C303.052 42.5528 302.764 42.4652 302.449 42.4652C302.124 42.4652 301.831 42.5553 301.568 42.7356C301.305 42.9159 301.096 43.1528 300.941 43.4464C300.792 43.74 300.717 44.0619 300.717 44.4122C300.717 44.7779 300.795 45.1076 300.949 45.4012C301.109 45.6896 301.32 45.9188 301.583 46.0888C301.846 46.2588 302.135 46.3438 302.449 46.3438Z" fill="white"/>
<path d="M307.851 48.4762C307.552 48.4762 307.297 48.3732 307.085 48.1672C306.879 47.956 306.776 47.6984 306.776 47.3945C306.776 47.1009 306.879 46.8485 307.085 46.6374C307.297 46.4262 307.552 46.3206 307.851 46.3206C308.15 46.3206 308.405 46.4262 308.616 46.6374C308.828 46.8485 308.933 47.1009 308.933 47.3945C308.933 47.6984 308.828 47.956 308.616 48.1672C308.405 48.3732 308.15 48.4762 307.851 48.4762Z" fill="white"/>
<path d="M290.528 145.428C289.296 144.987 287.994 144.765 286.683 144.774C282.444 144.774 279.45 146.876 279.429 149.894C279.402 152.111 281.556 153.36 283.186 154.101C284.858 154.862 285.417 155.342 285.411 156.023C285.401 157.058 284.076 157.528 282.844 157.528C281.151 157.528 280.226 157.295 278.803 156.714L278.276 156.471L277.675 159.945C278.705 160.368 280.563 160.73 282.481 160.762C286.988 160.762 289.934 158.673 289.969 155.462C290.006 153.691 288.84 152.353 286.387 151.247C284.895 150.53 283.97 150.05 283.97 149.322C283.97 148.678 284.762 147.99 286.418 147.99C287.52 147.963 288.616 148.167 289.632 148.587L290.03 148.762L290.631 145.405L290.528 145.428ZM301.529 145.055H298.217C297.186 145.055 296.41 145.335 295.96 146.341L289.59 160.545H294.097L294.998 158.216L300.498 158.221C300.628 158.766 301.026 160.545 301.026 160.545H305L301.529 145.055ZM273.332 144.925H277.627L274.94 160.423H270.651L273.332 144.92V144.925ZM262.429 153.467L262.874 155.618L267.071 145.055H271.62L264.861 160.524H260.322L256.613 147.426C256.553 147.21 256.412 147.025 256.218 146.907C254.881 146.227 253.465 145.712 252 145.371L252.058 145.045H258.971C259.909 145.082 260.664 145.371 260.916 146.357L262.426 153.475V153.467H262.429ZM296.23 155.047L297.941 150.713C297.92 150.759 298.294 149.818 298.511 149.236L298.805 150.574L299.799 155.045H296.227V155.047H296.23Z" fill="white"/>
<path opacity="0.6" d="M36.72 124V115.6H39.618C40.034 115.6 40.412 115.686 40.752 115.858C41.096 116.026 41.368 116.272 41.568 116.596C41.768 116.92 41.868 117.308 41.868 117.76C41.868 118.004 41.826 118.24 41.742 118.468C41.662 118.692 41.55 118.886 41.406 119.05C41.266 119.21 41.106 119.318 40.926 119.374C41.178 119.438 41.392 119.552 41.568 119.716C41.744 119.876 41.886 120.064 41.994 120.28C42.106 120.496 42.186 120.722 42.234 120.958C42.282 121.194 42.306 121.422 42.306 121.642C42.306 122.106 42.2 122.516 41.988 122.872C41.78 123.224 41.5 123.5 41.148 123.7C40.796 123.9 40.408 124 39.984 124H36.72ZM37.728 123.112H39.894C40.17 123.112 40.42 123.042 40.644 122.902C40.872 122.758 41.054 122.562 41.19 122.314C41.326 122.066 41.394 121.786 41.394 121.474C41.394 121.198 41.326 120.938 41.19 120.694C41.054 120.446 40.872 120.246 40.644 120.094C40.42 119.942 40.17 119.866 39.894 119.866H37.728V123.112ZM37.728 118.996H39.522C39.89 118.996 40.204 118.888 40.464 118.672C40.728 118.452 40.86 118.146 40.86 117.754C40.86 117.33 40.728 117.014 40.464 116.806C40.204 116.594 39.89 116.488 39.522 116.488H37.728V118.996ZM48.4713 118H49.4793V124H48.4713L48.4293 122.986C48.2413 123.334 47.9813 123.616 47.6493 123.832C47.3213 124.048 46.9293 124.156 46.4733 124.156C46.0333 124.156 45.6213 124.074 45.2373 123.91C44.8533 123.742 44.5133 123.512 44.2173 123.22C43.9253 122.924 43.6973 122.584 43.5333 122.2C43.3693 121.816 43.2873 121.402 43.2873 120.958C43.2873 120.53 43.3673 120.126 43.5273 119.746C43.6873 119.366 43.9093 119.034 44.1933 118.75C44.4813 118.462 44.8133 118.238 45.1893 118.078C45.5653 117.914 45.9693 117.832 46.4013 117.832C46.8733 117.832 47.2873 117.944 47.6433 118.168C47.9993 118.388 48.2873 118.674 48.5073 119.026L48.4713 118ZM46.4553 123.178C46.8513 123.178 47.1933 123.082 47.4813 122.89C47.7733 122.694 47.9973 122.43 48.1533 122.098C48.3133 121.766 48.3933 121.4 48.3933 121C48.3933 120.592 48.3133 120.224 48.1533 119.896C47.9933 119.564 47.7673 119.302 47.4753 119.11C47.1873 118.914 46.8473 118.816 46.4553 118.816C46.0593 118.816 45.6993 118.914 45.3753 119.11C45.0513 119.306 44.7933 119.57 44.6013 119.902C44.4133 120.23 44.3193 120.596 44.3193 121C44.3193 121.404 44.4173 121.772 44.6133 122.104C44.8093 122.432 45.0693 122.694 45.3933 122.89C45.7173 123.082 46.0713 123.178 46.4553 123.178ZM51.1489 124V115H52.1569V124H51.1489ZM58.7635 118H59.7715V124H58.7635L58.7215 122.986C58.5335 123.334 58.2735 123.616 57.9415 123.832C57.6135 124.048 57.2215 124.156 56.7655 124.156C56.3255 124.156 55.9135 124.074 55.5295 123.91C55.1455 123.742 54.8055 123.512 54.5095 123.22C54.2175 122.924 53.9895 122.584 53.8255 122.2C53.6615 121.816 53.5795 121.402 53.5795 120.958C53.5795 120.53 53.6595 120.126 53.8195 119.746C53.9795 119.366 54.2015 119.034 54.4855 118.75C54.7735 118.462 55.1055 118.238 55.4815 118.078C55.8575 117.914 56.2615 117.832 56.6935 117.832C57.1655 117.832 57.5795 117.944 57.9355 118.168C58.2915 118.388 58.5795 118.674 58.7995 119.026L58.7635 118ZM56.7475 123.178C57.1435 123.178 57.4855 123.082 57.7735 122.89C58.0655 122.694 58.2895 122.43 58.4455 122.098C58.6055 121.766 58.6855 121.4 58.6855 121C58.6855 120.592 58.6055 120.224 58.4455 119.896C58.2855 119.564 58.0595 119.302 57.7675 119.11C57.4795 118.914 57.1395 118.816 56.7475 118.816C56.3515 118.816 55.9915 118.914 55.6675 119.11C55.3435 119.306 55.0855 119.57 54.8935 119.902C54.7055 120.23 54.6115 120.596 54.6115 121C54.6115 121.404 54.7095 121.772 54.9055 122.104C55.1015 122.432 55.3615 122.694 55.6855 122.89C56.0095 123.082 56.3635 123.178 56.7475 123.178ZM66.6748 120.268V124H65.6668V120.49C65.6668 120.186 65.5928 119.91 65.4448 119.662C65.2968 119.414 65.0988 119.218 64.8508 119.074C64.6028 118.926 64.3268 118.852 64.0228 118.852C63.7228 118.852 63.4468 118.926 63.1948 119.074C62.9468 119.218 62.7488 119.414 62.6008 119.662C62.4528 119.91 62.3788 120.186 62.3788 120.49V124H61.3708V118H62.3788V118.75C62.5908 118.47 62.8588 118.248 63.1828 118.084C63.5068 117.916 63.8588 117.832 64.2388 117.832C64.6868 117.832 65.0948 117.942 65.4628 118.162C65.8348 118.378 66.1288 118.67 66.3448 119.038C66.5648 119.406 66.6748 119.816 66.6748 120.268ZM72.2915 122.416L73.1915 122.902C72.9195 123.282 72.5735 123.586 72.1535 123.814C71.7375 124.042 71.2855 124.156 70.7975 124.156C70.2455 124.156 69.7415 124.014 69.2855 123.73C68.8335 123.446 68.4715 123.066 68.1995 122.59C67.9315 122.11 67.7975 121.58 67.7975 121C67.7975 120.56 67.8755 120.15 68.0315 119.77C68.1875 119.386 68.4015 119.05 68.6735 118.762C68.9495 118.47 69.2695 118.242 69.6335 118.078C69.9975 117.914 70.3855 117.832 70.7975 117.832C71.2855 117.832 71.7375 117.946 72.1535 118.174C72.5735 118.402 72.9195 118.708 73.1915 119.092L72.2915 119.578C72.0995 119.342 71.8715 119.16 71.6075 119.032C71.3435 118.904 71.0735 118.84 70.7975 118.84C70.4255 118.84 70.0875 118.94 69.7835 119.14C69.4835 119.336 69.2455 119.598 69.0695 119.926C68.8935 120.254 68.8055 120.612 68.8055 121C68.8055 121.388 68.8935 121.746 69.0695 122.074C69.2495 122.398 69.4895 122.658 69.7895 122.854C70.0935 123.05 70.4295 123.148 70.7975 123.148C71.0935 123.148 71.3715 123.08 71.6315 122.944C71.8915 122.808 72.1115 122.632 72.2915 122.416ZM77.2092 124.156C76.6572 124.156 76.1532 124.014 75.6972 123.73C75.2452 123.446 74.8832 123.066 74.6112 122.59C74.3432 122.11 74.2092 121.58 74.2092 121C74.2092 120.56 74.2872 120.15 74.4432 119.77C74.5992 119.386 74.8132 119.05 75.0852 118.762C75.3612 118.47 75.6812 118.242 76.0452 118.078C76.4092 117.914 76.7972 117.832 77.2092 117.832C77.6612 117.832 78.0752 117.924 78.4512 118.108C78.8312 118.288 79.1552 118.54 79.4232 118.864C79.6952 119.188 79.8972 119.564 80.0292 119.992C80.1652 120.42 80.2152 120.878 80.1792 121.366H75.2832C75.3312 121.706 75.4432 122.01 75.6192 122.278C75.7952 122.542 76.0192 122.752 76.2912 122.908C76.5672 123.064 76.8732 123.144 77.2092 123.148C77.5692 123.148 77.8952 123.056 78.1872 122.872C78.4792 122.684 78.7152 122.428 78.8952 122.104L79.9212 122.344C79.6812 122.876 79.3192 123.312 78.8352 123.652C78.3512 123.988 77.8092 124.156 77.2092 124.156ZM75.2532 120.574H79.1652C79.1332 120.238 79.0252 119.932 78.8412 119.656C78.6572 119.376 78.4232 119.152 78.1392 118.984C77.8552 118.816 77.5452 118.732 77.2092 118.732C76.8732 118.732 76.5652 118.814 76.2852 118.978C76.0052 119.142 75.7732 119.364 75.5892 119.644C75.4092 119.92 75.2972 120.23 75.2532 120.574Z" fill="white"/>
<path d="M43.248 146.852C42.68 146.844 42.14 146.936 41.628 147.128C41.124 147.312 40.712 147.564 40.392 147.884C40.072 148.204 39.912 148.572 39.912 148.988C39.912 149.524 40.06 149.928 40.356 150.2C40.66 150.472 41.064 150.672 41.568 150.8C42.072 150.92 42.632 151.032 43.248 151.136C44.368 151.312 45.404 151.608 46.356 152.024C47.308 152.44 48.072 152.996 48.648 153.692C49.224 154.38 49.512 155.224 49.512 156.224C49.512 157.136 49.276 157.948 48.804 158.66C48.332 159.364 47.696 159.94 46.896 160.388C46.104 160.836 45.224 161.12 44.256 161.24V163.688H42.252V161.24C41.444 161.144 40.684 160.94 39.972 160.628C39.26 160.316 38.64 159.908 38.112 159.404C37.592 158.9 37.208 158.312 36.96 157.64L39.708 156.632C39.82 156.952 40.048 157.244 40.392 157.508C40.736 157.772 41.156 157.984 41.652 158.144C42.148 158.304 42.68 158.384 43.248 158.384C43.832 158.384 44.376 158.296 44.88 158.12C45.392 157.936 45.804 157.684 46.116 157.364C46.428 157.036 46.584 156.656 46.584 156.224C46.584 155.784 46.42 155.424 46.092 155.144C45.764 154.856 45.344 154.628 44.832 154.46C44.32 154.292 43.792 154.164 43.248 154.076C42.056 153.892 40.988 153.608 40.044 153.224C39.1 152.84 38.352 152.308 37.8 151.628C37.256 150.948 36.984 150.068 36.984 148.988C36.984 148.076 37.22 147.264 37.692 146.552C38.172 145.84 38.808 145.264 39.6 144.824C40.4 144.376 41.284 144.092 42.252 143.972V141.512H44.256V143.972C45.048 144.068 45.8 144.272 46.512 144.584C47.224 144.896 47.844 145.308 48.372 145.82C48.908 146.324 49.3 146.916 49.548 147.596L46.788 148.592C46.676 148.272 46.448 147.98 46.104 147.716C45.76 147.452 45.34 147.244 44.844 147.092C44.348 146.932 43.816 146.852 43.248 146.852ZM51.4678 161V158.384C51.9878 157.992 52.6038 157.508 53.3158 156.932C54.0278 156.348 54.7598 155.72 55.5118 155.048C56.2638 154.368 56.9598 153.688 57.5998 153.008C58.2398 152.328 58.7598 151.68 59.1598 151.064C59.5678 150.448 59.7718 149.92 59.7718 149.48C59.7718 148.992 59.6518 148.548 59.4118 148.148C59.1718 147.74 58.8518 147.416 58.4518 147.176C58.0598 146.936 57.6198 146.816 57.1318 146.816C56.6438 146.816 56.1998 146.936 55.7998 147.176C55.3998 147.416 55.0798 147.74 54.8398 148.148C54.5998 148.548 54.4798 148.992 54.4798 149.48H51.5518C51.5518 148.424 51.8078 147.476 52.3198 146.636C52.8318 145.788 53.5078 145.12 54.3478 144.632C55.1958 144.136 56.1238 143.888 57.1318 143.888C58.1558 143.888 59.0878 144.14 59.9278 144.644C60.7678 145.14 61.4398 145.812 61.9438 146.66C62.4478 147.508 62.6998 148.448 62.6998 149.48C62.6998 150.024 62.5998 150.572 62.3998 151.124C62.1998 151.676 61.9198 152.232 61.5598 152.792C61.1998 153.352 60.7758 153.92 60.2878 154.496C59.7998 155.064 59.2598 155.648 58.6678 156.248C58.0838 156.84 57.4678 157.448 56.8198 158.072H62.7838V161H51.4678ZM71.6042 161V156.932H64.4522V153.992L70.9202 144.2H74.5322V154.004H75.9482V156.932H74.5322V161H71.6042ZM67.8482 153.992L71.6042 154.004L71.5922 148.196L67.8482 153.992ZM78.3506 162.344L79.0946 158.288H82.0226L80.3066 162.344H78.3506ZM90.7209 161.312C89.7449 161.312 88.8569 161.088 88.0569 160.64C87.2569 160.184 86.5649 159.556 85.9809 158.756C85.4049 157.956 84.9609 157.032 84.6489 155.984C84.3369 154.928 84.1809 153.8 84.1809 152.6C84.1809 151.4 84.3369 150.276 84.6489 149.228C84.9609 148.172 85.4049 147.244 85.9809 146.444C86.5649 145.644 87.2569 145.02 88.0569 144.572C88.8569 144.116 89.7449 143.888 90.7209 143.888C91.6969 143.888 92.5849 144.116 93.3849 144.572C94.1849 145.02 94.8689 145.644 95.4369 146.444C96.0129 147.244 96.4569 148.172 96.7689 149.228C97.0889 150.276 97.2489 151.4 97.2489 152.6C97.2489 153.8 97.0889 154.928 96.7689 155.984C96.4569 157.032 96.0129 157.956 95.4369 158.756C94.8689 159.556 94.1849 160.184 93.3849 160.64C92.5849 161.088 91.6969 161.312 90.7209 161.312ZM90.7209 158.384C91.5769 158.384 92.2849 158.112 92.8449 157.568C93.4049 157.024 93.8209 156.312 94.0929 155.432C94.3649 154.552 94.5009 153.608 94.5009 152.6C94.5009 151.536 94.3569 150.568 94.0689 149.696C93.7809 148.816 93.3569 148.116 92.7969 147.596C92.2369 147.076 91.5449 146.816 90.7209 146.816C90.0729 146.816 89.5089 146.976 89.0289 147.296C88.5569 147.608 88.1649 148.036 87.8529 148.58C87.5409 149.124 87.3089 149.744 87.1569 150.44C87.0049 151.128 86.9289 151.848 86.9289 152.6C86.9289 153.6 87.0649 154.544 87.3369 155.432C87.6169 156.312 88.0369 157.024 88.5969 157.568C89.1649 158.112 89.8729 158.384 90.7209 158.384ZM101.449 161L104.677 155.42C103.885 155.468 103.129 155.36 102.409 155.096C101.697 154.832 101.061 154.44 100.501 153.92C99.9408 153.4 99.4968 152.784 99.1688 152.072C98.8488 151.36 98.6888 150.588 98.6888 149.756C98.6888 148.948 98.8408 148.192 99.1448 147.488C99.4488 146.776 99.8688 146.152 100.405 145.616C100.949 145.072 101.573 144.648 102.277 144.344C102.989 144.04 103.753 143.888 104.569 143.888C105.633 143.888 106.605 144.152 107.485 144.68C108.373 145.208 109.081 145.916 109.609 146.804C110.145 147.692 110.413 148.676 110.413 149.756C110.413 150.292 110.345 150.8 110.209 151.28C110.081 151.752 109.877 152.232 109.597 152.72L104.833 161H101.449ZM104.545 152.696C105.121 152.696 105.629 152.556 106.069 152.276C106.517 151.996 106.865 151.632 107.113 151.184C107.361 150.736 107.485 150.256 107.485 149.744C107.485 149.184 107.349 148.684 107.077 148.244C106.805 147.796 106.445 147.448 105.997 147.2C105.549 146.944 105.073 146.816 104.569 146.816C103.993 146.816 103.481 146.956 103.033 147.236C102.593 147.508 102.245 147.868 101.989 148.316C101.733 148.764 101.605 149.24 101.605 149.744C101.605 150.28 101.733 150.772 101.989 151.22C102.253 151.668 102.605 152.028 103.045 152.3C103.493 152.564 103.993 152.696 104.545 152.696ZM117.669 161.312C116.637 161.312 115.701 161.076 114.861 160.604C114.021 160.132 113.349 159.5 112.845 158.708C112.349 157.908 112.101 157.02 112.101 156.044C112.101 155.276 112.273 154.556 112.617 153.884C112.969 153.204 113.441 152.632 114.033 152.168C113.569 151.744 113.189 151.244 112.893 150.668C112.605 150.084 112.461 149.46 112.461 148.796C112.461 147.892 112.697 147.068 113.169 146.324C113.641 145.58 114.269 144.988 115.053 144.548C115.845 144.108 116.717 143.888 117.669 143.888C118.629 143.888 119.501 144.108 120.285 144.548C121.069 144.988 121.697 145.58 122.169 146.324C122.641 147.068 122.877 147.892 122.877 148.796C122.877 149.46 122.733 150.084 122.445 150.668C122.165 151.244 121.785 151.744 121.305 152.168C121.913 152.632 122.389 153.204 122.733 153.884C123.085 154.556 123.261 155.276 123.261 156.044C123.261 157.012 123.009 157.896 122.505 158.696C122.009 159.488 121.337 160.124 120.489 160.604C119.641 161.076 118.701 161.312 117.669 161.312ZM117.669 158.384C118.133 158.384 118.553 158.28 118.929 158.072C119.305 157.856 119.605 157.572 119.829 157.22C120.053 156.868 120.165 156.476 120.165 156.044C120.165 155.612 120.053 155.22 119.829 154.868C119.605 154.516 119.305 154.236 118.929 154.028C118.553 153.812 118.133 153.704 117.669 153.704C117.213 153.704 116.797 153.812 116.421 154.028C116.045 154.236 115.741 154.516 115.509 154.868C115.285 155.22 115.173 155.612 115.173 156.044C115.173 156.476 115.285 156.868 115.509 157.22C115.741 157.572 116.045 157.856 116.421 158.072C116.797 158.28 117.213 158.384 117.669 158.384ZM117.669 150.776C118.061 150.776 118.417 150.688 118.737 150.512C119.057 150.328 119.309 150.088 119.493 149.792C119.685 149.496 119.781 149.164 119.781 148.796C119.781 148.428 119.685 148.096 119.493 147.8C119.309 147.504 119.057 147.268 118.737 147.092C118.417 146.908 118.061 146.816 117.669 146.816C117.285 146.816 116.933 146.908 116.613 147.092C116.293 147.268 116.037 147.504 115.845 147.8C115.653 148.096 115.557 148.428 115.557 148.796C115.557 149.164 115.653 149.496 115.845 149.792C116.037 150.088 116.293 150.328 116.613 150.512C116.933 150.688 117.285 150.776 117.669 150.776ZM126.679 161.312C126.263 161.312 125.907 161.168 125.611 160.88C125.323 160.584 125.179 160.224 125.179 159.8C125.179 159.392 125.323 159.04 125.611 158.744C125.907 158.448 126.263 158.3 126.679 158.3C127.095 158.3 127.451 158.448 127.747 158.744C128.043 159.04 128.191 159.392 128.191 159.8C128.191 160.224 128.043 160.584 127.747 160.88C127.451 161.168 127.095 161.312 126.679 161.312ZM136.893 161.312C135.917 161.312 135.029 161.088 134.229 160.64C133.429 160.184 132.737 159.556 132.153 158.756C131.577 157.956 131.133 157.032 130.821 155.984C130.509 154.928 130.353 153.8 130.353 152.6C130.353 151.4 130.509 150.276 130.821 149.228C131.133 148.172 131.577 147.244 132.153 146.444C132.737 145.644 133.429 145.02 134.229 144.572C135.029 144.116 135.917 143.888 136.893 143.888C137.869 143.888 138.757 144.116 139.557 144.572C140.357 145.02 141.041 145.644 141.609 146.444C142.185 147.244 142.629 148.172 142.941 149.228C143.261 150.276 143.421 151.4 143.421 152.6C143.421 153.8 143.261 154.928 142.941 155.984C142.629 157.032 142.185 157.956 141.609 158.756C141.041 159.556 140.357 160.184 139.557 160.64C138.757 161.088 137.869 161.312 136.893 161.312ZM136.893 158.384C137.749 158.384 138.457 158.112 139.017 157.568C139.577 157.024 139.993 156.312 140.265 155.432C140.537 154.552 140.673 153.608 140.673 152.6C140.673 151.536 140.529 150.568 140.241 149.696C139.953 148.816 139.529 148.116 138.969 147.596C138.409 147.076 137.717 146.816 136.893 146.816C136.245 146.816 135.681 146.976 135.201 147.296C134.729 147.608 134.337 148.036 134.025 148.58C133.713 149.124 133.481 149.744 133.329 150.44C133.177 151.128 133.101 151.848 133.101 152.6C133.101 153.6 133.237 154.544 133.509 155.432C133.789 156.312 134.209 157.024 134.769 157.568C135.337 158.112 136.045 158.384 136.893 158.384ZM150.838 161.312C149.862 161.312 148.974 161.088 148.174 160.64C147.374 160.184 146.682 159.556 146.098 158.756C145.522 157.956 145.078 157.032 144.766 155.984C144.454 154.928 144.298 153.8 144.298 152.6C144.298 151.4 144.454 150.276 144.766 149.228C145.078 148.172 145.522 147.244 146.098 146.444C146.682 145.644 147.374 145.02 148.174 144.572C148.974 144.116 149.862 143.888 150.838 143.888C151.814 143.888 152.702 144.116 153.502 144.572C154.302 145.02 154.986 145.644 155.554 146.444C156.13 147.244 156.574 148.172 156.886 149.228C157.206 150.276 157.366 151.4 157.366 152.6C157.366 153.8 157.206 154.928 156.886 155.984C156.574 157.032 156.13 157.956 155.554 158.756C154.986 159.556 154.302 160.184 153.502 160.64C152.702 161.088 151.814 161.312 150.838 161.312ZM150.838 158.384C151.694 158.384 152.402 158.112 152.962 157.568C153.522 157.024 153.938 156.312 154.21 155.432C154.482 154.552 154.618 153.608 154.618 152.6C154.618 151.536 154.474 150.568 154.186 149.696C153.898 148.816 153.474 148.116 152.914 147.596C152.354 147.076 151.662 146.816 150.838 146.816C150.19 146.816 149.626 146.976 149.146 147.296C148.674 147.608 148.282 148.036 147.97 148.58C147.658 149.124 147.426 149.744 147.274 150.44C147.122 151.128 147.046 151.848 147.046 152.6C147.046 153.6 147.182 154.544 147.454 155.432C147.734 156.312 148.154 157.024 148.714 157.568C149.282 158.112 149.99 158.384 150.838 158.384Z" fill="white"/>
<g opacity="0.6">
<path d="M99.9993 121.333C100.736 121.333 101.333 120.736 101.333 120C101.333 119.264 100.736 118.667 99.9993 118.667C99.263 118.667 98.666 119.264 98.666 120C98.666 120.736 99.263 121.333 99.9993 121.333Z" stroke="white" stroke-width="1.5" stroke-linecap="round" stroke-linejoin="round"/>
<path d="M106.666 120C104.888 123.111 102.666 124.667 99.9997 124.667C97.333 124.667 95.111 123.111 93.333 120C95.111 116.889 97.333 115.333 99.9997 115.333C102.666 115.333 104.888 116.889 106.666 120Z" stroke="white" stroke-width="1.5" stroke-linecap="round" stroke-linejoin="round"/>
</g>
<defs>
<linearGradient id="paint0_linear_161_5432" x1="95.5" y1="95" x2="231.5" y2="95" gradientUnits="userSpaceOnUse">
<stop stop-color="white" stop-opacity="0.15"/>
<stop offset="1" stop-color="white" stop-opacity="0"/>
</linearGradient>
<linearGradient id="paint1_linear_161_5432" x1="216.5" y1="95" x2="323" y2="95" gradientUnits="userSpaceOnUse">
<stop stop-color="white" stop-opacity="0.15"/>
<stop offset="1" stop-color="white" stop-opacity="0"/>
</linearGradient>
<linearGradient id="paint2_linear_161_5432" x1="35" y1="30.8579" x2="66.9825" y2="55.3626" gradientUnits="userSpaceOnUse">
<stop stop-color="#E6AC3C"/>
<stop offset="1" stop-color="#FFDA93"/>
</linearGradient>
</defs>
</svg>
