<svg width="26" height="16" viewBox="0 0 26 16" fill="none" xmlns="http://www.w3.org/2000/svg">
<path fill-rule="evenodd" clip-rule="evenodd" d="M9.3877 14.2687H16.3464V1.70776H9.3877V14.2687Z" fill="#FF5F00"/>
<path fill-rule="evenodd" clip-rule="evenodd" d="M9.82945 7.98847C9.82945 5.44015 11.0173 3.17054 12.867 1.70798C11.5141 0.63819 9.80736 0 7.95215 0C3.56021 0 0 3.57662 0 7.98847C0 12.4003 3.56021 15.9769 7.95215 15.9769C9.80736 15.9769 11.5141 15.3388 12.867 14.269C11.0173 12.8062 9.82945 10.5368 9.82945 7.98847Z" fill="#EB001B"/>
<path fill-rule="evenodd" clip-rule="evenodd" d="M25.4859 12.9384V12.6284H25.4052L25.3127 12.8417L25.2199 12.6284H25.1393V12.9384H25.196V12.7045L25.2831 12.9062H25.3421L25.4291 12.7041V12.9384H25.4859ZM24.9753 12.9384V12.6812H25.0787V12.6289H24.8158V12.6812H24.919V12.9384H24.9753ZM25.7342 7.98823C25.7342 12.4001 22.1737 15.9767 17.782 15.9767C15.9268 15.9767 14.2198 15.3385 12.8672 14.2687C14.7169 12.8062 15.9047 10.5366 15.9047 7.98823C15.9047 5.44013 14.7169 3.17051 12.8672 1.70774C14.2198 0.637946 15.9268 -0.000244141 17.782 -0.000244141C22.1737 -0.000244141 25.7342 3.57637 25.7342 7.98823Z" fill="#F79E1B"/>
</svg>
