<svg width="40" height="40" viewBox="0 0 40 40" fill="none" xmlns="http://www.w3.org/2000/svg">
<rect x="0.5" y="0.5" width="39" height="39" rx="7.5" fill="white"/>
<g clip-path="url(#clip0_1644_22839)">
<path fill-rule="evenodd" clip-rule="evenodd" d="M17.4434 25.485H23.3315V14.4941H17.4434V25.485Z" fill="#FF5F00"/>
<path fill-rule="evenodd" clip-rule="evenodd" d="M17.8172 19.9899C17.8172 17.7601 18.8223 15.7742 20.3874 14.4945C19.2427 13.5584 17.7985 13 16.2287 13C12.5125 13 9.5 16.1295 9.5 19.9899C9.5 23.8503 12.5125 26.9798 16.2287 26.9798C17.7985 26.9798 19.2427 26.4214 20.3874 25.4853C18.8223 24.2054 17.8172 22.2197 17.8172 19.9899Z" fill="#EB001B"/>
<path fill-rule="evenodd" clip-rule="evenodd" d="M31.0648 24.3213V24.0501H30.9966L30.9183 24.2367L30.8398 24.0501H30.7715V24.3213H30.8196V24.1167L30.8932 24.2932H30.9431L31.0168 24.1163V24.3213H31.0648ZM30.6328 24.3213V24.0963H30.7203V24.0505H30.4979V24.0963H30.5852V24.3213H30.6328ZM31.2749 19.9899C31.2749 23.8503 28.2622 26.9798 24.5462 26.9798C22.9764 26.9798 21.532 26.4214 20.3875 25.4853C21.9526 24.2056 22.9577 22.2197 22.9577 19.9899C22.9577 17.7603 21.9526 15.7744 20.3875 14.4945C21.532 13.5584 22.9764 13 24.5462 13C28.2622 13 31.2749 16.1295 31.2749 19.9899Z" fill="#F79E1B"/>
</g>
<rect x="0.5" y="0.5" width="39" height="39" rx="7.5" stroke="#F1F2F4"/>
<defs>
<clipPath id="clip0_1644_22839">
<rect width="22" height="14" fill="white" transform="translate(9.5 13)"/>
</clipPath>
</defs>
</svg>
