<svg width="40" height="40" viewBox="0 0 40 40" fill="none" xmlns="http://www.w3.org/2000/svg">
<rect width="40" height="40" rx="20" fill="#F7FAFC"/>
<g clip-path="url(#clip0_1687_21516)">
<path fill-rule="evenodd" clip-rule="evenodd" d="M17.2207 24.702H22.5736V15.2812H17.2207V24.702Z" fill="#FF5F00"/>
<path fill-rule="evenodd" clip-rule="evenodd" d="M17.5611 19.9914C17.5611 18.0801 18.4748 16.3779 19.8977 15.281C18.857 14.4786 17.5441 14 16.117 14C12.7386 14 10 16.6825 10 19.9914C10 23.3002 12.7386 25.9827 16.117 25.9827C17.5441 25.9827 18.857 25.5041 19.8977 24.7017C18.4748 23.6046 17.5611 21.9026 17.5611 19.9914Z" fill="#EB001B"/>
<path fill-rule="evenodd" clip-rule="evenodd" d="M29.6041 23.704V23.4715H29.5421L29.4709 23.6314L29.3995 23.4715H29.3375V23.704H29.3812V23.5286L29.4481 23.6799H29.4935L29.5605 23.5283V23.704H29.6041ZM29.2114 23.704V23.5111H29.291V23.4718H29.0887V23.5111H29.1681V23.704H29.2114ZM29.7951 19.9914C29.7951 23.3002 27.0564 25.9827 23.6781 25.9827C22.251 25.9827 20.938 25.5041 19.8975 24.7017C21.3203 23.6048 22.234 21.9026 22.234 19.9914C22.234 18.0803 21.3203 16.3781 19.8975 15.281C20.938 14.4786 22.251 14 23.6781 14C27.0564 14 29.7951 16.6825 29.7951 19.9914Z" fill="#F79E1B"/>
</g>
<defs>
<clipPath id="clip0_1687_21516">
<rect width="20" height="12" fill="white" transform="translate(10 14)"/>
</clipPath>
</defs>
</svg>
