<svg width="378" height="222" viewBox="0 0 378 222" fill="none" xmlns="http://www.w3.org/2000/svg">
<rect width="378" height="222" rx="12" fill="url(#paint0_linear_1644_22769)"/>
<g opacity="0.32">
<path d="M203.999 211.084L205.655 200.56L201.967 200.474H184.359L196.596 122.818C196.633 122.583 196.757 122.365 196.938 122.21C197.118 122.054 197.35 121.969 197.59 121.969H227.28C237.137 121.969 243.938 124.022 247.49 128.073C249.155 129.974 250.215 131.961 250.728 134.146C251.266 136.44 251.276 139.18 250.75 142.523L250.712 142.767V144.908L252.377 145.852C253.779 146.597 254.893 147.449 255.748 148.425C257.173 150.05 258.094 152.115 258.483 154.564C258.885 157.083 258.752 160.079 258.094 163.472C257.334 167.375 256.106 170.775 254.447 173.556C252.921 176.119 250.978 178.244 248.671 179.892C246.468 181.457 243.85 182.645 240.89 183.406C238.022 184.153 234.753 184.53 231.167 184.53H228.856C227.204 184.53 225.599 185.126 224.339 186.194C223.077 187.283 222.24 188.772 221.984 190.4L221.81 191.348L218.885 209.896L218.752 210.577C218.718 210.793 218.658 210.901 218.569 210.973C218.49 211.039 218.376 211.084 218.265 211.084H203.999Z" fill="#253B80"/>
<path d="M253.946 143.02C253.858 143.587 253.757 144.166 253.643 144.762C249.727 164.882 236.332 171.832 219.223 171.832H210.513C208.421 171.832 206.658 173.353 206.332 175.418L201.872 203.728L200.609 211.752C200.396 213.108 201.441 214.331 202.808 214.331H218.258C220.088 214.331 221.642 213 221.929 211.195L222.082 210.409L224.991 191.933L225.178 190.92C225.462 189.108 227.019 187.777 228.849 187.777H231.159C246.128 187.777 257.846 181.695 261.271 164.093C262.701 156.74 261.961 150.601 258.175 146.283C257.029 144.98 255.608 143.9 253.946 143.02Z" fill="#ADC9E3"/>
<path d="M249.842 141.38C249.245 141.206 248.627 141.048 247.994 140.905C247.358 140.766 246.705 140.642 246.035 140.534C243.686 140.154 241.113 139.974 238.355 139.974H215.085C214.512 139.974 213.968 140.103 213.48 140.338C212.407 140.854 211.61 141.871 211.417 143.116L206.465 174.498L206.323 175.414C206.649 173.348 208.413 171.828 210.504 171.828H219.215C236.324 171.828 249.719 164.874 253.634 144.757C253.751 144.162 253.849 143.582 253.938 143.015C252.947 142.489 251.874 142.039 250.719 141.656C250.434 141.561 250.14 141.469 249.842 141.38Z" fill="#E6EFF6"/>
<path d="M211.43 143.118C211.623 141.873 212.422 140.856 213.494 140.343C213.985 140.108 214.526 139.978 215.099 139.978H238.37C241.127 139.978 243.7 140.159 246.048 140.539C246.72 140.647 247.372 140.77 248.008 140.91C248.641 141.052 249.258 141.211 249.857 141.385C250.154 141.474 250.448 141.565 250.736 141.657C251.891 142.041 252.965 142.494 253.955 143.016C255.121 135.581 253.946 130.519 249.93 125.935C245.502 120.888 237.509 118.728 227.282 118.728H197.592C195.503 118.728 193.721 120.248 193.398 122.317L181.032 200.772C180.788 202.324 181.984 203.725 183.547 203.725H201.878L206.48 174.5L211.43 143.118Z" fill="white"/>
</g>
<rect x="39.1543" y="35.3789" width="35.0692" height="26.6238" rx="3.75" fill="url(#paint1_linear_1644_22769)" stroke="#9F7E3B" stroke-width="0.5"/>
<path d="M39.46 43.4727H49.1311C50.2357 43.4727 51.1311 44.3681 51.1311 45.4727V50.0086M51.1311 61.7176V56.5445M51.1311 56.5445V50.0086M51.1311 56.5445H39.46M51.1311 50.0086H39.46" stroke="black" stroke-opacity="0.76" stroke-width="0.5"/>
<path d="M73.9177 43.473H62.8023M62.8023 43.473V50.009M62.8023 43.473V35.6855M62.8023 61.718V56.5449M62.8023 56.5449V50.009M62.8023 56.5449H73.9177M62.8023 50.009H73.9177" stroke="black" stroke-opacity="0.76" stroke-width="0.5"/>
<path fill-rule="evenodd" clip-rule="evenodd" d="M276.85 30.6533H270.465C270.029 30.6533 269.657 30.9711 269.589 31.4026L267.007 47.7882C266.955 48.1116 267.206 48.4031 267.533 48.4031H270.581C271.018 48.4031 271.39 48.0853 271.458 47.6529L272.154 43.2335C272.221 42.8007 272.594 42.4833 273.03 42.4833H275.051C279.257 42.4833 281.684 40.4464 282.318 36.4101C282.603 34.6442 282.33 33.2567 281.503 32.2847C280.596 31.218 278.987 30.6533 276.85 30.6533ZM277.586 36.6379C277.237 38.9309 275.487 38.9309 273.794 38.9309H272.831L273.507 34.6485C273.547 34.39 273.771 34.1993 274.032 34.1993H274.474C275.627 34.1993 276.715 34.1993 277.277 34.8569C277.611 35.2495 277.714 35.8324 277.586 36.6379ZM295.934 36.5644H292.877C292.616 36.5644 292.391 36.7551 292.351 37.0141L292.216 37.8698L292.002 37.5598C291.34 36.5981 289.865 36.2769 288.391 36.2769C285.013 36.2769 282.127 38.8379 281.565 42.4306C281.273 44.2224 281.688 45.9359 282.704 47.131C283.636 48.2297 284.969 48.6876 286.555 48.6876C289.277 48.6876 290.787 46.9355 290.787 46.9355L290.65 47.786C290.599 48.1112 290.849 48.4026 291.175 48.4026H293.929C294.367 48.4026 294.736 48.0848 294.805 47.6524L296.458 37.1793C296.51 36.8571 296.261 36.5644 295.934 36.5644ZM291.672 42.5201C291.377 44.2682 289.991 45.4417 288.223 45.4417C287.336 45.4417 286.626 45.1567 286.17 44.6167C285.719 44.0805 285.547 43.3169 285.69 42.4669C285.966 40.7335 287.376 39.5219 289.117 39.5219C289.985 39.5219 290.691 39.8103 291.155 40.3551C291.621 40.9055 291.806 41.6734 291.672 42.5201ZM309.145 36.564H312.217C312.647 36.564 312.898 37.047 312.654 37.4002L302.436 52.1626C302.27 52.4017 301.997 52.544 301.706 52.544H298.638C298.206 52.544 297.953 52.0571 298.204 51.703L301.385 47.2079L298.001 37.2683C297.884 36.9229 298.139 36.564 298.506 36.564H301.525C301.918 36.564 302.264 36.8217 302.377 37.1974L304.173 43.2006L308.41 36.9536C308.576 36.7097 308.852 36.564 309.145 36.564Z" fill="white"/>
<path fill-rule="evenodd" clip-rule="evenodd" d="M342.456 47.7871L345.077 31.1019C345.117 30.8429 345.341 30.6522 345.602 30.6514H348.551C348.877 30.6514 349.127 30.9437 349.076 31.2671L346.492 47.6518C346.424 48.0842 346.053 48.402 345.615 48.402H342.981C342.655 48.402 342.405 48.1105 342.456 47.7871ZM322.39 30.6522H316.005C315.569 30.6522 315.197 30.97 315.129 31.4016L312.547 47.7871C312.495 48.1105 312.745 48.402 313.072 48.402H316.348C316.653 48.402 316.913 48.1797 316.961 47.8771L317.693 43.2324C317.761 42.7996 318.133 42.4822 318.569 42.4822H320.589C324.796 42.4822 327.222 40.4453 327.857 36.409C328.143 34.6431 327.868 33.2556 327.042 32.2836C326.135 31.2169 324.527 30.6522 322.39 30.6522ZM323.127 36.6368C322.778 38.9298 321.028 38.9298 319.334 38.9298H318.372L319.049 34.6474C319.089 34.3889 319.311 34.1982 319.573 34.1982H320.015C321.167 34.1982 322.256 34.1982 322.817 34.8559C323.153 35.2485 323.255 35.8313 323.127 36.6368ZM341.473 36.5633H338.418C338.155 36.5633 337.932 36.754 337.893 37.013L337.758 37.8687L337.543 37.5587C336.881 36.5971 335.406 36.2758 333.933 36.2758C330.554 36.2758 327.67 38.8368 327.108 42.4295C326.816 44.2213 327.23 45.9348 328.246 47.1299C329.179 48.2286 330.511 48.6865 332.096 48.6865C334.819 48.6865 336.328 46.9345 336.328 46.9345L336.192 47.785C336.141 48.1101 336.391 48.4015 336.719 48.4015H339.471C339.907 48.4015 340.279 48.0837 340.347 47.6513L342 37.1782C342.051 36.8561 341.801 36.5633 341.473 36.5633ZM337.211 42.519C336.918 44.2671 335.53 45.4406 333.762 45.4406C332.876 45.4406 332.165 45.1556 331.709 44.6156C331.257 44.0794 331.087 43.3159 331.229 42.4658C331.506 40.7324 332.914 39.5208 334.655 39.5208C335.524 39.5208 336.229 39.8092 336.694 40.354C337.162 40.9044 337.347 41.6724 337.211 42.519Z" fill="#179BD7"/>
<path fill-rule="evenodd" clip-rule="evenodd" d="M309.5 176.091C307.117 178.149 304.026 179.392 300.648 179.392C293.11 179.392 287 173.205 287 165.574C287 157.942 293.11 151.756 300.648 151.756C304.026 151.756 307.117 152.998 309.5 155.057C311.883 152.998 314.974 151.756 318.352 151.756C325.89 151.756 332 157.942 332 165.574C332 173.205 325.89 179.392 318.352 179.392C314.974 179.392 311.883 178.149 309.5 176.091Z" fill="#ED0006"/>
<path fill-rule="evenodd" clip-rule="evenodd" d="M309.5 176.091C312.434 173.556 314.295 169.785 314.295 165.574C314.295 161.362 312.434 157.591 309.5 155.057C311.883 152.998 314.974 151.756 318.352 151.756C325.89 151.756 332 157.942 332 165.574C332 173.205 325.89 179.392 318.352 179.392C314.974 179.392 311.883 178.149 309.5 176.091Z" fill="#F9A000"/>
<path fill-rule="evenodd" clip-rule="evenodd" d="M309.5 176.09C312.434 173.556 314.295 169.785 314.295 165.574C314.295 161.362 312.434 157.591 309.5 155.057C306.566 157.591 304.705 161.362 304.705 165.574C304.705 169.785 306.566 173.556 309.5 176.09Z" fill="#FF5E00"/>
<path opacity="0.6" d="M40.7356 137.396V128.996H43.6336C44.0496 128.996 44.4276 129.082 44.7676 129.254C45.1116 129.422 45.3836 129.668 45.5836 129.992C45.7836 130.316 45.8836 130.704 45.8836 131.156C45.8836 131.4 45.8416 131.636 45.7576 131.864C45.6776 132.088 45.5656 132.282 45.4216 132.446C45.2816 132.606 45.1216 132.714 44.9416 132.77C45.1936 132.834 45.4076 132.948 45.5836 133.112C45.7596 133.272 45.9016 133.46 46.0096 133.676C46.1216 133.892 46.2016 134.118 46.2496 134.354C46.2976 134.59 46.3216 134.818 46.3216 135.038C46.3216 135.502 46.2156 135.912 46.0036 136.268C45.7956 136.62 45.5156 136.896 45.1636 137.096C44.8116 137.296 44.4236 137.396 43.9996 137.396H40.7356ZM41.7436 136.508H43.9096C44.1856 136.508 44.4356 136.438 44.6596 136.298C44.8876 136.154 45.0696 135.958 45.2056 135.71C45.3416 135.462 45.4096 135.182 45.4096 134.87C45.4096 134.594 45.3416 134.334 45.2056 134.09C45.0696 133.842 44.8876 133.642 44.6596 133.49C44.4356 133.338 44.1856 133.262 43.9096 133.262H41.7436V136.508ZM41.7436 132.392H43.5376C43.9056 132.392 44.2196 132.284 44.4796 132.068C44.7436 131.848 44.8756 131.542 44.8756 131.15C44.8756 130.726 44.7436 130.41 44.4796 130.202C44.2196 129.99 43.9056 129.884 43.5376 129.884H41.7436V132.392ZM52.487 131.396H53.495V137.396H52.487L52.445 136.382C52.257 136.73 51.997 137.012 51.665 137.228C51.337 137.444 50.945 137.552 50.489 137.552C50.049 137.552 49.637 137.47 49.253 137.306C48.869 137.138 48.529 136.908 48.233 136.616C47.941 136.32 47.713 135.98 47.549 135.596C47.385 135.212 47.303 134.798 47.303 134.354C47.303 133.926 47.383 133.522 47.543 133.142C47.703 132.762 47.925 132.43 48.209 132.146C48.497 131.858 48.829 131.634 49.205 131.474C49.581 131.31 49.985 131.228 50.417 131.228C50.889 131.228 51.303 131.34 51.659 131.564C52.015 131.784 52.303 132.07 52.523 132.422L52.487 131.396ZM50.471 136.574C50.867 136.574 51.209 136.478 51.497 136.286C51.789 136.09 52.013 135.826 52.169 135.494C52.329 135.162 52.409 134.796 52.409 134.396C52.409 133.988 52.329 133.62 52.169 133.292C52.009 132.96 51.783 132.698 51.491 132.506C51.203 132.31 50.863 132.212 50.471 132.212C50.075 132.212 49.715 132.31 49.391 132.506C49.067 132.702 48.809 132.966 48.617 133.298C48.429 133.626 48.335 133.992 48.335 134.396C48.335 134.8 48.433 135.168 48.629 135.5C48.825 135.828 49.085 136.09 49.409 136.286C49.733 136.478 50.087 136.574 50.471 136.574ZM55.1645 137.396V128.396H56.1725V137.396H55.1645ZM62.7792 131.396H63.7872V137.396H62.7792L62.7372 136.382C62.5492 136.73 62.2892 137.012 61.9572 137.228C61.6292 137.444 61.2372 137.552 60.7812 137.552C60.3412 137.552 59.9292 137.47 59.5452 137.306C59.1612 137.138 58.8212 136.908 58.5252 136.616C58.2332 136.32 58.0052 135.98 57.8412 135.596C57.6772 135.212 57.5952 134.798 57.5952 134.354C57.5952 133.926 57.6752 133.522 57.8352 133.142C57.9952 132.762 58.2172 132.43 58.5012 132.146C58.7892 131.858 59.1212 131.634 59.4972 131.474C59.8732 131.31 60.2772 131.228 60.7092 131.228C61.1812 131.228 61.5952 131.34 61.9512 131.564C62.3072 131.784 62.5952 132.07 62.8152 132.422L62.7792 131.396ZM60.7632 136.574C61.1592 136.574 61.5012 136.478 61.7892 136.286C62.0812 136.09 62.3052 135.826 62.4612 135.494C62.6212 135.162 62.7012 134.796 62.7012 134.396C62.7012 133.988 62.6212 133.62 62.4612 133.292C62.3012 132.96 62.0752 132.698 61.7832 132.506C61.4952 132.31 61.1552 132.212 60.7632 132.212C60.3672 132.212 60.0072 132.31 59.6832 132.506C59.3592 132.702 59.1012 132.966 58.9092 133.298C58.7212 133.626 58.6272 133.992 58.6272 134.396C58.6272 134.8 58.7252 135.168 58.9212 135.5C59.1172 135.828 59.3772 136.09 59.7012 136.286C60.0252 136.478 60.3792 136.574 60.7632 136.574ZM70.6904 133.664V137.396H69.6824V133.886C69.6824 133.582 69.6084 133.306 69.4604 133.058C69.3124 132.81 69.1144 132.614 68.8664 132.47C68.6184 132.322 68.3424 132.248 68.0384 132.248C67.7384 132.248 67.4624 132.322 67.2104 132.47C66.9624 132.614 66.7644 132.81 66.6164 133.058C66.4684 133.306 66.3944 133.582 66.3944 133.886V137.396H65.3864V131.396H66.3944V132.146C66.6064 131.866 66.8744 131.644 67.1984 131.48C67.5224 131.312 67.8744 131.228 68.2544 131.228C68.7024 131.228 69.1104 131.338 69.4784 131.558C69.8504 131.774 70.1444 132.066 70.3604 132.434C70.5804 132.802 70.6904 133.212 70.6904 133.664ZM76.3071 135.812L77.2071 136.298C76.9351 136.678 76.5891 136.982 76.1691 137.21C75.7531 137.438 75.3011 137.552 74.8131 137.552C74.2611 137.552 73.7571 137.41 73.3011 137.126C72.8491 136.842 72.4871 136.462 72.2151 135.986C71.9471 135.506 71.8131 134.976 71.8131 134.396C71.8131 133.956 71.8911 133.546 72.0471 133.166C72.2031 132.782 72.4171 132.446 72.6891 132.158C72.9651 131.866 73.2851 131.638 73.6491 131.474C74.0131 131.31 74.4011 131.228 74.8131 131.228C75.3011 131.228 75.7531 131.342 76.1691 131.57C76.5891 131.798 76.9351 132.104 77.2071 132.488L76.3071 132.974C76.1151 132.738 75.8871 132.556 75.6231 132.428C75.3591 132.3 75.0891 132.236 74.8131 132.236C74.4411 132.236 74.1031 132.336 73.7991 132.536C73.4991 132.732 73.2611 132.994 73.0851 133.322C72.9091 133.65 72.8211 134.008 72.8211 134.396C72.8211 134.784 72.9091 135.142 73.0851 135.47C73.2651 135.794 73.5051 136.054 73.8051 136.25C74.1091 136.446 74.4451 136.544 74.8131 136.544C75.1091 136.544 75.3871 136.476 75.6471 136.34C75.9071 136.204 76.1271 136.028 76.3071 135.812ZM81.2248 137.552C80.6728 137.552 80.1688 137.41 79.7128 137.126C79.2608 136.842 78.8988 136.462 78.6268 135.986C78.3588 135.506 78.2248 134.976 78.2248 134.396C78.2248 133.956 78.3028 133.546 78.4588 133.166C78.6148 132.782 78.8288 132.446 79.1008 132.158C79.3768 131.866 79.6968 131.638 80.0608 131.474C80.4248 131.31 80.8128 131.228 81.2248 131.228C81.6768 131.228 82.0908 131.32 82.4668 131.504C82.8468 131.684 83.1708 131.936 83.4388 132.26C83.7108 132.584 83.9128 132.96 84.0448 133.388C84.1808 133.816 84.2308 134.274 84.1948 134.762H79.2988C79.3468 135.102 79.4588 135.406 79.6348 135.674C79.8108 135.938 80.0348 136.148 80.3068 136.304C80.5828 136.46 80.8888 136.54 81.2248 136.544C81.5848 136.544 81.9108 136.452 82.2028 136.268C82.4948 136.08 82.7308 135.824 82.9108 135.5L83.9368 135.74C83.6968 136.272 83.3348 136.708 82.8508 137.048C82.3668 137.384 81.8248 137.552 81.2248 137.552ZM79.2688 133.97H83.1808C83.1488 133.634 83.0408 133.328 82.8568 133.052C82.6728 132.772 82.4388 132.548 82.1548 132.38C81.8708 132.212 81.5608 132.128 81.2248 132.128C80.8888 132.128 80.5808 132.21 80.3008 132.374C80.0208 132.538 79.7888 132.76 79.6048 133.04C79.4248 133.316 79.3128 133.626 79.2688 133.97Z" fill="white"/>
<path d="M47.2636 164.149C46.6956 164.141 46.1556 164.233 45.6436 164.425C45.1396 164.609 44.7276 164.861 44.4076 165.181C44.0876 165.501 43.9276 165.869 43.9276 166.285C43.9276 166.821 44.0756 167.225 44.3716 167.497C44.6756 167.769 45.0796 167.969 45.5836 168.097C46.0876 168.217 46.6476 168.329 47.2636 168.433C48.3836 168.609 49.4196 168.905 50.3716 169.321C51.3236 169.737 52.0876 170.293 52.6636 170.989C53.2396 171.677 53.5276 172.521 53.5276 173.521C53.5276 174.433 53.2916 175.245 52.8196 175.957C52.3476 176.661 51.7116 177.237 50.9116 177.685C50.1196 178.133 49.2396 178.417 48.2716 178.537V180.985H46.2676V178.537C45.4596 178.441 44.6996 178.237 43.9876 177.925C43.2756 177.613 42.6556 177.205 42.1276 176.701C41.6076 176.197 41.2236 175.609 40.9756 174.937L43.7236 173.929C43.8356 174.249 44.0636 174.541 44.4076 174.805C44.7516 175.069 45.1716 175.281 45.6676 175.441C46.1636 175.601 46.6956 175.681 47.2636 175.681C47.8476 175.681 48.3916 175.593 48.8956 175.417C49.4076 175.233 49.8196 174.981 50.1316 174.661C50.4436 174.333 50.5996 173.953 50.5996 173.521C50.5996 173.081 50.4356 172.721 50.1076 172.441C49.7796 172.153 49.3596 171.925 48.8476 171.757C48.3356 171.589 47.8076 171.461 47.2636 171.373C46.0716 171.189 45.0036 170.905 44.0596 170.521C43.1156 170.137 42.3676 169.605 41.8156 168.925C41.2716 168.245 40.9996 167.365 40.9996 166.285C40.9996 165.373 41.2356 164.561 41.7076 163.849C42.1876 163.137 42.8236 162.561 43.6156 162.121C44.4156 161.673 45.2996 161.389 46.2676 161.269V158.809H48.2716V161.269C49.0636 161.365 49.8156 161.569 50.5276 161.881C51.2396 162.193 51.8596 162.605 52.3876 163.117C52.9236 163.621 53.3156 164.213 53.5636 164.893L50.8036 165.889C50.6916 165.569 50.4636 165.277 50.1196 165.013C49.7756 164.749 49.3556 164.541 48.8596 164.389C48.3636 164.229 47.8316 164.149 47.2636 164.149ZM55.4834 178.297V175.681C56.0034 175.289 56.6194 174.805 57.3314 174.229C58.0434 173.645 58.7754 173.017 59.5274 172.345C60.2794 171.665 60.9754 170.985 61.6154 170.305C62.2554 169.625 62.7754 168.977 63.1754 168.361C63.5834 167.745 63.7874 167.217 63.7874 166.777C63.7874 166.289 63.6674 165.845 63.4274 165.445C63.1874 165.037 62.8674 164.713 62.4674 164.473C62.0754 164.233 61.6354 164.113 61.1474 164.113C60.6594 164.113 60.2154 164.233 59.8154 164.473C59.4154 164.713 59.0954 165.037 58.8554 165.445C58.6154 165.845 58.4954 166.289 58.4954 166.777H55.5674C55.5674 165.721 55.8234 164.773 56.3354 163.933C56.8474 163.085 57.5234 162.417 58.3634 161.929C59.2114 161.433 60.1394 161.185 61.1474 161.185C62.1714 161.185 63.1034 161.437 63.9434 161.941C64.7834 162.437 65.4554 163.109 65.9594 163.957C66.4634 164.805 66.7154 165.745 66.7154 166.777C66.7154 167.321 66.6154 167.869 66.4154 168.421C66.2154 168.973 65.9354 169.529 65.5754 170.089C65.2154 170.649 64.7914 171.217 64.3034 171.793C63.8154 172.361 63.2754 172.945 62.6834 173.545C62.0994 174.137 61.4834 174.745 60.8354 175.369H66.7994V178.297H55.4834ZM75.6198 178.297V174.229H68.4678V171.289L74.9358 161.497H78.5478V171.301H79.9638V174.229H78.5478V178.297H75.6198ZM71.8638 171.289L75.6198 171.301L75.6078 165.493L71.8638 171.289ZM82.3663 179.641L83.1103 175.585H86.0383L84.3223 179.641H82.3663ZM94.7366 178.609C93.7606 178.609 92.8726 178.385 92.0726 177.937C91.2726 177.481 90.5806 176.853 89.9966 176.053C89.4206 175.253 88.9766 174.329 88.6646 173.281C88.3526 172.225 88.1966 171.097 88.1966 169.897C88.1966 168.697 88.3526 167.573 88.6646 166.525C88.9766 165.469 89.4206 164.541 89.9966 163.741C90.5806 162.941 91.2726 162.317 92.0726 161.869C92.8726 161.413 93.7606 161.185 94.7366 161.185C95.7126 161.185 96.6006 161.413 97.4006 161.869C98.2006 162.317 98.8846 162.941 99.4526 163.741C100.029 164.541 100.473 165.469 100.785 166.525C101.105 167.573 101.265 168.697 101.265 169.897C101.265 171.097 101.105 172.225 100.785 173.281C100.473 174.329 100.029 175.253 99.4526 176.053C98.8846 176.853 98.2006 177.481 97.4006 177.937C96.6006 178.385 95.7126 178.609 94.7366 178.609ZM94.7366 175.681C95.5926 175.681 96.3006 175.409 96.8606 174.865C97.4206 174.321 97.8366 173.609 98.1086 172.729C98.3806 171.849 98.5166 170.905 98.5166 169.897C98.5166 168.833 98.3726 167.865 98.0846 166.993C97.7966 166.113 97.3726 165.413 96.8126 164.893C96.2526 164.373 95.5606 164.113 94.7366 164.113C94.0886 164.113 93.5246 164.273 93.0446 164.593C92.5726 164.905 92.1806 165.333 91.8686 165.877C91.5566 166.421 91.3246 167.041 91.1726 167.737C91.0206 168.425 90.9446 169.145 90.9446 169.897C90.9446 170.897 91.0806 171.841 91.3526 172.729C91.6326 173.609 92.0526 174.321 92.6126 174.865C93.1806 175.409 93.8886 175.681 94.7366 175.681ZM105.464 178.297L108.692 172.717C107.9 172.765 107.144 172.657 106.424 172.393C105.712 172.129 105.076 171.737 104.516 171.217C103.956 170.697 103.512 170.081 103.184 169.369C102.864 168.657 102.704 167.885 102.704 167.053C102.704 166.245 102.856 165.489 103.16 164.785C103.464 164.073 103.884 163.449 104.42 162.913C104.964 162.369 105.588 161.945 106.292 161.641C107.004 161.337 107.768 161.185 108.584 161.185C109.648 161.185 110.62 161.449 111.5 161.977C112.388 162.505 113.096 163.213 113.624 164.101C114.16 164.989 114.428 165.973 114.428 167.053C114.428 167.589 114.36 168.097 114.224 168.577C114.096 169.049 113.892 169.529 113.612 170.017L108.848 178.297H105.464ZM108.56 169.993C109.136 169.993 109.644 169.853 110.084 169.573C110.532 169.293 110.88 168.929 111.128 168.481C111.376 168.033 111.5 167.553 111.5 167.041C111.5 166.481 111.364 165.981 111.092 165.541C110.82 165.093 110.46 164.745 110.012 164.497C109.564 164.241 109.088 164.113 108.584 164.113C108.008 164.113 107.496 164.253 107.048 164.533C106.608 164.805 106.26 165.165 106.004 165.613C105.748 166.061 105.62 166.537 105.62 167.041C105.62 167.577 105.748 168.069 106.004 168.517C106.268 168.965 106.62 169.325 107.06 169.597C107.508 169.861 108.008 169.993 108.56 169.993ZM121.684 178.609C120.652 178.609 119.716 178.373 118.876 177.901C118.036 177.429 117.364 176.797 116.86 176.005C116.364 175.205 116.116 174.317 116.116 173.341C116.116 172.573 116.288 171.853 116.632 171.181C116.984 170.501 117.456 169.929 118.048 169.465C117.584 169.041 117.204 168.541 116.908 167.965C116.62 167.381 116.476 166.757 116.476 166.093C116.476 165.189 116.712 164.365 117.184 163.621C117.656 162.877 118.284 162.285 119.068 161.845C119.86 161.405 120.732 161.185 121.684 161.185C122.644 161.185 123.516 161.405 124.3 161.845C125.084 162.285 125.712 162.877 126.184 163.621C126.656 164.365 126.892 165.189 126.892 166.093C126.892 166.757 126.748 167.381 126.46 167.965C126.18 168.541 125.8 169.041 125.32 169.465C125.928 169.929 126.404 170.501 126.748 171.181C127.1 171.853 127.276 172.573 127.276 173.341C127.276 174.309 127.024 175.193 126.52 175.993C126.024 176.785 125.352 177.421 124.504 177.901C123.656 178.373 122.716 178.609 121.684 178.609ZM121.684 175.681C122.148 175.681 122.568 175.577 122.944 175.369C123.32 175.153 123.62 174.869 123.844 174.517C124.068 174.165 124.18 173.773 124.18 173.341C124.18 172.909 124.068 172.517 123.844 172.165C123.62 171.813 123.32 171.533 122.944 171.325C122.568 171.109 122.148 171.001 121.684 171.001C121.228 171.001 120.812 171.109 120.436 171.325C120.06 171.533 119.756 171.813 119.524 172.165C119.3 172.517 119.188 172.909 119.188 173.341C119.188 173.773 119.3 174.165 119.524 174.517C119.756 174.869 120.06 175.153 120.436 175.369C120.812 175.577 121.228 175.681 121.684 175.681ZM121.684 168.073C122.076 168.073 122.432 167.985 122.752 167.809C123.072 167.625 123.324 167.385 123.508 167.089C123.7 166.793 123.796 166.461 123.796 166.093C123.796 165.725 123.7 165.393 123.508 165.097C123.324 164.801 123.072 164.565 122.752 164.389C122.432 164.205 122.076 164.113 121.684 164.113C121.3 164.113 120.948 164.205 120.628 164.389C120.308 164.565 120.052 164.801 119.86 165.097C119.668 165.393 119.572 165.725 119.572 166.093C119.572 166.461 119.668 166.793 119.86 167.089C120.052 167.385 120.308 167.625 120.628 167.809C120.948 167.985 121.3 168.073 121.684 168.073ZM130.694 178.609C130.278 178.609 129.922 178.465 129.626 178.177C129.338 177.881 129.194 177.521 129.194 177.097C129.194 176.689 129.338 176.337 129.626 176.041C129.922 175.745 130.278 175.597 130.694 175.597C131.11 175.597 131.466 175.745 131.762 176.041C132.058 176.337 132.206 176.689 132.206 177.097C132.206 177.521 132.058 177.881 131.762 178.177C131.466 178.465 131.11 178.609 130.694 178.609ZM140.908 178.609C139.932 178.609 139.044 178.385 138.244 177.937C137.444 177.481 136.752 176.853 136.168 176.053C135.592 175.253 135.148 174.329 134.836 173.281C134.524 172.225 134.368 171.097 134.368 169.897C134.368 168.697 134.524 167.573 134.836 166.525C135.148 165.469 135.592 164.541 136.168 163.741C136.752 162.941 137.444 162.317 138.244 161.869C139.044 161.413 139.932 161.185 140.908 161.185C141.884 161.185 142.772 161.413 143.572 161.869C144.372 162.317 145.056 162.941 145.624 163.741C146.2 164.541 146.644 165.469 146.956 166.525C147.276 167.573 147.436 168.697 147.436 169.897C147.436 171.097 147.276 172.225 146.956 173.281C146.644 174.329 146.2 175.253 145.624 176.053C145.056 176.853 144.372 177.481 143.572 177.937C142.772 178.385 141.884 178.609 140.908 178.609ZM140.908 175.681C141.764 175.681 142.472 175.409 143.032 174.865C143.592 174.321 144.008 173.609 144.28 172.729C144.552 171.849 144.688 170.905 144.688 169.897C144.688 168.833 144.544 167.865 144.256 166.993C143.968 166.113 143.544 165.413 142.984 164.893C142.424 164.373 141.732 164.113 140.908 164.113C140.26 164.113 139.696 164.273 139.216 164.593C138.744 164.905 138.352 165.333 138.04 165.877C137.728 166.421 137.496 167.041 137.344 167.737C137.192 168.425 137.116 169.145 137.116 169.897C137.116 170.897 137.252 171.841 137.524 172.729C137.804 173.609 138.224 174.321 138.784 174.865C139.352 175.409 140.06 175.681 140.908 175.681ZM154.854 178.609C153.878 178.609 152.99 178.385 152.19 177.937C151.39 177.481 150.698 176.853 150.114 176.053C149.538 175.253 149.094 174.329 148.782 173.281C148.47 172.225 148.314 171.097 148.314 169.897C148.314 168.697 148.47 167.573 148.782 166.525C149.094 165.469 149.538 164.541 150.114 163.741C150.698 162.941 151.39 162.317 152.19 161.869C152.99 161.413 153.878 161.185 154.854 161.185C155.83 161.185 156.718 161.413 157.518 161.869C158.318 162.317 159.002 162.941 159.57 163.741C160.146 164.541 160.59 165.469 160.902 166.525C161.222 167.573 161.382 168.697 161.382 169.897C161.382 171.097 161.222 172.225 160.902 173.281C160.59 174.329 160.146 175.253 159.57 176.053C159.002 176.853 158.318 177.481 157.518 177.937C156.718 178.385 155.83 178.609 154.854 178.609ZM154.854 175.681C155.71 175.681 156.418 175.409 156.978 174.865C157.538 174.321 157.954 173.609 158.226 172.729C158.498 171.849 158.634 170.905 158.634 169.897C158.634 168.833 158.49 167.865 158.202 166.993C157.914 166.113 157.49 165.413 156.93 164.893C156.37 164.373 155.678 164.113 154.854 164.113C154.206 164.113 153.642 164.273 153.162 164.593C152.69 164.905 152.298 165.333 151.986 165.877C151.674 166.421 151.442 167.041 151.29 167.737C151.138 168.425 151.062 169.145 151.062 169.897C151.062 170.897 151.198 171.841 151.47 172.729C151.75 173.609 152.17 174.321 152.73 174.865C153.298 175.409 154.006 175.681 154.854 175.681Z" fill="white"/>
<g opacity="0.6" clip-path="url(#clip0_1644_22769)">
<path d="M111.154 134.882C111.973 134.882 112.636 134.219 112.636 133.4C112.636 132.582 111.973 131.918 111.154 131.918C110.336 131.918 109.672 132.582 109.672 133.4C109.672 134.219 110.336 134.882 111.154 134.882Z" stroke="white" stroke-width="1.5" stroke-linecap="round" stroke-linejoin="round"/>
<path d="M118.564 133.4C116.588 136.858 114.118 138.587 111.154 138.587C108.19 138.587 105.72 136.858 103.744 133.4C105.72 129.942 108.19 128.213 111.154 128.213C114.118 128.213 116.588 129.942 118.564 133.4Z" stroke="white" stroke-width="1.5" stroke-linecap="round" stroke-linejoin="round"/>
</g>
<defs>
<linearGradient id="paint0_linear_1644_22769" x1="0.168755" y1="0.108399" x2="338.829" y2="271.246" gradientUnits="userSpaceOnUse">
<stop stop-color="#0096D8"/>
<stop offset="1" stop-color="#003087"/>
</linearGradient>
<linearGradient id="paint1_linear_1644_22769" x1="38.9043" y1="35.1289" x2="74.4962" y2="62.3554" gradientUnits="userSpaceOnUse">
<stop stop-color="#E6AC3C"/>
<stop offset="1" stop-color="#FFDA93"/>
</linearGradient>
<clipPath id="clip0_1644_22769">
<rect width="17.7846" height="17.7846" fill="white" transform="translate(102.262 124.508)"/>
</clipPath>
</defs>
</svg>
