<svg width="40" height="40" viewBox="0 0 40 40" fill="none" xmlns="http://www.w3.org/2000/svg">
<rect width="40" height="40" rx="20" fill="#F7FAFC"/>
<g clip-path="url(#clip0_1687_21529)">
<path d="M13.1585 15.8711C13.1927 16.6591 13.8641 19.666 13.8641 19.666C14.1108 20.275 14.3232 19.666 14.3232 19.666C15.1353 17.1957 13.4756 15.7642 13.4756 15.7642C13.0519 15.5131 13.1585 15.8711 13.1585 15.8711ZM22.7954 15.4418C22.7954 15.4418 23.608 16.0146 22.7954 16.1219C22.7954 16.1219 19.7593 16.4798 17.5001 18.6284C17.5001 18.6284 14.1108 21.6348 12.8402 24.9287C12.8402 24.9287 12.4165 24.9287 12.5583 24.2846C12.6994 23.6402 13.5462 20.8117 17.3231 17.3396C17.3231 17.3396 20.9603 13.974 22.7954 15.4418Z" fill="#FF4600"/>
<path d="M7.34983 20.2078C7.48395 20.2365 7.60439 20.2505 7.78121 20.2505C8.4737 20.2505 8.94029 19.7988 8.94029 19.2251C8.94029 18.709 8.5799 18.5228 8.11368 18.5228C7.90821 18.5228 7.75274 18.5373 7.65384 18.5656L7.34983 20.2078ZM6.96097 17.9706C7.25093 17.8986 7.68231 17.8559 8.10638 17.8559C8.55199 17.8559 9.01858 17.9488 9.32952 18.2001C9.60524 18.4151 9.76783 18.7301 9.76783 19.1609C9.76783 19.7342 9.49903 20.2008 9.15963 20.473C8.77808 20.7813 8.23319 20.9319 7.6677 20.9319C7.49781 20.9319 7.34983 20.9101 7.22246 20.896L6.87594 22.7246H6.07031L6.96097 17.9706Z" fill="black"/>
<path d="M11.9516 19.8345C11.8669 19.8127 11.7611 19.7988 11.6126 19.7988C10.856 19.7988 10.2621 20.6667 10.2621 21.4627C10.2621 21.8278 10.3964 22.1292 10.7571 22.1292C11.1456 22.1292 11.6126 21.642 11.7752 20.7526L11.9516 19.8345ZM11.6195 22.7246C11.6195 22.5162 11.6476 22.2369 11.6763 21.9425H11.662C11.3228 22.5812 10.863 22.8032 10.4247 22.8032C9.80972 22.8032 9.40625 22.3156 9.40625 21.6131C9.40625 20.4228 10.2265 19.1535 11.8315 19.1535C12.2062 19.1535 12.6093 19.2251 12.8781 19.3112L12.5175 21.1325C12.4182 21.6486 12.3618 22.3086 12.3761 22.7246H11.6195Z" fill="black"/>
<path d="M17.5571 21.3407C17.5571 21.8206 17.8046 22.1585 18.2288 22.1585C18.844 22.1585 19.2542 21.2976 19.2542 20.6021C19.2542 20.2433 19.0912 19.7988 18.5967 19.7988C17.9391 19.7988 17.5571 20.6882 17.5571 21.3407ZM20.1025 20.5953C20.1025 21.7852 19.2892 22.8032 18.1159 22.8032C17.2458 22.8032 16.709 22.1938 16.709 21.3618C16.709 20.1791 17.5219 19.1537 18.6956 19.1537C19.6217 19.1537 20.1025 19.8277 20.1025 20.5953Z" fill="black"/>
<path d="M20.2578 22.7246L20.7034 20.3151C20.7881 19.8991 20.8375 19.5334 20.8801 19.2325H21.6158L21.5379 19.8564H21.5518C21.8696 19.39 22.3083 19.1535 22.7891 19.1535C23.2838 19.1535 23.6657 19.455 23.6657 20.1145C23.6657 20.272 23.638 20.5157 23.6024 20.688L23.2271 22.7246H22.3999L22.7672 20.7526C22.7891 20.6236 22.8101 20.473 22.8101 20.3366C22.8101 20.0425 22.7041 19.8345 22.3789 19.8345C22.0043 19.8345 21.5233 20.2933 21.3749 21.1113L21.078 22.7246H20.2578Z" fill="black"/>
<path d="M25.8565 19.7773C25.3401 19.7773 25.0011 20.2433 24.9022 20.6667C25.7503 20.6738 26.2952 20.559 26.2952 20.1362C26.2952 19.9139 26.1184 19.7773 25.8565 19.7773ZM26.6414 22.5236C26.3018 22.7027 25.8427 22.8032 25.4252 22.8032C24.4716 22.8032 24.0117 22.2085 24.0117 21.355C24.0117 20.3009 24.7748 19.1537 25.9627 19.1537C26.6414 19.1537 27.0728 19.5478 27.0728 20.1362C27.0728 21.0322 26.1469 21.3189 24.8177 21.2904C24.8033 21.4121 24.8316 21.6486 24.9095 21.785C25.044 22.0219 25.2907 22.1437 25.6164 22.1437C26.0056 22.1437 26.3162 22.0432 26.5644 21.9142L26.6414 22.5236Z" fill="black"/>
<path d="M29.0587 19.7773C28.5428 19.7773 28.2032 20.2433 28.1043 20.6667C28.9525 20.6738 29.4974 20.559 29.4974 20.1362C29.4974 19.9139 29.3205 19.7773 29.0587 19.7773ZM29.8435 22.5236C29.5045 22.7027 29.0448 22.8032 28.6281 22.8032C27.6737 22.8032 27.2139 22.2085 27.2139 21.355C27.2139 20.3009 27.977 19.1537 29.1649 19.1537C29.8435 19.1537 30.2756 19.5478 30.2756 20.1362C30.2756 21.0322 29.349 21.3189 28.0199 21.2904C28.0053 21.4121 28.0337 21.6486 28.1116 21.785C28.2461 22.0219 28.4934 22.1437 28.8186 22.1437C29.2078 22.1437 29.5183 22.0432 29.7665 21.9142L29.8435 22.5236Z" fill="black"/>
<path d="M30.3242 22.7246L30.7271 20.5733C30.8189 20.0786 30.8684 19.5409 30.9032 19.2325H31.6176C31.5964 19.469 31.5755 19.7128 31.5399 19.9641H31.5608C31.7952 19.4977 32.169 19.1535 32.636 19.1535C32.7001 19.1535 32.7634 19.1609 32.8201 19.1609L32.6572 19.9783C32.6148 19.9709 32.5583 19.9709 32.5015 19.9709C31.9143 19.9709 31.5399 20.5733 31.4059 21.3189L31.1441 22.7246H30.3242Z" fill="black"/>
<path d="M33.4457 19.5522H33.506C33.5678 19.5522 33.6087 19.5173 33.6087 19.4645C33.6087 19.405 33.5658 19.379 33.504 19.379C33.4755 19.379 33.4553 19.3811 33.4457 19.3834V19.5522ZM33.3867 19.3416C33.4167 19.3361 33.4596 19.3321 33.4995 19.3321C33.562 19.3321 33.6036 19.345 33.6312 19.3701C33.6538 19.3904 33.6669 19.4221 33.6669 19.4586C33.6669 19.5186 33.6297 19.5593 33.5817 19.5754V19.5777C33.6165 19.5898 33.637 19.6231 33.6486 19.671C33.6632 19.7348 33.6741 19.7798 33.6836 19.7979H33.6225C33.6152 19.7838 33.6049 19.7449 33.5933 19.6873C33.5795 19.6235 33.5542 19.5999 33.501 19.5976H33.4457V19.7979H33.3867V19.3416Z" fill="black"/>
<path d="M33.5226 19.1539C33.2979 19.1539 33.1152 19.3392 33.1152 19.5671C33.1152 19.7951 33.2979 19.9805 33.5226 19.9805C33.7474 19.9805 33.93 19.7951 33.93 19.5671C33.93 19.3392 33.7474 19.1539 33.5226 19.1539ZM33.5226 19.2178C33.7126 19.2178 33.8667 19.3737 33.8667 19.5671C33.8667 19.7603 33.7126 19.9168 33.5226 19.9168C33.3321 19.9168 33.1778 19.7603 33.1778 19.5671C33.1778 19.3737 33.3321 19.2178 33.5226 19.2178Z" fill="black"/>
</g>
<defs>
<clipPath id="clip0_1687_21529">
<rect width="28" height="10" fill="white" transform="translate(6 15)"/>
</clipPath>
</defs>
</svg>
