<svg width="28" height="10" viewBox="0 0 28 10" fill="none" xmlns="http://www.w3.org/2000/svg">
<path d="M7.15847 0.871147C7.19275 1.65911 7.86407 4.66601 7.86407 4.66601C8.11076 5.27503 8.32317 4.66601 8.32317 4.66601C9.13535 2.19575 7.47559 0.764199 7.47559 0.764199C7.05189 0.513069 7.15847 0.871147 7.15847 0.871147ZM16.7954 0.441834C16.7954 0.441834 17.608 1.01457 16.7954 1.1219C16.7954 1.1219 13.7593 1.47978 11.5001 3.62844C11.5001 3.62844 8.11076 6.63478 6.84023 9.92871C6.84023 9.92871 6.41653 9.92871 6.55833 9.28455C6.69937 8.6402 7.54621 5.81167 11.3231 2.33955C11.3231 2.33955 14.9603 -1.026 16.7954 0.441834" fill="#FF4600"/>
<path d="M1.34983 5.20781C1.48395 5.23649 1.60439 5.25055 1.78121 5.25055C2.4737 5.25055 2.94029 4.79882 2.94029 4.22513C2.94029 3.70901 2.5799 3.52285 2.11368 3.52285C1.90821 3.52285 1.75274 3.53728 1.65384 3.56559L1.34983 5.20781ZM0.960975 2.97063C1.25093 2.89863 1.68231 2.85589 2.10638 2.85589C2.55199 2.85589 3.01858 2.94878 3.32952 3.2001C3.60524 3.41514 3.76783 3.73009 3.76783 4.16093C3.76783 4.73423 3.49903 5.20078 3.15963 5.47299C2.77808 5.7813 2.23319 5.93194 1.6677 5.93194C1.49781 5.93194 1.34983 5.9101 1.22246 5.89604L0.875936 7.72461H0.0703125L0.960975 2.97063Z" fill="black"/>
<path d="M5.95161 4.8345C5.86695 4.81265 5.76112 4.79879 5.61258 4.79879C4.85603 4.79879 4.26207 5.66672 4.26207 6.46266C4.26207 6.82777 4.39637 7.12924 4.75713 7.12924C5.14562 7.12924 5.61258 6.64199 5.77517 5.75259L5.95161 4.8345ZM5.61951 7.72458C5.61951 7.51619 5.64761 7.23695 5.67627 6.94251H5.66203C5.32281 7.58116 4.86296 7.80322 4.42466 7.80322C3.80972 7.80322 3.40625 7.31559 3.40625 6.61311C3.40625 5.42281 4.22648 4.15349 5.83155 4.15349C6.20617 4.15349 6.60926 4.2251 6.87805 4.31116L6.51748 6.13251C6.41821 6.64863 6.36182 7.30856 6.37606 7.72458H5.61951Z" fill="black"/>
<path d="M11.5571 6.34071C11.5571 6.82055 11.8046 7.15849 12.2288 7.15849C12.844 7.15849 13.2542 6.29759 13.2542 5.60214C13.2542 5.2433 13.0912 4.79879 12.5967 4.79879C11.9391 4.79879 11.5571 5.68819 11.5571 6.34071ZM14.1025 5.5953C14.1025 6.78522 13.2892 7.80322 12.1159 7.80322C11.2458 7.80322 10.709 7.19383 10.709 6.36179C10.709 5.17909 11.5219 4.15368 12.6956 4.15368C13.6217 4.15368 14.1025 4.82766 14.1025 5.5953" fill="black"/>
<path d="M14.2578 7.72461L14.7034 5.31513C14.7881 4.89912 14.8375 4.53344 14.8801 4.23254H15.6158L15.5379 4.85638H15.5518C15.8696 4.39002 16.3083 4.15352 16.7891 4.15352C17.2838 4.15352 17.6657 4.45499 17.6657 5.11454C17.6657 5.27201 17.638 5.51573 17.6024 5.68803L17.2271 7.72461H16.3999L16.7672 5.75262C16.7891 5.62363 16.8101 5.47299 16.8101 5.3366C16.8101 5.04254 16.7041 4.83453 16.3789 4.83453C16.0043 4.83453 15.5233 5.29329 15.3749 6.11126L15.078 7.72461H14.2578Z" fill="black"/>
<path d="M19.8565 4.77732C19.3401 4.77732 19.0011 5.2433 18.9022 5.66672C19.7503 5.67375 20.2952 5.55901 20.2952 5.13616C20.2952 4.9139 20.1184 4.77732 19.8565 4.77732ZM20.6414 7.5236C20.3018 7.70273 19.8427 7.80322 19.4252 7.80322C18.4716 7.80322 18.0117 7.20845 18.0117 6.35495C18.0117 5.30086 18.7748 4.15368 19.9627 4.15368C20.6414 4.15368 21.0728 4.54785 21.0728 5.13616C21.0728 6.03221 20.1469 6.31886 18.8177 6.29037C18.8033 6.41213 18.8316 6.64864 18.9095 6.78503C19.044 7.02191 19.2907 7.14368 19.6164 7.14368C20.0056 7.14368 20.3162 7.04319 20.5644 6.9142L20.6414 7.5236Z" fill="black"/>
<path d="M23.0587 4.77732C22.5428 4.77732 22.2032 5.2433 22.1043 5.66672C22.9525 5.67375 23.4974 5.55901 23.4974 5.13616C23.4974 4.9139 23.3205 4.77732 23.0587 4.77732ZM23.8435 7.5236C23.5045 7.70273 23.0448 7.80322 22.6281 7.80322C21.6737 7.80322 21.2139 7.20845 21.2139 6.35495C21.2139 5.30086 21.977 4.15368 23.1649 4.15368C23.8435 4.15368 24.2756 4.54785 24.2756 5.13616C24.2756 6.03221 23.349 6.31886 22.0199 6.29037C22.0053 6.41213 22.0337 6.64864 22.1116 6.78503C22.2461 7.02191 22.4934 7.14368 22.8186 7.14368C23.2078 7.14368 23.5183 7.04319 23.7665 6.9142L23.8435 7.5236Z" fill="black"/>
<path d="M24.3242 7.72461L24.7271 5.57329C24.8189 5.07863 24.8684 4.54085 24.9032 4.23254H25.6176C25.5964 4.46905 25.5755 4.71277 25.5399 4.96409H25.5608C25.7952 4.49773 26.169 4.15352 26.636 4.15352C26.7001 4.15352 26.7634 4.16093 26.8201 4.16093L26.6572 4.97833C26.6148 4.97092 26.5583 4.97092 26.5015 4.97092C25.9143 4.97092 25.5399 5.57329 25.4059 6.31889L25.1441 7.72461H24.3242Z" fill="black"/>
<path d="M27.4457 4.55223H27.506C27.5678 4.55223 27.6087 4.51728 27.6087 4.46447C27.6087 4.40501 27.5658 4.37899 27.504 4.37899C27.4755 4.37899 27.4553 4.38108 27.4457 4.38336V4.55223ZM27.3867 4.34156C27.4167 4.33606 27.4596 4.33207 27.4995 4.33207C27.562 4.33207 27.6036 4.34498 27.6312 4.37006C27.6538 4.39038 27.6669 4.42211 27.6669 4.45858C27.6669 4.51861 27.6297 4.55926 27.5817 4.57541V4.57769C27.6165 4.58984 27.637 4.62309 27.6486 4.67096C27.6632 4.73478 27.6741 4.77981 27.6836 4.79785H27.6225C27.6152 4.78379 27.6049 4.74485 27.5933 4.68729C27.5795 4.62347 27.5542 4.59991 27.501 4.59763H27.4457V4.79785H27.3867V4.34156Z" fill="black"/>
<path d="M27.5226 4.15395C27.2979 4.15395 27.1152 4.33916 27.1152 4.56711C27.1152 4.79507 27.2979 4.98047 27.5226 4.98047C27.7474 4.98047 27.93 4.79507 27.93 4.56711C27.93 4.33916 27.7474 4.15395 27.5226 4.15395ZM27.5226 4.21777C27.7126 4.21777 27.8667 4.37373 27.8667 4.56711C27.8667 4.7603 27.7126 4.91683 27.5226 4.91683C27.3321 4.91683 27.1778 4.7603 27.1778 4.56711C27.1778 4.37373 27.3321 4.21777 27.5226 4.21777" fill="black"/>
</svg>
