<svg width="87" height="30" viewBox="0 0 87 30" fill="none" xmlns="http://www.w3.org/2000/svg">
<path fill-rule="evenodd" clip-rule="evenodd" d="M25.9876 8.7041H22.7548C22.5336 8.7041 22.3454 8.86489 22.3109 9.08321L21.0034 17.3732C20.9774 17.5368 21.1041 17.6843 21.27 17.6843H22.8134C23.0346 17.6843 23.2228 17.5235 23.2573 17.3047L23.6099 15.0688C23.644 14.8498 23.8326 14.6893 24.0533 14.6893H25.0767C27.2063 14.6893 28.4353 13.6587 28.7564 11.6166C28.901 10.7232 28.7626 10.0212 28.3441 9.52947C27.8847 8.9898 27.0696 8.7041 25.9876 8.7041ZM26.3606 11.7319C26.1839 12.892 25.2975 12.892 24.4405 12.892H23.9526L24.2949 10.7254C24.3152 10.5946 24.4287 10.4981 24.561 10.4981H24.7846C25.3684 10.4981 25.9192 10.4981 26.2038 10.8308C26.3733 11.0295 26.4254 11.3244 26.3606 11.7319ZM35.6514 11.6947H34.1033C33.9714 11.6947 33.8574 11.7912 33.837 11.9222L33.7686 12.3551L33.6603 12.1983C33.3252 11.7118 32.5779 11.5492 31.8319 11.5492C30.121 11.5492 28.66 12.8449 28.3754 14.6626C28.2275 15.5691 28.4377 16.436 28.952 17.0407C29.4239 17.5965 30.0989 17.8282 30.902 17.8282C32.2804 17.8282 33.0449 16.9418 33.0449 16.9418L32.9758 17.3721C32.9498 17.5366 33.0764 17.684 33.2414 17.684H34.6359C34.8578 17.684 35.0448 17.5232 35.0798 17.3045L35.9165 12.0058C35.943 11.8428 35.8168 11.6947 35.6514 11.6947ZM33.4934 14.7079C33.344 15.5923 32.642 16.186 31.7468 16.186C31.2973 16.186 30.9379 16.0418 30.7073 15.7686C30.4785 15.4974 30.3914 15.111 30.4643 14.681C30.6038 13.804 31.3176 13.191 32.1992 13.191C32.6387 13.191 32.9961 13.3369 33.2315 13.6125C33.4673 13.891 33.561 14.2795 33.4934 14.7079ZM42.3407 11.6945H43.8965C44.1144 11.6945 44.2415 11.9388 44.1177 12.1176L38.9435 19.5863C38.8597 19.7073 38.7216 19.7793 38.5742 19.7793H37.0204C36.8016 19.7793 36.6739 19.533 36.8005 19.3538L38.4117 17.0796L36.6982 12.0508C36.6389 11.8761 36.7679 11.6945 36.9539 11.6945H38.4825C38.6812 11.6945 38.8564 11.8249 38.9137 12.015L39.8231 15.0522L41.9689 11.8916C42.0529 11.7682 42.1924 11.6945 42.3407 11.6945Z" fill="#253B80"/>
<path fill-rule="evenodd" clip-rule="evenodd" d="M59.2093 17.3717L60.5361 8.93009C60.5564 8.79906 60.6699 8.70259 60.8018 8.70215H62.2955C62.4605 8.70215 62.5871 8.85003 62.5611 9.01366L61.2527 17.3032C61.2186 17.522 61.0304 17.6827 60.8088 17.6827H59.4749C59.3099 17.6827 59.1833 17.5353 59.2093 17.3717ZM49.0483 8.70259H45.8149C45.5941 8.70259 45.406 8.86337 45.3715 9.08169L44.0639 17.3717C44.0379 17.5353 44.1646 17.6827 44.3297 17.6827H45.9888C46.143 17.6827 46.2749 17.5703 46.299 17.4172L46.67 15.0673C46.7041 14.8483 46.8927 14.6878 47.1134 14.6878H48.1363C50.2663 14.6878 51.4951 13.6572 51.8164 11.6151C51.9615 10.7217 51.8221 10.0197 51.4039 9.52795C50.9447 8.98828 50.1303 8.70259 49.0483 8.70259ZM49.4213 11.7304C49.245 12.8905 48.3586 12.8905 47.501 12.8905H47.0137L47.3564 10.7239C47.3768 10.5931 47.4892 10.4966 47.622 10.4966H47.8456C48.429 10.4966 48.9803 10.4966 49.2647 10.8293C49.4344 11.028 49.486 11.3228 49.4213 11.7304ZM58.7112 11.6932H57.1642C57.0311 11.6932 56.9183 11.7897 56.8984 11.9207L56.8299 12.3536L56.7212 12.1968C56.386 11.7103 55.6392 11.5477 54.8932 11.5477C53.1824 11.5477 51.7217 12.8434 51.4371 14.6611C51.2897 15.5676 51.499 16.4345 52.0133 17.0392C52.4861 17.595 53.1603 17.8267 53.9633 17.8267C55.3417 17.8267 56.106 16.9403 56.106 16.9403L56.0371 17.3706C56.0111 17.5351 56.1378 17.6825 56.3038 17.6825H57.6977C57.9184 17.6825 58.1066 17.5217 58.1411 17.303L58.9783 12.0043C59.0039 11.8413 58.8772 11.6932 58.7112 11.6932ZM56.5534 14.7063C56.4049 15.5908 55.702 16.1845 54.8066 16.1845C54.358 16.1845 53.9979 16.0403 53.7671 15.7671C53.5383 15.4958 53.4523 15.1095 53.5243 14.6794C53.6645 13.8024 54.3774 13.1895 55.259 13.1895C55.6987 13.1895 56.0559 13.3354 56.2915 13.611C56.5282 13.8895 56.6219 14.278 56.5534 14.7063Z" fill="#179BD7"/>
<path d="M4.83055 24.3496L5.17824 22.1414L4.40383 22.1234H0.705933L3.27581 5.82854C3.28365 5.77934 3.30967 5.73348 3.34756 5.70091C3.38545 5.66834 3.43405 5.65039 3.48457 5.65039H9.71981C11.7899 5.65039 13.2183 6.08115 13.9642 6.93135C14.3138 7.3302 14.5366 7.74699 14.6443 8.20566C14.7572 8.68695 14.7593 9.26195 14.6489 9.96326L14.6408 10.0144V10.4638L14.9906 10.6619C15.2851 10.8181 15.519 10.9969 15.6984 11.2017C15.9977 11.5427 16.1912 11.9761 16.2729 12.4899C16.3573 13.0184 16.3293 13.6473 16.1912 14.3592C16.0316 15.1782 15.7737 15.8915 15.4254 16.4751C15.1049 17.0129 14.6967 17.4588 14.2122 17.8046C13.7495 18.133 13.1998 18.3823 12.5782 18.5419C11.9759 18.6986 11.2893 18.7778 10.5361 18.7778H10.0509C9.70393 18.7778 9.36677 18.9028 9.10231 19.1269C8.8371 19.3555 8.66144 19.6678 8.60767 20.0096L8.57112 20.2084L7.95688 24.1003L7.92894 24.2433C7.92167 24.2886 7.90904 24.3112 7.89048 24.3265C7.87383 24.3403 7.84991 24.3496 7.82656 24.3496H4.83055Z" fill="#253B80"/>
<path d="M15.3197 10.0674C15.3011 10.1864 15.2799 10.308 15.256 10.433C14.4335 14.6548 11.6205 16.1132 8.02742 16.1132H6.19808C5.75874 16.1132 5.38847 16.4323 5.31996 16.8657L4.38329 22.8059L4.11807 24.4897C4.07349 24.7742 4.29297 25.0308 4.58 25.0308H7.82477C8.20901 25.0308 8.53527 24.7516 8.59574 24.3727L8.6277 24.2078L9.23869 20.331L9.27791 20.1184C9.33762 19.7382 9.66464 19.459 10.0489 19.459H10.5341C13.6777 19.459 16.1387 18.1827 16.858 14.4893C17.1584 12.9464 17.0028 11.6581 16.2078 10.7521C15.9672 10.4788 15.6687 10.2522 15.3197 10.0674Z" fill="#179BD7"/>
<path d="M14.4577 9.72288C14.3322 9.68631 14.2024 9.65307 14.0695 9.62316C13.9359 9.59392 13.7989 9.568 13.658 9.5454C13.1647 9.46562 12.6244 9.42773 12.0453 9.42773H7.15817C7.0378 9.42773 6.92357 9.45498 6.82119 9.50418C6.59578 9.61252 6.42835 9.82592 6.38778 10.0872L5.34797 16.6721L5.31812 16.8642C5.38662 16.4308 5.75689 16.1117 6.19624 16.1117H8.02557C11.6186 16.1117 14.4319 14.6526 15.2541 10.4315C15.2786 10.3065 15.2993 10.1849 15.3178 10.0659C15.1098 9.95554 14.8844 9.86115 14.6418 9.7807C14.5821 9.76077 14.5203 9.7415 14.4577 9.72288Z" fill="#222D65"/>
<path d="M6.39078 10.0876C6.43134 9.82634 6.59897 9.61297 6.82419 9.50527C6.92733 9.45608 7.04099 9.42883 7.16116 9.42883H12.0485C12.6275 9.42883 13.1679 9.46672 13.661 9.54649C13.8021 9.56909 13.9391 9.59502 14.0726 9.62426C14.2056 9.65418 14.3352 9.68742 14.4609 9.72397C14.5233 9.74259 14.5851 9.76186 14.6456 9.78115C14.8882 9.86157 15.1136 9.95664 15.3216 10.0663C15.5663 8.50616 15.3197 7.4439 14.4762 6.48201C13.5462 5.42308 11.8677 4.96973 9.71994 4.96973H3.48451C3.04573 4.96973 2.67164 5.28879 2.60371 5.72287L0.00666399 22.1853C-0.0446186 22.511 0.206628 22.8049 0.53499 22.8049H4.38463L5.35116 16.6726L6.39078 10.0876Z" fill="#253B80"/>
</svg>
