<svg width="88" height="32" viewBox="0 0 88 32" fill="none" xmlns="http://www.w3.org/2000/svg">
<path fill-rule="evenodd" clip-rule="evenodd" d="M39.5976 9.40332H35.3899C35.102 9.40332 34.8571 9.61259 34.8122 9.89674L33.1104 20.6865C33.0765 20.8994 33.2414 21.0913 33.4574 21.0913H35.4662C35.7541 21.0913 35.999 20.8821 36.0439 20.5974L36.5029 17.6872C36.5472 17.4022 36.7926 17.1932 37.08 17.1932H38.412C41.1837 17.1932 42.7833 15.8519 43.2013 13.1941C43.3895 12.0313 43.2092 11.1176 42.6646 10.4776C42.0667 9.77516 41.0058 9.40332 39.5976 9.40332ZM40.083 13.3441C39.853 14.854 38.6993 14.854 37.5839 14.854H36.9489L37.3944 12.0341C37.4208 11.8639 37.5685 11.7383 37.7408 11.7383H38.0318C38.7916 11.7383 39.5084 11.7383 39.8789 12.1714C40.0995 12.4299 40.1673 12.8137 40.083 13.3441ZM52.1753 13.2957H50.1604C49.9887 13.2957 49.8403 13.4213 49.8139 13.5918L49.7248 14.1553L49.5838 13.9511C49.1476 13.3179 48.175 13.1064 47.2041 13.1064C44.9773 13.1064 43.0757 14.7928 42.7053 17.1585C42.5128 18.3384 42.7864 19.4667 43.4558 20.2537C44.0699 20.9772 44.9486 21.2787 45.9938 21.2787C47.7878 21.2787 48.7829 20.125 48.7829 20.125L48.6929 20.685C48.659 20.8992 48.8239 21.0911 49.0386 21.0911H50.8537C51.1424 21.0911 51.3858 20.8818 51.4314 20.5971L52.5204 13.7006C52.5549 13.4885 52.3906 13.2957 52.1753 13.2957ZM49.3666 17.2174C49.1721 18.3686 48.2584 19.1413 47.0934 19.1413C46.5083 19.1413 46.0405 18.9537 45.7404 18.5981C45.4426 18.245 45.3293 17.7422 45.4241 17.1824C45.6057 16.041 46.5348 15.2432 47.6822 15.2432C48.2542 15.2432 48.7194 15.4331 49.0258 15.7919C49.3327 16.1543 49.4546 16.66 49.3666 17.2174ZM60.8818 13.2954H62.9067C63.1903 13.2954 63.3557 13.6135 63.1946 13.8461L56.4601 23.567C56.351 23.7244 56.1714 23.8181 55.9795 23.8181H53.9571C53.6724 23.8181 53.5061 23.4975 53.671 23.2643L55.7679 20.3044L53.5377 13.7592C53.4606 13.5318 53.6285 13.2954 53.8706 13.2954H55.8602C56.1187 13.2954 56.3468 13.4651 56.4214 13.7126L57.6049 17.6656L60.3978 13.552C60.5071 13.3914 60.6887 13.2954 60.8818 13.2954Z" fill="#253B80"/>
<path fill-rule="evenodd" clip-rule="evenodd" d="M82.8367 20.6851L84.5635 9.69805C84.59 9.5275 84.7378 9.40194 84.9095 9.40137H86.8535C87.0682 9.40137 87.233 9.59384 87.1992 9.80681L85.4963 20.596C85.4518 20.8807 85.207 21.09 84.9186 21.09H83.1823C82.9677 21.09 82.8028 20.8981 82.8367 20.6851ZM69.6118 9.40194H65.4033C65.116 9.40194 64.8712 9.61121 64.8262 9.89536L63.1244 20.6851C63.0905 20.8981 63.2554 21.09 63.4704 21.09H65.6297C65.8304 21.09 66.0021 20.9436 66.0334 20.7443L66.5163 17.6859C66.5607 17.4008 66.8061 17.1919 67.0934 17.1919H68.4248C71.1971 17.1919 72.7963 15.8505 73.2146 13.1927C73.4034 12.0299 73.222 11.1162 72.6776 10.4762C72.08 9.77378 71.02 9.40194 69.6118 9.40194ZM70.0972 13.3427C69.8677 14.8526 68.714 14.8526 67.5979 14.8526H66.9636L67.4097 12.0327C67.4362 11.8625 67.5826 11.7369 67.7554 11.7369H68.0464C68.8057 11.7369 69.5232 11.7369 69.8933 12.17C70.1143 12.4285 70.1815 12.8123 70.0972 13.3427ZM82.1884 13.2943H80.1749C80.0017 13.2943 79.8548 13.4199 79.8289 13.5904L79.7398 14.1539L79.5983 13.9498C79.1621 13.3165 78.1901 13.105 77.2192 13.105C74.9924 13.105 73.0913 14.7914 72.7209 17.1571C72.529 18.337 72.8015 19.4653 73.4708 20.2523C74.0861 20.9758 74.9636 21.2773 76.0088 21.2773C77.8029 21.2773 78.7977 20.1236 78.7977 20.1236L78.708 20.6837C78.6741 20.8978 78.8389 21.0897 79.0551 21.0897H80.8693C81.1566 21.0897 81.4014 20.8804 81.4464 20.5957L82.536 13.6992C82.5693 13.4871 82.4045 13.2943 82.1884 13.2943ZM79.3799 17.2161C79.1866 18.3672 78.2718 19.1399 77.1064 19.1399C76.5225 19.1399 76.0538 18.9523 75.7534 18.5967C75.4556 18.2436 75.3437 17.7408 75.4374 17.181C75.6199 16.0396 76.5478 15.2418 77.6952 15.2418C78.2675 15.2418 78.7325 15.4317 79.0391 15.7905C79.3472 16.1529 79.469 16.6586 79.3799 17.2161Z" fill="#179BD7"/>
<path d="M7.31486 30.158L7.84136 26.8141L6.66868 26.7869H1.06897L4.96052 2.11157C4.9724 2.03707 5.0118 1.96761 5.06918 1.9183C5.12655 1.86898 5.20015 1.8418 5.27665 1.8418H14.7186C17.8533 1.8418 20.0164 2.49409 21.1459 3.78154C21.6753 4.38553 22.0126 5.01667 22.1757 5.71123C22.3467 6.44005 22.3499 7.31076 22.1827 8.37275L22.1705 8.45027V9.13072L22.7002 9.43072C23.1462 9.66725 23.5003 9.93804 23.7721 10.2481C24.2253 10.7645 24.5182 11.4208 24.6419 12.1989C24.7697 12.9992 24.7274 13.9514 24.5182 15.0295C24.2765 16.2697 23.8859 17.3498 23.3586 18.2336C22.8732 19.048 22.2551 19.7233 21.5215 20.2469C20.8208 20.7441 19.9883 21.1217 19.0472 21.3633C18.135 21.6006 17.0953 21.7206 15.9548 21.7206H15.2199C14.6946 21.7206 14.184 21.9098 13.7836 22.2491C13.382 22.5954 13.116 23.0683 13.0345 23.5858L12.9792 23.8869L12.049 29.7804L12.0067 29.9969C11.9957 30.0656 11.9766 30.0997 11.9485 30.1229C11.9233 30.1438 11.8871 30.158 11.8517 30.158H7.31486Z" fill="#253B80"/>
<path d="M23.198 8.53027C23.1699 8.71045 23.1377 8.89465 23.1015 9.0839C21.8561 15.477 17.5962 17.6855 12.1553 17.6855H9.38517C8.71987 17.6855 8.15917 18.1686 8.05544 18.825L6.63704 27.8202L6.23542 30.3699C6.16791 30.8007 6.50027 31.1893 6.93492 31.1893H11.8485C12.4303 31.1893 12.9244 30.7666 13.0159 30.1928L13.0643 29.943L13.9895 24.0724L14.0489 23.7505C14.1393 23.1747 14.6346 22.7519 15.2164 22.7519H15.9512C20.7115 22.7519 24.4382 20.8192 25.5274 15.2263C25.9823 12.8899 25.7468 10.9391 24.5428 9.56708C24.1786 9.15336 23.7265 8.8101 23.198 8.53027Z" fill="#179BD7"/>
<path d="M21.893 8.00846C21.7029 7.95308 21.5065 7.90275 21.3051 7.85746C21.1028 7.81318 20.8954 7.77392 20.6821 7.7397C19.9351 7.6189 19.1168 7.56152 18.24 7.56152H10.8394C10.6571 7.56152 10.4841 7.60279 10.3291 7.67728C9.98774 7.84135 9.7342 8.1645 9.67277 8.56008L8.09818 18.5317L8.05298 18.8226C8.15671 18.1663 8.71741 17.6831 9.38271 17.6831H12.1529C17.5938 17.6831 21.8539 15.4736 23.099 9.08151C23.1361 8.89227 23.1674 8.70807 23.1955 8.52789C22.8805 8.36078 22.5392 8.21784 22.1718 8.09602C22.0814 8.06583 21.9878 8.03665 21.893 8.00846Z" fill="#222D65"/>
<path d="M9.67752 8.56149C9.73895 8.16588 9.99278 7.84276 10.3338 7.67968C10.49 7.60518 10.6621 7.56392 10.8441 7.56392H18.245C19.1218 7.56392 19.9401 7.62129 20.6869 7.7421C20.9004 7.77632 21.1079 7.81558 21.3101 7.85986C21.5115 7.90518 21.7077 7.95551 21.8981 8.01085C21.9925 8.03905 22.0861 8.06823 22.1777 8.09744C22.5451 8.21922 22.8865 8.36318 23.2014 8.52927C23.572 6.16673 23.1985 4.55816 21.9213 3.10157C20.513 1.49803 17.9712 0.811523 14.7189 0.811523H5.27657C4.61214 0.811523 4.04565 1.29468 3.94278 1.95201L0.0100912 26.881C-0.0675658 27.3741 0.312896 27.8192 0.810133 27.8192H6.63963L8.10323 18.5331L9.67752 8.56149Z" fill="#253B80"/>
</svg>
