<svg width="24" height="8" viewBox="0 0 24 8" fill="none" xmlns="http://www.w3.org/2000/svg">
<path d="M17.4466 0.327691C16.8888 0.106631 16.2993 -0.00429799 15.7056 0.000127365C13.7859 0.000127365 12.4301 1.05199 12.4205 2.56191C12.4085 3.67119 13.384 4.29631 14.1219 4.66694C14.879 5.04801 15.1321 5.28813 15.1297 5.62875C15.1249 6.14685 14.525 6.38175 13.9671 6.38175C13.2004 6.38175 12.7817 6.26561 12.1374 5.97458L11.8986 5.85322L11.6263 7.59152C12.093 7.80294 12.9341 7.98434 13.8027 8C15.8436 8 17.1778 6.95467 17.1934 5.34817C17.2102 4.46205 16.6823 3.79256 15.5713 3.23923C14.8958 2.88034 14.477 2.64022 14.477 2.27611C14.477 1.95377 14.8358 1.60924 15.5857 1.60924C16.0847 1.5961 16.5807 1.69795 17.041 1.90809L17.221 1.99553L17.4934 0.315946L17.4466 0.327691V0.327691ZM22.4282 0.141071H20.9285C20.4617 0.141071 20.1102 0.28071 19.9062 0.784454L17.0218 7.89168H19.0627L19.4707 6.72628L21.9615 6.72889C22.0203 7.00165 22.2003 7.89168 22.2003 7.89168H24L22.4282 0.141071V0.141071ZM9.65975 0.075819H11.6047L10.388 7.83035H8.44553L9.65975 0.0732091V0.075819V0.075819ZM4.72249 4.34981L4.92406 5.42647L6.82458 0.141071H8.88467L5.82393 7.88124H3.76863L2.08889 1.32735C2.06168 1.21928 1.99779 1.12647 1.91011 1.06765C1.30469 0.727473 0.663195 0.469324 0 0.29898L0.026396 0.13585H3.15673C3.58146 0.154121 3.92341 0.29898 4.03739 0.792284L4.72129 4.35373V4.34981H4.72249ZM20.0286 5.14066L20.8037 2.97169C20.7941 2.99519 20.9633 2.52407 21.0616 2.23304L21.1948 2.90253L21.6448 5.13936H20.0274V5.14066H20.0286Z" fill="#1A202C"/>
</svg>
