<svg width="40" height="40" viewBox="0 0 40 40" fill="none" xmlns="http://www.w3.org/2000/svg">
<rect width="40" height="40" rx="20" fill="#F7FAFC"/>
<path d="M25.4466 16.3277C24.8888 16.1066 24.2993 15.9957 23.7056 16.0001C21.7859 16.0001 20.4301 17.052 20.4205 18.5619C20.4085 19.6712 21.384 20.2963 22.1219 20.6669C22.879 21.048 23.1321 21.2881 23.1297 21.6287C23.1249 22.1468 22.525 22.3818 21.9671 22.3818C21.2004 22.3818 20.7817 22.2656 20.1374 21.9746L19.8986 21.8532L19.6263 23.5915C20.093 23.8029 20.9341 23.9843 21.8027 24C23.8436 24 25.1778 22.9547 25.1934 21.3482C25.2102 20.462 24.6823 19.7926 23.5713 19.2392C22.8958 18.8803 22.477 18.6402 22.477 18.2761C22.477 17.9538 22.8358 17.6092 23.5857 17.6092C24.0847 17.5961 24.5807 17.698 25.041 17.9081L25.221 17.9955L25.4934 16.3159L25.4466 16.3277ZM30.4282 16.1411H28.9285C28.4617 16.1411 28.1102 16.2807 27.9062 16.7845L25.0218 23.8917H27.0627L27.4707 22.7263L29.9615 22.7289C30.0203 23.0016 30.2003 23.8917 30.2003 23.8917H32L30.4282 16.1411ZM17.6598 16.0758H19.6047L18.388 23.8303H16.4455L17.6598 16.0732V16.0758ZM12.7225 20.3498L12.9241 21.4265L14.8246 16.1411H16.8847L13.8239 23.8812H11.7686L10.0889 17.3273C10.0617 17.2193 9.99779 17.1265 9.91011 17.0676C9.30469 16.7275 8.66319 16.4693 8 16.299L8.0264 16.1359H11.1567C11.5815 16.1541 11.9234 16.299 12.0374 16.7923L12.7213 20.3537V20.3498H12.7225ZM28.0286 21.1407L28.8037 18.9717C28.7941 18.9952 28.9633 18.5241 29.0616 18.233L29.1948 18.9025L29.6448 21.1394H28.0274V21.1407H28.0286Z" fill="#1A202C"/>
</svg>
