<svg width="29" height="20" viewBox="0 0 29 20" fill="none" xmlns="http://www.w3.org/2000/svg">
<rect x="0.25" y="0.25" width="28.5" height="19.5" rx="3.75" fill="white" stroke="#CBD5E0" stroke-width="0.5"/>
<path d="M12.4073 13.4024H10.7676L11.7932 7.02441H13.4328L12.4073 13.4024Z" fill="#00579F"/>
<path d="M18.3504 7.18072C18.0269 7.05167 17.514 6.90918 16.8797 6.90918C15.2604 6.90918 14.1201 7.77763 14.1131 9.01925C14.0997 9.93531 14.9295 10.4441 15.5502 10.7496C16.1846 11.0617 16.4002 11.2654 16.4002 11.5436C16.3938 11.9709 15.8876 12.1678 15.4155 12.1678C14.7609 12.1678 14.4101 12.0663 13.877 11.8286L13.6611 11.7267L13.4316 13.1584C13.8162 13.3346 14.5248 13.491 15.2604 13.4978C16.9809 13.4978 18.101 12.6428 18.1143 11.3197C18.1208 10.5936 17.6826 10.0373 16.7379 9.5827C16.1644 9.29088 15.8132 9.0941 15.8132 8.79551C15.8199 8.52406 16.1102 8.24603 16.7576 8.24603C17.2907 8.23241 17.6824 8.36128 17.9791 8.49024L18.1274 8.55797L18.3504 7.18072Z" fill="#00579F"/>
<path d="M20.5311 11.1429C20.6661 10.7765 21.1857 9.3584 21.1857 9.3584C21.1789 9.37202 21.3205 8.98523 21.4015 8.74778L21.5161 9.29735C21.5161 9.29735 21.8266 10.824 21.894 11.1429C21.6377 11.1429 20.8549 11.1429 20.5311 11.1429ZM22.5551 7.02441H21.2868C20.8956 7.02441 20.5985 7.13967 20.4297 7.5536L17.9941 13.4023H19.7147C19.7147 13.4023 19.9979 12.6151 20.0588 12.4456C20.2475 12.4456 21.9213 12.4456 22.1641 12.4456C22.2111 12.6695 22.3597 13.4023 22.3597 13.4023H23.8779L22.5551 7.02441V7.02441Z" fill="#00579F"/>
<path d="M9.39795 7.02441L7.79212 11.3736L7.61664 10.4915C7.31976 9.47374 6.38866 8.36794 5.34961 7.8181L6.82049 13.3957H8.55446L11.1318 7.02441H9.39795V7.02441Z" fill="#00579F"/>
<path d="M6.30089 7.02441H3.66273L3.63574 7.1533C5.69367 7.68263 7.0566 8.95858 7.61656 10.4922L7.04306 7.56061C6.94864 7.15321 6.65848 7.03785 6.30089 7.02441Z" fill="#FAA61A"/>
</svg>
