<svg width="40" height="40" viewBox="0 0 40 40" fill="none" xmlns="http://www.w3.org/2000/svg">
<rect x="0.5" y="0.5" width="39" height="39" rx="7.5" fill="white"/>
<g clip-path="url(#clip0_1644_22836)">
<path d="M24.838 15.0156C22.5682 15.0156 20.5397 16.148 20.5397 18.2401C20.5397 20.6394 24.1373 20.8051 24.1373 22.0104C24.1373 22.5179 23.533 22.9722 22.5009 22.9722C21.0362 22.9722 19.9414 22.3374 19.9414 22.3374L19.473 24.4486C19.473 24.4486 20.7341 24.9848 22.4085 24.9848C24.8901 24.9848 26.8429 23.7969 26.8429 21.669C26.8429 19.1337 23.2304 18.9729 23.2304 17.8542C23.2304 17.4566 23.7265 17.021 24.7556 17.021C25.9168 17.021 26.8641 17.4827 26.8641 17.4827L27.3226 15.4436C27.3226 15.4436 26.2918 15.0156 24.838 15.0156V15.0156ZM4.07108 15.1695L4.01611 15.4773C4.01611 15.4773 4.97104 15.6455 5.83111 15.981C6.93853 16.3658 7.01741 16.5898 7.20392 17.2855L9.23627 24.8261H11.9606L16.1578 15.1695H13.4396L10.7427 21.7351L9.64224 16.1698C9.54132 15.5329 9.0301 15.1695 8.40434 15.1695H4.07108V15.1695ZM17.2508 15.1695L15.1185 24.8261H17.7104L19.8352 15.1695H17.2508V15.1695ZM31.7071 15.1695C31.082 15.1695 30.7509 15.4916 30.5079 16.0544L26.7105 24.8261H29.4286L29.9545 23.3642H33.266L33.5858 24.8261H35.9841L33.8918 15.1695H31.7071V15.1695ZM32.0606 17.7784L32.8663 21.4021H30.7077L32.0606 17.7784V17.7784Z" fill="#1434CB"/>
</g>
<rect x="0.5" y="0.5" width="39" height="39" rx="7.5" stroke="#F1F2F4"/>
<defs>
<clipPath id="clip0_1644_22836">
<rect width="32" height="10" fill="white" transform="translate(4 15)"/>
</clipPath>
</defs>
</svg>
