<svg width="199" height="151" viewBox="0 0 199 151" fill="none" xmlns="http://www.w3.org/2000/svg">
<g id="Frame" clip-path="url(#clip0_952_1255)">
<g id="Group">
<g id="Layer 1">
<path id="Vector" d="M99.5028 0.780029C44.5481 0.780029 0 67.1035 0 148.912H199C199 67.1035 154.452 0.780029 99.5028 0.780029Z" fill="url(#paint0_linear_952_1255)"/>
<path id="Vector_2" opacity="0.23" d="M94.0981 150.994C112.91 150.994 128.161 149.082 128.161 146.723C128.161 144.364 112.91 142.452 94.0981 142.452C75.2856 142.452 60.0352 144.364 60.0352 146.723C60.0352 149.082 75.2856 150.994 94.0981 150.994Z" fill="#E6EAEE"/>
<g id="Group_2">
<g id="Group_3">
<path id="Vector_3" d="M109.711 104.445L136.171 90.4919C139.869 88.5387 144.375 88.9989 147.606 91.648L149.078 92.8547C151.067 94.488 150.708 97.6198 148.404 98.7648L110.863 117.415C110.863 117.415 115.903 110.652 109.711 104.445Z" fill="url(#paint1_linear_952_1255)"/>
<path id="Vector_4" style="mix-blend-mode:multiply" opacity="0.5" d="M149.079 92.8595L147.606 91.6528C146.269 90.5583 144.713 89.8568 143.089 89.5312C143.718 89.8568 144.331 90.2272 144.892 90.693L146.365 91.8997C148.354 93.5274 147.994 96.6648 145.69 97.8098L112.319 114.389C111.745 116.225 110.863 117.426 110.863 117.426L148.404 98.7751C150.708 97.6358 151.068 94.4984 149.079 92.8651V92.8595Z" fill="url(#paint2_linear_952_1255)"/>
<path id="Vector_5" d="M164.409 103.861C162.757 97.3501 155.054 94.4259 149.092 97.5297L110.865 117.421H110.854C112.405 116.674 114.04 115.091 114.54 111.662C115.574 104.596 105.926 96.3566 84.0452 89.3017C62.1645 82.2467 47.6953 95.8796 47.6953 95.8796V128.651L83.2192 138.647C89.625 140.449 96.4746 139.787 102.414 136.778L164.69 105.281C164.623 104.781 164.533 104.31 164.415 103.855L164.409 103.861Z" fill="url(#paint3_linear_952_1255)"/>
<g id="Group_4" style="mix-blend-mode:multiply" opacity="0.5">
<path id="Vector_6" d="M164.407 103.861C164.188 102.996 163.851 102.205 163.435 101.47L101.271 132.911C95.3317 135.914 88.4821 136.582 82.0763 134.78L47.6875 125.099V128.651L83.2114 138.647C89.6171 140.449 96.4668 139.787 102.406 136.778L164.683 105.281C164.615 104.781 164.525 104.31 164.407 103.855V103.861Z" fill="url(#paint4_linear_952_1255)"/>
</g>
<path id="Vector_7" d="M50.6381 87.5615H37.5569C35.77 87.5615 34.3203 88.9198 34.3203 90.5923V133.36C34.3203 135.032 35.77 136.391 37.5569 136.391H50.6381C52.425 136.391 53.8747 135.032 53.8747 133.36V90.5923C53.8747 88.9198 52.425 87.5615 50.6381 87.5615Z" fill="url(#paint5_linear_952_1255)"/>
<path id="Vector_8" style="mix-blend-mode:multiply" opacity="0.3" d="M50.6381 87.5623H49.9133V118.572C49.9133 126.637 42.9344 133.17 34.3203 133.17V133.355C34.3203 135.028 35.77 136.386 37.5569 136.386H50.6381C52.425 136.386 53.8747 135.028 53.8747 133.355V90.5874C53.8747 88.9149 52.425 87.5566 50.6381 87.5566V87.5623Z" fill="url(#paint6_linear_952_1255)"/>
<path id="Vector_9" d="M74.3503 91.1094C74.3503 91.1094 111.695 94.982 113.375 111.758C115.055 128.534 66.6016 102.391 66.6016 102.391L74.3559 91.1094H74.3503Z" fill="url(#paint7_linear_952_1255)"/>
<path id="Vector_10" style="mix-blend-mode:multiply" d="M114.303 112.953C109.786 118.785 78.4873 108.918 78.4873 108.918L76.6836 112.156L107.723 118.038C107.723 118.038 112.753 118.549 114.298 112.953H114.303Z" fill="url(#paint8_linear_952_1255)"/>
<path id="Vector_11" d="M40.8372 128.432C42.6371 128.432 44.0963 126.975 44.0963 125.177C44.0963 123.379 42.6371 121.922 40.8372 121.922C39.0373 121.922 37.5781 123.379 37.5781 125.177C37.5781 126.975 39.0373 128.432 40.8372 128.432Z" fill="url(#paint9_linear_952_1255)"/>
</g>
<g id="Group_5">
<path id="Vector_12" d="M131.846 80.5178C145.21 67.1696 145.21 45.5277 131.846 32.1794C118.482 18.8311 96.8151 18.8311 83.4513 32.1794C70.0874 45.5277 70.0874 67.1696 83.4513 80.5178C96.8151 93.8661 118.482 93.8661 131.846 80.5178Z" fill="url(#paint10_linear_952_1255)"/>
<path id="Vector_13" style="mix-blend-mode:multiply" d="M129.322 67.1112C135.268 55.1579 130.386 40.6533 118.419 34.7144C106.452 28.7755 91.9304 33.6512 85.9846 45.6046C80.0388 57.5579 84.9202 72.0625 96.8875 78.0014C108.855 83.9403 123.376 79.0646 129.322 67.1112Z" fill="url(#paint11_linear_952_1255)"/>
<path id="Vector_14" style="mix-blend-mode:multiply" d="M87.9687 58.9432C87.9687 45.5966 98.8079 34.7756 112.176 34.7812C115.558 34.7812 118.773 35.4884 121.7 36.74C117.733 33.9001 112.906 32.1826 107.652 32.1826C94.2902 32.1826 83.4509 42.998 83.4453 56.3446C83.4453 66.3125 89.4858 74.866 98.1111 78.5647C91.9863 74.1757 87.9631 67.0478 87.9687 58.9432Z" fill="url(#paint12_linear_952_1255)"/>
<path id="Vector_15" style="mix-blend-mode:overlay" d="M107.661 22.1699C88.7642 22.1643 73.4353 37.4641 73.4297 56.3391C73.4297 57.7759 73.6769 59.1398 73.8511 60.5261C76.0088 60.3072 77.7058 58.5505 77.7058 56.3391C77.7058 39.8494 91.1523 26.4355 107.656 26.4411C109.869 26.4411 111.628 24.7461 111.847 22.5909C110.459 22.4169 109.088 22.1699 107.656 22.1699H107.661Z" fill="url(#paint13_linear_952_1255)"/>
<g id="Vector_16" style="mix-blend-mode:multiply">
<path d="M116.651 60.1222C116.241 59.1849 115.662 58.3879 114.903 57.7144C114.195 57.0689 113.392 56.5694 112.493 56.2327C111.723 55.9408 110.683 55.6153 109.464 55.2729V47.8475C110.61 48.4032 111.447 49.245 111.785 50.5303C112.139 51.8212 112.914 52.4667 114.111 52.4667C114.746 52.4667 115.285 52.2478 115.729 51.7988C116.179 51.3554 116.398 50.8278 116.398 50.216C116.398 49.666 116.246 49.0654 115.948 48.4088C115.651 47.7465 115.223 47.1067 114.678 46.4893C113.982 45.6699 113.167 45.0581 112.228 44.6596C111.459 44.3285 110.481 44.1489 109.458 43.9973V41.1742C109.458 40.1976 108.666 39.4062 107.683 39.4062C106.699 39.4062 105.907 40.1976 105.907 41.1742V43.9973C103.716 44.2892 101.951 44.9795 100.737 46.1974C99.4001 47.5388 98.7314 49.2563 98.7314 51.361C98.7314 52.9718 99.0742 54.2851 99.7597 55.3122C100.445 56.3393 101.333 57.1307 102.434 57.6863C103.378 58.1634 104.564 58.5956 105.907 58.994V67.3792C105.418 67.1771 104.907 66.9919 104.57 66.6945C104.075 66.2567 103.704 65.774 103.463 65.2408C103.221 64.7132 102.935 63.9443 102.603 62.9453C102.457 62.4851 102.193 62.1202 101.816 61.8677C101.434 61.6095 100.973 61.4804 100.423 61.4804C99.7373 61.4804 99.1697 61.7161 98.709 62.1876C98.2538 62.659 98.0234 63.181 98.0234 63.7703C98.0234 64.5617 98.1976 65.3699 98.5404 66.1949C98.8832 67.02 99.4114 67.8114 100.125 68.5747C100.839 69.338 101.726 69.9722 102.8 70.4885C103.687 70.9151 104.778 71.1452 105.918 71.3248V73.654C105.918 74.6306 106.711 75.4276 107.694 75.4276C108.677 75.4276 109.47 74.6362 109.47 73.654V71.3473C110.953 71.1508 112.29 70.7579 113.403 70.0844C114.673 69.3155 115.634 68.3277 116.291 67.1098C116.949 65.8975 117.274 64.5954 117.274 63.2035C117.274 62.0922 117.072 61.0707 116.662 60.139L116.651 60.1222ZM104.092 53.0728C103.553 52.5789 103.289 51.8493 103.289 50.8839C103.289 49.8737 103.575 49.116 104.148 48.6164C104.575 48.2516 105.25 47.9878 105.918 47.724V54.1392C105.154 53.8081 104.513 53.4601 104.092 53.0728ZM111.734 66.3858C111.183 66.9975 110.397 67.396 109.464 67.671V60.0941C110.419 60.4533 111.223 60.8518 111.756 61.3289C112.414 61.907 112.74 62.732 112.74 63.7872C112.74 64.775 112.403 65.6393 111.734 66.3858Z" fill="#94634B"/>
</g>
</g>
</g>
<g id="Group_6">
<path id="Vector_17" style="mix-blend-mode:multiply" d="M46.3056 89.6939C65.3384 89.6939 80.7675 78.3912 80.7675 64.4486C80.7675 50.5061 65.3384 39.2034 46.3056 39.2034C27.2729 39.2034 11.8438 50.5061 11.8438 64.4486C11.8438 78.3912 27.2729 89.6939 46.3056 89.6939Z" fill="url(#paint14_radial_952_1255)"/>
<g id="Group_7">
<path id="Vector_18" d="M72.1493 51.4106C71.5649 51.4106 71.003 51.4948 70.4411 51.5846C69.6544 42.004 61.7034 34.4551 51.9037 34.4551C45.1102 34.4551 39.2214 38.1088 35.9455 43.5193C33.9283 42.5091 31.6806 41.8861 29.27 41.8861C21.0044 41.8861 14.3008 48.5762 14.3008 56.8211C14.3008 65.0659 20.9987 71.7561 29.27 71.7561C33.4394 71.7561 37.1986 70.0499 39.9126 67.3053C43.166 70.0442 47.3129 71.7561 51.8981 71.7561C56.1798 71.7561 60.0739 70.2631 63.2262 67.8497C65.131 70.757 68.407 72.6878 72.1437 72.6878C78.0325 72.6878 82.8031 67.9227 82.8031 62.052C82.8031 56.1812 78.0325 51.4162 72.1437 51.4162L72.1493 51.4106Z" fill="url(#paint15_radial_952_1255)"/>
<path id="Vector_19" style="mix-blend-mode:multiply" opacity="0.2" d="M72.1483 51.4106C71.5639 51.4106 71.002 51.4948 70.4401 51.5846C69.6534 42.0096 61.7024 34.4551 51.9027 34.4551C47.3232 34.4551 43.1819 36.1388 39.9453 38.8778C41.2546 38.5803 42.6031 38.3951 44.0079 38.3951C53.8076 38.3951 61.7586 45.9496 62.5453 55.5246C63.1072 55.4348 63.6691 55.3506 64.2535 55.3506C70.1423 55.3506 74.9129 60.1157 74.9129 65.9864C74.9129 68.5232 73.9858 70.8244 72.5023 72.6485C78.2225 72.4576 82.8077 67.7992 82.8077 62.0464C82.8077 56.2935 78.0371 51.4106 72.1483 51.4106Z" fill="url(#paint16_linear_952_1255)"/>
</g>
</g>
<g id="Group_8">
<path id="Vector_20" style="mix-blend-mode:multiply" d="M140.422 104.259C151.901 104.259 161.207 97.4418 161.207 89.0323C161.207 80.6227 151.901 73.8054 140.422 73.8054C128.942 73.8054 119.637 80.6227 119.637 89.0323C119.637 97.4418 128.942 104.259 140.422 104.259Z" fill="url(#paint17_radial_952_1255)"/>
<g id="Group_9">
<path id="Vector_21" d="M156.01 81.1692C155.656 81.1692 155.319 81.2197 154.982 81.2702C154.505 75.4949 149.711 70.9375 143.806 70.9375C139.71 70.9375 136.158 73.1432 134.18 76.4041C132.967 75.7924 131.612 75.4219 130.157 75.4219C125.173 75.4219 121.133 79.4573 121.133 84.4301C121.133 89.4028 125.173 93.4382 130.157 93.4382C132.669 93.4382 134.939 92.4111 136.574 90.7554C138.535 92.4055 141.036 93.4382 143.8 93.4382C146.379 93.4382 148.728 92.5402 150.633 91.0809C151.779 92.832 153.757 93.9995 156.01 93.9995C159.562 93.9995 162.439 91.1258 162.439 87.5843C162.439 84.0428 159.562 81.1692 156.01 81.1692Z" fill="url(#paint18_radial_952_1255)"/>
<path id="Vector_22" style="mix-blend-mode:multiply" opacity="0.2" d="M156.012 81.1692C155.658 81.1692 155.32 81.2197 154.983 81.2702C154.506 75.4949 149.713 70.9375 143.807 70.9375C141.048 70.9375 138.547 71.9534 136.598 73.6035C137.39 73.4239 138.205 73.3116 139.048 73.3116C144.959 73.3116 149.752 77.869 150.224 83.6443C150.561 83.5882 150.898 83.5433 151.252 83.5433C154.804 83.5433 157.68 86.4169 157.68 89.9584C157.68 91.4907 157.124 92.877 156.225 93.977C159.675 93.8648 162.44 91.0529 162.44 87.5843C162.44 84.1158 159.563 81.1692 156.012 81.1692Z" fill="url(#paint19_linear_952_1255)"/>
</g>
</g>
<g id="Group_10">
<path id="Vector_23" style="mix-blend-mode:multiply" d="M123.935 43.6713C138.983 43.6713 151.182 34.7357 151.182 23.7131C151.182 12.6905 138.983 3.75488 123.935 3.75488C108.886 3.75488 96.6876 12.6905 96.6876 23.7131C96.6876 34.7357 108.886 43.6713 123.935 43.6713Z" fill="url(#paint20_radial_952_1255)"/>
<g id="Group_11">
<path id="Vector_24" d="M144.365 13.4084C143.904 13.4084 143.455 13.4701 143.016 13.5431C142.393 5.97175 136.111 0 128.362 0C122.99 0 118.337 2.89046 115.747 7.16722C114.151 6.37024 112.376 5.87634 110.471 5.87634C103.936 5.87634 98.6368 11.1634 98.6368 17.6851C98.6368 24.2069 103.936 29.4939 110.471 29.4939C113.763 29.4939 116.742 28.1469 118.888 25.9749C121.462 28.1357 124.738 29.4939 128.362 29.4939C131.745 29.4939 134.824 28.3153 137.313 26.407C138.819 28.7026 141.409 30.2292 144.365 30.2292C149.018 30.2292 152.794 26.4632 152.794 21.8216C152.794 17.18 149.023 13.414 144.365 13.414V13.4084Z" fill="url(#paint21_radial_952_1255)"/>
<path id="Vector_25" style="mix-blend-mode:multiply" opacity="0.2" d="M144.365 13.4084C143.904 13.4084 143.455 13.4701 143.016 13.5431C142.393 5.97175 136.111 0 128.362 0C124.743 0 121.467 1.33017 118.911 3.49662C119.944 3.26089 121.012 3.11496 122.125 3.11496C129.873 3.11496 136.156 9.08672 136.779 16.658C137.223 16.5851 137.667 16.5233 138.128 16.5233C142.78 16.5233 146.556 20.2894 146.556 24.9309C146.556 26.9346 145.826 28.7531 144.652 30.2011C149.175 30.0496 152.799 26.3678 152.799 21.8216C152.799 17.2754 149.029 13.414 144.371 13.414L144.365 13.4084Z" fill="url(#paint22_linear_952_1255)"/>
</g>
</g>
</g>
</g>
</g>
<defs>
<linearGradient id="paint0_linear_952_1255" x1="99.5028" y1="122.174" x2="99.5028" y2="-43.9744" gradientUnits="userSpaceOnUse">
<stop stop-color="white" stop-opacity="0"/>
<stop offset="1" stop-color="#C0E4FF"/>
</linearGradient>
<linearGradient id="paint1_linear_952_1255" x1="114.718" y1="107.475" x2="142.231" y2="96.3572" gradientUnits="userSpaceOnUse">
<stop stop-color="#FFDFCF"/>
<stop offset="0.22" stop-color="#FFD9C8"/>
<stop offset="0.54" stop-color="#FFC9B6"/>
<stop offset="0.9" stop-color="#FFAF98"/>
<stop offset="1" stop-color="#FFA78F"/>
</linearGradient>
<linearGradient id="paint2_linear_952_1255" x1="111.442" y1="111.617" x2="146.573" y2="93.6851" gradientUnits="userSpaceOnUse">
<stop stop-color="#FFDFCF" stop-opacity="0"/>
<stop offset="1" stop-color="#FFA78F"/>
</linearGradient>
<linearGradient id="paint3_linear_952_1255" x1="106.184" y1="95.6719" x2="106.184" y2="129.83" gradientUnits="userSpaceOnUse">
<stop stop-color="#FFDFCF"/>
<stop offset="1" stop-color="#FFA78F"/>
</linearGradient>
<linearGradient id="paint4_linear_952_1255" x1="65.854" y1="127.147" x2="163.14" y2="116.746" gradientUnits="userSpaceOnUse">
<stop stop-color="#FFDFCF" stop-opacity="0"/>
<stop offset="1" stop-color="#FFA78F"/>
</linearGradient>
<linearGradient id="paint5_linear_952_1255" x1="44.0975" y1="134.106" x2="44.0975" y2="89.3351" gradientUnits="userSpaceOnUse">
<stop stop-color="#197BFF"/>
<stop offset="1" stop-color="#27B2FF"/>
</linearGradient>
<linearGradient id="paint6_linear_952_1255" x1="44.0975" y1="134.107" x2="44.0975" y2="89.3358" gradientUnits="userSpaceOnUse">
<stop stop-color="#27B2FF"/>
<stop offset="1" stop-color="#197BFF"/>
</linearGradient>
<linearGradient id="paint7_linear_952_1255" x1="90.6175" y1="107.397" x2="98.87" y2="95.1247" gradientUnits="userSpaceOnUse">
<stop stop-color="#FFDFCF" stop-opacity="0"/>
<stop offset="1" stop-color="#FFA78F"/>
</linearGradient>
<linearGradient id="paint8_linear_952_1255" x1="78.448" y1="110.17" x2="108.424" y2="115.086" gradientUnits="userSpaceOnUse">
<stop stop-color="#FFDFCF" stop-opacity="0"/>
<stop offset="1" stop-color="#FFA78F"/>
</linearGradient>
<linearGradient id="paint9_linear_952_1255" x1="40.8372" y1="128.129" x2="40.8372" y2="122.163" gradientUnits="userSpaceOnUse">
<stop stop-color="#5F5F60"/>
<stop offset="1" stop-color="#282828"/>
</linearGradient>
<linearGradient id="paint10_linear_952_1255" x1="110.033" y1="58.6257" x2="136.153" y2="83.4559" gradientUnits="userSpaceOnUse">
<stop stop-color="#FFC200"/>
<stop offset="0.27" stop-color="#FFBB00"/>
<stop offset="0.66" stop-color="#FFA801"/>
<stop offset="1" stop-color="#FF9102"/>
</linearGradient>
<linearGradient id="paint11_linear_952_1255" x1="89.7055" y1="38.4188" x2="123.913" y2="72.6903" gradientUnits="userSpaceOnUse">
<stop stop-color="#FFC200"/>
<stop offset="0.27" stop-color="#FFBB00"/>
<stop offset="0.66" stop-color="#FFA801"/>
<stop offset="1" stop-color="#FF9102"/>
</linearGradient>
<linearGradient id="paint12_linear_952_1255" x1="89.8263" y1="38.8144" x2="113.284" y2="62.316" gradientUnits="userSpaceOnUse">
<stop stop-color="#FFC200"/>
<stop offset="0.27" stop-color="#FFBB00"/>
<stop offset="0.66" stop-color="#FFA801"/>
<stop offset="1" stop-color="#FF9102"/>
</linearGradient>
<linearGradient id="paint13_linear_952_1255" x1="89.1386" y1="38.0453" x2="94.8282" y2="43.4588" gradientUnits="userSpaceOnUse">
<stop stop-color="#FFC200"/>
<stop offset="0.27" stop-color="#FFBB00"/>
<stop offset="0.66" stop-color="#FFA801"/>
<stop offset="1" stop-color="#FF9102"/>
</linearGradient>
<radialGradient id="paint14_radial_952_1255" cx="0" cy="0" r="1" gradientUnits="userSpaceOnUse" gradientTransform="translate(45.8237 64.4486) scale(34.3735 25.2452)">
<stop stop-color="#0781E5"/>
<stop offset="1" stop-color="white" stop-opacity="0"/>
</radialGradient>
<radialGradient id="paint15_radial_952_1255" cx="0" cy="0" r="1" gradientUnits="userSpaceOnUse" gradientTransform="translate(49.7235 37.7777) scale(34.7203 34.6799)">
<stop stop-color="white"/>
<stop offset="1" stop-color="#C0E4FF"/>
</radialGradient>
<linearGradient id="paint16_linear_952_1255" x1="61.3765" y1="68.3268" x2="61.3765" y2="38.9395" gradientUnits="userSpaceOnUse">
<stop stop-color="#EEF4FF"/>
<stop offset="1" stop-color="#7BACDF"/>
</linearGradient>
<radialGradient id="paint17_radial_952_1255" cx="0" cy="0" r="1" gradientUnits="userSpaceOnUse" gradientTransform="translate(139.692 89.0323) scale(20.7326 15.2268)">
<stop stop-color="#0781E5"/>
<stop offset="1" stop-color="white" stop-opacity="0"/>
</radialGradient>
<radialGradient id="paint18_radial_952_1255" cx="0" cy="0" r="1" gradientUnits="userSpaceOnUse" gradientTransform="translate(142.328 72.9131) scale(20.9367 20.9124)">
<stop stop-color="white"/>
<stop offset="1" stop-color="#C0E4FF"/>
</radialGradient>
<linearGradient id="paint19_linear_952_1255" x1="149.516" y1="91.3672" x2="149.516" y2="73.6427" gradientUnits="userSpaceOnUse">
<stop stop-color="#EEF4FF"/>
<stop offset="1" stop-color="#7BACDF"/>
</linearGradient>
<radialGradient id="paint20_radial_952_1255" cx="0" cy="0" r="1" gradientUnits="userSpaceOnUse" gradientTransform="translate(123.253 23.7131) scale(27.1748 19.9582)">
<stop stop-color="#0781E5"/>
<stop offset="1" stop-color="white" stop-opacity="0"/>
</radialGradient>
<radialGradient id="paint21_radial_952_1255" cx="0" cy="0" r="1" gradientUnits="userSpaceOnUse" gradientTransform="translate(126.513 2.64351) scale(27.4436 27.4117)">
<stop stop-color="white"/>
<stop offset="1" stop-color="#C0E4FF"/>
</radialGradient>
<linearGradient id="paint22_linear_952_1255" x1="135.852" y1="26.7775" x2="135.852" y2="3.54713" gradientUnits="userSpaceOnUse">
<stop stop-color="#EEF4FF"/>
<stop offset="1" stop-color="#7BACDF"/>
</linearGradient>
<clipPath id="clip0_952_1255">
<rect width="199" height="151" fill="white"/>
</clipPath>
</defs>
</svg>
