<svg width="163" height="184" viewBox="0 0 163 184" fill="none" xmlns="http://www.w3.org/2000/svg">
<path d="M0 0.5H163V183.5H0V0.5Z" fill="url(#paint0_linear_1699_21840)"/>
<path d="M13 12.5H150V172.5H13V12.5Z" fill="url(#paint1_linear_1699_21840)"/>
<mask id="mask0_1699_21840" style="mask-type:luminance" maskUnits="userSpaceOnUse" x="13" y="12" width="137" height="161">
<path d="M13 12.5H150V172.5H13V12.5Z" fill="white"/>
</mask>
<g mask="url(#mask0_1699_21840)">
<circle cx="125.5" cy="42" r="12.5" fill="url(#paint2_linear_1699_21840)"/>
<path d="M79 51.1797C86 51.1797 93 79.6199 100 136.5H58C65 79.6199 72 51.1797 79 51.1797Z" fill="url(#paint3_linear_1699_21840)"/>
<path d="M90.0333 96.3396C86.2149 96.9443 82.2089 91.686 81.0858 84.5946C79.9626 77.5033 82.1476 71.2644 85.966 70.6597C89.7844 70.0549 93.7903 75.3133 94.9134 82.4046C96.0366 89.4959 93.8516 95.7348 90.0333 96.3396Z" fill="white"/>
<path d="M75 86.5V132.668C62.3333 141.683 56 141.683 56 132.668C56 123.653 62.3333 108.264 75 86.5Z" fill="url(#paint4_linear_1699_21840)"/>
<path d="M94 116.5C106.667 125.928 113 132.595 113 136.5C113 140.405 106.667 140.405 94 136.5V116.5Z" fill="url(#paint5_linear_1699_21840)"/>
<path d="M69.3656 171.013C66.9069 174.342 62.9555 176.5 58.5 176.5C54.4754 176.5 50.8622 174.739 48.3888 171.945C46.6055 174.687 43.5145 176.5 40 176.5C36.6275 176.5 33.6449 174.83 31.8336 172.273C30.474 173.648 28.5865 174.5 26.5 174.5C24.2819 174.5 22.2887 173.537 20.9156 172.007C19.2253 173.555 16.973 174.5 14.5 174.5C9.25329 174.5 5 170.247 5 165C5 159.753 9.25329 155.5 14.5 155.5C18.0987 155.5 21.23 157.501 22.8421 160.451C23.9242 159.845 25.1718 159.5 26.5 159.5C28.3866 159.5 30.1104 160.197 31.4284 161.347C33.1783 158.442 36.3623 156.5 40 156.5C42.1697 156.5 44.1779 157.191 45.8168 158.365C47.7076 153.192 52.6726 149.5 58.5 149.5C60.5601 149.5 62.5124 149.961 64.2592 150.787C65.2565 146.607 69.0154 143.5 73.5 143.5C77.3072 143.5 80.5913 145.74 82.1068 148.973C83.7945 147.437 86.0379 146.5 88.5 146.5C92.0374 146.5 95.1233 148.433 96.7585 151.301C98.7422 150.156 101.045 149.5 103.5 149.5C109.327 149.5 114.292 153.192 116.183 158.365C117.822 157.191 119.83 156.5 122 156.5C125.638 156.5 128.822 158.442 130.572 161.347C131.89 160.197 133.613 159.5 135.5 159.5C137.149 159.5 138.674 160.032 139.912 160.934C141.435 157.722 144.708 155.5 148.5 155.5C153.747 155.5 158 159.753 158 165C158 170.247 153.747 174.5 148.5 174.5C145.747 174.5 143.267 173.329 141.532 171.458C140.166 173.303 137.973 174.5 135.5 174.5C133.413 174.5 131.526 173.648 130.166 172.273C128.355 174.83 125.373 176.5 122 176.5C118.486 176.5 115.395 174.687 113.611 171.945C111.138 174.739 107.525 176.5 103.5 176.5C99.4659 176.5 95.845 174.731 93.3712 171.925C91.7252 176.906 87.0323 180.5 81.5 180.5C75.6353 180.5 70.714 176.461 69.3656 171.013Z" fill="url(#paint6_linear_1699_21840)"/>
</g>
<defs>
<linearGradient id="paint0_linear_1699_21840" x1="-66.838" y1="-121.116" x2="-126.976" y2="317.826" gradientUnits="userSpaceOnUse">
<stop stop-color="#F7FAFF"/>
<stop offset="1" stop-color="#6B9AD9"/>
</linearGradient>
<linearGradient id="paint1_linear_1699_21840" x1="-106.731" y1="-23.0524" x2="-258.639" y2="403.402" gradientUnits="userSpaceOnUse">
<stop stop-color="#F7FAFF"/>
<stop offset="1" stop-color="#6B9AD9"/>
</linearGradient>
<linearGradient id="paint2_linear_1699_21840" x1="102.749" y1="12.8858" x2="95.4031" y2="73.0797" gradientUnits="userSpaceOnUse">
<stop stop-color="#F7FAFF"/>
<stop offset="1" stop-color="#6B9AD9"/>
</linearGradient>
<linearGradient id="paint3_linear_1699_21840" x1="36.0992" y1="-37.8007" x2="36.0992" y2="136.5" gradientUnits="userSpaceOnUse">
<stop stop-color="white"/>
<stop offset="1" stop-color="#B3CDEF"/>
</linearGradient>
<linearGradient id="paint4_linear_1699_21840" x1="71.1249" y1="55.2803" x2="30.2394" y2="114.479" gradientUnits="userSpaceOnUse">
<stop stop-color="#E5EDFF"/>
<stop offset="1" stop-color="#6B9AD9"/>
</linearGradient>
<linearGradient id="paint5_linear_1699_21840" x1="109.125" y1="102.976" x2="98.7234" y2="137.741" gradientUnits="userSpaceOnUse">
<stop stop-color="#E5EDFF"/>
<stop offset="1" stop-color="#6B9AD9"/>
</linearGradient>
<linearGradient id="paint6_linear_1699_21840" x1="-63.0928" y1="143.5" x2="-63.0928" y2="213.434" gradientUnits="userSpaceOnUse">
<stop stop-color="#F7FAFF"/>
<stop offset="1" stop-color="white"/>
</linearGradient>
</defs>
</svg>
