<svg width="265" height="265" viewBox="0 0 265 265" fill="none" xmlns="http://www.w3.org/2000/svg">
<g opacity="0.1">
<path d="M132.753 257.206C98.6416 257.206 65.6698 242.949 42.2916 218.092C39.8128 215.456 39.9401 211.309 42.5761 208.83C45.2114 206.35 49.3597 206.479 51.8369 209.115C73.0564 231.676 101.793 244.102 132.753 244.102C193.994 244.102 243.817 194.282 243.817 133.046C243.817 118.148 240.918 103.692 235.201 90.0779C233.8 86.7418 235.369 82.9014 238.705 81.5006C242.042 80.0982 245.881 81.6684 247.282 85.0045C253.678 100.233 256.92 116.397 256.92 133.046C256.92 201.508 201.219 257.206 132.753 257.206Z" fill="#435E88"/>
<path d="M40.6455 234.66C37.0271 234.66 34.0938 231.726 34.0938 228.108V207.425C34.0938 203.806 37.0271 200.873 40.6455 200.873H61.329C64.9474 200.873 67.8807 203.806 67.8807 207.425C67.8807 211.043 64.9474 213.977 61.329 213.977H47.1973V228.108C47.1973 231.726 44.2639 234.66 40.6455 234.66Z" fill="#435E88"/>
</g>
<g opacity="0.1">
<path d="M132.247 7.79395C166.358 7.79393 199.33 22.0506 222.708 46.908C225.187 49.5436 225.06 53.6901 222.424 56.1692C219.788 58.649 215.64 58.5207 213.163 55.885C191.943 33.3231 163.207 20.8974 132.247 20.8975C71.0062 20.8975 21.1831 70.7172 21.1831 131.954C21.1831 146.851 24.0819 161.308 29.7988 174.922C31.1997 178.258 29.631 182.098 26.2949 183.499C22.958 184.901 19.1191 183.331 17.7175 179.995C11.3224 164.766 8.07959 148.603 8.07959 131.954C8.07957 63.4918 63.7807 7.79397 132.247 7.79395Z" fill="#435E88"/>
<path d="M224.354 30.3398C227.973 30.3398 230.906 33.2732 230.906 36.8916L230.906 57.5747C230.906 61.1931 227.973 64.1264 224.354 64.1264L203.671 64.1265C200.053 64.1265 197.119 61.1931 197.119 57.5747C197.119 53.9563 200.053 51.023 203.671 51.023L217.803 51.023V36.8916C217.803 33.2732 220.736 30.3398 224.354 30.3398Z" fill="#435E88"/>
</g>
<g opacity="0.6">
<path d="M217.059 85.0573V116.823C217.059 122.049 212.823 126.285 207.597 126.285H57.4025C52.177 126.285 47.9409 122.049 47.9409 116.823V85.0573C47.9409 79.8318 52.177 75.5957 57.4025 75.5957H207.597C212.823 75.5957 217.059 79.8318 217.059 85.0573Z" fill="#FFD80C"/>
<path d="M217.059 85.0573V116.801C217.059 122.051 212.802 126.263 207.597 126.263H57.394L207.597 75.5957C212.802 75.5957 217.059 79.853 217.059 85.0573Z" fill="#FFBE00"/>
<path d="M65.0089 102.418L82.9201 92.0769C84.9603 90.8989 87.5453 91.591 88.7236 93.6319C89.9019 95.6728 89.2239 98.2837 87.1837 99.4616L69.2725 109.803C67.2322 110.981 64.6322 110.262 63.4539 108.221C62.2755 106.18 62.9687 103.596 65.0089 102.418Z" fill="white"/>
<path d="M82.9201 109.803L65.0089 99.4618C62.9687 98.2839 62.2755 95.6993 63.4539 93.6584C64.6322 91.6175 67.2322 90.8992 69.2725 92.0771L87.1837 102.418C89.2239 103.596 89.9019 106.207 88.7236 108.248C87.5453 110.289 84.9603 110.981 82.9201 109.803Z" fill="white"/>
<path d="M80.3597 90.599V111.281C80.3597 113.637 78.4679 115.53 76.1113 115.53C73.7546 115.53 71.8325 113.637 71.8325 111.281V90.599C71.8325 88.2432 73.7546 86.3506 76.1113 86.3506C78.4679 86.3506 80.3597 88.2432 80.3597 90.599Z" fill="white"/>
<path d="M102.615 102.418L120.526 92.0769C122.566 90.8989 125.151 91.591 126.33 93.6319C127.508 95.6728 126.83 98.2837 124.79 99.4616L106.878 109.803C104.838 110.981 102.238 110.262 101.06 108.221C99.8815 106.18 100.575 103.596 102.615 102.418Z" fill="white"/>
<path d="M120.526 109.803L102.615 99.4618C100.575 98.2839 99.8815 95.6993 101.06 93.6584C102.238 91.6175 104.838 90.8992 106.878 92.0771L124.79 102.418C126.83 103.596 127.508 106.207 126.33 108.248C125.151 110.289 122.566 110.981 120.526 109.803Z" fill="white"/>
<path d="M117.966 90.599V111.281C117.966 113.637 116.074 115.53 113.717 115.53C111.361 115.53 109.438 113.637 109.438 111.281V90.599C109.438 88.2432 111.361 86.3506 113.717 86.3506C116.074 86.3506 117.966 88.2432 117.966 90.599Z" fill="white"/>
<path d="M140.221 102.418L158.132 92.0769C160.172 90.8989 162.757 91.591 163.935 93.6319C165.114 95.6728 164.436 98.2837 162.396 99.4616L144.484 109.803C142.444 110.981 139.844 110.262 138.666 108.221C137.487 106.18 138.181 103.596 140.221 102.418Z" fill="white"/>
<path d="M158.132 109.803L140.221 99.4618C138.181 98.2839 137.487 95.6993 138.666 93.6584C139.844 91.6175 142.444 90.8992 144.484 92.0771L162.396 102.418C164.436 103.596 165.114 106.207 163.935 108.248C162.757 110.289 160.172 110.981 158.132 109.803Z" fill="white"/>
<path d="M155.572 90.599V111.281C155.572 113.637 153.68 115.53 151.323 115.53C148.967 115.53 147.044 113.637 147.044 111.281V90.599C147.044 88.2432 148.967 86.3506 151.323 86.3506C153.68 86.3506 155.572 88.2432 155.572 90.599Z" fill="white"/>
<path d="M177.827 102.418L195.738 92.0769C197.779 90.8989 200.364 91.591 201.542 93.6319C202.72 95.6728 202.042 98.2837 200.002 99.4616L182.091 109.803C180.051 110.981 177.451 110.262 176.272 108.221C175.094 106.18 175.787 103.596 177.827 102.418Z" fill="white"/>
<path d="M195.738 109.803L177.827 99.4618C175.787 98.2839 175.094 95.6993 176.272 93.6584C177.451 91.6175 180.051 90.8992 182.091 92.0771L200.002 102.418C202.042 103.596 202.72 106.207 201.542 108.248C200.364 110.289 197.779 110.981 195.738 109.803Z" fill="white"/>
<path d="M193.178 90.599V111.281C193.178 113.637 191.286 115.53 188.93 115.53C186.573 115.53 184.651 113.637 184.651 111.281V90.599C184.651 88.2432 186.573 86.3506 188.93 86.3506C191.286 86.3506 193.178 88.2432 193.178 90.599Z" fill="white"/>
<path d="M217.059 148.177V179.943C217.059 185.169 212.823 189.405 207.597 189.405H57.4025C52.177 189.405 47.9409 185.169 47.9409 179.943V148.177C47.9409 142.952 52.177 138.716 57.4025 138.716H207.597C212.823 138.716 217.059 142.952 217.059 148.177Z" fill="#C175FF"/>
<path d="M217.059 148.177V179.921C217.059 185.172 212.802 189.383 207.597 189.383H57.394L207.597 138.716C212.802 138.716 217.059 142.973 217.059 148.177Z" fill="#B244F1"/>
<path d="M65.0089 165.538L82.9201 155.197C84.9603 154.019 87.5453 154.711 88.7236 156.752C89.9019 158.793 89.2239 161.404 87.1837 162.582L69.2725 172.923C67.2322 174.101 64.6322 173.382 63.4539 171.342C62.2755 169.301 62.9687 166.716 65.0089 165.538Z" fill="white"/>
<path d="M82.9201 172.923L65.0089 162.582C62.9687 161.404 62.2755 158.819 63.4539 156.778C64.6322 154.738 67.2322 154.019 69.2725 155.197L87.1837 165.538C89.2239 166.716 89.9019 169.327 88.7236 171.368C87.5453 173.409 84.9603 174.101 82.9201 172.923Z" fill="white"/>
<path d="M80.3597 153.719V174.401C80.3597 176.757 78.4679 178.65 76.1113 178.65C73.7546 178.65 71.8325 176.757 71.8325 174.401V153.719C71.8325 151.363 73.7546 149.471 76.1113 149.471C78.4679 149.471 80.3597 151.363 80.3597 153.719Z" fill="white"/>
<path d="M102.615 165.538L120.526 155.197C122.566 154.019 125.151 154.711 126.33 156.752C127.508 158.793 126.83 161.404 124.79 162.582L106.878 172.923C104.838 174.101 102.238 173.382 101.06 171.342C99.8815 169.301 100.575 166.716 102.615 165.538Z" fill="white"/>
<path d="M120.526 172.923L102.615 162.582C100.575 161.404 99.8815 158.819 101.06 156.778C102.238 154.738 104.838 154.019 106.878 155.197L124.79 165.538C126.83 166.716 127.508 169.327 126.33 171.368C125.151 173.409 122.566 174.101 120.526 172.923Z" fill="white"/>
<path d="M117.966 153.719V174.401C117.966 176.757 116.074 178.65 113.717 178.65C111.361 178.65 109.438 176.757 109.438 174.401V153.719C109.438 151.363 111.361 149.471 113.717 149.471C116.074 149.471 117.966 151.363 117.966 153.719Z" fill="white"/>
<path d="M140.221 165.538L158.132 155.197C160.172 154.019 162.757 154.711 163.935 156.752C165.114 158.793 164.436 161.404 162.396 162.582L144.484 172.923C142.444 174.101 139.844 173.382 138.666 171.342C137.487 169.301 138.181 166.716 140.221 165.538Z" fill="white"/>
<path d="M158.132 172.923L140.221 162.582C138.181 161.404 137.487 158.819 138.666 156.778C139.844 154.738 142.444 154.019 144.484 155.197L162.396 165.538C164.436 166.716 165.114 169.327 163.935 171.368C162.757 173.409 160.172 174.101 158.132 172.923Z" fill="white"/>
<path d="M155.572 153.719V174.401C155.572 176.757 153.68 178.65 151.323 178.65C148.967 178.65 147.044 176.757 147.044 174.401V153.719C147.044 151.363 148.967 149.471 151.323 149.471C153.68 149.471 155.572 151.363 155.572 153.719Z" fill="white"/>
<path d="M177.827 165.538L195.738 155.197C197.779 154.019 200.364 154.711 201.542 156.752C202.72 158.793 202.042 161.404 200.002 162.582L182.091 172.923C180.051 174.101 177.451 173.382 176.272 171.342C175.094 169.301 175.787 166.716 177.827 165.538Z" fill="white"/>
<path d="M195.738 172.923L177.827 162.582C175.787 161.404 175.094 158.819 176.272 156.778C177.451 154.738 180.051 154.019 182.091 155.197L200.002 165.538C202.042 166.716 202.72 169.327 201.542 171.368C200.364 173.409 197.779 174.101 195.738 172.923Z" fill="white"/>
<path d="M193.178 153.719V174.401C193.178 176.757 191.286 178.65 188.93 178.65C186.573 178.65 184.651 176.757 184.651 174.401V153.719C184.651 151.363 186.573 149.471 188.93 149.471C191.286 149.471 193.178 151.363 193.178 153.719Z" fill="white"/>
</g>
</svg>
