<svg width="800" height="682" viewBox="0 0 800 682" fill="none" xmlns="http://www.w3.org/2000/svg">
<ellipse opacity="0.4" cx="613.953" cy="252.35" rx="186.047" ry="185.864" fill="#E2EBFC"/>
<ellipse opacity="0.4" cx="186.047" cy="374.155" rx="186.047" ry="185.864" fill="#E2EBFC"/>
<path d="M139.199 19.8596H142.965V587.888H139.199V19.8596Z" fill="url(#paint0_linear_1553_15168)"/>
<path d="M54.415 38.6819H58.1812V531.42H54.415V38.6819Z" fill="url(#paint1_linear_1553_15168)"/>
<path d="M214.562 29.2705H218.329V625.532H214.562V29.2705Z" fill="url(#paint2_linear_1553_15168)"/>
<path d="M289.927 48.093H293.693V606.71H289.927V48.093Z" fill="url(#paint3_linear_1553_15168)"/>
<path d="M365.291 29.2705H369.057V587.887H365.291V29.2705Z" fill="url(#paint4_linear_1553_15168)"/>
<path d="M440.654 19.8596H444.42V587.888H440.654V19.8596Z" fill="url(#paint5_linear_1553_15168)"/>
<path d="M516.018 19.8596H519.784V616.121H516.018V19.8596Z" fill="url(#paint6_linear_1553_15168)"/>
<path d="M591.381 10.4482H595.147V682H591.381V10.4482Z" fill="url(#paint7_linear_1553_15168)"/>
<path d="M666.745 10.4482H670.511V644.355H666.745V10.4482Z" fill="url(#paint8_linear_1553_15168)"/>
<path d="M742.109 10.4482H745.876V597.299H742.109V10.4482Z" fill="url(#paint9_linear_1553_15168)"/>
<rect width="107.386" height="136.472" rx="2.5" transform="matrix(0.965989 -0.258581 0.259057 0.965862 327.084 338.807)" fill="url(#paint10_linear_1553_15168)"/>
<path fill-rule="evenodd" clip-rule="evenodd" d="M340.507 348.855L388.734 335.945L390.197 341.399L341.97 354.309L340.507 348.855ZM353.508 360.964L429.033 340.746L430.496 346.201L354.97 366.418L353.508 360.964ZM425.141 435.323L404.213 440.926L405.676 446.38L426.604 440.778L425.141 435.323Z" fill="white"/>
<rect width="107.35" height="136.519" rx="2.5" transform="matrix(0.766356 -0.642416 0.643159 0.765733 311.592 410.688)" fill="url(#paint11_linear_1553_15168)"/>
<rect width="21.6583" height="5.64905" transform="matrix(0.766356 -0.642416 0.643159 0.765733 446.344 452.526)" fill="#B7C8FF"/>
<rect width="21.6583" height="5.64905" transform="matrix(0.766356 -0.642416 0.643159 0.765733 424.693 470.675)" fill="#FDC2C0"/>
<rect width="49.9082" height="5.64905" transform="matrix(0.766356 -0.642416 0.643159 0.765733 328.008 414.127)" fill="#B4CCED"/>
<path fill-rule="evenodd" clip-rule="evenodd" d="M404.81 369.402L344.913 419.612L348.546 423.938L408.443 373.728L404.81 369.402ZM414.499 380.938L347.385 437.197L351.018 441.523L418.132 385.263L414.499 380.938ZM357.074 448.732L388.105 422.72L391.738 427.045L360.707 453.058L357.074 448.732ZM433.876 404.008L373.979 454.218L377.612 458.543L437.509 408.333L433.876 404.008ZM376.451 471.802L443.565 415.543L447.198 419.869L380.084 476.128L376.451 471.802ZM431.603 445.226L386.139 483.337L389.773 487.663L435.237 449.552L431.603 445.226Z" fill="#75A1DC"/>
<ellipse cx="534.857" cy="478.187" rx="43.3341" ry="43.2918" transform="rotate(-180 534.857 478.187)" fill="url(#paint12_linear_1553_15168)"/>
<path d="M540.51 521.474C540.51 524.076 538.401 526.185 535.8 526.185C533.198 526.185 531.089 524.076 531.089 521.474V504.539H540.51V521.474Z" fill="url(#paint13_linear_1553_15168)"/>
<ellipse cx="534.857" cy="477.246" rx="29.2034" ry="29.1749" transform="rotate(-180 534.857 477.246)" fill="url(#paint14_linear_1553_15168)"/>
<ellipse cx="534.858" cy="477.246" rx="23.5512" ry="23.5281" transform="rotate(-180 534.858 477.246)" fill="#7D95C9" style="mix-blend-mode:multiply"/>
<path d="M396.229 233.909C399.523 265.188 422.491 301.797 422.491 301.797C422.491 301.797 433.167 312.204 436.119 324.979C438.948 337.221 453.774 340.558 450.764 345.061C450.157 345.968 447.031 347.351 442.576 346.949C438.513 346.583 431.366 336.829 426.901 335.919C424.977 335.526 424.332 341.917 423.962 346.027C423.684 349.117 424.26 355.204 424.599 356.671C424.938 358.138 435.79 375.353 436.119 376.777C430.215 381.299 404.107 356.602 400.995 350.446C395.431 339.438 388.401 299.615 388.401 299.615C388.401 299.615 361.107 250.473 362.856 235.794C365.021 217.62 379.219 216.549 396.229 233.909Z" fill="url(#paint15_linear_1553_15168)"/>
<path d="M456.945 9.74596C426.869 62.9301 375.423 149.88 401.297 238.343C401.297 238.343 386.533 237.165 380.305 238.919C373.432 240.856 361.996 249.416 361.996 249.416C361.996 249.416 316.823 102.452 351.706 23.7529C405.752 11.2877 420.527 18.1456 456.945 9.74596Z" fill="url(#paint16_linear_1553_15168)"/>
<ellipse cx="5.181" cy="5.17645" rx="5.181" ry="5.17645" transform="matrix(-0.974419 0.224741 -0.225161 -0.974321 391.916 225.172)" fill="#D2D9FF"/>
<ellipse cx="5.181" cy="5.17645" rx="5.181" ry="5.17645" transform="matrix(-0.974419 0.224741 -0.225161 -0.974321 387.889 207.748)" fill="#D2D9FF"/>
<ellipse cx="426.05" cy="386.428" rx="5.18125" ry="5.17619" fill="url(#paint17_linear_1553_15168)"/>
<ellipse cx="456.197" cy="385.486" rx="5.18125" ry="5.17619" fill="url(#paint18_linear_1553_15168)"/>
<path d="M431.531 427.913C434.828 401.061 422.67 365.939 422.67 365.939C422.67 365.939 415.738 355.153 415.738 343.876C415.738 333.069 400.166 318.521 403.561 315.329C404.245 314.686 407.133 314.131 410.789 315.329C414.124 316.422 427.966 336.639 431.531 338.264C432.451 338.684 434.598 342.853 440.543 345.451C444.53 347.193 450.374 346.805 450.818 345.451C451.65 342.915 439.129 333.047 436.831 328.374C435.249 325.155 432.46 318.417 428.988 310.622C427.419 307.102 419.932 300.827 421.744 300.003C427.568 297.354 452.278 322.613 453.693 328.374C456.225 338.676 450.818 374.358 450.818 374.358C450.818 374.358 464.176 420.82 459.867 432.784C454.532 447.598 442.425 445.751 431.531 427.913Z" fill="url(#paint19_linear_1553_15168)"/>
<ellipse cx="428.878" cy="390.192" rx="5.18125" ry="5.17619" fill="url(#paint20_linear_1553_15168)"/>
<ellipse cx="436.414" cy="393.957" rx="5.18125" ry="5.17619" fill="url(#paint21_linear_1553_15168)"/>
<ellipse cx="444.892" cy="393.016" rx="5.18125" ry="5.17619" fill="url(#paint22_linear_1553_15168)"/>
<ellipse cx="453.371" cy="390.192" rx="5.18125" ry="5.17619" fill="url(#paint23_linear_1553_15168)"/>
<path d="M337.228 604.05C372.736 565.29 432.694 502.361 428.142 423.217C428.142 423.217 440.288 427.059 445.848 426.792C451.983 426.498 463.226 421.534 463.226 421.534C463.226 421.534 472.621 553.438 428.142 612.654C380.432 612.654 369.377 604.05 337.228 604.05Z" fill="url(#paint24_linear_1553_15168)"/>
<path fill-rule="evenodd" clip-rule="evenodd" d="M456.205 424.358L463.937 432.796C464.019 434.281 464.095 435.757 464.166 437.227L453.263 425.329C454.199 425.046 455.18 424.722 456.205 424.358ZM363.941 606.196L349.588 590.533C350.218 589.836 350.852 589.135 351.49 588.427L367.593 606.001L394.251 584.118L374.36 562.411L372.54 563.904C375.221 560.585 377.894 557.178 380.539 553.685L397.813 539.505L393.72 535.037C394.252 534.225 394.781 533.408 395.307 532.588L400 537.71L422.473 519.264L410.279 505.957C410.72 505.041 411.155 504.122 411.583 503.199L424.659 517.469L447.125 499.028L429.83 480.153L415.037 495.347C415.97 493.101 416.864 490.834 417.716 488.547L427.919 478.067L422.855 472.541C423.147 471.459 423.429 470.372 423.7 469.281L429.893 476.04L447.868 457.579L433.768 442.191L427.405 448.879C427.579 447.361 427.731 445.836 427.859 444.304L431.855 440.104L428.32 436.246C428.361 434.882 428.384 433.512 428.387 432.138L433.807 438.052L444.512 426.8C444.985 426.815 445.43 426.812 445.848 426.792C446.735 426.75 447.702 426.634 448.748 426.445L435.72 440.14L449.841 455.551L464.323 440.678C464.378 441.981 464.43 443.278 464.477 444.569L451.753 457.637L464.823 471.901C464.806 473.277 464.783 474.646 464.754 476.007L449.779 459.665L431.804 478.126L449.312 497.233L464.488 484.776C464.437 486.047 464.381 487.311 464.32 488.568L451.223 499.318L462.546 511.675C462.412 512.924 462.272 514.165 462.126 515.398L449.036 501.113L426.57 519.554L446.462 541.262L460.052 530.106C459.816 531.537 459.571 532.956 459.317 534.364L448.373 543.348L455.694 551.338C455.421 552.435 455.142 553.524 454.856 554.605L446.186 545.143L423.714 563.589L441.698 583.216L446.806 579.023C446.036 580.926 445.242 582.796 444.424 584.633L443.609 585.301L443.954 585.677C443.53 586.61 443.1 587.535 442.664 588.451L441.422 587.096L418.245 606.121L424.212 612.634C422.887 612.62 421.592 612.6 420.325 612.573L416.058 607.916L410.801 612.232C409.378 612.159 407.994 612.077 406.645 611.988L414.147 605.831L396.162 586.204L370.5 607.268C368.304 606.895 366.132 606.534 363.941 606.196ZM439.511 585.011L416.333 604.036L398.349 584.409L421.526 565.384L439.511 585.011ZM444.274 543.057L424.383 521.349L401.911 539.795L421.802 561.503L444.274 543.057ZM399.724 541.59L419.615 563.298L396.438 582.324L376.546 560.616L399.724 541.59Z" fill="#84F0A8"/>
<g opacity="0.2">
<path d="M462.572 421.821C462.789 421.727 463.007 421.631 463.226 421.534C469.49 509.47 457.795 573.177 428.143 612.654C422.514 612.654 417.395 612.534 412.692 612.323C449.847 569.441 466.473 505.94 462.572 421.821Z" fill="url(#paint25_linear_1553_15168)" style="mix-blend-mode:multiply"/>
</g>
<path d="M225.208 365.01L351.459 488.936L352.138 490.521C352.743 491.936 352.426 493.575 351.337 494.663L270.539 575.381C269.068 576.852 266.682 576.852 265.21 575.381L139.258 449.552C138.1 448.395 137.822 446.623 138.572 445.168L139.594 443.185L219.937 364.999C221.405 363.571 223.746 363.576 225.208 365.01Z" fill="url(#paint26_linear_1553_15168)"/>
<rect width="184.55" height="120.523" rx="5" transform="matrix(0.707455 0.706759 -0.707455 0.706759 222.579 359.606)" fill="url(#paint27_linear_1553_15168)"/>
<g opacity="0.1">
<path d="M194.776 397.967C196.729 396.011 199.9 396.009 201.855 397.963L313.433 509.431C315.385 511.382 315.387 514.543 313.437 516.495L271.804 558.183C269.851 560.139 266.681 560.14 264.725 558.187L153.147 446.718C151.195 444.768 151.193 441.607 153.143 439.655L194.776 397.967Z" fill="url(#paint28_linear_1553_15168)" style="mix-blend-mode:multiply"/>
</g>
<path fill-rule="evenodd" clip-rule="evenodd" d="M213.001 416.143L206.719 422.39C206.373 422.735 205.819 422.74 205.483 422.402L199.904 416.791C199.568 416.453 199.577 415.899 199.923 415.555L206.205 409.307C206.551 408.962 207.105 408.957 207.441 409.296L213.019 414.906C213.356 415.244 213.347 415.799 213.001 416.143ZM271.81 549.002C271.464 549.347 270.91 549.352 270.573 549.014L264.894 543.301C264.557 542.963 264.566 542.409 264.913 542.064L270.356 536.65C270.703 536.305 271.257 536.3 271.593 536.638L277.273 542.351C277.609 542.689 277.6 543.244 277.254 543.588L271.81 549.002ZM264.203 541.35C263.856 541.695 263.302 541.7 262.965 541.362L257.286 535.649C256.949 535.311 256.958 534.757 257.305 534.412L262.748 528.998C263.095 528.653 263.649 528.648 263.985 528.986L269.665 534.699C270.001 535.037 269.992 535.591 269.646 535.936L264.203 541.35ZM267.584 529.465C267.237 529.81 266.683 529.815 266.347 529.477L260.667 523.764C260.331 523.426 260.339 522.871 260.686 522.527L266.129 517.113C266.476 516.768 267.03 516.763 267.366 517.101L273.046 522.814C273.382 523.152 273.374 523.706 273.027 524.051L267.584 529.465ZM259.976 521.813C259.629 522.158 259.076 522.163 258.739 521.825L253.059 516.112C252.723 515.774 252.732 515.219 253.078 514.875L258.522 509.461C258.868 509.116 259.422 509.111 259.759 509.449L265.438 515.162C265.775 515.5 265.766 516.054 265.419 516.399L259.976 521.813ZM252.368 514.161C252.021 514.506 251.468 514.511 251.131 514.173L245.451 508.46C245.115 508.122 245.124 507.567 245.47 507.223L250.914 501.809C251.26 501.464 251.814 501.458 252.151 501.797L257.83 507.51C258.167 507.848 258.158 508.402 257.811 508.747L252.368 514.161ZM244.76 506.508C244.413 506.853 243.86 506.859 243.523 506.52L237.843 500.808C237.507 500.469 237.516 499.915 237.862 499.571L243.306 494.157C243.653 493.812 244.206 493.806 244.543 494.145L250.222 499.857C250.559 500.196 250.55 500.75 250.204 501.095L244.76 506.508ZM237.153 498.856C236.806 499.201 236.252 499.207 235.915 498.868L230.236 493.156C229.899 492.817 229.908 492.263 230.255 491.919L235.698 486.505C236.045 486.16 236.599 486.154 236.935 486.493L242.615 492.205C242.951 492.544 242.942 493.098 242.596 493.443L237.153 498.856ZM229.544 491.204C229.197 491.549 228.644 491.555 228.307 491.216L222.627 485.504C222.291 485.165 222.3 484.611 222.646 484.267L228.09 478.853C228.436 478.508 228.99 478.502 229.327 478.841L235.006 484.553C235.343 484.892 235.334 485.446 234.987 485.791L229.544 491.204ZM221.937 483.552C221.59 483.897 221.036 483.903 220.7 483.564L215.02 477.852C214.684 477.513 214.692 476.959 215.039 476.614L220.482 471.201C220.829 470.856 221.383 470.85 221.719 471.189L227.399 476.901C227.735 477.24 227.727 477.794 227.38 478.138L221.937 483.552ZM214.328 475.9C213.981 476.245 213.428 476.251 213.091 475.912L207.412 470.2C207.075 469.861 207.084 469.307 207.431 468.962L212.874 463.549C213.221 463.204 213.774 463.198 214.111 463.537L219.791 469.249C220.127 469.588 220.118 470.142 219.772 470.486L214.328 475.9ZM256.595 533.698C256.248 534.043 255.694 534.048 255.358 533.71L249.678 527.997C249.342 527.659 249.351 527.105 249.697 526.76L255.14 521.346C255.487 521.001 256.041 520.996 256.378 521.334L262.057 527.047C262.394 527.385 262.385 527.939 262.038 528.284L256.595 533.698ZM248.987 526.046C248.64 526.391 248.086 526.396 247.75 526.058L242.07 520.345C241.734 520.007 241.742 519.452 242.089 519.108L247.532 513.694C247.879 513.349 248.433 513.344 248.769 513.682L254.449 519.395C254.785 519.733 254.777 520.287 254.43 520.632L248.987 526.046ZM241.379 518.393C241.033 518.738 240.479 518.744 240.142 518.405L234.463 512.693C234.126 512.354 234.135 511.8 234.482 511.456L239.925 506.042C240.272 505.697 240.825 505.691 241.162 506.03L246.842 511.743C247.178 512.081 247.169 512.635 246.823 512.98L241.379 518.393ZM233.771 510.741C233.424 511.086 232.871 511.092 232.534 510.753L226.854 505.041C226.518 504.702 226.527 504.148 226.873 503.804L232.317 498.39C232.664 498.045 233.217 498.039 233.554 498.378L239.233 504.09C239.57 504.429 239.561 504.983 239.214 505.328L233.771 510.741ZM226.163 503.089C225.816 503.434 225.263 503.44 224.926 503.101L219.247 497.389C218.91 497.05 218.919 496.496 219.265 496.151L224.709 490.738C225.056 490.393 225.609 490.387 225.946 490.726L231.625 496.438C231.962 496.777 231.953 497.331 231.607 497.676L226.163 503.089ZM218.556 495.437C218.209 495.782 217.655 495.788 217.319 495.449L211.639 489.737C211.303 489.398 211.311 488.844 211.658 488.499L217.101 483.086C217.448 482.741 218.002 482.735 218.338 483.074L224.018 488.786C224.354 489.125 224.345 489.679 223.999 490.024L218.556 495.437ZM210.947 487.785C210.601 488.13 210.047 488.136 209.71 487.797L204.031 482.085C203.694 481.746 203.703 481.192 204.05 480.847L209.493 475.434C209.84 475.089 210.393 475.083 210.73 475.422L216.41 481.134C216.746 481.473 216.737 482.027 216.391 482.371L210.947 487.785ZM203.34 480.133C202.993 480.478 202.439 480.484 202.103 480.145L196.423 474.433C196.087 474.094 196.095 473.54 196.442 473.195L201.885 467.782C202.232 467.437 202.786 467.431 203.122 467.77L208.802 473.482C209.138 473.821 209.13 474.375 208.783 474.719L203.34 480.133ZM279.452 541.402C279.105 541.747 278.551 541.752 278.216 541.415L268.375 531.517C268.039 531.18 268.049 530.626 268.395 530.281L273.838 524.867C274.185 524.522 274.739 524.517 275.075 524.854L284.915 534.752C285.251 535.09 285.242 535.644 284.895 535.988L279.452 541.402ZM266.472 554.312C266.125 554.657 265.571 554.662 265.236 554.324L259.352 548.406C259.016 548.068 259.025 547.514 259.371 547.17L262.512 544.046C262.859 543.701 263.413 543.696 263.748 544.034L269.632 549.952C269.968 550.29 269.959 550.844 269.613 551.188L266.472 554.312ZM258.56 546.354C258.213 546.698 257.659 546.703 257.324 546.366L251.44 540.448C251.104 540.11 251.113 539.556 251.459 539.212L254.6 536.087C254.947 535.743 255.501 535.738 255.836 536.075L261.72 541.993C262.056 542.331 262.047 542.885 261.701 543.229L258.56 546.354ZM250.647 538.396C250.3 538.74 249.746 538.745 249.411 538.408L243.527 532.49C243.191 532.152 243.2 531.598 243.546 531.254L246.688 528.129C247.034 527.785 247.588 527.78 247.924 528.117L253.807 534.035C254.143 534.373 254.134 534.927 253.788 535.271L250.647 538.396ZM242.735 530.437C242.389 530.782 241.835 530.787 241.499 530.449L235.615 524.532C235.279 524.194 235.289 523.639 235.634 523.295L238.776 520.171C239.122 519.826 239.676 519.822 240.012 520.159L245.895 526.077C246.232 526.415 246.222 526.969 245.876 527.313L242.735 530.437ZM234.823 522.479C234.476 522.824 233.922 522.829 233.587 522.491L227.703 516.573C227.367 516.235 227.376 515.681 227.722 515.337L230.863 512.213C231.21 511.868 231.764 511.863 232.099 512.201L237.983 518.119C238.319 518.457 238.31 519.011 237.964 519.355L234.823 522.479ZM226.911 514.521C226.564 514.866 226.01 514.871 225.675 514.533L219.791 508.615C219.455 508.277 219.464 507.723 219.81 507.379L222.951 504.255C223.298 503.91 223.852 503.905 224.188 504.243L230.071 510.161C230.407 510.499 230.398 511.053 230.052 511.397L226.911 514.521ZM218.999 506.563C218.652 506.908 218.098 506.913 217.763 506.575L211.879 500.657C211.543 500.319 211.552 499.765 211.898 499.421L215.039 496.297C215.386 495.952 215.94 495.947 216.275 496.285L222.159 502.203C222.495 502.541 222.486 503.095 222.14 503.439L218.999 506.563ZM211.086 498.605C210.74 498.949 210.186 498.954 209.85 498.617L203.966 492.699C203.63 492.361 203.64 491.807 203.985 491.463L207.127 488.338C207.473 487.994 208.027 487.989 208.363 488.326L214.247 494.244C214.583 494.582 214.573 495.136 214.227 495.48L211.086 498.605ZM203.174 490.646C202.827 490.991 202.274 490.996 201.938 490.659L196.054 484.741C195.718 484.403 195.728 483.848 196.073 483.504L199.215 480.38C199.561 480.036 200.115 480.031 200.451 480.368L206.334 486.286C206.671 486.624 206.661 487.178 206.315 487.522L203.174 490.646ZM195.262 482.688C194.915 483.033 194.361 483.038 194.026 482.7L188.142 476.782C187.806 476.444 187.815 475.89 188.161 475.546L191.303 472.422C191.649 472.077 192.203 472.072 192.539 472.41L198.422 478.328C198.758 478.666 198.749 479.22 198.403 479.564L195.262 482.688ZM169.493 430.804L182.577 417.79C182.924 417.445 183.478 417.44 183.814 417.778L187.77 421.757C188.106 422.095 188.098 422.648 187.751 422.994L180.737 429.969L181.853 431.091C182.189 431.429 182.18 431.983 181.834 432.328L176.391 437.742C176.044 438.087 175.49 438.092 175.153 437.754L169.474 432.041C169.137 431.703 169.146 431.148 169.493 430.804ZM212.739 459.016C212.392 459.361 211.838 459.366 211.502 459.028L205.822 453.315C205.486 452.977 205.495 452.422 205.841 452.078L211.284 446.664C211.631 446.319 212.185 446.314 212.522 446.652L218.201 452.365C218.538 452.703 218.529 453.257 218.182 453.602L212.739 459.016ZM205.131 451.364C204.784 451.709 204.23 451.714 203.894 451.376L198.214 445.663C197.878 445.325 197.886 444.77 198.233 444.426L203.676 439.012C204.023 438.667 204.577 438.662 204.913 439L210.593 444.713C210.929 445.051 210.921 445.605 210.574 445.95L205.131 451.364ZM197.523 443.711C197.176 444.056 196.623 444.062 196.286 443.723L190.606 438.011C190.27 437.672 190.279 437.118 190.625 436.774L196.069 431.36C196.415 431.015 196.969 431.009 197.306 431.348L202.985 437.06C203.322 437.399 203.313 437.953 202.966 438.298L197.523 443.711ZM189.915 436.059C189.569 436.404 189.015 436.41 188.678 436.071L182.999 430.359C182.662 430.02 182.671 429.466 183.018 429.121L188.461 423.708C188.808 423.363 189.361 423.357 189.698 423.696L195.378 429.408C195.714 429.747 195.705 430.301 195.359 430.646L189.915 436.059ZM221.834 437.592C221.487 437.937 220.933 437.943 220.597 437.604L214.917 431.892C214.581 431.553 214.59 430.999 214.936 430.654L221.217 424.408C221.564 424.063 222.117 424.057 222.454 424.396L228.133 430.108C228.47 430.447 228.461 431.001 228.114 431.346L221.834 437.592ZM217.994 426.193C217.647 426.537 217.094 426.542 216.757 426.204L211.179 420.594C210.843 420.255 210.852 419.701 211.198 419.357L213.711 416.857C214.058 416.512 214.611 416.507 214.948 416.846L220.526 422.456C220.862 422.795 220.853 423.349 220.507 423.693L217.994 426.193ZM202.981 411.093C202.635 411.437 202.081 411.442 201.744 411.104L196.166 405.493C195.83 405.155 195.839 404.601 196.185 404.257L198.698 401.757C199.045 401.412 199.598 401.407 199.935 401.746L205.513 407.356C205.849 407.695 205.84 408.249 205.494 408.593L202.981 411.093ZM231.673 447.489C231.327 447.834 230.773 447.84 230.437 447.501L222.525 439.543C222.188 439.205 222.198 438.651 222.544 438.306L228.825 432.06C229.171 431.715 229.725 431.709 230.061 432.047L237.973 440.005C238.31 440.344 238.3 440.898 237.954 441.242L231.673 447.489ZM201.208 432.133C200.862 432.478 200.308 432.483 199.972 432.145L184.756 416.841C184.42 416.503 184.429 415.949 184.775 415.604L190.219 410.19C190.566 409.845 191.119 409.84 191.455 410.178L206.671 425.482C207.007 425.82 206.998 426.374 206.652 426.719L201.208 432.133ZM216.424 447.437C216.077 447.782 215.523 447.787 215.187 447.449L209.507 441.736C209.171 441.398 209.18 440.843 209.526 440.499L214.97 435.085C215.316 434.74 215.87 434.735 216.207 435.073L221.886 440.786C222.223 441.124 222.214 441.678 221.867 442.023L216.424 447.437ZM208.816 439.784C208.47 440.129 207.916 440.135 207.579 439.796L201.9 434.084C201.563 433.745 201.572 433.191 201.919 432.847L207.362 427.433C207.709 427.088 208.262 427.082 208.599 427.421L214.279 433.134C214.615 433.472 214.606 434.026 214.26 434.371L208.816 439.784ZM206.721 468.248C206.374 468.593 205.82 468.598 205.484 468.26L199.804 462.547C199.468 462.209 199.476 461.655 199.823 461.31L205.266 455.896C205.613 455.551 206.167 455.546 206.503 455.884L212.183 461.597C212.519 461.935 212.511 462.49 212.164 462.834L206.721 468.248ZM199.113 460.596C198.766 460.941 198.212 460.947 197.876 460.608L192.196 454.895C191.86 454.557 191.868 454.003 192.215 453.658L197.658 448.244C198.005 447.899 198.559 447.894 198.895 448.232L204.575 453.945C204.911 454.283 204.903 454.838 204.556 455.182L199.113 460.596ZM191.505 452.944C191.158 453.289 190.605 453.294 190.268 452.956L184.588 447.243C184.252 446.905 184.261 446.351 184.607 446.006L190.051 440.592C190.397 440.247 190.951 440.242 191.288 440.58L196.967 446.293C197.304 446.631 197.295 447.185 196.948 447.53L191.505 452.944ZM183.897 445.292C183.55 445.637 182.996 445.642 182.66 445.304L176.98 439.591C176.644 439.253 176.653 438.699 176.999 438.354L182.442 432.94C182.789 432.595 183.343 432.59 183.68 432.928L189.359 438.641C189.696 438.979 189.687 439.533 189.34 439.878L183.897 445.292ZM195.732 472.481C195.385 472.826 194.831 472.831 194.495 472.493L188.815 466.78C188.479 466.442 188.487 465.888 188.834 465.543L194.277 460.129C194.624 459.784 195.178 459.779 195.514 460.117L201.194 465.83C201.53 466.168 201.521 466.723 201.175 467.067L195.732 472.481ZM188.124 464.829C187.777 465.174 187.223 465.179 186.887 464.841L181.207 459.128C180.871 458.79 180.88 458.236 181.226 457.891L186.669 452.477C187.016 452.132 187.57 452.127 187.907 452.465L193.586 458.178C193.923 458.516 193.914 459.071 193.567 459.415L188.124 464.829ZM180.516 457.177C180.169 457.522 179.616 457.527 179.279 457.189L173.599 451.476C173.263 451.138 173.272 450.583 173.618 450.239L179.062 444.825C179.408 444.48 179.962 444.475 180.299 444.813L185.978 450.526C186.315 450.864 186.306 451.418 185.959 451.763L180.516 457.177ZM172.908 449.525C172.561 449.87 172.008 449.875 171.672 449.537L161.832 439.64C161.496 439.302 161.505 438.748 161.851 438.404L167.295 432.99C167.641 432.645 168.195 432.639 168.531 432.977L178.371 442.875C178.707 443.212 178.698 443.766 178.351 444.111L172.908 449.525ZM187.35 474.73C187.003 475.075 186.449 475.08 186.114 474.742L180.23 468.824C179.894 468.486 179.903 467.932 180.249 467.588L183.39 464.464C183.737 464.119 184.291 464.114 184.626 464.452L190.51 470.37C190.846 470.708 190.837 471.262 190.491 471.606L187.35 474.73ZM179.438 466.772C179.091 467.117 178.537 467.122 178.201 466.784L172.318 460.866C171.982 460.528 171.991 459.974 172.337 459.63L175.478 456.506C175.825 456.161 176.379 456.156 176.714 456.494L182.598 462.412C182.934 462.75 182.925 463.304 182.579 463.648L179.438 466.772ZM171.525 458.814C171.179 459.158 170.625 459.163 170.289 458.826L164.406 452.908C164.07 452.57 164.079 452.016 164.425 451.672L167.566 448.548C167.913 448.203 168.466 448.198 168.802 448.535L174.686 454.453C175.022 454.791 175.013 455.346 174.667 455.69L171.525 458.814ZM163.613 450.856C163.266 451.2 162.713 451.205 162.377 450.868L156.493 444.95C156.157 444.612 156.166 444.058 156.512 443.714L159.654 440.589C160 440.245 160.554 440.24 160.89 440.577L166.773 446.495C167.109 446.833 167.1 447.387 166.754 447.731L163.613 450.856ZM273.602 520.232C273.255 520.577 272.701 520.583 272.365 520.244L266.685 514.532C266.349 514.193 266.358 513.639 266.704 513.295L272.147 507.881C272.494 507.536 273.048 507.53 273.385 507.869L279.064 513.582C279.401 513.92 279.392 514.474 279.045 514.819L273.602 520.232ZM265.994 512.58C265.648 512.925 265.094 512.931 264.757 512.592L259.078 506.88C258.741 506.541 258.75 505.987 259.097 505.643L264.54 500.229C264.887 499.884 265.44 499.878 265.777 500.217L271.457 505.93C271.793 506.268 271.784 506.822 271.438 507.167L265.994 512.58ZM258.386 504.928C258.039 505.273 257.486 505.279 257.149 504.94L251.469 499.228C251.133 498.889 251.142 498.335 251.488 497.99L256.932 492.577C257.278 492.232 257.832 492.226 258.169 492.565L263.848 498.277C264.185 498.616 264.176 499.17 263.829 499.515L258.386 504.928ZM250.779 497.276C250.432 497.621 249.878 497.627 249.541 497.288L243.862 491.576C243.525 491.237 243.534 490.683 243.881 490.338L249.324 484.925C249.671 484.58 250.225 484.574 250.561 484.913L256.241 490.625C256.577 490.964 256.568 491.518 256.222 491.862L250.779 497.276ZM243.171 489.624C242.824 489.969 242.27 489.975 241.933 489.636L236.254 483.923C235.917 483.585 235.926 483.031 236.273 482.686L241.716 477.272C242.063 476.927 242.617 476.922 242.953 477.261L248.633 482.973C248.969 483.311 248.96 483.866 248.614 484.21L243.171 489.624ZM227.955 474.32C227.608 474.665 227.054 474.67 226.718 474.332L221.038 468.619C220.702 468.281 220.71 467.727 221.057 467.382L226.5 461.968C226.847 461.623 227.401 461.618 227.737 461.956L233.417 467.669C233.753 468.007 233.745 468.562 233.398 468.906L227.955 474.32ZM220.347 466.668C220 467.013 219.447 467.018 219.11 466.68L213.43 460.967C213.094 460.629 213.103 460.075 213.449 459.73L218.893 454.316C219.239 453.971 219.793 453.966 220.13 454.304L225.809 460.017C226.146 460.355 226.137 460.91 225.79 461.254L220.347 466.668ZM302.376 518.603C302.029 518.948 301.475 518.953 301.139 518.615L295.459 512.902C295.123 512.564 295.132 512.009 295.478 511.665L301.759 505.418C302.106 505.073 302.659 505.068 302.996 505.406L308.676 511.119C309.012 511.457 309.003 512.012 308.657 512.356L302.376 518.603ZM294.769 510.95C294.422 511.295 293.868 511.301 293.531 510.962L287.852 505.25C287.515 504.911 287.524 504.357 287.871 504.012L294.151 497.766C294.498 497.421 295.052 497.415 295.389 497.754L301.068 503.466C301.405 503.805 301.396 504.359 301.049 504.704L294.769 510.95ZM287.16 503.298C286.813 503.643 286.26 503.649 285.923 503.31L280.243 497.598C279.907 497.259 279.916 496.705 280.262 496.36L286.543 490.114C286.89 489.769 287.444 489.763 287.78 490.102L293.46 495.814C293.796 496.153 293.787 496.707 293.441 497.052L287.16 503.298ZM287.093 533.802C286.747 534.147 286.193 534.152 285.857 533.814L274.293 522.184C273.957 521.846 273.966 521.291 274.312 520.947L279.756 515.533C280.102 515.188 280.656 515.183 280.992 515.521L292.556 527.151C292.892 527.49 292.883 528.044 292.537 528.389L287.093 533.802ZM269.679 501.001C269.333 501.346 268.779 501.352 268.442 501.013L262.763 495.301C262.426 494.962 262.435 494.408 262.782 494.064L268.225 488.65C268.572 488.305 269.125 488.299 269.462 488.638L275.142 494.35C275.478 494.689 275.469 495.243 275.123 495.588L269.679 501.001ZM262.071 493.349C261.725 493.694 261.171 493.7 260.834 493.361L255.155 487.649C254.818 487.31 254.827 486.756 255.174 486.411L260.617 480.998C260.964 480.653 261.517 480.647 261.854 480.986L267.534 486.698C267.87 487.037 267.861 487.591 267.515 487.936L262.071 493.349ZM269.713 485.749C269.366 486.094 268.813 486.1 268.476 485.761L232.365 449.44C232.029 449.102 232.037 448.547 232.384 448.203L238.665 441.956C239.011 441.611 239.565 441.606 239.902 441.944L276.013 478.265C276.349 478.604 276.34 479.158 275.994 479.503L269.713 485.749ZM254.464 485.697C254.117 486.042 253.563 486.048 253.226 485.709L247.547 479.996C247.21 479.658 247.219 479.104 247.566 478.759L253.009 473.346C253.356 473.001 253.91 472.995 254.246 473.334L259.926 479.046C260.262 479.385 260.253 479.939 259.907 480.283L254.464 485.697ZM246.856 478.045C246.509 478.39 245.955 478.396 245.619 478.057L239.939 472.344C239.603 472.006 239.611 471.452 239.958 471.107L245.401 465.694C245.748 465.349 246.302 465.343 246.638 465.682L252.318 471.394C252.654 471.733 252.646 472.287 252.299 472.631L246.856 478.045ZM239.248 470.393C238.901 470.738 238.348 470.743 238.011 470.405L232.332 464.692C231.995 464.354 232.004 463.8 232.35 463.455L237.794 458.041C238.141 457.696 238.694 457.691 239.031 458.029L244.71 463.742C245.047 464.08 245.038 464.635 244.692 464.979L239.248 470.393ZM231.64 462.741C231.293 463.086 230.739 463.091 230.403 462.753L224.723 457.04C224.387 456.702 224.395 456.148 224.742 455.803L230.185 450.389C230.532 450.044 231.086 450.039 231.422 450.377L237.102 456.09C237.438 456.428 237.43 456.982 237.083 457.327L231.64 462.741ZM224.032 455.089C223.685 455.434 223.132 455.439 222.795 455.101L217.115 449.388C216.779 449.05 216.788 448.496 217.134 448.151L222.578 442.737C222.924 442.392 223.478 442.387 223.815 442.725L229.494 448.438C229.831 448.776 229.822 449.33 229.475 449.675L224.032 455.089ZM277.288 508.654C276.941 508.999 276.387 509.004 276.05 508.665L270.371 502.953C270.034 502.615 270.043 502.06 270.39 501.716L275.833 496.302C276.18 495.957 276.734 495.951 277.07 496.29L282.75 502.003C283.086 502.341 283.077 502.895 282.731 503.24L277.288 508.654ZM284.895 516.306C284.549 516.651 283.995 516.656 283.658 516.318L277.979 510.605C277.642 510.267 277.651 509.712 277.998 509.368L283.441 503.954C283.788 503.609 284.341 503.604 284.678 503.942L290.358 509.655C290.694 509.993 290.685 510.547 290.339 510.892L284.895 516.306ZM235.563 481.972C235.216 482.317 234.662 482.322 234.326 481.984L228.646 476.271C228.31 475.933 228.318 475.379 228.665 475.034L234.108 469.62C234.455 469.275 235.009 469.27 235.345 469.608L241.025 475.321C241.361 475.659 241.353 476.214 241.006 476.558L235.563 481.972ZM294.735 526.202C294.388 526.547 293.835 526.553 293.498 526.215L285.586 518.257C285.25 517.919 285.259 517.364 285.606 517.02L291.049 511.606C291.396 511.261 291.949 511.255 292.286 511.594L300.198 519.552C300.534 519.89 300.525 520.444 300.178 520.789L294.735 526.202ZM279.553 495.646C279.206 495.991 278.653 495.997 278.316 495.658L270.404 487.7C270.068 487.362 270.077 486.808 270.423 486.464L276.704 480.217C277.051 479.872 277.604 479.866 277.941 480.205L285.852 488.163C286.189 488.501 286.18 489.055 285.833 489.399L279.553 495.646Z" fill="#7D95C9" style="mix-blend-mode:multiply"/>
<path d="M260.84 413.026C262.793 411.072 265.962 411.071 267.917 413.024L292.503 437.586C294.456 439.536 294.457 442.699 292.505 444.651L278.038 459.124C276.085 461.078 272.916 461.079 270.961 459.126L246.375 434.564C244.423 432.613 244.421 429.451 246.373 427.499L260.84 413.026Z" fill="#B6CDED"/>
<path d="M76.5867 463.187C76.1466 462.743 76.1025 462.043 76.4834 461.547L79.2875 457.899L137.886 452.986L266.267 573.328L265.775 574.299C264.861 576.104 263.256 577.463 261.324 578.068L213.792 592.954C209.774 594.212 205.39 593.125 202.427 590.136L76.5867 463.187Z" fill="#7D95C9" style="mix-blend-mode:multiply"/>
<path d="M78.6868 459.373C77.9804 458.659 78.3628 457.446 79.3512 457.266L138.828 446.398L266.23 573.357L214.956 589.415C211.381 590.535 207.48 589.565 204.847 586.903L78.6868 459.373Z" fill="url(#paint29_linear_1553_15168)"/>
<path d="M87.1619 462.182C86.4549 461.472 86.8292 460.261 87.8138 460.073L139.77 450.162L260.577 570.533L215.81 583.882C212.279 584.934 208.455 583.963 205.856 581.354L87.1619 462.182Z" fill="url(#paint30_linear_1553_15168)"/>
<path d="M490.756 344.413L495.357 333.552L483.219 331.373L501.168 321.02L508.704 334.061L490.756 344.413Z" fill="url(#paint31_linear_1553_15168)"/>
<path d="M539.566 395.499L496.85 321.585C495.468 319.194 496.287 316.137 498.679 314.758L581.391 267.051C583.783 265.671 586.842 266.491 588.224 268.882L630.941 342.796L539.566 395.499Z" fill="url(#paint32_linear_1553_15168)"/>
<rect opacity="0.45" width="52.7157" height="24.4873" transform="matrix(-0.500369 -0.865812 0.866238 -0.499631 547.279 369.317)" fill="white"/>
<rect opacity="0.45" width="43.3022" height="5.65092" transform="matrix(-0.500369 -0.865812 0.866238 -0.499631 593.403 336.193)" fill="white"/>
<rect opacity="0.45" width="43.3022" height="5.65092" transform="matrix(-0.500369 -0.865812 0.866238 -0.499631 601.562 331.487)" fill="white"/>
<rect width="116.785" height="145.91" rx="5" transform="matrix(0.866238 -0.499631 0.500369 0.865812 189.127 208.084)" fill="url(#paint33_linear_1553_15168)"/>
<ellipse cx="4.70907" cy="4.70678" rx="4.70907" ry="4.70678" transform="matrix(0.866238 -0.499631 0.500369 0.865812 302.986 297.813)" fill="#5C76AF"/>
<ellipse cx="1.88363" cy="1.88271" rx="1.88363" ry="1.88271" transform="matrix(0.866238 -0.499631 0.500369 0.865812 239.961 183.111)" fill="#5C76AF"/>
<rect width="109.25" height="122.376" transform="matrix(0.866238 -0.499631 0.500369 0.865812 197.571 215.168)" fill="url(#paint34_linear_1553_15168)"/>
<ellipse cx="622.938" cy="543.595" rx="61.704" ry="61.6437" fill="url(#paint35_linear_1553_15168)"/>
<ellipse cx="625.293" cy="539.36" rx="17.8989" ry="17.8814" fill="url(#paint36_linear_1553_15168)"/>
<ellipse cx="73.8011" cy="73.7524" rx="73.8011" ry="73.7524" transform="matrix(0.997569 -0.0696882 0.0698248 0.997559 517.768 354.328)" fill="url(#paint37_linear_1553_15168)"/>
<g opacity="0.3">
<path fill-rule="evenodd" clip-rule="evenodd" d="M587.612 495.981V452.777L603.156 461.718L625.765 484.305L626.652 490.114C618.971 493.544 610.569 495.71 601.689 496.33C596.907 496.664 592.201 496.535 587.612 495.981Z" fill="url(#paint38_linear_1553_15168)" style="mix-blend-mode:multiply"/>
</g>
<path d="M616.151 462.08C615.073 459.843 615.565 456.962 617.249 455.645C618.934 454.328 621.173 455.074 622.25 457.312C635.758 485.358 643.569 504.826 645.766 516.177C647.544 525.361 645.569 534.023 640.869 539.561C636.258 544.994 629.751 546.481 624.104 542.918C622.28 541.767 621.465 538.948 622.284 536.621C623.103 534.293 625.246 533.34 627.07 534.491C633.499 538.546 640.988 529.722 638.747 518.146C636.804 508.109 629.245 489.266 616.151 462.08Z" fill="#5171B9"/>
<path d="M592.034 467.61C583.604 455.124 586.898 438.177 599.393 429.758C611.887 421.339 628.849 424.635 637.279 437.121C637.985 438.167 656.012 464.867 656.012 464.867L610.767 495.355C610.767 495.355 592.74 468.655 592.034 467.61Z" fill="url(#paint39_linear_1553_15168)"/>
<ellipse cx="27.2795" cy="22.3184" rx="27.2795" ry="22.3184" transform="matrix(0.829293 -0.558815 0.559571 0.828782 598.278 476.858)" fill="url(#paint40_linear_1553_15168)"/>
<ellipse cx="43.3341" cy="43.2918" rx="43.3341" ry="43.2918" transform="matrix(-1 0 0 1 544.277 186.438)" fill="url(#paint41_linear_1553_15168)"/>
<path d="M506.596 186.443C506.596 183.842 504.487 181.733 501.885 181.733C499.284 181.733 497.175 183.842 497.175 186.443V203.379H506.596V186.443Z" fill="url(#paint42_linear_1553_15168)"/>
<ellipse cx="29.2034" cy="29.1749" rx="29.2034" ry="29.1749" transform="matrix(-1 0 0 1 530.146 201.496)" fill="url(#paint43_linear_1553_15168)"/>
<ellipse cx="23.5512" cy="23.5281" rx="23.5512" ry="23.5281" transform="matrix(-1 0 0 1 524.494 207.143)" fill="#7D95C9" style="mix-blend-mode:multiply"/>
<defs>
<linearGradient id="paint0_linear_1553_15168" x1="139.199" y1="19.8596" x2="139.199" y2="587.888" gradientUnits="userSpaceOnUse">
<stop stop-color="#FAFBFF" stop-opacity="0.01"/>
<stop offset="0.520757" stop-color="#F2F5FF"/>
<stop offset="1" stop-color="#F2F5FF" stop-opacity="0.01"/>
</linearGradient>
<linearGradient id="paint1_linear_1553_15168" x1="54.415" y1="38.6819" x2="54.415" y2="531.42" gradientUnits="userSpaceOnUse">
<stop stop-color="#FAFBFF" stop-opacity="0.01"/>
<stop offset="0.520757" stop-color="#F2F5FF"/>
<stop offset="1" stop-color="#F2F5FF" stop-opacity="0.01"/>
</linearGradient>
<linearGradient id="paint2_linear_1553_15168" x1="214.562" y1="29.2705" x2="214.562" y2="625.532" gradientUnits="userSpaceOnUse">
<stop stop-color="#FAFBFF" stop-opacity="0.01"/>
<stop offset="0.520757" stop-color="#F2F5FF"/>
<stop offset="1" stop-color="#F2F5FF" stop-opacity="0.01"/>
</linearGradient>
<linearGradient id="paint3_linear_1553_15168" x1="289.927" y1="48.093" x2="289.927" y2="606.71" gradientUnits="userSpaceOnUse">
<stop stop-color="#FAFBFF" stop-opacity="0.01"/>
<stop offset="0.520757" stop-color="#F2F5FF"/>
<stop offset="1" stop-color="#F2F5FF" stop-opacity="0.01"/>
</linearGradient>
<linearGradient id="paint4_linear_1553_15168" x1="365.291" y1="29.2705" x2="365.291" y2="587.887" gradientUnits="userSpaceOnUse">
<stop stop-color="#FAFBFF" stop-opacity="0.01"/>
<stop offset="0.520757" stop-color="#F2F5FF"/>
<stop offset="1" stop-color="#F2F5FF" stop-opacity="0.01"/>
</linearGradient>
<linearGradient id="paint5_linear_1553_15168" x1="440.654" y1="19.8596" x2="440.654" y2="587.888" gradientUnits="userSpaceOnUse">
<stop stop-color="#FAFBFF" stop-opacity="0.01"/>
<stop offset="0.520757" stop-color="#F2F5FF"/>
<stop offset="1" stop-color="#F2F5FF" stop-opacity="0.01"/>
</linearGradient>
<linearGradient id="paint6_linear_1553_15168" x1="516.018" y1="19.8596" x2="516.018" y2="616.121" gradientUnits="userSpaceOnUse">
<stop stop-color="#FAFBFF" stop-opacity="0.01"/>
<stop offset="0.520757" stop-color="#F2F5FF"/>
<stop offset="1" stop-color="#F2F5FF" stop-opacity="0.01"/>
</linearGradient>
<linearGradient id="paint7_linear_1553_15168" x1="591.381" y1="10.4482" x2="591.381" y2="682" gradientUnits="userSpaceOnUse">
<stop stop-color="#FAFBFF" stop-opacity="0.01"/>
<stop offset="0.520757" stop-color="#F2F5FF"/>
<stop offset="1" stop-color="#F2F5FF" stop-opacity="0.01"/>
</linearGradient>
<linearGradient id="paint8_linear_1553_15168" x1="666.745" y1="10.4482" x2="666.745" y2="644.355" gradientUnits="userSpaceOnUse">
<stop stop-color="#FAFBFF" stop-opacity="0.01"/>
<stop offset="0.520757" stop-color="#F2F5FF"/>
<stop offset="1" stop-color="#F2F5FF" stop-opacity="0.01"/>
</linearGradient>
<linearGradient id="paint9_linear_1553_15168" x1="742.109" y1="10.4482" x2="742.109" y2="597.299" gradientUnits="userSpaceOnUse">
<stop stop-color="#FAFBFF" stop-opacity="0.01"/>
<stop offset="0.520757" stop-color="#F2F5FF"/>
<stop offset="1" stop-color="#F2F5FF" stop-opacity="0.01"/>
</linearGradient>
<linearGradient id="paint10_linear_1553_15168" x1="-5.84031" y1="-14.8444" x2="-5.84031" y2="136.472" gradientUnits="userSpaceOnUse">
<stop stop-color="#FFE579"/>
<stop offset="1" stop-color="#FEB755"/>
</linearGradient>
<linearGradient id="paint11_linear_1553_15168" x1="-79.9871" y1="9.93264" x2="-26.5487" y2="352.084" gradientUnits="userSpaceOnUse">
<stop stop-color="#F7FAFF"/>
<stop offset="1" stop-color="#C2DCFF"/>
</linearGradient>
<linearGradient id="paint12_linear_1553_15168" x1="465.224" y1="422.268" x2="454.276" y2="564.78" gradientUnits="userSpaceOnUse">
<stop stop-color="#F7FAFF"/>
<stop offset="1" stop-color="#6B9AD9"/>
</linearGradient>
<linearGradient id="paint13_linear_1553_15168" x1="532.805" y1="538.377" x2="550.58" y2="529.251" gradientUnits="userSpaceOnUse">
<stop stop-color="#E5EDFF"/>
<stop offset="1" stop-color="#6B9AD9"/>
</linearGradient>
<linearGradient id="paint14_linear_1553_15168" x1="553.421" y1="415.206" x2="495.266" y2="483.881" gradientUnits="userSpaceOnUse">
<stop stop-color="#E5EDFF"/>
<stop offset="1" stop-color="#6B9AD9"/>
</linearGradient>
<linearGradient id="paint15_linear_1553_15168" x1="370.563" y1="249.068" x2="411.608" y2="329.506" gradientUnits="userSpaceOnUse">
<stop stop-color="#925948"/>
<stop offset="1" stop-color="#B06C57"/>
</linearGradient>
<linearGradient id="paint16_linear_1553_15168" x1="455.227" y1="237.776" x2="458.194" y2="127.057" gradientUnits="userSpaceOnUse">
<stop stop-color="#3485F7"/>
<stop offset="1" stop-color="#1A57CF"/>
</linearGradient>
<linearGradient id="paint17_linear_1553_15168" x1="420.306" y1="380.126" x2="420.306" y2="391.604" gradientUnits="userSpaceOnUse">
<stop stop-color="#FFE579"/>
<stop offset="1" stop-color="#FEB755"/>
</linearGradient>
<linearGradient id="paint18_linear_1553_15168" x1="450.452" y1="379.184" x2="450.452" y2="390.663" gradientUnits="userSpaceOnUse">
<stop stop-color="#FFE579"/>
<stop offset="1" stop-color="#FEB755"/>
</linearGradient>
<linearGradient id="paint19_linear_1553_15168" x1="313.45" y1="289.441" x2="313.45" y2="388.03" gradientUnits="userSpaceOnUse">
<stop stop-color="#FAD0BA"/>
<stop offset="1" stop-color="#F2A384"/>
</linearGradient>
<linearGradient id="paint20_linear_1553_15168" x1="423.133" y1="383.89" x2="423.133" y2="395.368" gradientUnits="userSpaceOnUse">
<stop stop-color="#FFE579"/>
<stop offset="1" stop-color="#FEB755"/>
</linearGradient>
<linearGradient id="paint21_linear_1553_15168" x1="430.669" y1="387.654" x2="430.669" y2="399.133" gradientUnits="userSpaceOnUse">
<stop stop-color="#FFE579"/>
<stop offset="1" stop-color="#FEB755"/>
</linearGradient>
<linearGradient id="paint22_linear_1553_15168" x1="439.147" y1="386.713" x2="439.147" y2="398.192" gradientUnits="userSpaceOnUse">
<stop stop-color="#FFE579"/>
<stop offset="1" stop-color="#FEB755"/>
</linearGradient>
<linearGradient id="paint23_linear_1553_15168" x1="447.626" y1="383.89" x2="447.626" y2="395.368" gradientUnits="userSpaceOnUse">
<stop stop-color="#FFE579"/>
<stop offset="1" stop-color="#FEB755"/>
</linearGradient>
<linearGradient id="paint24_linear_1553_15168" x1="347.528" y1="499.438" x2="394.613" y2="651.986" gradientUnits="userSpaceOnUse">
<stop stop-color="#84F0A8"/>
<stop offset="1" stop-color="#48B676"/>
</linearGradient>
<linearGradient id="paint25_linear_1553_15168" x1="416.903" y1="499.438" x2="497.253" y2="605.846" gradientUnits="userSpaceOnUse">
<stop stop-color="#84F0A8"/>
<stop offset="1" stop-color="#48B676"/>
</linearGradient>
<linearGradient id="paint26_linear_1553_15168" x1="135.758" y1="97.4043" x2="-69.8696" y2="448.605" gradientUnits="userSpaceOnUse">
<stop stop-color="#F7FAFF"/>
<stop offset="1" stop-color="#6B9AD9"/>
</linearGradient>
<linearGradient id="paint27_linear_1553_15168" x1="-56.0011" y1="-17.577" x2="-65.9969" y2="181.466" gradientUnits="userSpaceOnUse">
<stop stop-color="#F7FAFF"/>
<stop offset="1" stop-color="#6B9AD9"/>
</linearGradient>
<linearGradient id="paint28_linear_1553_15168" x1="169.407" y1="351.34" x2="86.294" y2="429.44" gradientUnits="userSpaceOnUse">
<stop stop-color="#F7FAFF"/>
<stop offset="1" stop-color="#6B9AD9"/>
</linearGradient>
<linearGradient id="paint29_linear_1553_15168" x1="43.7969" y1="447.577" x2="200.56" y2="748.543" gradientUnits="userSpaceOnUse">
<stop stop-color="#F7FAFF"/>
<stop offset="1" stop-color="#6B9AD9"/>
</linearGradient>
<linearGradient id="paint30_linear_1553_15168" x1="55.0386" y1="450.526" x2="196.937" y2="732.82" gradientUnits="userSpaceOnUse">
<stop stop-color="#F7FAFF"/>
<stop offset="1" stop-color="#C2DCFF"/>
</linearGradient>
<linearGradient id="paint31_linear_1553_15168" x1="489.213" y1="346.248" x2="509.104" y2="334.753" gradientUnits="userSpaceOnUse">
<stop stop-color="#FFE579"/>
<stop offset="1" stop-color="#FEB755"/>
</linearGradient>
<linearGradient id="paint32_linear_1553_15168" x1="559.02" y1="365.447" x2="588.725" y2="308.73" gradientUnits="userSpaceOnUse">
<stop stop-color="#F59BA9"/>
<stop offset="1" stop-color="#F25267"/>
</linearGradient>
<linearGradient id="paint33_linear_1553_15168" x1="95.5116" y1="-82.1836" x2="-51.6854" y2="56.8056" gradientUnits="userSpaceOnUse">
<stop stop-color="#B3C2DD"/>
<stop offset="1" stop-color="#708AC4"/>
</linearGradient>
<linearGradient id="paint34_linear_1553_15168" x1="-33.1517" y1="-17.8472" x2="-50.4755" y2="183.274" gradientUnits="userSpaceOnUse">
<stop stop-color="#F7FAFF"/>
<stop offset="1" stop-color="#C2DCFF"/>
</linearGradient>
<linearGradient id="paint35_linear_1553_15168" x1="662.163" y1="412.51" x2="539.285" y2="557.613" gradientUnits="userSpaceOnUse">
<stop stop-color="#E5EDFF"/>
<stop offset="1" stop-color="#6B9AD9"/>
</linearGradient>
<linearGradient id="paint36_linear_1553_15168" x1="596.532" y1="516.263" x2="592.01" y2="575.127" gradientUnits="userSpaceOnUse">
<stop stop-color="#F7FAFF"/>
<stop offset="1" stop-color="#6B9AD9"/>
</linearGradient>
<linearGradient id="paint37_linear_1553_15168" x1="-44.7894" y1="-21.5119" x2="-63.4465" y2="221.272" gradientUnits="userSpaceOnUse">
<stop stop-color="#F7FAFF"/>
<stop offset="1" stop-color="#6B9AD9"/>
</linearGradient>
<linearGradient id="paint38_linear_1553_15168" x1="573.425" y1="448.811" x2="572.864" y2="521.006" gradientUnits="userSpaceOnUse">
<stop stop-color="#F7FAFF"/>
<stop offset="1" stop-color="#6B9AD9"/>
</linearGradient>
<linearGradient id="paint39_linear_1553_15168" x1="643.507" y1="385.522" x2="573.222" y2="466.538" gradientUnits="userSpaceOnUse">
<stop stop-color="#E5EDFF"/>
<stop offset="1" stop-color="#6B9AD9"/>
</linearGradient>
<linearGradient id="paint40_linear_1553_15168" x1="-16.5558" y1="-6.50978" x2="-21.1869" y2="67.1022" gradientUnits="userSpaceOnUse">
<stop stop-color="#F7FAFF"/>
<stop offset="1" stop-color="#C2DCFF"/>
</linearGradient>
<linearGradient id="paint41_linear_1553_15168" x1="-26.2992" y1="-12.6272" x2="-37.2472" y2="129.884" gradientUnits="userSpaceOnUse">
<stop stop-color="#F7FAFF"/>
<stop offset="1" stop-color="#6B9AD9"/>
</linearGradient>
<linearGradient id="paint42_linear_1553_15168" x1="498.891" y1="169.541" x2="516.666" y2="178.667" gradientUnits="userSpaceOnUse">
<stop stop-color="#E5EDFF"/>
<stop offset="1" stop-color="#6B9AD9"/>
</linearGradient>
<linearGradient id="paint43_linear_1553_15168" x1="47.7676" y1="-32.8653" x2="-10.3881" y2="35.8094" gradientUnits="userSpaceOnUse">
<stop stop-color="#E5EDFF"/>
<stop offset="1" stop-color="#6B9AD9"/>
</linearGradient>
</defs>
</svg>
