<svg width="800" height="549" viewBox="0 0 800 549" fill="none" xmlns="http://www.w3.org/2000/svg">
<circle opacity="0.3" cx="613.953" cy="186.047" r="186.047" fill="#E2EBFC"/>
<circle opacity="0.2" cx="186.047" cy="307.971" r="186.047" fill="#E2EBFC"/>
<ellipse opacity="0.34" cx="372.094" cy="538.196" rx="218.812" ry="10.5452" fill="#E2EBFC"/>
<path d="M44.5572 170.381L109.536 105.403C110.124 104.814 111.078 104.814 111.666 105.403L159.601 153.338C160.19 153.926 160.19 154.88 159.601 155.468L94.6227 220.447C94.0344 221.035 93.0805 221.035 92.4922 220.447L44.5572 172.512C43.9689 171.923 43.9689 170.969 44.5572 170.381Z" fill="url(#paint0_linear_1553_17228)"/>
<path d="M119.123 179.968C112.357 186.734 101.388 186.734 94.6225 179.968C87.857 173.203 87.857 162.234 94.6225 155.468C101.388 148.703 112.357 148.703 119.123 155.468C125.888 162.234 125.888 173.203 119.123 179.968Z" fill="url(#paint1_linear_1553_17228)"/>
<path d="M101.805 164.851L110.509 162.167C111.304 161.921 112.147 162.367 112.392 163.162C112.482 163.452 112.482 163.761 112.392 164.05L109.708 172.754C109.463 173.549 108.62 173.995 107.825 173.75C107.59 173.677 107.377 173.549 107.203 173.375L101.184 167.356C100.595 166.767 100.595 165.814 101.184 165.225C101.357 165.052 101.57 164.923 101.805 164.851Z" fill="white"/>
<path d="M44.5572 170.381L109.536 105.403C110.124 104.814 111.078 104.814 111.666 105.403L117.525 111.261L50.4159 178.37L44.5572 172.512C43.9689 171.923 43.9689 170.969 44.5572 170.381Z" fill="url(#paint2_linear_1553_17228)"/>
<path d="M52.5463 171.979C51.958 172.567 51.0041 172.567 50.4158 171.979C49.8275 171.391 49.8275 170.437 50.4158 169.849C51.0041 169.26 51.958 169.26 52.5463 169.849C53.1346 170.437 53.1346 171.391 52.5463 171.979Z" fill="white"/>
<path d="M56.2741 168.251C55.6858 168.839 54.7319 168.839 54.1436 168.251C53.5553 167.662 53.5553 166.709 54.1436 166.12C54.7319 165.532 55.6858 165.532 56.2741 166.12C56.8624 166.709 56.8624 167.662 56.2741 168.251Z" fill="white"/>
<path d="M77.6176 266.723C78.4495 265.282 80.2922 264.788 81.7333 265.62L107.826 280.685C109.267 281.516 109.761 283.359 108.929 284.8L101.868 298.67L108.424 302.424C108.782 302.631 109.039 302.975 109.135 303.377C109.329 304.186 108.831 304.999 108.022 305.193L96.9716 308.462L85.9552 324.591C85.1232 326.032 83.2805 326.526 81.8395 325.694L55.7469 310.63C54.3059 309.798 53.8122 307.955 54.6441 306.514L77.6176 266.723Z" fill="url(#paint3_linear_1553_17228)"/>
<path d="M77.233 293.463C75.3208 292.359 74.7824 289.712 76.0304 287.55C77.2784 285.388 79.7219 284.463 82.9065 286.301C85.0295 287.527 86.9853 292.135 88.7739 300.126C80.9595 302.572 75.9908 303.183 73.8677 301.957C70.6831 300.118 70.2631 297.539 71.511 295.378C72.759 293.216 75.3208 292.359 77.233 293.463Z" fill="white"/>
<path d="M150.938 404.09C150.938 404.09 161.193 395.392 168.715 389.927C176.238 384.462 186.004 383.935 190.885 385.262C196.386 389.37 210.769 400.56 216.7 406.333C213.202 407.011 210.097 407.011 205.459 408.218C188.789 412.557 182.901 427.184 180.675 428.108C176.522 429.831 178.279 429.038 175.772 429.368C173.264 429.697 150.938 404.09 150.938 404.09Z" fill="url(#paint4_linear_1553_17228)"/>
<path d="M151.911 398.629C151.911 398.629 142.468 408.633 148.151 412.581C152.228 415.414 164.814 423.794 170.614 427.355C176.236 430.808 180.99 427.594 180.99 427.594C180.99 427.594 174.788 430.18 172.981 425.404C171.175 420.629 177.96 415.695 177.96 415.695L151.911 398.629Z" fill="url(#paint5_linear_1553_17228)"/>
<path d="M477.358 466.849C480.072 464.476 480.046 460.275 477.3 457.939C472.749 454.067 466.146 448.561 461.626 445.278C454.103 439.813 444.337 439.286 439.456 440.613C433.955 444.721 419.572 455.911 413.641 461.684C417.139 462.362 420.245 462.362 424.882 463.569C441.552 467.908 447.44 482.534 449.666 483.458C453.819 485.182 452.062 484.389 454.569 484.719C456.361 484.954 469.817 473.443 477.358 466.849Z" fill="url(#paint6_linear_1553_17228)"/>
<path d="M652.719 408.477L589.824 364.717C589.824 364.717 564.803 420.356 515.883 443.842L569.7 494.509C569.7 494.509 632.86 471.083 652.719 408.477Z" fill="url(#paint7_linear_1553_17228)"/>
<g opacity="0.517119">
<path d="M546.466 440.276L541.561 443.578L581.564 476.63L587.551 473.428L546.466 440.276Z" fill="#C5D7F3" style="mix-blend-mode:multiply"/>
</g>
<g opacity="0.517119">
<path d="M588.325 386.602L635.519 416.448L632.319 421.539L585.339 391.765L588.325 386.602Z" fill="#C5D7F3" style="mix-blend-mode:multiply"/>
</g>
<g opacity="0.517119">
<path d="M581.245 398.833L628.439 428.679L625.239 433.77L578.26 403.995L581.245 398.833Z" fill="#C5D7F3" style="mix-blend-mode:multiply"/>
</g>
<g opacity="0.517119">
<path d="M596.852 427.477L620.57 442.124L617.371 447.215L593.866 432.64L596.852 427.477Z" fill="#C5D7F3" style="mix-blend-mode:multiply"/>
</g>
<g opacity="0.517119">
<path d="M574.658 409.026L589.987 420.611C589.584 421.59 589.058 422.703 588.41 423.951C585.449 429.656 581.271 434.633 576.175 438.527C574.1 440.112 572.355 441.494 570.94 442.671L555.17 430.278C555.938 429.819 556.791 429.297 557.729 428.71C564.3 424.595 569.659 418.79 573.25 411.895C573.79 410.859 574.259 409.903 574.658 409.026Z" fill="#C5D7F3" style="mix-blend-mode:multiply"/>
</g>
<g opacity="0.517119">
<path d="M588.072 438.039L609.313 454.98C606.867 458.65 604.134 461.751 601.113 464.284C598.092 466.817 594.91 468.676 591.564 469.862L570.017 453.247C574.558 450.55 578.143 448.083 580.771 445.846C583.399 443.61 585.833 441.007 588.072 438.039Z" fill="#C5D7F3" style="mix-blend-mode:multiply"/>
</g>
<path d="M264.459 418.433C264.459 418.433 264.459 397.719 271.511 384.651C271.511 384.651 297.978 419.939 327.502 416.598C328.108 434.214 314.42 490.725 377.025 500.938C358.663 500.938 344.102 493.823 344.102 493.823C344.102 493.823 297.621 474.097 281.793 457.94C265.965 441.783 264.459 418.433 264.459 418.433Z" fill="url(#paint8_linear_1553_17228)"/>
<path d="M264.188 416.627C264.188 416.627 268.602 462.873 314.593 442.457C314.593 442.457 330.492 493.084 381.239 500.78C381.239 500.78 328.729 499.921 297.848 477.72C266.967 455.519 264.188 416.627 264.188 416.627Z" fill="url(#paint9_linear_1553_17228)"/>
<path d="M656.671 245.596C655.382 234.891 650.5 225.291 643.266 218.038C640.73 215.042 637.314 212.417 632.946 210.205C629.248 208.128 625.241 206.537 621.011 205.517C621.155 200.703 624.478 177.582 627.924 154.307C691.043 163.219 678.532 222.608 673.797 231.675C671.673 235.741 665.965 240.382 656.671 245.596Z" fill="url(#paint10_linear_1553_17228)"/>
<path fill-rule="evenodd" clip-rule="evenodd" d="M627.864 154.22C657.041 158.144 679.216 177.703 679.216 201.242C679.216 210.846 675.525 219.787 669.172 227.275C672.319 221.562 674.059 215.28 674.059 208.687C674.059 186.234 653.882 167.402 626.698 162.307L627.864 154.22Z" fill="url(#paint11_linear_1553_17228)"/>
<circle cx="633.164" cy="159.699" r="1.88307" fill="url(#paint12_linear_1553_17228)"/>
<circle cx="639.643" cy="161.541" r="1.88307" fill="url(#paint13_linear_1553_17228)"/>
<path d="M628.118 248.229C651.767 244.97 670.774 231.433 677.025 213.851C677.495 213.304 677.748 213.007 677.759 213.016C677.759 263.864 661.212 292.804 628.118 299.835V248.229H628.118Z" fill="url(#paint14_linear_1553_17228)"/>
<path d="M242.949 89.0096L294.461 130.723C295.431 131.509 295.581 132.932 294.795 133.902L265.308 170.315C264.523 171.285 263.1 171.434 262.13 170.649L210.618 128.935C209.648 128.15 209.499 126.727 210.284 125.757L239.771 89.3437C240.556 88.3738 241.979 88.2243 242.949 89.0096Z" fill="url(#paint15_linear_1553_17228)"/>
<path d="M211.045 128.789C210.881 128.656 210.78 128.46 210.767 128.25C210.742 127.834 211.058 127.477 211.473 127.452L254.984 124.799C256.145 124.728 257.171 125.551 257.353 126.701L264.256 170.189C264.29 170.4 264.232 170.615 264.098 170.781C263.836 171.104 263.361 171.154 263.038 170.892L211.045 128.789Z" fill="url(#paint16_linear_1553_17228)"/>
<path d="M242.625 88.7472L294.795 130.994C295.118 131.255 295.168 131.73 294.906 132.053C294.779 132.209 294.596 132.308 294.396 132.328L249.08 136.88C247.851 137.004 246.75 136.116 246.609 134.889L241.402 89.4183C241.355 89.005 241.652 88.6316 242.065 88.5842C242.266 88.5612 242.467 88.62 242.625 88.7472Z" fill="url(#paint17_linear_1553_17228)"/>
<path d="M409.743 162.434C409.741 162.432 409.739 162.43 409.737 162.429C409.088 161.907 408.986 160.959 409.507 160.311L419.306 148.13C419.796 147.521 420.67 147.388 421.319 147.823L424.805 150.161C425.382 150.548 426.149 150.491 426.661 150.021L468.355 111.853C468.363 111.846 468.37 111.839 468.378 111.832C469.004 111.283 469.956 111.345 470.504 111.971L501.818 147.664C502.343 148.263 502.311 149.168 501.745 149.728L454.575 196.419C454.033 196.956 453.175 197.003 452.577 196.527L409.743 162.434Z" fill="url(#paint18_linear_1553_17228)"/>
<path d="M452.357 196.428L425.882 163.784C425.391 163.18 425.442 162.301 425.999 161.757L480.816 108.204C481.411 107.622 482.365 107.633 482.947 108.228C483.058 108.342 483.15 108.473 483.221 108.616L502.631 148.087C502.918 148.671 502.798 149.374 502.332 149.829L454.581 196.556C453.986 197.138 453.032 197.127 452.45 196.533C452.417 196.499 452.386 196.464 452.357 196.428Z" fill="url(#paint19_linear_1553_17228)"/>
<path d="M453.5 191.48L452.038 189.925L466.204 176.419L467.352 178.216L453.5 191.48Z" fill="#A3C1EA"/>
<path d="M362.876 244.126L383.555 233.074L386.533 233.074C387.26 233.074 387.884 233.595 388.015 234.31L398.721 292.989C398.871 293.807 398.328 294.592 397.51 294.741C397.44 294.754 397.37 294.762 397.299 294.765L372.503 295.751C371.752 295.781 371.095 295.254 370.961 294.515L362.104 245.723C361.987 245.08 362.299 244.434 362.876 244.126Z" fill="url(#paint20_linear_1553_17228)"/>
<path d="M359.939 244.153L383.252 233.221C384.005 232.868 384.902 233.192 385.255 233.946C385.312 234.066 385.352 234.193 385.375 234.324L395.736 293.087C395.881 293.906 395.334 294.688 394.514 294.832C394.474 294.839 394.434 294.845 394.394 294.848L369.565 297.18C368.784 297.253 368.077 296.714 367.941 295.942L359.095 245.779C358.977 245.109 359.323 244.442 359.939 244.153Z" fill="url(#paint21_linear_1553_17228)"/>
<path d="M362.262 249.408L383.068 239.984C383.447 239.813 383.893 239.981 384.065 240.36C384.091 240.417 384.11 240.477 384.121 240.539L392.64 288.858C392.713 289.267 392.439 289.658 392.029 289.73C392.01 289.733 391.991 289.736 391.972 289.738L369.886 291.906C369.495 291.944 369.139 291.675 369.071 291.287L361.831 250.225C361.771 249.886 361.948 249.55 362.262 249.408Z" fill="url(#paint22_linear_1553_17228)"/>
<path d="M358.564 309.293L347.796 307.888C352.265 300.265 355.134 293.348 356.405 287.138C357.762 283.468 356.13 282.632 357.44 277.298C358.172 274.315 359.651 270.467 363.283 269.554C363.728 272.795 364.157 274.666 364.607 277.298C365.057 279.93 366.237 273.895 369.198 274.666C372.16 275.436 366.327 281.181 366.327 283.62C366.327 287.513 365.461 290.1 363.728 291.379L358.564 309.293Z" fill="url(#paint23_linear_1553_17228)"/>
<path d="M344.199 308.328C344.199 308.328 353.675 295.779 353.675 294.187C353.675 292.596 364.072 292.702 364.072 296.226C364.072 299.75 360.101 314.091 358.205 315.303C356.308 316.514 342.995 316.475 342.995 316.475L344.199 308.328Z" fill="url(#paint24_linear_1553_17228)"/>
<path d="M353.452 313.003C353.452 313.003 399.754 312.966 411.319 294.708C422.885 276.45 418.232 267.523 426.98 264.439C435.727 261.355 447.925 274.192 451.625 280.501C455.325 286.809 469.24 354.649 469.24 354.649L362.255 340.969L353.452 313.003Z" fill="url(#paint25_linear_1553_17228)"/>
<path d="M421.336 285.588L422.703 290.688C423.026 291.896 422.31 293.136 421.102 293.46C419.895 293.783 418.654 293.067 418.331 291.86L416.964 286.76C416.964 286.76 416.111 286.898 415.681 287.103C415.107 287.378 419.238 277.447 419.238 277.758C419.238 279.084 420.165 281.217 420.165 281.217L425.265 279.85C426.472 279.527 427.713 280.243 428.036 281.45C428.36 282.657 427.643 283.898 426.436 284.222L421.336 285.588Z" fill="#6EDB96"/>
<path d="M349.163 317.305C349.163 317.305 404.859 313.956 420.178 298.274C427.023 291.267 430.577 288.652 430.611 280.957C430.645 273.263 421.456 271.003 427.023 266.604C435.49 259.912 460.185 284.705 462.578 288.784C466.278 295.093 469.24 377.246 469.24 377.246L362.255 363.565L349.163 317.305Z" fill="url(#paint26_linear_1553_17228)"/>
<path fill-rule="evenodd" clip-rule="evenodd" d="M321.712 309.626C321.712 309.626 314.017 305.946 308.998 296.578C308.998 296.578 287.37 283.408 286.032 302.812C288.594 312.633 311.863 333.034 311.863 333.034L313.525 334.071L330.745 317.99L321.712 309.626Z" fill="url(#paint27_linear_1553_17228)"/>
<path fill-rule="evenodd" clip-rule="evenodd" d="M301.974 267.75C300.759 262.49 298.409 258.771 294.923 256.592C293.647 260.296 290.924 263.269 286.754 265.51C282.583 267.752 276.312 269.2 267.939 269.854C272.048 276.577 272.137 282.498 268.205 287.619C264.874 287.036 259.101 289.721 263.973 296.98C267.221 301.819 270.583 302.534 274.058 299.126L290.166 310.75C306.74 313.316 314.957 310.14 316.263 304.725C317.12 301.176 315.645 294.665 311.84 285.192C314.118 282.6 315.088 279.191 310.511 278.709C309.629 278.616 308.769 278.443 307.941 278.211L301.974 267.75Z" fill="url(#paint28_linear_1553_17228)"/>
<path fill-rule="evenodd" clip-rule="evenodd" d="M294.694 265.904C300.719 279.086 308.252 278.333 308.252 278.333C308.252 278.333 308.255 278.321 308.262 278.298C308.154 278.27 308.047 278.241 307.94 278.211L301.973 267.75C300.759 262.49 298.409 258.771 294.923 256.593C294.383 258.16 293.584 259.596 292.526 260.901C293.119 262.363 293.833 264.022 294.694 265.904Z" fill="url(#paint29_linear_1553_17228)"/>
<path fill-rule="evenodd" clip-rule="evenodd" d="M240.838 301.683C218.241 303.566 215.982 286.995 225.02 255.359C234.059 223.724 243.474 199.244 209.956 182.296C176.437 165.349 132.374 198.491 164.386 238.788C196.398 279.086 185.476 305.072 218.241 312.981C251.007 320.89 258.916 303.566 258.916 303.566C258.916 303.566 247.909 308.699 240.838 301.683Z" fill="url(#paint30_linear_1553_17228)"/>
<path fill-rule="evenodd" clip-rule="evenodd" d="M239.709 299.8C239.709 299.8 236.696 305.825 241.968 310.345C247.241 314.864 254.02 310.721 254.02 310.721L239.709 299.8Z" fill="url(#paint31_linear_1553_17228)"/>
<path fill-rule="evenodd" clip-rule="evenodd" d="M295.07 256.866C293.815 265.653 287.538 271.428 276.24 274.19C277.495 281.22 276.616 285.991 273.603 288.501L275.863 294.527C272.348 291.012 269.712 289.255 267.954 289.255C265.318 289.255 260.799 292.644 264.565 297.54C267.075 300.804 270.214 301.306 273.98 299.046C280.257 300.302 287.915 304.696 296.953 312.228V317.877C292.057 320.137 229.54 320.235 233.682 280.216C234.293 274.314 235.254 268.944 236.566 264.105L236.566 264.105C242.459 242.358 264.865 229.506 286.612 235.399C289.172 236.093 291.658 237.034 294.034 238.21C302.708 242.502 307.475 251.298 301.849 267.788L300.833 264.738C299.779 261.578 297.765 258.825 295.07 256.866Z" fill="url(#paint32_linear_1553_17228)"/>
<path fill-rule="evenodd" clip-rule="evenodd" d="M169.282 207.153C164.009 189.075 187.359 178.154 187.359 178.154V177.915C160.804 180.186 139.374 207.303 164.386 238.788C177.864 255.755 183.731 270.184 188.453 281.796C194.945 297.763 199.271 308.402 218.242 312.981C223.378 314.221 227.904 314.841 231.884 315.004C218.275 308.264 206.943 290.437 206.943 276.073C206.943 265.081 202.796 262.199 198.969 259.54C195.06 256.825 191.486 254.341 193.009 243.684C194.699 231.852 188.684 227.488 182.147 222.744C177.032 219.033 171.596 215.088 169.282 207.153Z" fill="url(#paint33_linear_1553_17228)"/>
<path fill-rule="evenodd" clip-rule="evenodd" d="M312.303 286.361C311.896 285.827 311.641 285.488 311.641 285.488C311.641 285.488 307.122 296.41 289.798 297.163C284.88 297.377 281.995 300.019 280.386 303.693L290.166 310.75C306.74 313.316 314.957 310.141 316.263 304.725C317.084 301.324 315.764 295.202 312.303 286.361Z" fill="url(#paint34_linear_1553_17228)"/>
<path d="M313.01 314.914C313.01 314.914 320.683 313.732 320.683 311.56C320.683 309.387 319.759 308.564 319.759 308.564C319.759 308.564 346.16 307.357 351.576 308.158C356.991 308.959 362.965 320.031 363.583 320.031C364.2 320.031 378.838 332.309 384.732 332.309C390.627 332.309 405.838 338.846 405.838 338.846L390.676 353.089L328.26 344.835L313.01 314.914Z" fill="url(#paint35_linear_1553_17228)"/>
<path d="M548.569 250.638C547.65 250.017 543.937 242.733 550.988 241.547C558.038 240.362 559.692 240.057 562.409 239.189C564.221 238.61 565.54 237.661 566.366 236.341L565.423 245.961L560.007 249.979C552.994 250.832 549.181 251.052 548.569 250.638Z" fill="url(#paint36_linear_1553_17228)"/>
<path d="M557.639 250.829C557.632 248.743 562.86 248.454 564.279 245.267C565.698 242.08 562.717 238.376 563.469 237.735C565.668 235.861 567.761 232.652 570.795 229.446C578.258 221.557 579.135 220.862 583.428 224.404C584.517 224.889 580.33 235.759 570.866 257.015C568.206 256.861 565.873 256.378 563.867 255.565C560.858 254.346 557.646 252.916 557.639 250.829Z" fill="url(#paint37_linear_1553_17228)"/>
<path d="M461.262 249.567C472.132 244.105 548.809 234.839 553.825 237.605C556.92 239.311 555.775 247.411 554.767 252.27C554.283 254.601 552.526 256.407 550.251 257.105C537.536 261.009 495.757 273.705 494.21 272.482C492.385 271.039 465.109 351.765 456.231 365.642C447.352 379.52 436.313 400.133 417.749 373.916C405.373 356.438 406.837 344.731 422.14 338.795C440.975 282.951 454.016 253.208 461.262 249.567Z" fill="url(#paint38_linear_1553_17228)"/>
<path d="M569.11 205.289C568.062 204.927 562.59 198.852 569.093 195.882C575.597 192.912 577.116 192.189 579.516 190.648C581.116 189.62 582.144 188.362 582.6 186.873L584.18 196.409L579.988 201.692C573.434 204.331 569.808 205.53 569.11 205.289Z" fill="url(#paint39_linear_1553_17228)"/>
<path d="M478.719 236.473C489.645 223.997 565.648 190.909 571.273 191.989C574.799 192.666 575.059 201.151 574.898 206.167C574.826 208.415 573.386 210.346 571.345 211.291C563.204 215.06 540.602 226.545 508.222 251.138C504.974 292.065 501.965 317.843 499.194 328.471C495.039 344.413 480.047 387.75 454.29 368.553C437.119 355.754 433.852 337.749 444.488 314.537C460.024 270.812 471.434 244.791 478.719 236.473Z" fill="url(#paint40_linear_1553_17228)"/>
<path d="M569.998 196.608C569.998 196.608 504.844 228.62 490.156 241.801C475.468 254.983 479.987 328.046 479.987 328.046" stroke="#1A57CF" stroke-linecap="round" stroke-linejoin="round" stroke-dasharray="5 10"/>
<path d="M577.92 203.126C577.373 201.113 582.349 199.481 582.895 196.035C583.44 192.589 579.602 189.784 580.162 188.97C581.802 186.591 582.993 182.949 585.093 179.067C590.26 169.515 590.927 168.617 595.991 170.927C597.169 171.114 595.938 182.697 592.298 205.678C589.689 206.218 587.31 206.355 585.162 206.089C581.94 205.69 578.467 205.14 577.92 203.126Z" fill="url(#paint41_linear_1553_17228)"/>
<path d="M299.613 317.177C305.643 310.406 310.011 307.021 312.717 307.021C316.776 307.021 316.776 311.897 319.799 313.274C328.782 317.365 384.986 353.213 420.572 322.787C456.157 292.36 456.021 259.316 462.92 259.316C469.819 259.316 494.541 293.822 501.831 315.617C506.263 328.868 508.95 342.98 509.892 357.953C510.066 360.714 508.966 363.402 506.907 365.249C470.608 397.813 432.635 411.901 392.99 407.511C331.767 400.732 291.855 356.154 287.376 338.341C284.39 326.466 288.469 319.411 299.613 317.177Z" fill="url(#paint42_linear_1553_17228)"/>
<path fill-rule="evenodd" clip-rule="evenodd" d="M472.982 304.245L468.247 299.51L472.982 294.775C474.103 293.654 474.103 291.837 472.982 290.717C471.861 289.596 470.044 289.596 468.923 290.717L464.188 295.452L459.453 290.717C458.332 289.596 456.515 289.596 455.394 290.717C454.274 291.837 454.274 293.654 455.394 294.775L460.13 299.51L455.394 304.245C454.274 305.366 454.274 307.183 455.394 308.304C456.515 309.425 458.332 309.425 459.453 308.304L464.188 303.569L468.923 308.304C470.044 309.425 471.861 309.425 472.982 308.304C474.103 307.183 474.103 305.366 472.982 304.245ZM402.644 350.029L407.379 354.764C408.5 355.885 408.5 357.702 407.379 358.823C406.258 359.943 404.441 359.943 403.32 358.823L398.585 354.088L393.85 358.823C392.73 359.943 390.912 359.943 389.792 358.823C388.671 357.702 388.671 355.885 389.792 354.764L394.527 350.029L389.792 345.294C388.671 344.173 388.671 342.356 389.792 341.235C390.912 340.115 392.73 340.115 393.85 341.235L398.585 345.97L403.32 341.235C404.441 340.115 406.258 340.115 407.379 341.235C408.5 342.356 408.5 344.173 407.379 345.294L402.644 350.029ZM334.306 373.179C328.387 373.179 323.588 368.381 323.588 362.461C323.588 356.542 328.387 351.743 334.306 351.743C340.226 351.743 345.024 356.542 345.024 362.461C345.024 368.381 340.226 373.179 334.306 373.179ZM453.185 399.485C451.385 400.185 449.58 400.843 447.772 401.459L447.333 399.821L440.865 401.555C439.334 401.965 437.761 401.056 437.35 399.525C436.94 397.994 437.849 396.421 439.38 396.01L445.848 394.277L444.115 387.809C443.833 386.757 444.173 385.685 444.911 384.984C445.845 384.768 446.727 384.531 447.559 384.276C448.547 384.515 449.377 385.272 449.659 386.324L451.392 392.792L457.86 391.059C459.391 390.648 460.965 391.557 461.375 393.088C461.785 394.619 460.877 396.193 459.346 396.603L452.877 398.336L453.185 399.485ZM338.594 362.461C338.594 364.829 336.674 366.749 334.306 366.749C331.939 366.749 330.019 364.829 330.019 362.461C330.019 360.094 331.939 358.174 334.306 358.174C336.674 358.174 338.594 360.094 338.594 362.461ZM381.206 400.124C374.741 400.124 369.499 394.883 369.499 388.417C369.499 381.951 374.741 376.709 381.206 376.709C387.672 376.709 392.914 381.951 392.914 388.417C392.914 394.883 387.672 400.124 381.206 400.124ZM385.89 388.417C385.89 391.003 383.793 393.1 381.207 393.1C378.62 393.1 376.524 391.003 376.524 388.417C376.524 385.831 378.62 383.734 381.207 383.734C383.793 383.734 385.89 385.831 385.89 388.417ZM444.81 355.166C438.344 355.166 433.102 349.924 433.102 343.458C433.102 336.992 438.344 331.751 444.81 331.751C451.276 331.751 456.517 336.992 456.517 343.458C456.517 349.924 451.276 355.166 444.81 355.166ZM449.493 343.458C449.493 346.044 447.396 348.141 444.81 348.141C442.224 348.141 440.127 346.044 440.127 343.458C440.127 340.872 442.224 338.775 444.81 338.775C447.396 338.775 449.493 340.872 449.493 343.458Z" fill="#7DE9A2"/>
<path opacity="0.5" d="M374.888 334.155C385.278 335.594 395.99 335.206 405.955 331.449C403.749 340.858 398.595 350.248 390.495 359.618C367.987 385.657 299.543 360.255 293.035 348.648C286.527 337.041 294.548 318.561 307.641 315.885C312.205 314.953 315.164 337.295 322.187 340.474C335.312 346.415 354.409 335.794 366.819 335.794C369.821 335.794 372.51 335.248 374.888 334.155Z" fill="#52C47D"/>
<path fill-rule="evenodd" clip-rule="evenodd" d="M501.83 315.614C501.831 315.615 501.831 315.616 501.831 315.617C506.263 328.868 508.951 342.98 509.893 357.953C510.066 360.714 508.967 363.402 506.908 365.249C470.608 397.813 432.636 411.901 392.99 407.511C365.8 404.5 342.813 394.034 325.267 381.768C325.992 382.053 326.723 382.348 327.459 382.655C369.817 400.284 376.958 397.174 387.809 392.449C394.807 389.402 403.348 385.682 423.872 386.421C455.667 387.564 459.538 377.733 463.244 368.317C465.641 362.23 467.969 356.317 477.728 353.655C500.326 347.492 501.757 320.473 501.83 315.614Z" fill="url(#paint43_linear_1553_17228)"/>
<path d="M461.533 270.424C461.533 270.424 436.3 337.461 389.6 341.227" stroke="#5FCC89"/>
<path fill-rule="evenodd" clip-rule="evenodd" d="M452.486 317.956C450.458 318.767 450.002 321.504 451.555 323.04C453.797 325.259 456.618 328.374 458.554 331.646C460.902 335.616 462.385 340.559 463.152 343.622C463.542 345.18 465.104 346.197 466.67 345.836V345.836C467.871 345.559 468.751 344.532 468.842 343.303L469.886 329.206C470.072 326.699 468.675 324.341 466.386 323.301L454.741 318.008C454.028 317.684 453.213 317.665 452.486 317.956V317.956Z" stroke="#5FCC89"/>
<circle cx="466.925" cy="327.206" r="1.26785" fill="#5FCC89"/>
<circle cx="312.413" cy="311.114" r="1.88307" fill="#48C172"/>
<path d="M461.533 270.424C461.533 270.424 497.312 308.462 501.831 363.447" stroke="#48C172" stroke-linecap="round" stroke-linejoin="round" stroke-dasharray="5 10"/>
<path d="M390.576 307.585L389.796 293.186C387.405 289.462 386.21 285.654 386.21 281.761C386.21 276.165 380.116 273.232 381.872 271.58C382.226 271.247 383.72 270.959 385.611 271.58C387.336 272.145 389.458 277.094 391.302 277.936C392.097 278.299 393.017 275.59 393.589 273.843C394.019 272.53 394.38 269.83 394.38 269.16C394.38 268.489 393.589 265.468 393.589 264.817C396.602 263.445 402.447 267.988 403.179 270.971C404.052 274.527 402.848 280.358 399.567 288.464L401.344 306.181L390.576 307.585Z" fill="url(#paint44_linear_1553_17228)"/>
<path d="M388.146 298.935C388.146 298.935 381.98 335.137 362.932 335.137C343.884 335.137 315.915 312.75 302.822 315.426C289.729 318.101 286.526 329.509 293.034 341.116C299.542 352.723 367.985 378.124 390.494 352.086C413.003 326.047 405.173 299.807 405.173 299.807C405.173 299.807 401.887 296.522 397.489 296.297C393.092 296.071 388.146 298.935 388.146 298.935Z" fill="url(#paint45_linear_1553_17228)"/>
<g opacity="0.395871">
<path fill-rule="evenodd" clip-rule="evenodd" d="M305.052 335.926C305.052 342.392 310.293 347.633 316.759 347.633C323.225 347.633 328.467 342.392 328.467 335.926C328.467 329.46 323.225 324.218 316.759 324.218C310.293 324.218 305.052 329.46 305.052 335.926ZM321.442 335.926C321.442 338.512 319.346 340.609 316.759 340.609C314.173 340.609 312.076 338.512 312.076 335.926C312.076 333.339 314.173 331.243 316.759 331.243C319.346 331.243 321.442 333.339 321.442 335.926Z" fill="url(#paint46_linear_1553_17228)" style="mix-blend-mode:overlay"/>
</g>
<path d="M299.589 328.799C299.589 328.799 354.574 357.421 377.924 343.863C401.274 330.305 396.755 299.423 396.755 299.423" stroke="#5FCC89"/>
<path d="M298.031 162.474L386.794 138.69C387.597 138.475 388.423 138.952 388.639 139.756L406.184 205.236C406.399 206.04 405.923 206.866 405.119 207.081L316.356 230.865C315.553 231.08 314.727 230.603 314.511 229.8L296.966 164.319C296.751 163.516 297.228 162.69 298.031 162.474Z" fill="url(#paint47_linear_1553_17228)"/>
<path fill-rule="evenodd" clip-rule="evenodd" d="M387.873 148.539L402.884 204.561L317.032 227.565L302.021 171.543L387.873 148.539Z" fill="url(#paint48_linear_1553_17228)"/>
<path d="M304.151 167.853C303.348 168.068 302.522 167.591 302.306 166.787C302.091 165.984 302.568 165.158 303.372 164.942C304.175 164.727 305.001 165.204 305.217 166.008C305.432 166.811 304.955 167.637 304.151 167.853Z" fill="#F2F5FF"/>
<path d="M309.244 166.488C308.441 166.703 307.615 166.226 307.399 165.423C307.184 164.619 307.661 163.793 308.465 163.578C309.268 163.362 310.094 163.839 310.31 164.643C310.525 165.447 310.048 166.273 309.244 166.488Z" fill="#F2F5FF"/>
<path d="M323.969 215.444L320.751 213.488L333.097 193.178L347.659 195.791L358.297 174.135L371.17 178.3L381.343 159.707L384.647 161.515L372.977 182.843L360.24 178.722L349.788 200L334.974 197.341L323.969 215.444Z" fill="url(#paint49_linear_1553_17228)"/>
<defs>
<linearGradient id="paint0_linear_1553_17228" x1="-57.1983" y1="79.2021" x2="-154.359" y2="397.757" gradientUnits="userSpaceOnUse">
<stop stop-color="#F7FAFF"/>
<stop offset="1" stop-color="#6B9AD9"/>
</linearGradient>
<linearGradient id="paint1_linear_1553_17228" x1="112.278" y1="128.152" x2="72.2871" y2="180.112" gradientUnits="userSpaceOnUse">
<stop stop-color="#E5EDFF"/>
<stop offset="1" stop-color="#6B9AD9"/>
</linearGradient>
<linearGradient id="paint2_linear_1553_17228" x1="92.2737" y1="57.8377" x2="7.5449" y2="167.924" gradientUnits="userSpaceOnUse">
<stop stop-color="#E5EDFF"/>
<stop offset="1" stop-color="#6B9AD9"/>
</linearGradient>
<linearGradient id="paint3_linear_1553_17228" x1="64.185" y1="283.616" x2="83.4835" y2="315.803" gradientUnits="userSpaceOnUse">
<stop stop-color="#F59BA9"/>
<stop offset="1" stop-color="#F25267"/>
</linearGradient>
<linearGradient id="paint4_linear_1553_17228" x1="139.647" y1="358.703" x2="116.946" y2="442.054" gradientUnits="userSpaceOnUse">
<stop stop-color="#F7FAFF"/>
<stop offset="1" stop-color="#6B9AD9"/>
</linearGradient>
<linearGradient id="paint5_linear_1553_17228" x1="152.993" y1="394.074" x2="136.55" y2="435.087" gradientUnits="userSpaceOnUse">
<stop stop-color="#E5EDFF"/>
<stop offset="1" stop-color="#6B9AD9"/>
</linearGradient>
<linearGradient id="paint6_linear_1553_17228" x1="542.57" y1="430.064" x2="568.194" y2="559.308" gradientUnits="userSpaceOnUse">
<stop stop-color="#F7FAFF"/>
<stop offset="1" stop-color="#6B9AD9"/>
</linearGradient>
<linearGradient id="paint7_linear_1553_17228" x1="459.087" y1="335.846" x2="354.019" y2="577.59" gradientUnits="userSpaceOnUse">
<stop stop-color="#EEF3FF"/>
<stop offset="1" stop-color="#6B9AD9"/>
</linearGradient>
<linearGradient id="paint8_linear_1553_17228" x1="217.737" y1="358.784" x2="118.156" y2="569.151" gradientUnits="userSpaceOnUse">
<stop stop-color="#EEF3FF"/>
<stop offset="1" stop-color="#6B9AD9"/>
</linearGradient>
<linearGradient id="paint9_linear_1553_17228" x1="287.538" y1="404.064" x2="248.433" y2="522.434" gradientUnits="userSpaceOnUse">
<stop stop-color="#E5EDFF"/>
<stop offset="1" stop-color="#6B9AD9"/>
</linearGradient>
<linearGradient id="paint10_linear_1553_17228" x1="571.161" y1="134.023" x2="463.073" y2="355.449" gradientUnits="userSpaceOnUse">
<stop stop-color="#F7FAFF"/>
<stop offset="1" stop-color="#6B9AD9"/>
</linearGradient>
<linearGradient id="paint11_linear_1553_17228" x1="604.136" y1="189.084" x2="684.988" y2="249.555" gradientUnits="userSpaceOnUse">
<stop stop-color="#E5EDFF"/>
<stop offset="1" stop-color="#6B9AD9"/>
</linearGradient>
<linearGradient id="paint12_linear_1553_17228" x1="633.751" y1="155.399" x2="629.405" y2="161.047" gradientUnits="userSpaceOnUse">
<stop stop-color="#E5EDFF"/>
<stop offset="1" stop-color="#6B9AD9"/>
</linearGradient>
<linearGradient id="paint13_linear_1553_17228" x1="640.23" y1="157.24" x2="635.884" y2="162.888" gradientUnits="userSpaceOnUse">
<stop stop-color="#E5EDFF"/>
<stop offset="1" stop-color="#6B9AD9"/>
</linearGradient>
<linearGradient id="paint14_linear_1553_17228" x1="660.684" y1="157.283" x2="561.437" y2="231.013" gradientUnits="userSpaceOnUse">
<stop stop-color="#E5EDFF"/>
<stop offset="1" stop-color="#6B9AD9"/>
</linearGradient>
<linearGradient id="paint15_linear_1553_17228" x1="217.628" y1="90.6764" x2="221.824" y2="158.173" gradientUnits="userSpaceOnUse">
<stop stop-color="#FFE579"/>
<stop offset="1" stop-color="#FEC644"/>
</linearGradient>
<linearGradient id="paint16_linear_1553_17228" x1="189.127" y1="74.601" x2="184.707" y2="168.576" gradientUnits="userSpaceOnUse">
<stop stop-color="#FFEDBF"/>
<stop offset="1" stop-color="#FEC644"/>
</linearGradient>
<linearGradient id="paint17_linear_1553_17228" x1="238.478" y1="83.3243" x2="238.478" y2="136.892" gradientUnits="userSpaceOnUse">
<stop stop-color="#FFE579"/>
<stop offset="1" stop-color="#FEB755"/>
</linearGradient>
<linearGradient id="paint18_linear_1553_17228" x1="470.196" y1="56.6381" x2="374.086" y2="192.653" gradientUnits="userSpaceOnUse">
<stop stop-color="#E5EDFF"/>
<stop offset="1" stop-color="#6B9AD9"/>
</linearGradient>
<linearGradient id="paint19_linear_1553_17228" x1="358.041" y1="87.9518" x2="274.07" y2="326.319" gradientUnits="userSpaceOnUse">
<stop stop-color="#F7FAFF"/>
<stop offset="1" stop-color="#6B9AD9"/>
</linearGradient>
<linearGradient id="paint20_linear_1553_17228" x1="366.507" y1="252.12" x2="372.058" y2="299.234" gradientUnits="userSpaceOnUse">
<stop stop-color="#1542AB"/>
<stop offset="1" stop-color="#2B68EE"/>
</linearGradient>
<linearGradient id="paint21_linear_1553_17228" x1="372.181" y1="230.306" x2="363.037" y2="260.555" gradientUnits="userSpaceOnUse">
<stop stop-color="#3485F7"/>
<stop offset="1" stop-color="#1A57CF"/>
</linearGradient>
<linearGradient id="paint22_linear_1553_17228" x1="334.873" y1="228.364" x2="271.357" y2="351.858" gradientUnits="userSpaceOnUse">
<stop stop-color="#F7FAFF"/>
<stop offset="1" stop-color="#6B9AD9"/>
</linearGradient>
<linearGradient id="paint23_linear_1553_17228" x1="371.651" y1="207.978" x2="356.308" y2="207.978" gradientUnits="userSpaceOnUse">
<stop stop-color="#FAD0BA"/>
<stop offset="1" stop-color="#F2A384"/>
</linearGradient>
<linearGradient id="paint24_linear_1553_17228" x1="346.38" y1="300.677" x2="346.38" y2="316.476" gradientUnits="userSpaceOnUse">
<stop stop-color="#84F0A8"/>
<stop offset="1" stop-color="#48B676"/>
</linearGradient>
<linearGradient id="paint25_linear_1553_17228" x1="372.046" y1="293.094" x2="372.046" y2="354.649" gradientUnits="userSpaceOnUse">
<stop stop-color="#84F0A8"/>
<stop offset="1" stop-color="#48B676"/>
</linearGradient>
<linearGradient id="paint26_linear_1553_17228" x1="379.378" y1="275.5" x2="390.546" y2="331.355" gradientUnits="userSpaceOnUse">
<stop stop-color="#46C36F" stop-opacity="0.01"/>
<stop offset="1" stop-color="#4DBB7A"/>
</linearGradient>
<linearGradient id="paint27_linear_1553_17228" x1="333.989" y1="224.904" x2="303.143" y2="224.904" gradientUnits="userSpaceOnUse">
<stop stop-color="#FAD0BA"/>
<stop offset="1" stop-color="#F2A384"/>
</linearGradient>
<linearGradient id="paint28_linear_1553_17228" x1="320.446" y1="171.272" x2="282.916" y2="171.272" gradientUnits="userSpaceOnUse">
<stop stop-color="#FAD0BA"/>
<stop offset="1" stop-color="#F2A384"/>
</linearGradient>
<linearGradient id="paint29_linear_1553_17228" x1="309.404" y1="222.893" x2="298.548" y2="222.893" gradientUnits="userSpaceOnUse">
<stop stop-color="#FAD0BA"/>
<stop offset="1" stop-color="#F2A384"/>
</linearGradient>
<linearGradient id="paint30_linear_1553_17228" x1="274.527" y1="181.818" x2="130.292" y2="144.237" gradientUnits="userSpaceOnUse">
<stop stop-color="#092871"/>
<stop offset="1" stop-color="#2B68EE"/>
</linearGradient>
<linearGradient id="paint31_linear_1553_17228" x1="240.027" y1="300.139" x2="240.595" y2="310.687" gradientUnits="userSpaceOnUse">
<stop stop-color="#FFE579"/>
<stop offset="1" stop-color="#FEC644"/>
</linearGradient>
<linearGradient id="paint32_linear_1553_17228" x1="314.744" y1="236.465" x2="219.214" y2="209.344" gradientUnits="userSpaceOnUse">
<stop stop-color="#092871"/>
<stop offset="1" stop-color="#2B68EE"/>
</linearGradient>
<linearGradient id="paint33_linear_1553_17228" x1="243.5" y1="181.954" x2="133.077" y2="160.45" gradientUnits="userSpaceOnUse">
<stop stop-color="#092871"/>
<stop offset="1" stop-color="#2B68EE"/>
</linearGradient>
<linearGradient id="paint34_linear_1553_17228" x1="320.979" y1="295.034" x2="322.175" y2="281.244" gradientUnits="userSpaceOnUse">
<stop stop-color="#F1A385" stop-opacity="0.01"/>
<stop offset="1" stop-color="#F2A384"/>
</linearGradient>
<linearGradient id="paint35_linear_1553_17228" x1="346.179" y1="305.881" x2="344.227" y2="329.019" gradientUnits="userSpaceOnUse">
<stop stop-color="#3485F7"/>
<stop offset="1" stop-color="#1A57CF"/>
</linearGradient>
<linearGradient id="paint36_linear_1553_17228" x1="567.787" y1="213.874" x2="554.27" y2="213.874" gradientUnits="userSpaceOnUse">
<stop stop-color="#FAD0BA"/>
<stop offset="1" stop-color="#F2A384"/>
</linearGradient>
<linearGradient id="paint37_linear_1553_17228" x1="583.597" y1="222.362" x2="557.639" y2="222.362" gradientUnits="userSpaceOnUse">
<stop stop-color="#2865C6"/>
<stop offset="1" stop-color="#10378A"/>
</linearGradient>
<linearGradient id="paint38_linear_1553_17228" x1="427.154" y1="282.508" x2="435.114" y2="395.83" gradientUnits="userSpaceOnUse">
<stop stop-color="#1542AB"/>
<stop offset="1" stop-color="#2B68EE"/>
</linearGradient>
<linearGradient id="paint39_linear_1553_17228" x1="585.501" y1="158.29" x2="572.933" y2="158.29" gradientUnits="userSpaceOnUse">
<stop stop-color="#FAD0BA"/>
<stop offset="1" stop-color="#F2A384"/>
</linearGradient>
<linearGradient id="paint40_linear_1553_17228" x1="487.228" y1="184.118" x2="466.854" y2="272.857" gradientUnits="userSpaceOnUse">
<stop stop-color="#3485F7"/>
<stop offset="1" stop-color="#1A57CF"/>
</linearGradient>
<linearGradient id="paint41_linear_1553_17228" x1="596.423" y1="169.859" x2="577.878" y2="169.859" gradientUnits="userSpaceOnUse">
<stop stop-color="#2865C6"/>
<stop offset="1" stop-color="#10378A"/>
</linearGradient>
<linearGradient id="paint42_linear_1553_17228" x1="304.465" y1="320.041" x2="322.03" y2="447.868" gradientUnits="userSpaceOnUse">
<stop stop-color="#84F0A8"/>
<stop offset="1" stop-color="#48B676"/>
</linearGradient>
<linearGradient id="paint43_linear_1553_17228" x1="286.94" y1="323.863" x2="291.851" y2="455.558" gradientUnits="userSpaceOnUse">
<stop stop-color="#46C36F" stop-opacity="0.01"/>
<stop offset="1" stop-color="#4DBB7A"/>
</linearGradient>
<linearGradient id="paint44_linear_1553_17228" x1="405.043" y1="197.903" x2="389.935" y2="197.903" gradientUnits="userSpaceOnUse">
<stop stop-color="#FAD0BA"/>
<stop offset="1" stop-color="#F2A384"/>
</linearGradient>
<linearGradient id="paint45_linear_1553_17228" x1="387.734" y1="292.22" x2="289.388" y2="330.564" gradientUnits="userSpaceOnUse">
<stop stop-color="#7BE7A1"/>
<stop offset="1" stop-color="#84F0A8"/>
</linearGradient>
<linearGradient id="paint46_linear_1553_17228" x1="305.052" y1="324.218" x2="305.052" y2="347.633" gradientUnits="userSpaceOnUse">
<stop stop-color="#A0ECC3"/>
<stop offset="1" stop-color="#67D490"/>
</linearGradient>
<linearGradient id="paint47_linear_1553_17228" x1="368.631" y1="79.4027" x2="267.962" y2="234.359" gradientUnits="userSpaceOnUse">
<stop stop-color="#E5EDFF"/>
<stop offset="1" stop-color="#6B9AD9"/>
</linearGradient>
<linearGradient id="paint48_linear_1553_17228" x1="213.871" y1="130.979" x2="160.214" y2="355.514" gradientUnits="userSpaceOnUse">
<stop stop-color="#F7FAFF"/>
<stop offset="1" stop-color="#6B9AD9"/>
</linearGradient>
<linearGradient id="paint49_linear_1553_17228" x1="362.668" y1="123.927" x2="301.072" y2="215.672" gradientUnits="userSpaceOnUse">
<stop stop-color="#E5EDFF"/>
<stop offset="1" stop-color="#6B9AD9"/>
</linearGradient>
</defs>
</svg>
