<svg width="543" height="529" viewBox="0 0 543 529" fill="none" xmlns="http://www.w3.org/2000/svg">
<path d="M0.399414 428.389C0.399414 468.531 121.827 501.031 271.612 501.031C421.397 501.031 542.825 468.531 542.825 428.389V455.96C542.825 496.103 421.397 528.602 271.612 528.602C121.827 528.602 0.399414 496.103 0.399414 455.96V428.389Z" fill="url(#paint0_linear_138_5383)"/>
<path d="M271.612 501.031C421.399 501.031 542.825 468.508 542.825 428.389C542.825 388.269 421.399 355.746 271.612 355.746C121.825 355.746 0.399414 388.269 0.399414 428.389C0.399414 468.508 121.825 501.031 271.612 501.031Z" fill="url(#paint1_linear_138_5383)"/>
<path d="M269.041 453.747H525.754C536.754 445.819 542.754 437.319 542.754 428.39C542.754 420.604 538.182 413.176 529.825 406.104H269.041V453.747Z" fill="url(#paint2_linear_138_5383)"/>
<path d="M145.828 406.104C145.828 414.676 157.97 423.176 182.256 429.676C230.899 442.676 309.684 442.676 358.255 429.676C382.541 423.176 394.683 414.604 394.683 406.104V420.39C394.683 428.89 382.541 437.461 358.255 443.961C309.612 456.961 230.827 456.961 182.256 443.961C157.97 437.461 145.828 428.89 145.828 420.39V406.104Z" fill="url(#paint3_linear_138_5383)"/>
<path d="M145.827 406.105C145.827 397.605 157.97 389.034 182.256 382.534C230.898 369.534 309.683 369.534 358.254 382.534C382.54 389.034 394.683 397.605 394.683 406.105C394.683 414.605 382.54 423.177 358.254 429.677C309.612 442.677 230.827 442.677 182.256 429.677C157.97 423.177 145.827 414.677 145.827 406.105Z" fill="url(#paint4_linear_138_5383)"/>
<path d="M286.827 206.464L311.97 194.535C354.041 174.607 380.898 132.25 380.898 85.6786V41.3931C380.898 33.8217 370.113 26.2503 348.541 20.4647C305.327 8.89329 235.328 8.89329 192.185 20.4647C170.614 26.2503 159.828 33.8217 159.828 41.3931V85.6786C159.828 132.25 186.685 174.607 228.756 194.535L253.899 206.464C257.042 207.964 259.042 211.106 259.042 214.606V228.821C259.042 232.321 257.042 235.463 253.899 236.963L228.756 248.892C186.685 268.82 159.828 311.177 159.828 357.748V402.034C159.828 409.605 170.614 417.177 192.185 422.962C235.399 434.534 305.399 434.534 348.541 422.962C370.113 417.177 380.898 409.605 380.898 402.034V357.748C380.898 311.177 354.041 268.82 311.97 248.892L286.827 236.963C283.685 235.463 281.685 232.321 281.685 228.821V214.606C281.613 211.106 283.613 207.964 286.827 206.464Z" fill="url(#paint5_linear_138_5383)"/>
<path d="M348.47 20.4647C305.255 8.89329 235.256 8.89329 192.113 20.4647C170.542 26.2503 159.756 33.8217 159.756 41.3931V70.7501C163.756 76.5357 174.113 82.0357 190.828 86.5357C234.756 98.3213 305.97 98.3213 349.898 86.5357C366.612 82.0357 376.969 76.5357 380.969 70.7501V41.3931C380.826 33.8217 370.041 26.2503 348.47 20.4647Z" fill="url(#paint6_linear_138_5383)"/>
<path d="M380.898 41.3931C380.898 48.9645 370.113 56.5359 348.541 62.3216C305.327 73.8929 235.328 73.8929 192.185 62.3216C170.614 56.5359 159.828 48.9645 159.828 41.3931C159.828 33.8217 170.614 26.2503 192.185 20.4647C235.399 8.89329 305.399 8.89329 348.541 20.4647C370.113 26.2503 380.898 33.8217 380.898 41.3931Z" fill="url(#paint7_linear_138_5383)"/>
<path d="M176.326 129.105C187.112 153.891 206.755 174.391 232.397 185.891L261.326 198.891C263.826 200.034 265.397 202.462 265.397 205.248V357.604H275.254V205.462C275.254 202.748 276.826 200.248 279.326 199.105L308.611 185.962C334.254 174.462 353.897 153.962 364.682 129.177H176.326V129.105Z" fill="url(#paint8_linear_138_5383)"/>
<path d="M270.469 152.105C322.975 152.105 365.54 140.688 365.54 126.605C365.54 112.522 322.975 101.105 270.469 101.105C217.963 101.105 175.398 112.522 175.398 126.605C175.398 140.688 217.963 152.105 270.469 152.105Z" fill="url(#paint9_linear_138_5383)"/>
<path d="M165.898 355.604C165.898 371.033 212.612 383.533 270.254 383.533C327.897 383.533 374.611 371.033 374.611 355.604V397.747C374.611 413.176 327.897 425.676 270.254 425.676C212.612 425.676 165.898 413.176 165.898 397.747V355.604Z" fill="url(#paint10_linear_138_5383)"/>
<path d="M270.254 383.533C327.889 383.533 374.611 371.029 374.611 355.604C374.611 340.18 327.889 327.676 270.254 327.676C212.62 327.676 165.898 340.18 165.898 355.604C165.898 371.029 212.62 383.533 270.254 383.533Z" fill="url(#paint11_linear_138_5383)"/>
<path d="M331.112 347.604L278.326 310.676C273.541 307.319 267.112 307.319 262.255 310.676L209.47 347.604C205.041 350.033 202.541 352.747 202.541 355.604C202.541 365.604 232.898 373.747 270.326 373.747C307.755 373.747 338.112 365.604 338.112 355.604C338.04 352.747 335.54 350.033 331.112 347.604Z" fill="url(#paint12_linear_138_5383)"/>
<path d="M203.399 92.1784C203.399 127.25 221.684 159.464 250.97 177.606L238.398 171.892C205.613 157.035 184.542 124.392 184.542 88.3927V62.25H203.327L203.399 92.1784Z" fill="url(#paint13_linear_138_5383)"/>
<path d="M145.828 33.3223C145.828 41.8936 157.97 50.3936 182.256 56.8936C230.899 69.8935 309.684 69.8935 358.255 56.8936C382.541 50.3936 394.683 41.8222 394.683 33.3223V47.6079C394.683 56.1078 382.541 64.6792 358.255 71.1792C309.684 84.2505 230.899 84.2505 182.256 71.1792C157.97 64.6792 145.828 56.1078 145.828 47.6079V33.3223Z" fill="url(#paint14_linear_138_5383)"/>
<path d="M145.827 33.3212C145.827 24.8213 157.97 16.2499 182.256 9.74994C230.898 -3.24998 309.683 -3.24998 358.254 9.74994C382.54 16.2499 394.683 24.8213 394.683 33.3212C394.683 41.8212 382.54 50.3926 358.254 56.8925C309.612 69.8924 230.827 69.8924 182.256 56.8925C157.97 50.3926 145.827 41.8212 145.827 33.3212Z" fill="url(#paint15_linear_138_5383)"/>
<path d="M204.256 358.677C204.256 313.892 227.541 272.82 264.97 249.678L248.97 256.963C207.184 275.892 180.327 317.534 180.327 363.463V404.391H204.256V358.677Z" fill="url(#paint16_linear_138_5383)"/>
<path d="M402.538 301.675C402.538 297.318 408.681 293.033 421.038 289.747C445.681 283.176 485.68 283.176 510.323 289.747C522.68 293.033 528.823 297.39 528.823 301.675C528.823 306.033 522.68 310.318 510.323 313.604C485.68 320.175 445.681 320.175 421.038 313.604C408.752 310.39 402.538 306.033 402.538 301.675Z" fill="url(#paint17_linear_138_5383)"/>
<path d="M402.538 295.676C402.538 299.533 407.967 303.319 418.895 306.247C440.681 312.104 476.038 312.104 497.823 306.247C508.68 303.319 514.18 299.533 514.18 295.676V302.104C514.18 305.961 508.752 309.747 497.823 312.676C476.038 318.533 440.681 318.533 418.895 312.676C407.967 309.747 402.538 305.961 402.538 302.104V295.676Z" fill="url(#paint18_linear_138_5383)"/>
<path d="M402.538 295.677C402.538 291.82 407.967 288.034 418.895 285.106C440.681 279.249 476.038 279.249 497.823 285.106C508.752 288.034 514.18 291.82 514.18 295.677C514.18 299.534 508.752 303.32 497.823 306.248C476.038 312.106 440.681 312.106 418.895 306.248C408.038 303.32 402.538 299.463 402.538 295.677Z" fill="url(#paint19_linear_138_5383)"/>
<path d="M465.752 206.178L477.038 200.82C495.895 191.892 507.895 172.892 507.895 152.035V132.178C507.895 128.749 503.037 125.392 493.395 122.821C474.038 117.607 442.681 117.607 423.324 122.821C413.681 125.392 408.824 128.821 408.824 132.178V152.035C408.824 172.892 420.824 191.892 439.681 200.82L450.966 206.178C452.395 206.82 453.252 208.249 453.252 209.82V216.177C453.252 217.749 452.323 219.177 450.966 219.82L439.681 225.177C420.824 234.106 408.824 253.106 408.824 273.963V293.82C408.824 297.248 413.681 300.606 423.324 303.177C442.681 308.391 474.038 308.391 493.395 303.177C503.037 300.606 507.895 297.177 507.895 293.82V273.963C507.895 253.106 495.895 234.106 477.038 225.177L465.752 219.82C464.323 219.177 463.466 217.749 463.466 216.177V209.82C463.466 208.249 464.323 206.82 465.752 206.178Z" fill="url(#paint20_linear_138_5383)"/>
<path d="M493.395 122.75C474.038 117.535 442.681 117.535 423.324 122.75C413.681 125.321 408.824 128.75 408.824 132.107V145.249C410.609 147.821 415.252 150.321 422.752 152.321C442.466 157.607 474.395 157.607 494.038 152.321C501.537 150.321 506.18 147.821 507.966 145.249V132.107C507.895 128.75 503.109 125.392 493.395 122.75Z" fill="url(#paint21_linear_138_5383)"/>
<path d="M507.895 132.178C507.895 135.607 503.037 138.964 493.395 141.535C474.038 146.749 442.681 146.749 423.324 141.535C413.609 138.964 408.824 135.535 408.824 132.107C408.824 128.678 413.681 125.321 423.324 122.75C442.681 117.535 474.038 117.535 493.395 122.75C503.109 125.392 507.895 128.75 507.895 132.178Z" fill="url(#paint22_linear_138_5383)"/>
<path d="M416.254 171.464C421.111 182.607 429.897 191.749 441.397 196.964L454.325 202.749C455.468 203.249 456.182 204.392 456.182 205.607V273.892H460.611V205.678C460.611 204.464 461.325 203.321 462.468 202.821L475.611 196.964C487.111 191.821 495.896 182.607 500.753 171.464H416.254Z" fill="url(#paint23_linear_138_5383)"/>
<path d="M458.468 181.82C481.979 181.82 501.039 176.703 501.039 170.391C501.039 164.08 481.979 158.963 458.468 158.963C434.956 158.963 415.896 164.08 415.896 170.391C415.896 176.703 434.956 181.82 458.468 181.82Z" fill="url(#paint24_linear_138_5383)"/>
<path d="M411.539 273.035C411.539 279.964 432.468 285.535 458.324 285.535C484.181 285.535 505.11 279.892 505.11 273.035V291.892C505.11 298.821 484.181 304.392 458.324 304.392C432.468 304.392 411.539 298.749 411.539 291.892V273.035Z" fill="url(#paint25_linear_138_5383)"/>
<path d="M458.324 285.535C484.163 285.535 505.11 279.939 505.11 273.035C505.11 266.132 484.163 260.535 458.324 260.535C432.486 260.535 411.539 266.132 411.539 273.035C411.539 279.939 432.486 285.535 458.324 285.535Z" fill="url(#paint26_linear_138_5383)"/>
<path d="M485.611 269.393L461.968 252.821C459.825 251.321 456.896 251.321 454.754 252.821L431.111 269.393C429.111 270.464 428.04 271.678 428.04 272.964C428.04 277.464 441.611 281.107 458.397 281.107C475.182 281.107 488.753 277.464 488.753 272.964C488.753 271.75 487.611 270.535 485.611 269.393Z" fill="url(#paint27_linear_138_5383)"/>
<path d="M428.395 154.892C428.395 170.607 436.61 185.035 449.752 193.178L444.11 190.606C429.395 183.964 419.967 169.321 419.967 153.178V141.464H428.395V154.892Z" fill="url(#paint28_linear_138_5383)"/>
<path d="M402.538 128.536C402.538 132.393 407.967 136.179 418.895 139.108C440.681 144.965 476.038 144.965 497.823 139.108C508.68 136.179 514.18 132.393 514.18 128.536V134.965C514.18 138.822 508.752 142.607 497.823 145.536C476.038 151.393 440.681 151.393 418.895 145.536C407.967 142.607 402.538 138.822 402.538 134.965V128.536Z" fill="url(#paint29_linear_138_5383)"/>
<path d="M402.539 128.535C402.539 124.678 407.968 120.893 418.896 117.964C440.682 112.107 476.039 112.107 497.824 117.964C508.753 120.893 514.181 124.678 514.181 128.535C514.181 132.393 508.753 136.178 497.824 139.107C476.039 144.964 440.682 144.964 418.896 139.107C408.039 136.178 402.539 132.393 402.539 128.535Z" fill="url(#paint30_linear_138_5383)"/>
<path d="M428.753 274.392C428.753 254.321 439.181 235.892 455.967 225.535L448.753 228.821C430.039 237.321 417.967 255.964 417.967 276.535V294.892H428.682V274.392H428.753Z" fill="url(#paint31_linear_138_5383)"/>
<path d="M14.3994 301.675C14.3994 297.318 20.5422 293.033 32.8993 289.747C57.542 283.176 97.5418 283.176 122.184 289.747C134.542 293.033 140.684 297.39 140.684 301.675C140.684 306.033 134.542 310.318 122.184 313.604C97.5418 320.175 57.542 320.175 32.8993 313.604C20.5422 310.39 14.3994 306.033 14.3994 301.675Z" fill="url(#paint32_linear_138_5383)"/>
<path d="M14.3989 295.676C14.3989 299.533 19.8275 303.319 30.756 306.247C52.5416 312.104 87.8985 312.104 109.684 306.247C120.541 303.319 126.041 299.533 126.041 295.676V302.104C126.041 305.961 120.613 309.747 109.684 312.676C87.8985 318.533 52.5416 318.533 30.756 312.676C19.8275 309.747 14.3989 305.961 14.3989 302.104V295.676Z" fill="url(#paint33_linear_138_5383)"/>
<path d="M14.3989 295.678C14.3989 291.821 19.8275 288.035 30.756 285.107C52.5416 279.25 87.8985 279.25 109.684 285.107C120.613 288.035 126.041 291.821 126.041 295.678C126.041 299.535 120.613 303.321 109.684 306.249C87.8985 312.107 52.5416 312.107 30.756 306.249C19.8275 303.321 14.3989 299.464 14.3989 295.678Z" fill="url(#paint34_linear_138_5383)"/>
<path d="M77.6133 206.178L88.8989 200.82C107.756 191.892 119.756 172.892 119.756 152.035V132.178C119.756 128.749 114.899 125.392 105.256 122.821C85.899 117.607 54.542 117.607 35.185 122.821C25.5422 125.392 20.6851 128.821 20.6851 132.178V152.035C20.6851 172.892 32.685 191.892 51.542 200.82L62.8277 206.178C64.2562 206.82 65.1134 208.249 65.1134 209.82V216.177C65.1134 217.749 64.1848 219.177 62.8277 219.82L51.542 225.177C32.685 234.106 20.6851 253.106 20.6851 273.963V293.82C20.6851 297.248 25.5422 300.606 35.185 303.177C54.542 308.391 85.899 308.391 105.256 303.177C114.899 300.606 119.756 297.177 119.756 293.82V273.963C119.756 253.106 107.756 234.106 88.8989 225.177L77.6133 219.82C76.1847 219.177 75.3276 217.749 75.3276 216.177V209.82C75.2562 208.249 76.1847 206.82 77.6133 206.178Z" fill="url(#paint35_linear_138_5383)"/>
<path d="M105.256 122.75C85.899 117.535 54.542 117.535 35.185 122.75C25.5422 125.321 20.6851 128.75 20.6851 132.107V145.249C22.4708 147.821 27.1136 150.321 34.6135 152.321C54.3277 157.607 86.2561 157.607 105.899 152.321C113.399 150.321 118.042 147.821 119.827 145.249V132.107C119.756 128.75 114.899 125.392 105.256 122.75Z" fill="url(#paint36_linear_138_5383)"/>
<path d="M119.756 132.179C119.756 135.608 114.899 138.965 105.256 141.536C85.899 146.75 54.542 146.75 35.185 141.536C25.4707 138.965 20.6851 135.536 20.6851 132.108C20.6851 128.679 25.5422 125.322 35.185 122.751C54.542 117.536 85.899 117.536 105.256 122.751C114.899 125.393 119.756 128.751 119.756 132.179Z" fill="url(#paint37_linear_138_5383)"/>
<path d="M28.043 171.464C32.9001 182.607 41.6857 191.749 53.1857 196.964L66.1142 202.749C67.257 203.249 67.9713 204.392 67.9713 205.607V273.892H72.3999V205.678C72.3999 204.464 73.1141 203.321 74.257 202.821L87.3998 196.964C98.8997 191.821 107.685 182.607 112.542 171.464H28.043Z" fill="url(#paint38_linear_138_5383)"/>
<path d="M70.2567 181.82C93.7681 181.82 112.828 176.703 112.828 170.391C112.828 164.08 93.7681 158.963 70.2567 158.963C46.7453 158.963 27.6855 164.08 27.6855 170.391C27.6855 176.703 46.7453 181.82 70.2567 181.82Z" fill="url(#paint39_linear_138_5383)"/>
<path d="M23.3994 273.035C23.3994 279.964 44.3279 285.535 70.1848 285.535C96.0418 285.535 116.97 279.892 116.97 273.035V291.892C116.97 298.821 96.0418 304.392 70.1848 304.392C44.3279 304.392 23.3994 298.749 23.3994 291.892V273.035Z" fill="url(#paint40_linear_138_5383)"/>
<path d="M70.1848 285.535C96.0237 285.535 116.97 279.939 116.97 273.035C116.97 266.132 96.0237 260.535 70.1848 260.535C44.346 260.535 23.3994 266.132 23.3994 273.035C23.3994 279.939 44.346 285.535 70.1848 285.535Z" fill="url(#paint41_linear_138_5383)"/>
<path d="M97.471 269.393L73.8283 252.821C71.6854 251.321 68.7569 251.321 66.614 252.821L42.9713 269.393C40.9713 270.464 39.8999 271.678 39.8999 272.964C39.8999 277.464 53.4713 281.107 70.2569 281.107C87.0425 281.107 100.614 277.464 100.614 272.964C100.542 271.75 99.471 270.535 97.471 269.393Z" fill="url(#paint42_linear_138_5383)"/>
<path d="M40.1849 154.892C40.1849 170.607 48.3991 185.035 61.5419 193.178L55.8991 190.606C41.1849 183.964 31.7563 169.321 31.7563 153.178V141.464H40.1849V154.892Z" fill="url(#paint43_linear_138_5383)"/>
<path d="M14.3994 128.536C14.3994 132.393 19.828 136.179 30.7565 139.108C52.542 144.965 87.899 144.965 109.685 139.108C120.542 136.179 126.042 132.393 126.042 128.536V134.965C126.042 138.822 120.613 142.607 109.685 145.536C87.899 151.393 52.542 151.393 30.7565 145.536C19.828 142.607 14.3994 138.822 14.3994 134.965V128.536Z" fill="url(#paint44_linear_138_5383)"/>
<path d="M14.3994 128.535C14.3994 124.678 19.828 120.893 30.7565 117.964C52.542 112.107 87.899 112.107 109.685 117.964C120.613 120.893 126.042 124.678 126.042 128.535C126.042 132.393 120.613 136.178 109.685 139.107C87.899 144.964 52.542 144.964 30.7565 139.107C19.828 136.178 14.3994 132.393 14.3994 128.535Z" fill="url(#paint45_linear_138_5383)"/>
<path d="M40.6133 274.392C40.6133 254.321 51.0418 235.892 67.8274 225.535L60.6132 228.821C41.899 237.321 29.8276 255.964 29.8276 276.535V294.892H40.5419V274.392H40.6133Z" fill="url(#paint46_linear_138_5383)"/>
<defs>
<linearGradient id="paint0_linear_138_5383" x1="-83.4095" y1="478.49" x2="660.294" y2="478.49" gradientUnits="userSpaceOnUse">
<stop stop-color="white"/>
<stop offset="1" stop-color="#AEBDDF"/>
</linearGradient>
<linearGradient id="paint1_linear_138_5383" x1="22.3344" y1="428.372" x2="1274.5" y2="428.372" gradientUnits="userSpaceOnUse">
<stop stop-color="white"/>
<stop offset="1" stop-color="#AEBDDF"/>
</linearGradient>
<linearGradient id="paint2_linear_138_5383" x1="542.799" y1="429.941" x2="395.852" y2="429.941" gradientUnits="userSpaceOnUse">
<stop stop-color="white" stop-opacity="0"/>
<stop offset="1" stop-color="#AEBDDF"/>
</linearGradient>
<linearGradient id="paint3_linear_138_5383" x1="387.374" y1="429.937" x2="-71.7072" y2="429.937" gradientUnits="userSpaceOnUse">
<stop stop-color="white"/>
<stop offset="1" stop-color="#AEBDDF"/>
</linearGradient>
<linearGradient id="paint4_linear_138_5383" x1="178.289" y1="406.12" x2="623.182" y2="406.12" gradientUnits="userSpaceOnUse">
<stop stop-color="white"/>
<stop offset="1" stop-color="#AEBDDF"/>
</linearGradient>
<linearGradient id="paint5_linear_138_5383" x1="167.075" y1="221.709" x2="521.389" y2="221.709" gradientUnits="userSpaceOnUse">
<stop stop-color="#79D985" stop-opacity="0.2"/>
<stop offset="1" stop-color="#027A71"/>
</linearGradient>
<linearGradient id="paint6_linear_138_5383" x1="167.075" y1="53.5875" x2="521.389" y2="53.5875" gradientUnits="userSpaceOnUse">
<stop stop-color="#79D985" stop-opacity="0.2"/>
<stop offset="1" stop-color="#027A71"/>
</linearGradient>
<linearGradient id="paint7_linear_138_5383" x1="113.135" y1="41.4131" x2="473.131" y2="41.4131" gradientUnits="userSpaceOnUse">
<stop stop-color="#79D985" stop-opacity="0.2"/>
<stop offset="1" stop-color="#027A71"/>
</linearGradient>
<linearGradient id="paint8_linear_138_5383" x1="184.697" y1="243.35" x2="388.988" y2="243.35" gradientUnits="userSpaceOnUse">
<stop stop-color="#79D985"/>
<stop offset="1" stop-color="#027A71"/>
</linearGradient>
<linearGradient id="paint9_linear_138_5383" x1="179.357" y1="126.615" x2="583.108" y2="126.615" gradientUnits="userSpaceOnUse">
<stop stop-color="#79D985"/>
<stop offset="1" stop-color="#027A71"/>
</linearGradient>
<linearGradient id="paint10_linear_138_5383" x1="152.654" y1="390.664" x2="458.362" y2="390.664" gradientUnits="userSpaceOnUse">
<stop stop-color="#79D985"/>
<stop offset="1" stop-color="#027A71"/>
</linearGradient>
<linearGradient id="paint11_linear_138_5383" x1="183.095" y1="355.617" x2="635.986" y2="355.617" gradientUnits="userSpaceOnUse">
<stop stop-color="#79D985"/>
<stop offset="1" stop-color="#027A71"/>
</linearGradient>
<linearGradient id="paint12_linear_138_5383" x1="184.698" y1="340.954" x2="388.988" y2="340.954" gradientUnits="userSpaceOnUse">
<stop stop-color="#79D985"/>
<stop offset="1" stop-color="#027A71"/>
</linearGradient>
<linearGradient id="paint13_linear_138_5383" x1="217.804" y1="89.4846" x2="217.804" y2="163.404" gradientUnits="userSpaceOnUse">
<stop stop-color="white" stop-opacity="0.8"/>
<stop offset="1" stop-color="white" stop-opacity="0"/>
</linearGradient>
<linearGradient id="paint14_linear_138_5383" x1="92.84" y1="57.1345" x2="523.591" y2="57.1345" gradientUnits="userSpaceOnUse">
<stop stop-color="white"/>
<stop offset="1" stop-color="#AEBDDF"/>
</linearGradient>
<linearGradient id="paint15_linear_138_5383" x1="439.979" y1="33.3156" x2="47.9654" y2="33.3156" gradientUnits="userSpaceOnUse">
<stop stop-color="white"/>
<stop offset="1" stop-color="#AEBDDF"/>
</linearGradient>
<linearGradient id="paint16_linear_138_5383" x1="222.669" y1="251.954" x2="222.669" y2="399.043" gradientUnits="userSpaceOnUse">
<stop stop-color="white" stop-opacity="0.8"/>
<stop offset="1" stop-color="white" stop-opacity="0"/>
</linearGradient>
<linearGradient id="paint17_linear_138_5383" x1="465.684" y1="351.473" x2="465.684" y2="300.11" gradientUnits="userSpaceOnUse">
<stop stop-color="white"/>
<stop offset="1" stop-color="#AEBDDF"/>
</linearGradient>
<linearGradient id="paint18_linear_138_5383" x1="510.846" y1="306.326" x2="305.055" y2="306.326" gradientUnits="userSpaceOnUse">
<stop stop-color="white"/>
<stop offset="1" stop-color="#AEBDDF"/>
</linearGradient>
<linearGradient id="paint19_linear_138_5383" x1="417.12" y1="295.651" x2="616.55" y2="295.651" gradientUnits="userSpaceOnUse">
<stop stop-color="white"/>
<stop offset="1" stop-color="#AEBDDF"/>
</linearGradient>
<linearGradient id="paint20_linear_138_5383" x1="401.573" y1="212.985" x2="507.039" y2="212.985" gradientUnits="userSpaceOnUse">
<stop stop-color="white"/>
<stop offset="1" stop-color="#AEBDDF"/>
</linearGradient>
<linearGradient id="paint21_linear_138_5383" x1="385.548" y1="137.622" x2="486.558" y2="137.622" gradientUnits="userSpaceOnUse">
<stop stop-color="white"/>
<stop offset="1" stop-color="#AEBDDF"/>
</linearGradient>
<linearGradient id="paint22_linear_138_5383" x1="387.913" y1="132.165" x2="549.287" y2="132.165" gradientUnits="userSpaceOnUse">
<stop stop-color="#79D985" stop-opacity="0.2"/>
<stop offset="1" stop-color="#027A71"/>
</linearGradient>
<linearGradient id="paint23_linear_138_5383" x1="419.994" y1="222.687" x2="511.571" y2="222.687" gradientUnits="userSpaceOnUse">
<stop stop-color="#ACBDDE"/>
<stop offset="1" stop-color="#2E405C"/>
</linearGradient>
<linearGradient id="paint24_linear_138_5383" x1="417.6" y1="170.358" x2="598.588" y2="170.358" gradientUnits="userSpaceOnUse">
<stop stop-color="#ACBDDE"/>
<stop offset="1" stop-color="#2E405C"/>
</linearGradient>
<linearGradient id="paint25_linear_138_5383" x1="405.63" y1="288.724" x2="542.669" y2="288.724" gradientUnits="userSpaceOnUse">
<stop stop-color="#ACBDDE"/>
<stop offset="1" stop-color="#2E405C"/>
</linearGradient>
<linearGradient id="paint26_linear_138_5383" x1="419.276" y1="273.013" x2="622.292" y2="273.013" gradientUnits="userSpaceOnUse">
<stop stop-color="#ACBDDE"/>
<stop offset="1" stop-color="#2E405C"/>
</linearGradient>
<linearGradient id="paint27_linear_138_5383" x1="419.994" y1="266.441" x2="511.571" y2="266.441" gradientUnits="userSpaceOnUse">
<stop stop-color="#ACBDDE"/>
<stop offset="1" stop-color="#2E405C"/>
</linearGradient>
<linearGradient id="paint28_linear_138_5383" x1="434.833" y1="153.714" x2="434.833" y2="186.85" gradientUnits="userSpaceOnUse">
<stop stop-color="white" stop-opacity="0.8"/>
<stop offset="1" stop-color="white" stop-opacity="0"/>
</linearGradient>
<linearGradient id="paint29_linear_138_5383" x1="378.816" y1="139.213" x2="571.907" y2="139.213" gradientUnits="userSpaceOnUse">
<stop stop-color="white"/>
<stop offset="1" stop-color="#AEBDDF"/>
</linearGradient>
<linearGradient id="paint30_linear_138_5383" x1="534.428" y1="128.535" x2="358.701" y2="128.535" gradientUnits="userSpaceOnUse">
<stop stop-color="white"/>
<stop offset="1" stop-color="#AEBDDF"/>
</linearGradient>
<linearGradient id="paint31_linear_138_5383" x1="437.015" y1="226.544" x2="437.015" y2="292.479" gradientUnits="userSpaceOnUse">
<stop stop-color="white" stop-opacity="0.8"/>
<stop offset="1" stop-color="white" stop-opacity="0"/>
</linearGradient>
<linearGradient id="paint32_linear_138_5383" x1="77.5116" y1="351.473" x2="77.5116" y2="300.11" gradientUnits="userSpaceOnUse">
<stop stop-color="white"/>
<stop offset="1" stop-color="#AEBDDF"/>
</linearGradient>
<linearGradient id="paint33_linear_138_5383" x1="122.672" y1="306.326" x2="-83.1187" y2="306.326" gradientUnits="userSpaceOnUse">
<stop stop-color="white"/>
<stop offset="1" stop-color="#AEBDDF"/>
</linearGradient>
<linearGradient id="paint34_linear_138_5383" x1="28.9466" y1="295.651" x2="228.377" y2="295.651" gradientUnits="userSpaceOnUse">
<stop stop-color="white"/>
<stop offset="1" stop-color="#AEBDDF"/>
</linearGradient>
<linearGradient id="paint35_linear_138_5383" x1="13.3997" y1="212.985" x2="118.866" y2="212.985" gradientUnits="userSpaceOnUse">
<stop stop-color="white"/>
<stop offset="1" stop-color="#AEBDDF"/>
</linearGradient>
<linearGradient id="paint36_linear_138_5383" x1="-2.62509" y1="137.622" x2="98.3853" y2="137.622" gradientUnits="userSpaceOnUse">
<stop stop-color="white"/>
<stop offset="1" stop-color="#AEBDDF"/>
</linearGradient>
<linearGradient id="paint37_linear_138_5383" x1="-0.259964" y1="132.166" x2="161.114" y2="132.166" gradientUnits="userSpaceOnUse">
<stop stop-color="#79D985" stop-opacity="0.2"/>
<stop offset="1" stop-color="#027A71"/>
</linearGradient>
<linearGradient id="paint38_linear_138_5383" x1="31.8206" y1="222.687" x2="123.397" y2="222.687" gradientUnits="userSpaceOnUse">
<stop stop-color="#ACBDDE"/>
<stop offset="1" stop-color="#2E405C"/>
</linearGradient>
<linearGradient id="paint39_linear_138_5383" x1="29.4263" y1="170.358" x2="210.414" y2="170.358" gradientUnits="userSpaceOnUse">
<stop stop-color="#ACBDDE"/>
<stop offset="1" stop-color="#2E405C"/>
</linearGradient>
<linearGradient id="paint40_linear_138_5383" x1="17.4558" y1="288.724" x2="154.495" y2="288.724" gradientUnits="userSpaceOnUse">
<stop stop-color="#ACBDDE"/>
<stop offset="1" stop-color="#2E405C"/>
</linearGradient>
<linearGradient id="paint41_linear_138_5383" x1="31.1017" y1="273.013" x2="234.118" y2="273.013" gradientUnits="userSpaceOnUse">
<stop stop-color="#ACBDDE"/>
<stop offset="1" stop-color="#2E405C"/>
</linearGradient>
<linearGradient id="paint42_linear_138_5383" x1="31.8205" y1="266.441" x2="123.397" y2="266.441" gradientUnits="userSpaceOnUse">
<stop stop-color="#ACBDDE"/>
<stop offset="1" stop-color="#2E405C"/>
</linearGradient>
<linearGradient id="paint43_linear_138_5383" x1="46.6598" y1="153.714" x2="46.6598" y2="186.85" gradientUnits="userSpaceOnUse">
<stop stop-color="white" stop-opacity="0.8"/>
<stop offset="1" stop-color="white" stop-opacity="0"/>
</linearGradient>
<linearGradient id="paint44_linear_138_5383" x1="-9.35723" y1="139.213" x2="183.734" y2="139.213" gradientUnits="userSpaceOnUse">
<stop stop-color="white"/>
<stop offset="1" stop-color="#AEBDDF"/>
</linearGradient>
<linearGradient id="paint45_linear_138_5383" x1="146.254" y1="128.535" x2="-29.4728" y2="128.535" gradientUnits="userSpaceOnUse">
<stop stop-color="white"/>
<stop offset="1" stop-color="#AEBDDF"/>
</linearGradient>
<linearGradient id="paint46_linear_138_5383" x1="48.8408" y1="226.544" x2="48.8408" y2="292.479" gradientUnits="userSpaceOnUse">
<stop stop-color="white" stop-opacity="0.8"/>
<stop offset="1" stop-color="white" stop-opacity="0"/>
</linearGradient>
</defs>
</svg>
