<svg width="120" height="120" viewBox="0 0 120 120" fill="none" xmlns="http://www.w3.org/2000/svg">
<g id="customer-service 1" clip-path="url(#clip0_570_11736)">
<g id="Vector">
<path d="M97.3849 104.516L92.9042 91.0723C91.3384 86.3787 87.3436 82.9142 82.4739 82.0277L69.5391 79.6742V78.6716C71.79 77.3652 73.7488 75.6174 75.3088 73.5484H79.2165C82.4178 73.5484 85.0229 70.9432 85.0229 67.7419V44.5161C85.0229 30.6426 73.7352 19.3548 59.8616 19.3548C45.9881 19.3548 34.7004 30.6426 34.7004 44.5161V58.0645C34.7004 61.7961 37.3539 64.9181 40.8726 65.6458C41.9584 71.2084 45.4346 75.9155 50.1842 78.6716V79.6742L37.2475 82.0277C32.3797 82.9142 28.3829 86.3787 26.8191 91.0723L26.0449 93.3968L19.4526 86.8045C18.6978 86.0497 18.6978 84.8206 19.4526 84.0658L27.0978 76.4226L12.7481 62.0729L4.1081 70.7129C1.5494 73.2716 0.140363 76.6742 0.140363 80.2935C0.140363 83.9129 1.5494 87.3136 4.1081 89.8723L30.2662 116.03C32.8249 118.589 36.2275 120 39.8468 120C43.4662 120 46.8668 118.589 49.3655 116.088L58.7933 107.45L55.8533 104.516H97.3849ZM81.152 67.7419C81.152 68.8103 80.2829 69.6774 79.2165 69.6774H77.5888C78.15 68.3981 78.5758 67.049 78.8507 65.6458C79.6791 65.4735 80.4417 65.1445 81.152 64.7303V67.7419ZM79.2165 61.3974V54.7316C80.3681 55.4032 81.152 56.6381 81.152 58.0645C81.152 59.491 80.3681 60.7258 79.2165 61.3974ZM40.5068 61.3974C39.3552 60.7258 38.5713 59.491 38.5713 58.0645C38.5713 56.6381 39.3552 55.4032 40.5068 54.7316V61.3974ZM40.5068 48.3871V50.5974C39.8178 50.7774 39.1713 51.0484 38.5713 51.3987V44.5161C38.5713 32.7774 48.1229 23.2258 59.8616 23.2258C71.6004 23.2258 81.152 32.7774 81.152 44.5161V51.3987C80.552 51.0484 79.9055 50.7755 79.2165 50.5974V48.3871H77.281C71.5578 48.3871 66.1771 46.1574 62.1281 42.1103L59.8616 39.8439L57.5952 42.1103C53.5462 46.1574 48.1655 48.3871 42.4423 48.3871H40.5068ZM44.3778 61.9355V52.1845C50.19 51.7471 55.6094 49.349 59.8616 45.3058C64.1139 49.349 69.5333 51.749 75.3455 52.1845V61.9355C75.3455 64.7574 74.5752 67.3974 73.2513 69.6774H59.8616V73.5484H70.0694C67.3404 75.9503 63.7733 77.4194 59.8616 77.4194C51.3242 77.4194 44.3778 70.4729 44.3778 61.9355ZM65.6681 80.3981V80.489L59.8616 86.2955L54.0552 80.489V80.3981C55.89 80.9748 57.8391 81.2903 59.8616 81.2903C61.8842 81.2903 63.8333 80.9748 65.6681 80.3981ZM30.4887 92.2955C31.6055 88.9432 34.4604 86.4678 37.9384 85.8329L51.4675 83.3748L59.8616 91.769L68.2539 83.3768L81.781 85.8348C85.2591 86.4697 88.1139 88.9432 89.2307 92.2974L92.0158 100.645H51.9823L44.4436 93.1065L36.0668 100.684C35.3371 101.417 34.0617 101.417 33.33 100.684L29.1029 96.4568L30.4887 92.2955ZM12.7462 67.5464L21.6223 76.4226L19.5204 78.5245L10.6442 69.6484L12.7462 67.5464ZM46.6849 113.297C44.8578 115.121 42.4268 116.129 39.8429 116.129C37.2591 116.129 34.8281 115.121 32.9991 113.294L6.84101 87.1374C5.01391 85.3103 4.00746 82.8794 4.00746 80.2955C4.00746 77.7097 5.01391 75.2787 6.84101 73.4516L7.90552 72.3871L16.7817 81.2632L16.712 81.3329C14.4494 83.5974 14.4494 87.2806 16.712 89.5452L30.5913 103.425C31.6887 104.52 33.1462 105.126 34.6984 105.126C36.2507 105.126 37.7081 104.522 38.7339 103.492L38.8791 103.363L47.7958 112.279L46.6849 113.297ZM50.6526 109.659L41.7552 100.761L44.312 98.4503L53.1939 107.332L50.6526 109.659Z" fill="url(#paint0_linear_570_11736)"/>
<path d="M114.055 0H86.9584C83.7571 0 81.152 2.60516 81.152 5.80645V21.2903C81.152 24.4916 83.7571 27.0968 86.9584 27.0968H92.1281L90.1268 38.7697L108.804 27.0968H114.055C117.257 27.0968 119.862 24.4916 119.862 21.2903V5.80645C119.862 2.60516 117.257 0 114.055 0ZM115.991 21.2903C115.991 22.3568 115.122 23.2258 114.055 23.2258H107.693L95.401 30.9077L96.7191 23.2258H86.9584C85.892 23.2258 85.0229 22.3568 85.0229 21.2903V5.80645C85.0229 4.74 85.892 3.87097 86.9584 3.87097H114.055C115.122 3.87097 115.991 4.74 115.991 5.80645V21.2903Z" fill="url(#paint1_linear_570_11736)"/>
<path d="M112.12 7.74194H88.8939V11.6129H112.12V7.74194Z" fill="url(#paint2_linear_570_11736)"/>
<path d="M104.378 15.4839H88.8939V19.3548H104.378V15.4839Z" fill="url(#paint3_linear_570_11736)"/>
<path d="M112.12 15.4839H108.249V19.3548H112.12V15.4839Z" fill="url(#paint4_linear_570_11736)"/>
<path d="M59.8616 5.80645C34.5726 5.80645 12.7887 23.2994 7.12552 47.7L3.45778 41.5858L0.138428 43.5774L6.94165 54.9136L18.2778 48.1103L16.2862 44.791L11.041 47.9381C16.5262 25.6161 36.5991 9.67742 59.8616 9.67742C64.9462 9.67742 69.9629 10.4323 74.7726 11.9226L75.9184 8.22581C70.7371 6.61936 65.3352 5.80645 59.8616 5.80645Z" fill="url(#paint5_linear_570_11736)"/>
<path d="M118.921 42.8555L107.585 36.0523L100.784 47.3903L104.103 49.3819L107.49 43.7361C109.273 48.9523 110.184 54.4084 110.184 60C110.184 71.5103 106.197 82.7632 98.9604 91.6839L101.966 94.1226C109.762 84.5148 114.055 72.3948 114.055 60C114.055 54.0794 113.101 48.2981 111.241 42.7626L116.929 46.1748L118.921 42.8555Z" fill="url(#paint6_linear_570_11736)"/>
</g>
</g>
<defs>
<linearGradient id="paint0_linear_570_11736" x1="60" y1="0" x2="60" y2="120" gradientUnits="userSpaceOnUse">
<stop stop-color="#27DA68"/>
<stop offset="1" stop-color="#27DA68" stop-opacity="0"/>
</linearGradient>
<linearGradient id="paint1_linear_570_11736" x1="60" y1="0" x2="60" y2="120" gradientUnits="userSpaceOnUse">
<stop stop-color="#27DA68"/>
<stop offset="1" stop-color="#27DA68" stop-opacity="0"/>
</linearGradient>
<linearGradient id="paint2_linear_570_11736" x1="60" y1="0" x2="60" y2="120" gradientUnits="userSpaceOnUse">
<stop stop-color="#27DA68"/>
<stop offset="1" stop-color="#27DA68" stop-opacity="0"/>
</linearGradient>
<linearGradient id="paint3_linear_570_11736" x1="60" y1="0" x2="60" y2="120" gradientUnits="userSpaceOnUse">
<stop stop-color="#27DA68"/>
<stop offset="1" stop-color="#27DA68" stop-opacity="0"/>
</linearGradient>
<linearGradient id="paint4_linear_570_11736" x1="60" y1="0" x2="60" y2="120" gradientUnits="userSpaceOnUse">
<stop stop-color="#27DA68"/>
<stop offset="1" stop-color="#27DA68" stop-opacity="0"/>
</linearGradient>
<linearGradient id="paint5_linear_570_11736" x1="60" y1="0" x2="60" y2="120" gradientUnits="userSpaceOnUse">
<stop stop-color="#27DA68"/>
<stop offset="1" stop-color="#27DA68" stop-opacity="0"/>
</linearGradient>
<linearGradient id="paint6_linear_570_11736" x1="60" y1="0" x2="60" y2="120" gradientUnits="userSpaceOnUse">
<stop stop-color="#27DA68"/>
<stop offset="1" stop-color="#27DA68" stop-opacity="0"/>
</linearGradient>
<clipPath id="clip0_570_11736">
<rect width="120" height="120" fill="white"/>
</clipPath>
</defs>
</svg>
