<svg width="120" height="120" viewBox="0 0 120 120" fill="none" xmlns="http://www.w3.org/2000/svg">
<g id="dark-mode 1">
<g id="g1665">
<path id="Vector" d="M60 105.265H12.4711C7.52508 105.265 3.51562 101.256 3.51562 96.3102V57.7363C3.51562 52.7906 7.52508 48.7811 12.4711 48.7811H60M60 105.265V48.7811M60 105.265H107.529C112.475 105.265 116.484 101.256 116.484 96.3102V57.7363C116.484 52.7906 112.475 48.7811 107.529 48.7811H60M31.7578 59.9139V58.6642M14.6484 77.0233H13.3987M48.8672 77.0233H50.1169M31.7578 94.1327V95.3823M43.856 64.9252L44.7396 64.0414M19.6596 64.9252L18.776 64.0414M43.856 89.1214L44.7396 90.0052M19.6596 89.1214L18.776 90.0052M109.873 24.8749H52.3148M17.1586 24.8749H10.1273M38.2523 24.8749H31.2211M99.7709 35.0148L109.911 24.8748L99.7709 14.7346M38.7891 77.0233C38.7891 80.9064 35.6409 84.0545 31.7578 84.0545C27.8747 84.0545 24.7266 80.9064 24.7266 77.0233C24.7266 73.1399 27.8747 69.992 31.7578 69.992C35.6409 69.992 38.7891 73.1399 38.7891 77.0233ZM102.307 76.9084C102.307 84.7412 95.9578 91.0881 88.1273 91.0881C81.1734 91.0881 75.3869 86.0818 74.1773 79.4725C75.0072 79.6225 75.8648 79.7021 76.739 79.7021C84.5718 79.7021 90.9187 73.3529 90.9187 65.5225C90.9187 64.6459 90.839 63.7904 90.689 62.9584C97.296 64.1654 102.307 69.9521 102.307 76.9084Z" stroke="url(#paint0_linear_570_11726)" stroke-width="4" stroke-miterlimit="10" stroke-linecap="round" stroke-linejoin="round"/>
</g>
</g>
<defs>
<linearGradient id="paint0_linear_570_11726" x1="60" y1="14.7346" x2="60" y2="105.265" gradientUnits="userSpaceOnUse">
<stop stop-color="white"/>
<stop offset="1" stop-color="white" stop-opacity="0"/>
</linearGradient>
</defs>
</svg>
