<svg width="120" height="120" viewBox="0 0 120 120" fill="none" xmlns="http://www.w3.org/2000/svg">
<g id="font 1">
<g id="Group">
<g id="Vector">
<path d="M59.9794 29.3347C59.9761 29.3347 59.9731 29.3347 59.9698 29.3347C59.4856 29.3347 59.0506 29.6328 58.8762 30.0856L48.7732 56.3319C48.6345 56.6923 48.6821 57.0978 48.9007 57.4161C49.1194 57.7344 49.4808 57.9247 49.8668 57.9247H69.5937C69.9767 57.9247 70.3353 57.7376 70.5546 57.4238C70.7738 57.11 70.8258 56.709 70.6941 56.3494L61.0702 30.1032C60.9024 29.6448 60.4676 29.3387 59.9794 29.3347ZM51.5735 55.5809L59.9433 33.8377L67.9158 55.5809H51.5735Z" fill="url(#paint0_linear_570_11765)"/>
<path d="M25.3263 87.3437C24.3045 87.6797 23.6178 88.6273 23.6178 89.7015V93.4032C23.6178 94.7731 24.7322 95.8878 26.1024 95.8878H30.4681C31.1152 95.8878 31.6399 95.363 31.6399 94.7159C31.6399 94.0688 31.1152 93.5441 30.4681 93.5441H26.1021C26.0246 93.5441 25.9613 93.4808 25.9613 93.4032V89.7015C25.9613 89.6412 25.9995 89.5894 26.0583 89.5702C29.9658 88.2858 33.2606 84.0423 36.1289 76.6016L62.4797 8.99163C62.5006 8.93796 62.5531 8.9021 62.6107 8.9021H70.0195C70.0772 8.9021 70.1299 8.93819 70.1508 8.9921L73.7431 18.2459C73.9774 18.8494 74.6562 19.149 75.2597 18.9144C75.863 18.68 76.1623 18.0012 75.9281 17.3977L72.3359 8.14413C71.9681 7.19562 71.0372 6.55835 70.0198 6.55835H62.611C61.5792 6.55835 60.6706 7.17944 60.296 8.14062L33.9438 75.7545C31.3788 82.408 28.4796 86.3073 25.3263 87.3437Z" fill="url(#paint1_linear_570_11765)"/>
<path d="M106.241 87.3945C105.451 87.1758 104.608 86.6738 103.733 85.902C102.529 84.8396 101.432 83.0668 100.476 80.6373L78.7922 24.7768C78.5581 24.1735 77.8793 23.8742 77.2756 24.1083C76.6723 24.3425 76.373 25.0215 76.6071 25.625L98.2929 81.4904C99.4034 84.313 100.676 86.3312 102.183 87.6596C103.325 88.6681 104.48 89.3389 105.615 89.6532C105.677 89.6703 105.719 89.724 105.719 89.7868V93.4032C105.719 93.4808 105.656 93.5441 105.578 93.5441H71.9787C71.9011 93.5441 71.8378 93.4808 71.8378 93.4032V89.9169C71.8378 89.8442 71.8957 89.7828 71.9698 89.7769C74.5217 89.5751 76.3627 89.1957 77.5988 88.6165C79.287 87.8244 80.1792 86.3656 80.1792 84.3978C80.1792 82.8064 79.6861 80.7985 78.6722 78.2595L73.2661 63.4836C73.0971 63.0216 72.6574 62.7144 72.1657 62.7144H47.1209C46.6362 62.7144 46.2014 63.0127 46.0273 63.4653L38.5106 82.9925C37.8478 84.714 38.4912 86.6905 40.0413 87.6931L40.0622 87.7067C41.8205 88.8404 44.1978 89.5184 47.3295 89.7798C47.3956 89.7851 47.4495 89.8477 47.4495 89.9187V93.4037C47.4495 93.4812 47.3862 93.5445 47.3086 93.5445H38.4368C37.7897 93.5445 37.2649 94.0693 37.2649 94.7164C37.2649 95.3635 37.7897 95.8883 38.4368 95.8883H47.3088C48.6788 95.8883 49.7935 94.7738 49.7935 93.4037V89.9187C49.7935 88.6372 48.7969 87.5504 47.5245 87.444C44.8233 87.2187 42.7399 86.6443 41.3325 85.737L41.3131 85.7244C40.6903 85.3215 40.4318 84.5269 40.6981 83.8346L47.9257 65.0581H71.3466L76.4773 79.081C76.4813 79.092 76.4853 79.1028 76.4897 79.1136C77.3829 81.3472 77.8357 83.1251 77.8357 84.398C77.8357 85.4483 77.4558 86.0949 76.6041 86.4945C75.6417 86.9455 74.0203 87.2637 71.7851 87.4405C70.5007 87.5422 69.4946 88.6299 69.4946 89.9169V93.4032C69.4946 94.7731 70.6092 95.8878 71.9792 95.8878H105.578C106.948 95.8878 108.063 94.7733 108.063 93.4032V89.7868C108.063 88.6756 107.314 87.6917 106.241 87.3945Z" fill="url(#paint2_linear_570_11765)"/>
<path d="M17.9517 16.6292C18.5988 16.6292 19.1236 16.1044 19.1236 15.4573C19.1236 14.8102 18.5988 14.2855 17.9517 14.2855H15.9811V8.9021H16.3871C17.0342 8.9021 17.5589 8.37733 17.5589 7.73023C17.5589 7.08312 17.0342 6.55835 16.3871 6.55835H13.2314C12.5843 6.55835 12.0596 7.08312 12.0596 7.73023C12.0596 8.37733 12.5843 8.9021 13.2314 8.9021H13.6374V14.2852H13.1079C12.4608 14.2852 11.936 14.81 11.936 15.4571C11.936 16.1042 12.4608 16.629 13.1079 16.629H13.6374V37.4047H13.1079C12.4608 37.4047 11.936 37.9294 11.936 38.5765C11.936 39.2237 12.4608 39.7484 13.1079 39.7484H13.6374V60.5241H13.1079C12.4608 60.5241 11.936 61.0489 11.936 61.696C11.936 62.3431 12.4608 62.8679 13.1079 62.8679H13.6374V83.6436H13.1079C12.4608 83.6436 11.936 84.1684 11.936 84.8155C11.936 85.4626 12.4608 85.9873 13.1079 85.9873H13.6374V93.923H13.2314C12.5843 93.923 12.0596 94.4478 12.0596 95.0949C12.0596 95.742 12.5843 96.2668 13.2314 96.2668H16.3871C17.0342 96.2668 17.5589 95.742 17.5589 95.0949C17.5589 94.4478 17.0342 93.923 16.3871 93.923H15.9811V85.9873H17.9517C18.5988 85.9873 19.1236 85.4626 19.1236 84.8155C19.1236 84.1684 18.5988 83.6436 17.9517 83.6436H15.9811V62.8679H17.9517C18.5988 62.8679 19.1236 62.3431 19.1236 61.696C19.1236 61.0489 18.5988 60.5241 17.9517 60.5241H15.9811V39.7484H17.9517C18.5988 39.7484 19.1236 39.2237 19.1236 38.5765C19.1236 37.9294 18.5988 37.4047 17.9517 37.4047H15.9811V16.6292H17.9517Z" fill="url(#paint3_linear_570_11765)"/>
<path d="M23.5767 22.6951H27.4831C28.1302 22.6951 28.6549 22.1703 28.6549 21.5232C28.6549 20.8761 28.1302 20.3513 27.4831 20.3513H23.5767C22.9296 20.3513 22.4049 20.8761 22.4049 21.5232C22.4049 22.1703 22.9294 22.6951 23.5767 22.6951Z" fill="url(#paint4_linear_570_11765)"/>
<path d="M23.5767 27.2258H39.2018C39.8489 27.2258 40.3737 26.701 40.3737 26.0539C40.3737 25.4068 39.8489 24.882 39.2018 24.882H23.5767C22.9296 24.882 22.4049 25.4068 22.4049 26.0539C22.4049 26.701 22.9294 27.2258 23.5767 27.2258Z" fill="url(#paint5_linear_570_11765)"/>
<path d="M40.3737 30.5846C40.3737 29.9375 39.8489 29.4127 39.2018 29.4127H23.5767C22.9296 29.4127 22.4049 29.9375 22.4049 30.5846C22.4049 31.2317 22.9296 31.7565 23.5767 31.7565H39.2018C39.8489 31.7565 40.3737 31.2317 40.3737 30.5846Z" fill="url(#paint6_linear_570_11765)"/>
<path d="M106.891 102.083C106.243 102.083 105.719 102.607 105.719 103.254V103.66H98.4985V102.416C98.4985 101.769 97.9739 101.244 97.3266 101.244C96.6792 101.244 96.1547 101.769 96.1547 102.416V103.66H82.755V102.416C82.755 101.769 82.2305 101.244 81.5831 101.244C80.9358 101.244 80.4113 101.769 80.4113 102.416V103.66H67.0118V102.416C67.0118 101.769 66.4873 101.244 65.8399 101.244C65.1926 101.244 64.6681 101.769 64.6681 102.416V103.66H51.2688V102.416C51.2688 101.769 50.7441 101.244 50.097 101.244C49.4499 101.244 48.9251 101.769 48.9251 102.416V103.66H35.5256V102.416C35.5256 101.769 35.0009 101.244 34.3538 101.244C33.7067 101.244 33.1819 101.769 33.1819 102.416V103.66H25.9615V103.254C25.9615 102.607 25.4367 102.083 24.7896 102.083C24.1425 102.083 23.6178 102.607 23.6178 103.254V106.41C23.6178 107.057 24.1425 107.582 24.7896 107.582C25.4367 107.582 25.9615 107.057 25.9615 106.41V106.004H33.1819V106.41C33.1819 107.057 33.7067 107.582 34.3538 107.582C35.0009 107.582 35.5256 107.057 35.5256 106.41V106.004H48.9251V106.41C48.9251 107.057 49.4499 107.582 50.097 107.582C50.7441 107.582 51.2688 107.057 51.2688 106.41V106.004H64.6683V106.41C64.6683 107.057 65.1928 107.582 65.8402 107.582C66.4875 107.582 67.0121 107.057 67.0121 106.41V106.004H80.4115V106.41C80.4115 107.057 80.936 107.582 81.5834 107.582C82.2307 107.582 82.7553 107.057 82.7553 106.41V106.004H96.1549V106.41C96.1549 107.057 96.6795 107.582 97.3268 107.582C97.9742 107.582 98.4987 107.057 98.4987 106.41V106.004H105.719V106.41C105.719 107.057 106.244 107.582 106.891 107.582C107.538 107.582 108.063 107.057 108.063 106.41V103.254C108.063 102.607 107.538 102.083 106.891 102.083Z" fill="url(#paint7_linear_570_11765)"/>
<path d="M45.9987 14.0583C45.3516 14.0583 44.8268 13.5336 44.8268 12.8865C44.8268 12.1109 44.1961 11.4802 43.4206 11.4802C42.7735 11.4802 42.2487 10.9555 42.2487 10.3084C42.2487 9.66124 42.7735 9.13648 43.4206 9.13648C44.1961 9.13648 44.8268 8.50577 44.8268 7.73023C44.8268 7.08312 45.3516 6.55835 45.9987 6.55835C46.6458 6.55835 47.1706 7.08312 47.1706 7.73023C47.1706 8.50577 47.8013 9.13648 48.5768 9.13648C49.2239 9.13648 49.7487 9.66124 49.7487 10.3084C49.7487 10.9555 49.2239 11.4802 48.5768 11.4802C47.8013 11.4802 47.1706 12.1109 47.1706 12.8865C47.1706 13.5338 46.6458 14.0583 45.9987 14.0583Z" fill="url(#paint8_linear_570_11765)"/>
<path d="M65.9182 85.1572C65.2709 85.1572 64.7463 84.6324 64.7463 83.9853C64.7463 83.2098 64.1156 82.5791 63.3401 82.5791C62.6928 82.5791 62.1682 82.0543 62.1682 81.4072C62.1682 80.7601 62.6928 80.2353 63.3401 80.2353C64.1156 80.2353 64.7463 79.6046 64.7463 78.8291C64.7463 78.1819 65.2709 77.6572 65.9182 77.6572C66.5656 77.6572 67.0901 78.1819 67.0901 78.8291C67.0901 79.6046 67.7208 80.2353 68.4963 80.2353C69.1437 80.2353 69.6682 80.7601 69.6682 81.4072C69.6682 82.0543 69.1437 82.5791 68.4963 82.5791C67.7208 82.5791 67.0901 83.2098 67.0901 83.9853C67.0901 84.6324 66.5656 85.1572 65.9182 85.1572Z" fill="url(#paint9_linear_570_11765)"/>
<path d="M97.3268 32.9476C96.6795 32.9476 96.1549 32.4228 96.1549 31.7757C96.1549 31.0001 95.5242 30.3694 94.7487 30.3694C94.1013 30.3694 93.5768 29.8447 93.5768 29.1976C93.5768 28.5505 94.1013 28.0257 94.7487 28.0257C95.5242 28.0257 96.1549 27.3948 96.1549 26.6194C96.1549 25.9723 96.6795 25.4476 97.3268 25.4476C97.9742 25.4476 98.4987 25.9723 98.4987 26.6194C98.4987 27.395 99.1294 28.0257 99.9049 28.0257C100.552 28.0257 101.077 28.5505 101.077 29.1976C101.077 29.8447 100.552 30.3694 99.9049 30.3694C99.1294 30.3694 98.4987 31.0001 98.4987 31.7757C98.4987 32.4228 97.9739 32.9476 97.3268 32.9476Z" fill="url(#paint10_linear_570_11765)"/>
<path d="M102.483 55.3055C102.183 55.3055 101.883 55.1912 101.655 54.9624C101.197 54.5047 101.197 53.7626 101.655 53.3051L103.998 50.9614C104.456 50.5039 105.198 50.5039 105.655 50.9614C106.113 51.4191 106.113 52.1612 105.655 52.6187L103.312 54.9624C103.083 55.1912 102.783 55.3055 102.483 55.3055Z" fill="url(#paint11_linear_570_11765)"/>
<path d="M33.1817 43.1614C32.8817 43.1614 32.5819 43.047 32.3529 42.8183C31.8952 42.3605 31.8952 41.6185 32.3529 41.161L34.6967 38.8173C35.1544 38.3598 35.8962 38.3598 36.3539 38.8173C36.8117 39.275 36.8117 40.017 36.3539 40.4745L34.0102 42.8183C33.7814 43.047 33.4817 43.1614 33.1817 43.1614Z" fill="url(#paint12_linear_570_11765)"/>
</g>
</g>
</g>
<defs>
<linearGradient id="paint0_linear_570_11765" x1="59.9994" y1="6.55835" x2="59.9994" y2="107.582" gradientUnits="userSpaceOnUse">
<stop stop-color="white"/>
<stop offset="1" stop-color="white" stop-opacity="0"/>
</linearGradient>
<linearGradient id="paint1_linear_570_11765" x1="59.9994" y1="6.55835" x2="59.9994" y2="107.582" gradientUnits="userSpaceOnUse">
<stop stop-color="white"/>
<stop offset="1" stop-color="white" stop-opacity="0"/>
</linearGradient>
<linearGradient id="paint2_linear_570_11765" x1="59.9994" y1="6.55835" x2="59.9994" y2="107.582" gradientUnits="userSpaceOnUse">
<stop stop-color="white"/>
<stop offset="1" stop-color="white" stop-opacity="0"/>
</linearGradient>
<linearGradient id="paint3_linear_570_11765" x1="59.9994" y1="6.55835" x2="59.9994" y2="107.582" gradientUnits="userSpaceOnUse">
<stop stop-color="white"/>
<stop offset="1" stop-color="white" stop-opacity="0"/>
</linearGradient>
<linearGradient id="paint4_linear_570_11765" x1="59.9994" y1="6.55835" x2="59.9994" y2="107.582" gradientUnits="userSpaceOnUse">
<stop stop-color="white"/>
<stop offset="1" stop-color="white" stop-opacity="0"/>
</linearGradient>
<linearGradient id="paint5_linear_570_11765" x1="59.9994" y1="6.55835" x2="59.9994" y2="107.582" gradientUnits="userSpaceOnUse">
<stop stop-color="white"/>
<stop offset="1" stop-color="white" stop-opacity="0"/>
</linearGradient>
<linearGradient id="paint6_linear_570_11765" x1="59.9994" y1="6.55835" x2="59.9994" y2="107.582" gradientUnits="userSpaceOnUse">
<stop stop-color="white"/>
<stop offset="1" stop-color="white" stop-opacity="0"/>
</linearGradient>
<linearGradient id="paint7_linear_570_11765" x1="59.9994" y1="6.55835" x2="59.9994" y2="107.582" gradientUnits="userSpaceOnUse">
<stop stop-color="white"/>
<stop offset="1" stop-color="white" stop-opacity="0"/>
</linearGradient>
<linearGradient id="paint8_linear_570_11765" x1="59.9994" y1="6.55835" x2="59.9994" y2="107.582" gradientUnits="userSpaceOnUse">
<stop stop-color="white"/>
<stop offset="1" stop-color="white" stop-opacity="0"/>
</linearGradient>
<linearGradient id="paint9_linear_570_11765" x1="59.9994" y1="6.55835" x2="59.9994" y2="107.582" gradientUnits="userSpaceOnUse">
<stop stop-color="white"/>
<stop offset="1" stop-color="white" stop-opacity="0"/>
</linearGradient>
<linearGradient id="paint10_linear_570_11765" x1="59.9994" y1="6.55835" x2="59.9994" y2="107.582" gradientUnits="userSpaceOnUse">
<stop stop-color="white"/>
<stop offset="1" stop-color="white" stop-opacity="0"/>
</linearGradient>
<linearGradient id="paint11_linear_570_11765" x1="59.9994" y1="6.55835" x2="59.9994" y2="107.582" gradientUnits="userSpaceOnUse">
<stop stop-color="white"/>
<stop offset="1" stop-color="white" stop-opacity="0"/>
</linearGradient>
<linearGradient id="paint12_linear_570_11765" x1="59.9994" y1="6.55835" x2="59.9994" y2="107.582" gradientUnits="userSpaceOnUse">
<stop stop-color="white"/>
<stop offset="1" stop-color="white" stop-opacity="0"/>
</linearGradient>
</defs>
</svg>
