<svg width="120" height="120" viewBox="0 0 120 120" fill="none" xmlns="http://www.w3.org/2000/svg">
<g id="friendly 1">
<g id="Group">
<path id="Vector" d="M45.8183 32.5454V18.7273H110.182V63.6363H56.9092M88.9092 80.7273H67.091M88.9092 80.7273L86.5456 71.0909H69.2728L67.091 80.7273M88.9092 80.7273L93.2728 87.8182H62.7274L67.091 80.7273M13.091 48.3636V37.4545C13.091 34.7273 15.2728 32.5454 18.0001 32.5454H52.0001C54.7274 32.5454 56.9092 34.7273 56.9092 37.4545V82.9091C56.9092 85.6363 54.7274 87.8182 52.0001 87.8182H21.2728M12.9092 54.1818H15.8183M10.5456 82H18.3637M33.4547 38.3636H36.5456M31.091 82H38.9092M90.5456 26.1818L101.636 37.2727M78.1819 28L99.6365 49.4545M56.9092 71.0909H111.455C114.182 71.0909 116.364 68.9091 116.364 66.1818V16.1818C116.364 13.4545 114.182 11.2727 111.455 11.2727H44.5456C41.8183 11.2727 39.6365 13.4545 39.6365 16.1818V32.5454H51.8183C54.5456 32.5454 56.9092 34.7273 56.9092 37.6363V71.0909ZM22.3637 87.8182H6.36375C4.72738 87.8182 3.63647 86.5454 3.63647 85.0909V51.2727C3.63647 49.6363 4.9092 48.5454 6.36375 48.5454H22.1819C23.8183 48.5454 24.9092 49.8182 24.9092 51.2727V85.0909C25.091 86.5454 23.8183 87.8182 22.3637 87.8182ZM80.3638 108.727H10.9092C9.09102 108.727 7.81829 107.273 7.81829 105.636V101.273C7.81829 99.4545 9.27284 98.1818 10.9092 98.1818H80.3638C82.1819 98.1818 83.4547 99.6363 83.4547 101.273V105.636C83.4547 107.273 82.0001 108.727 80.3638 108.727ZM112.364 108.727C112.364 102.909 107.455 98 101.636 98C95.8183 98 90.9092 102.727 90.9092 108.727H112.364Z" stroke="url(#paint0_linear_570_11668)" stroke-width="3" stroke-miterlimit="10" stroke-linecap="round" stroke-linejoin="round"/>
</g>
</g>
<defs>
<linearGradient id="paint0_linear_570_11668" x1="60.0001" y1="11.2727" x2="60.0001" y2="108.727" gradientUnits="userSpaceOnUse">
<stop stop-color="white"/>
<stop offset="1" stop-color="white" stop-opacity="0"/>
</linearGradient>
</defs>
</svg>
