<svg width="120" height="120" viewBox="0 0 120 120" fill="none" xmlns="http://www.w3.org/2000/svg">
<g id="react 1">
<path id="Vector" d="M95.5399 61.88C94.9532 61.21 94.3349 60.5383 93.6849 59.865C94.1382 59.385 94.5782 58.9067 95.0049 58.43C103.03 49.41 106.42 40.36 103.28 34.925C100.27 29.71 91.3149 28.155 80.0999 30.335C78.9966 30.5517 77.8982 30.795 76.8049 31.065C76.5949 30.345 76.3732 29.6283 76.1399 28.915C72.3349 17.45 66.1899 9.995 59.9099 10C53.8899 10 48.0699 16.985 44.3549 27.79C43.9882 28.8567 43.6499 29.93 43.3399 31.01C42.6099 30.83 41.8766 30.6633 41.1399 30.51C29.3099 28.085 19.7849 29.685 16.6499 35.13C13.6449 40.345 16.7849 48.88 24.2899 57.49C25.0366 58.34 25.8032 59.1733 26.5899 59.99C25.6599 60.94 24.7849 61.895 23.9649 62.845C16.6399 71.335 13.6799 79.725 16.6799 84.92C19.7799 90.29 29.1699 92.045 40.6049 89.795C41.5316 89.6117 42.4532 89.405 43.3699 89.175C43.7032 90.345 44.0716 91.5067 44.4749 92.66C48.1749 103.245 53.9599 110 59.9599 110C66.1599 110 72.3699 102.735 76.1349 91.705C76.4349 90.835 76.7099 89.93 76.9799 89C78.1632 89.2933 79.3549 89.5533 80.5549 89.78C91.5699 91.865 100.315 90.23 103.31 85.03C106.405 79.655 103.21 70.645 95.5399 61.88ZM20.3499 37.26C22.2799 33.91 30.0649 32.6 40.2799 34.7C40.9332 34.8333 41.5982 34.9833 42.2749 35.15C41.2764 39.5618 40.5715 44.0349 40.1649 48.54C36.4812 51.1303 32.9688 53.9562 29.6499 57C28.9199 56.2433 28.2082 55.4683 27.5149 54.675C21.0799 47.305 18.5399 40.405 20.3499 37.26ZM39.7849 65.9C37.2349 63.965 34.8599 61.985 32.7049 59.995C34.8549 58.015 37.2299 56.045 39.7799 54.115C39.6866 56.0783 39.6416 58.0433 39.6449 60.01C39.6449 61.9767 39.6916 63.94 39.7849 65.9ZM39.7849 85.6C35.451 86.5652 30.9765 86.7245 26.5849 86.07C25.381 85.9759 24.2091 85.6358 23.1419 85.0707C22.0746 84.5057 21.1346 83.7278 20.3799 82.785C18.5549 79.635 20.9349 72.895 27.1999 65.635C27.9866 64.725 28.7999 63.8383 29.6399 62.975C32.9603 66.0375 36.4797 68.877 40.1749 71.475C40.5855 76.037 41.2971 80.5668 42.3049 85.035C41.4716 85.245 40.6299 85.435 39.7799 85.605L39.7849 85.6ZM75.2849 45.405C73.6082 44.3483 71.9116 43.3267 70.1949 42.34C68.5016 41.3667 66.7899 40.4283 65.0599 39.525C68.0249 38.28 70.9399 37.215 73.7549 36.35C74.4168 39.3407 74.9275 42.3629 75.2849 45.405ZM48.3999 29.175C51.5799 19.925 56.2899 14.275 59.9199 14.275C63.7849 14.27 68.8049 20.365 72.0899 30.26C72.3032 30.9067 72.5032 31.5567 72.6899 32.21C68.3776 33.5465 64.1584 35.1667 60.0599 37.06C55.975 35.1435 51.7654 33.5047 47.4599 32.155C47.7499 31.155 48.0632 30.1617 48.3999 29.175ZM46.3999 36.295C49.3353 37.2189 52.2223 38.2903 55.0499 39.505C51.5432 41.3117 48.1299 43.28 44.8099 45.41C45.2099 42.22 45.7449 39.165 46.3999 36.295ZM44.8149 74.595C46.4716 75.6583 48.1532 76.68 49.8599 77.66C51.5999 78.66 53.3616 79.62 55.1449 80.54C52.297 81.7968 49.3865 82.9066 46.4249 83.865C45.7367 80.8049 45.1994 77.7128 44.8149 74.6V74.595ZM72.0949 90.325C70.7647 94.5602 68.6664 98.5143 65.9049 101.99C65.2231 102.986 64.3442 103.832 63.3225 104.476C62.3008 105.119 61.1581 105.546 59.9649 105.73C56.3199 105.73 51.6749 100.305 48.5149 91.25C48.1416 90.18 47.7982 89.1 47.4849 88.01C51.8109 86.6145 56.0372 84.9273 60.1349 82.96C64.2682 84.8686 68.5223 86.5038 72.8699 87.855C72.6299 88.685 72.3716 89.5083 72.0949 90.325ZM73.9049 83.705C71.0599 82.825 68.1049 81.74 65.0949 80.475C66.7916 79.585 68.4999 78.6433 70.2199 77.65C71.9866 76.63 73.7066 75.585 75.3799 74.515C75.0457 77.6015 74.5534 80.6689 73.9049 83.705ZM76.1399 59.99C76.1399 63.0267 76.0449 66.06 75.8549 69.09C73.3899 70.76 70.7899 72.39 68.0849 73.95C65.3849 75.505 62.7199 76.935 60.0999 78.23C57.3432 76.91 54.6399 75.4867 51.9899 73.96C49.3566 72.4433 46.7832 70.8283 44.2699 69.115C44.0366 66.0817 43.9199 63.045 43.9199 60.005C43.9199 56.9683 44.0332 53.9333 44.2599 50.9C49.2862 47.4684 54.5645 44.4214 60.0499 41.785C62.7699 43.1083 65.4416 44.5267 68.0649 46.04C70.6982 47.5533 73.2816 49.1517 75.8149 50.835C76.0316 53.8817 76.1399 56.9333 76.1399 59.99ZM80.9199 34.525C90.5299 32.66 97.7699 33.915 99.5849 37.06C101.52 40.41 98.7499 47.8 91.8149 55.59C91.4316 56.02 91.0349 56.4517 90.6249 56.885C87.2473 53.8316 83.6656 51.0118 79.9049 48.445C79.5262 43.9898 78.8497 39.5649 77.8799 35.2C78.9132 34.9467 79.9266 34.7217 80.9199 34.525ZM80.2699 53.95C82.8077 55.8022 85.2476 57.7849 87.5799 59.89C85.2584 62.0289 82.8268 64.0449 80.2949 65.93C80.3716 63.95 80.4099 61.97 80.4099 59.99C80.4099 57.9767 80.3632 55.9633 80.2699 53.95ZM99.6149 82.895C97.7949 86.05 90.7749 87.365 81.3499 85.585C80.2699 85.3817 79.1632 85.1383 78.0299 84.855C78.9763 80.4337 79.6227 75.9535 79.9649 71.445C83.719 68.8351 87.2891 65.97 90.6499 62.87C91.2399 63.48 91.7999 64.0867 92.3299 64.69C95.3352 67.9579 97.7131 71.7511 99.3449 75.88C99.8671 76.9687 100.161 78.1529 100.207 79.3595C100.253 80.5661 100.052 81.7694 99.6149 82.895ZM55.5199 52.19C53.9905 53.0731 52.7572 54.3899 51.9762 55.9739C51.1951 57.5579 50.9012 59.3379 51.1317 61.0889C51.3622 62.8398 52.1067 64.4832 53.2711 65.811C54.4355 67.1389 55.9675 68.0917 57.6734 68.5489C59.3793 69.0061 61.1824 68.9473 62.8548 68.3798C64.5273 67.8123 65.9939 66.7616 67.0692 65.3606C68.1445 63.9597 68.7803 62.2713 68.8961 60.509C69.0119 58.7467 68.6026 56.9897 67.7199 55.46C67.1336 54.4441 66.353 53.5537 65.4226 52.8395C64.4922 52.1253 63.4302 51.6015 62.2973 51.2978C61.1643 50.9942 59.9827 50.9167 58.8198 51.0697C57.6569 51.2228 56.5356 51.6035 55.5199 52.19Z" fill="url(#paint0_linear_570_11662)"/>
</g>
<defs>
<linearGradient id="paint0_linear_570_11662" x1="60.0005" y1="10" x2="60.0005" y2="110" gradientUnits="userSpaceOnUse">
<stop stop-color="#27DA68"/>
<stop offset="1" stop-color="white"/>
</linearGradient>
</defs>
</svg>
