<svg width="120" height="120" viewBox="0 0 120 120" fill="none" xmlns="http://www.w3.org/2000/svg">
<g id="science 1">
<g id="Group">
<g id="Vector">
<path d="M116.364 101.818H113.273V34.5454C113.273 31.2727 110.545 28.5454 107.273 28.5454H102.727C103.454 25.9999 103.273 23.8181 102.182 21.8181C98.5454 15.6363 87.6363 17.2727 80.5454 19.0908C77.8181 8.54539 73.0908 1.81812 67.4545 1.81812C61.8181 1.81812 57.0908 8.54539 54.1818 19.0908C47.2727 17.2727 36.1818 15.6363 32.5454 21.8181C31.4545 23.6363 31.2727 25.9999 31.9999 28.5454H12.7272C9.45448 28.5454 6.72721 31.2727 6.72721 34.5454V101.818H3.6363C3.09084 101.818 2.72721 102 2.36357 102.364C1.99993 102.727 1.81812 103.091 1.81812 103.636C1.99993 111.818 8.54539 118.182 16.7272 118.182H103.091C111.273 118.182 117.818 111.818 118 103.636C118 103.091 117.818 102.727 117.454 102.364C117.273 102 116.909 101.818 116.364 101.818ZM99.0908 23.6363C100.909 26.7272 97.9999 32.7272 91.0908 39.4545C88.7272 37.2727 85.8181 35.0908 82.7272 32.909C82.3636 29.0908 81.9999 25.6363 81.2727 22.3636C86.1818 21.2727 96.5454 19.2727 99.0908 23.6363ZM43.6363 44.3636C46.1818 46.5454 48.909 48.7272 51.8181 50.909C52.1818 54.7272 52.5454 58.1818 53.2727 61.4545C48.3636 62.7272 37.9999 64.7272 35.6363 60.3636C33.0908 55.9999 39.9999 47.9999 43.6363 44.3636ZM67.4545 27.9999C71.6363 29.9999 75.2727 31.9999 79.6363 34.909C79.9999 39.6363 79.9999 43.9999 79.6363 48.909C75.2727 51.8181 71.8181 53.8181 67.4545 55.8181C63.4545 53.8181 59.6363 51.8181 55.2727 48.909C54.909 44.3636 54.909 39.9999 55.2727 34.909C59.6363 31.9999 63.2727 29.9999 67.4545 27.9999ZM55.6363 30.5454C55.9999 28.1818 56.3636 25.8181 56.7272 23.6363C58.909 24.3636 61.0908 25.2727 63.2727 26.1818C60.5454 27.6363 58.5454 28.7272 55.6363 30.5454ZM71.4545 26.1818C73.6363 25.2727 75.8181 24.3636 77.9999 23.6363C78.3636 25.8181 78.909 27.9999 79.0909 30.5454C76.1818 28.7272 73.9999 27.4545 71.4545 26.1818ZM83.0908 37.6363C85.0908 39.0908 86.909 40.5454 88.5454 41.9999C86.909 43.4545 85.0908 44.909 83.0908 46.3636C83.2727 43.4545 83.2727 40.5454 83.0908 37.6363ZM51.6363 46.3636C49.6363 44.909 47.8181 43.4545 46.1818 41.9999C47.8181 40.5454 49.6363 39.0908 51.6363 37.6363C51.4545 40.5454 51.4545 43.4545 51.6363 46.3636ZM55.6363 53.4545C58.5454 55.2727 60.5454 56.3636 63.2727 57.8181C61.0908 58.7272 58.909 59.6363 56.7272 60.3636C56.3636 58.1818 55.9999 55.8181 55.6363 53.4545ZM67.4545 59.8181C70.7272 61.4545 73.9999 62.7272 77.2727 63.8181C74.909 73.0908 71.0908 78.7272 67.4545 78.7272C63.8181 78.7272 60.1818 73.0908 57.6363 63.8181C60.7272 62.7272 63.9999 61.4545 67.4545 59.8181ZM71.4545 57.8181C73.9999 56.5454 76.1818 55.2727 79.0909 53.4545C78.7272 55.8181 78.3636 58.1818 77.9999 60.3636C75.8181 59.6363 73.6363 58.7272 71.4545 57.8181ZM82.909 50.909C85.9999 48.7272 88.7272 46.5454 91.2727 44.3636C97.9999 51.0908 100.909 57.0908 99.2727 60.1818C96.7272 64.5454 86.3636 62.5454 81.6363 61.2727C81.9999 58.1818 82.5454 54.7272 82.909 50.909ZM67.4545 5.27266C71.0908 5.27266 74.7272 10.909 77.2727 20.1818C74.1817 21.2727 70.909 22.5454 67.4545 24.1818C64.1818 22.5454 60.909 21.2727 57.6363 20.1818C59.9999 10.909 63.8181 5.27266 67.4545 5.27266ZM35.6363 23.6363C38.1818 19.2727 48.5454 21.2727 53.2727 22.5454C52.5454 25.8181 52.1818 29.2727 51.8181 33.0908C48.7272 35.2727 45.9999 37.4545 43.6363 39.6363C39.9999 35.9999 33.0908 27.9999 35.6363 23.6363ZM10.1818 34.5454C10.1818 33.0908 11.2727 31.9999 12.7272 31.9999H33.4545C35.4545 35.8181 38.1818 38.909 41.0908 41.8181C35.9999 46.909 29.0908 55.6363 32.5454 61.8181C36.1818 67.9999 47.0908 66.3636 54.1818 64.5454C56.909 75.0909 61.8181 81.8181 67.4545 81.8181C73.0908 81.8181 77.8181 75.0909 80.7272 64.5454C87.6363 66.3636 98.7272 67.9999 102.364 61.8181C105.091 56.909 101.818 49.4545 93.9999 41.8181C97.4545 38.3636 99.9999 35.0908 101.454 31.9999H107.273C108.727 31.9999 109.818 33.0908 109.818 34.5454V101.818H70.3636C69.6363 101.818 68.909 102.364 68.7272 103.091L67.4545 108.182H52.5454L51.2727 103.091C51.0908 102.364 50.3636 101.818 49.6363 101.818H10.1818V34.5454ZM103.273 114.727H16.7272C11.0908 114.727 6.54539 110.727 5.45448 105.454H48.1818L49.4545 110.545C49.6363 111.273 50.3636 111.818 51.0908 111.818H68.7272C69.4545 111.818 70.1818 111.273 70.3636 110.545L71.6363 105.454H114.364C113.454 110.727 108.909 114.727 103.273 114.727Z" fill="url(#paint0_linear_570_11655)"/>
<path d="M67.2727 49.9999H67.4545C71.8181 49.8181 75.2727 46.1818 75.0908 41.8181C74.909 37.4545 71.4545 33.9999 67.0909 33.9999H66.909C62.5454 34.1818 59.0908 37.8181 59.2727 42.1818C59.4545 46.5454 63.0908 49.9999 67.2727 49.9999ZM67.4545 37.4545C69.8181 37.4545 71.8181 39.2727 71.9999 41.8181C71.9999 44.1818 70.1818 46.3636 67.6363 46.3636H67.4545C65.0908 46.3636 63.0908 44.5454 62.909 41.9999C62.909 39.8181 64.5454 37.6363 67.4545 37.4545Z" fill="url(#paint1_linear_570_11655)"/>
<path d="M40.7272 73.2727L20.7272 80.3636C19.9999 80.5454 19.4545 81.2727 19.6363 81.9999C19.6363 82.7272 20.1818 83.4545 20.909 83.6363L27.9999 85.6363L22.1818 91.4545C21.4545 92.1818 21.4545 93.2727 22.1818 93.9999C22.909 94.7272 23.9999 94.7272 24.7272 93.9999L30.5454 88.1818L32.5454 95.2727C32.7272 95.9999 33.4545 96.5454 34.1818 96.5454C34.909 96.5454 35.6363 95.9999 35.8181 95.4545L42.909 75.4545C43.0908 74.7272 42.909 74.1818 42.5454 73.6363C42.1818 73.0908 41.4545 73.0908 40.7272 73.2727ZM34.3636 89.0909L33.0908 84.3636C33.0908 84.3636 33.0908 84.3636 33.0908 84.1818C33.0908 84.1818 33.0908 84.1818 33.0908 83.9999C32.909 83.6363 32.5454 83.2727 32.1818 83.0909C32.1818 83.0909 32.1818 83.0909 31.9999 83.0909C31.9999 83.0909 31.9999 83.0909 31.8181 83.0909L27.0908 81.8181L38.3636 77.8181L34.3636 89.0909Z" fill="url(#paint2_linear_570_11655)"/>
</g>
</g>
</g>
<defs>
<linearGradient id="paint0_linear_570_11655" x1="59.909" y1="1.81812" x2="59.909" y2="118.182" gradientUnits="userSpaceOnUse">
<stop stop-color="white"/>
<stop offset="1" stop-color="white" stop-opacity="0"/>
</linearGradient>
<linearGradient id="paint1_linear_570_11655" x1="59.909" y1="1.81812" x2="59.909" y2="118.182" gradientUnits="userSpaceOnUse">
<stop stop-color="white"/>
<stop offset="1" stop-color="white" stop-opacity="0"/>
</linearGradient>
<linearGradient id="paint2_linear_570_11655" x1="59.909" y1="1.81812" x2="59.909" y2="118.182" gradientUnits="userSpaceOnUse">
<stop stop-color="white"/>
<stop offset="1" stop-color="white" stop-opacity="0"/>
</linearGradient>
</defs>
</svg>
