<svg width="16" height="16" viewBox="0 0 16 16" fill="none" xmlns="http://www.w3.org/2000/svg">
<g id="call">
<path id="Rectangle 77" d="M15.5 13.8333V12.4617C15.5 11.7802 15.0851 11.1674 14.4523 10.9143L12.7572 10.2362C11.9524 9.91429 11.0352 10.263 10.6475 11.0383L10.5 11.3333C10.5 11.3333 8.41667 10.9167 6.75 9.25C5.08333 7.58333 4.66667 5.5 4.66667 5.5L4.96168 5.35249C5.73698 4.96484 6.08571 4.04761 5.76379 3.2428L5.08574 1.54768C4.83263 0.914919 4.21979 0.5 3.53828 0.5H2.16667C1.24619 0.5 0.5 1.24619 0.5 2.16667C0.5 9.53046 6.46954 15.5 13.8333 15.5C14.7538 15.5 15.5 14.7538 15.5 13.8333Z" fill="#22C55E"/>
</g>
</svg>
