<svg width="20" height="20" viewBox="0 0 20 20" fill="none" xmlns="http://www.w3.org/2000/svg">
<g id="akar-icons:figma-fill">
<g id="Group">
<g id="Group_2">
<path id="Vector" fill-rule="evenodd" clip-rule="evenodd" d="M7.0132 0C4.97404 0 3.33404 1.71083 3.33404 3.80667C3.33404 5.08083 3.9407 6.2125 4.8732 6.90333C4.3926 7.2634 4.00305 7.73106 3.73576 8.26882C3.46847 8.80658 3.33089 9.39948 3.33404 10C3.33404 11.275 3.9407 12.4058 4.8732 13.0967C4.3926 13.4567 4.00305 13.9244 3.73576 14.4622C3.46847 14.9999 3.33089 15.5928 3.33404 16.1933C3.33404 18.2892 4.97404 20 7.0132 20C9.05154 20 10.6924 18.2892 10.6924 16.1933V12.975C11.3368 13.5123 12.1491 13.8069 12.9882 13.8075C15.0274 13.8067 16.6674 12.0958 16.6674 10C16.6674 8.725 16.0615 7.59417 15.1282 6.90333C15.6088 6.54326 15.9984 6.0756 16.2657 5.53784C16.5329 5.00008 16.6705 4.40718 16.6674 3.80667C16.6674 1.71083 15.0274 0 12.9882 0H7.0132ZM4.71654 3.80667C4.71654 2.48083 5.75154 1.41917 7.0132 1.41917H9.30904V6.19417H7.0132C5.75154 6.19417 4.71654 5.13167 4.71654 3.80667ZM12.9882 6.19333H10.6924V1.41833H12.9882C14.2507 1.41833 15.2849 2.48083 15.2849 3.80667C15.2849 5.13167 14.2507 6.19333 12.9882 6.19333ZM4.71737 10C4.71737 8.675 5.75237 7.6125 7.01404 7.6125H9.30987V12.3875H7.0132C5.7507 12.3875 4.71654 11.325 4.71654 10H4.71737ZM10.6924 10C10.6924 8.675 11.7274 7.6125 12.989 7.6125C14.2515 7.6125 15.2857 8.67417 15.2857 10C15.2857 11.325 14.2515 12.3875 12.989 12.3875C11.7274 12.3875 10.6932 11.3258 10.6932 10H10.6924ZM4.71737 16.1933C4.71737 14.8683 5.75237 13.8067 7.01404 13.8067H9.30987V16.1933C9.30987 17.5192 8.27654 18.5808 7.01404 18.5808C5.75237 18.5808 4.71737 17.5192 4.71737 16.1933Z" fill="white"/>
</g>
</g>
</g>
</svg>
