<svg width="52" height="52" viewBox="0 0 52 52" fill="none" xmlns="http://www.w3.org/2000/svg">
<g id="Icon">
<circle id="Oval" cx="26" cy="26" r="26" fill="#2A313C"/>
<g id="Icon_2">
<path id="Shape" fill-rule="evenodd" clip-rule="evenodd" d="M37.9043 29.7825C38.7702 33.6334 33.5685 36.3998 30.1139 34.9348C20.969 31.0566 29.1409 17.5993 34.6784 14.1411C35.6276 13.5484 36.5102 14.9777 35.569 15.5652C33.0507 17.1384 31.1561 19.7935 29.8352 22.2915C29.0469 23.7822 28.2407 25.5909 27.9683 27.3951C29.2855 26.1326 31.0855 25.3315 33.0417 25.6681C35.3021 26.0568 37.4181 27.6209 37.9043 29.7825ZM33.4743 27.4577C31.252 26.8568 29.4086 27.9109 28.2956 29.7009C28.2874 29.714 28.2781 29.7247 28.2688 29.7353C28.2629 29.7422 28.2569 29.749 28.2512 29.7565C28.2533 30.1245 28.26 30.4919 28.2843 30.8588C29.4859 33.8016 34.2486 34.9908 35.9049 31.6697C36.7777 29.9197 35.3732 27.971 33.4743 27.4577Z" fill="white"/>
<path id="Shape_2" fill-rule="evenodd" clip-rule="evenodd" d="M25.9043 29.7825C26.77 33.6334 21.5686 36.3998 18.114 34.9348C8.96892 31.0566 17.1409 17.5993 22.6785 14.1411C23.6275 13.5484 24.5104 14.9777 23.5692 15.5652C21.0504 17.1384 19.1562 19.7935 17.8353 22.2915C17.0467 23.7822 16.241 25.5909 15.9685 27.3951C17.2855 26.1326 19.0855 25.3315 21.0417 25.6681C23.3021 26.0568 25.4184 27.6209 25.9043 29.7825ZM21.4741 27.4577C19.2519 26.8568 17.4084 27.9109 16.2954 29.7009C16.2918 29.7071 16.2874 29.712 16.283 29.7169C16.2798 29.7205 16.2766 29.724 16.2736 29.7281C16.2802 30.2463 16.3269 30.7453 16.4658 31.2375C17.903 33.8965 22.3216 34.8441 23.9046 31.6697C24.7775 29.9197 23.3729 27.971 21.4741 27.4577Z" fill="white"/>
</g>
</g>
</svg>
