<svg width="109" height="18" viewBox="0 0 109 18" fill="none" xmlns="http://www.w3.org/2000/svg">
<g id="Star">
<path id="Star_2" fill-rule="evenodd" clip-rule="evenodd" d="M8.60525 13.0696L3.54721 15.567L4.35938 9.98481L0.421171 5.94608L5.98116 4.9935L8.60525 0L11.2293 4.9935L16.7893 5.94608L12.8511 9.98481L13.6633 15.567L8.60525 13.0696Z" fill="#FACC15"/>
<path id="Star_3" fill-rule="evenodd" clip-rule="evenodd" d="M31.551 13.0696L26.493 15.567L27.3052 9.98481L23.367 5.94608L28.927 4.9935L31.551 0L34.1751 4.9935L39.7351 5.94608L35.7969 9.98481L36.6091 15.567L31.551 13.0696Z" fill="#FACC15"/>
<path id="Star_4" fill-rule="evenodd" clip-rule="evenodd" d="M54.5008 13.0696L49.4427 15.567L50.2549 9.98481L46.3167 5.94608L51.8767 4.9935L54.5008 0L57.1248 4.9935L62.6848 5.94608L58.7466 9.98481L59.5588 15.567L54.5008 13.0696Z" fill="#FACC15"/>
<path id="Star_5" fill-rule="evenodd" clip-rule="evenodd" d="M77.4466 13.0696L72.3885 15.567L73.2007 9.98481L69.2625 5.94608L74.8225 4.9935L77.4466 0L80.0706 4.9935L85.6306 5.94608L81.6924 9.98481L82.5046 15.567L77.4466 13.0696Z" fill="#FACC15"/>
<path id="Star_6" fill-rule="evenodd" clip-rule="evenodd" d="M100.394 13.0696L95.3363 15.567L96.1484 9.98481L92.2102 5.94608L97.7702 4.9935L100.394 0L103.018 4.9935L108.578 5.94608L104.64 9.98481L105.452 15.567L100.394 13.0696Z" fill="#FACC15"/>
</g>
</svg>
