<svg width="235" height="23" viewBox="0 0 235 23" fill="none" xmlns="http://www.w3.org/2000/svg">
<path id="Fill 3" opacity="0.827996" fill-rule="evenodd" clip-rule="evenodd" d="M234.252 13.4384C234.059 14.0703 231.432 15.3398 231.224 14.9171C231.113 14.6895 230.769 14.6261 230.451 14.7775C229.823 15.0552 227.144 15.0516 224.653 14.7736C223.806 14.6665 221.371 14.5854 219.212 14.5749C217.054 14.5645 213.792 14.5207 211.889 14.4779C210.03 14.4622 208.064 14.4555 207.572 14.4985C206.91 14.545 206.815 14.433 207.171 14.0305C207.449 13.7147 207.249 13.7778 206.743 14.1621C206.225 14.5427 205.733 14.6688 205.649 14.4358C205.542 14.2371 205.203 14.161 204.873 14.3089C204.554 14.4603 202.979 14.5315 201.34 14.4726C199.709 14.43 197.862 14.4179 197.2 14.4644C196.566 14.5055 194.471 14.542 192.596 14.5353C185.801 14.5308 179.87 14.6243 174.963 14.8377C172.222 14.9532 169.69 15.0219 169.398 15.0018C169.083 14.9745 168.492 15.0012 168.118 15.0389C166.449 15.2472 156.093 15.7567 155.068 15.6784C154.438 15.6238 153.709 15.6774 153.426 15.7982C152.177 16.2867 147.521 16.3558 146.833 15.8967C146.019 15.3851 145.671 13.897 146.405 14.1214C146.654 14.1974 146.783 14.0711 146.706 13.7713C146.508 12.8954 156.805 11.6492 157.759 12.4245C158.048 12.6648 158.229 12.6649 158.173 12.4265C158.055 11.9209 175.773 10.7049 176.17 11.1855C176.361 11.4095 176.617 11.4187 176.832 11.2221C177.173 10.9117 188.9 10.4068 195.931 10.4007C197.444 10.4071 200.126 10.315 201.902 10.2223C203.682 10.117 205.557 10.1652 206.09 10.3281C206.634 10.4946 207.244 10.4462 207.48 10.2279C207.715 10.0096 208.128 10.0117 208.421 10.2394C208.71 10.4797 209.005 10.4456 209.09 10.1676C209.167 9.91484 209.459 9.89337 209.76 10.1373C210.049 10.3777 210.431 10.4394 210.611 10.2734C210.792 10.1073 212.103 10.0523 213.549 10.1489C214.987 10.2293 217.004 10.2795 218.052 10.2404C222.14 10.1222 225.612 10.3683 225.969 10.8092C226.211 11.1181 226.285 11.0441 226.168 10.58C226.051 10.0743 226.181 10.031 226.624 10.36C226.956 10.6274 227.288 10.6873 227.345 10.4977C227.407 10.2955 228.119 10.1262 228.954 10.1051C229.785 10.0967 231.288 10.3487 232.333 10.6961C234.003 11.2479 234.177 11.4395 233.887 12.3042C233.713 12.8314 233.751 13.216 233.967 13.1439C234.219 13.0827 234.326 13.1983 234.252 13.4384ZM179.277 3.50907C180.655 3.30088 181.064 3.42584 180.556 3.88524C180.342 4.11258 179.735 4.16142 179.222 3.98999C178.341 3.69125 178.349 3.66448 179.277 3.50907ZM185.429 1.25613C185.645 1.32229 185.367 1.54464 184.767 1.78589C184.188 2.00404 183.686 2.0555 183.606 1.88487C183.456 1.56066 184.835 1.08944 185.429 1.25613ZM196.633 2.80419C196.862 2.87402 197.285 3.2523 197.556 3.61325C197.815 3.97054 197.857 4.21782 197.617 4.14432C197.401 4.07817 196.961 3.7096 196.69 3.34864C196.432 2.99136 196.405 2.73436 196.633 2.80419ZM201.392 3.13488C201.851 3.4365 202.393 3.5142 202.587 3.30997C202.809 3.09969 203.126 3.0065 203.379 3.08368C203.607 3.1535 203.409 3.45881 202.965 3.74784C201.95 4.35977 200.876 4.13375 200.7 3.24566C200.591 2.78758 200.8 2.74898 201.392 3.13488ZM168.128 4.48706C168.379 4.56362 168.405 4.77758 168.185 4.98509C167.981 5.18367 168.082 5.44829 168.428 5.55403C169.275 5.8129 169.899 5.17945 169.315 4.65756C169.067 4.44442 169.539 4.47882 170.35 4.72676C172.032 5.24086 172.952 5.3437 173.841 5.07981C174.197 4.98252 174.618 5.09757 174.847 5.37352C175.108 5.67297 175.186 5.62839 175.095 5.20208C174.884 4.31341 176.745 3.64582 177.232 4.44045C177.494 4.8639 178.287 4.91408 179.949 4.63918C182.39 4.20414 183.469 4.30049 183.698 5.00234C183.865 5.52063 185.394 5.42486 185.559 4.88466C185.628 4.65853 185.523 4.44782 185.273 4.37125C185.058 4.30562 185.018 3.88133 185.204 3.40232C185.444 2.78877 185.645 2.72675 185.923 3.18262C186.133 3.52138 186.212 3.98537 186.084 4.23461C185.531 5.23316 186.716 5.23833 187.567 4.24825L188.487 3.15605L188.976 4.45926C189.24 5.17205 189.525 5.52012 189.606 5.25631C189.69 4.97993 190.089 4.86845 190.519 4.99971C191.699 5.36067 192.095 4.91852 191.597 3.777C191.029 2.47705 191.47 2.52929 192.124 3.8422C192.658 4.87065 194.599 5.60153 195.943 5.25696C196.437 5.13332 196.634 4.95985 196.363 4.86343C196.093 4.76701 195.875 4.37071 195.855 3.96628C195.835 3.47918 196 3.40622 196.412 3.7243C196.847 4.091 196.989 4.01075 196.956 3.43734C196.936 2.99158 197.17 2.65116 197.534 2.61141C197.934 2.5826 198.017 2.91003 197.769 3.50738C197.165 4.97115 197.322 5.65113 198.24 5.46464C198.699 5.37139 199.936 5.37858 200.951 5.51059C201.983 5.63369 203.12 5.5416 203.474 5.27898C203.808 5.03783 204.363 5.01509 204.627 5.2193C204.89 5.42352 205.362 5.41659 205.609 5.20382C205.935 4.90513 206.118 4.94726 206.205 5.34479C206.3 5.71719 206.729 5.80712 207.631 5.62954C208.564 5.43413 208.989 5.53662 209.216 5.99047C209.462 6.46417 209.585 6.48807 209.708 6.08606C209.797 5.79711 210.18 5.65322 210.561 5.7699C210.943 5.88657 212.648 5.98206 214.313 5.9965C215.97 5.99473 218.321 6.15053 219.457 6.31901C220.651 6.50572 221.566 6.41446 221.603 6.1235C221.635 5.80376 222.408 5.79275 223.572 6.07996C225.857 6.62724 228.432 6.94755 228.838 6.72828C228.996 6.63911 228.728 6.44746 228.263 6.30526C227.81 6.16671 227.225 5.56214 226.962 4.97335C226.581 4.08753 226.623 3.90801 227.225 3.85852C227.7 3.83903 227.765 4.01003 227.456 4.46514C227.092 4.93079 227.153 5.03169 227.635 4.90441C228.038 4.78037 228.146 4.85451 227.906 5.08349C226.822 6.07075 232.399 7.32245 233.968 6.45591C234.65 6.05993 234.691 5.83907 234.224 4.67972C233.862 3.73108 233.65 3.52889 233.488 4.01519C233.315 4.49785 233.212 4.4938 233.1 4.00631C232.989 3.64282 232.785 3.4155 232.596 3.5225C232.414 3.60437 231.593 3.55947 230.787 3.42297C230.005 3.29377 228.803 3.13219 228.196 3.07024C227.585 3.02086 226.308 2.8913 225.415 2.78318C224.522 2.67506 223.178 2.59372 222.476 2.58527L221.176 2.57242L222.091 3.37431C222.679 3.88365 222.756 4.09963 222.299 3.97364C221.914 3.86953 221.445 3.39666 221.267 2.95739C221.059 2.3994 220.752 2.20937 220.361 2.37839C220.03 2.52431 218.797 2.50455 217.559 2.33203C216.321 2.15951 214.846 2.16208 214.214 2.3534C213.605 2.55203 212.769 2.55737 212.363 2.39207C210.966 1.80014 210.483 1.84476 210.641 2.52474C210.744 2.99602 210.665 2.95794 210.27 2.37037C209.904 1.77754 209.673 1.67949 209.335 1.97453C209.076 2.225 208.708 2.23597 208.444 2.03176C207.897 1.60347 206.582 2.06677 205.948 2.90324C205.615 3.35106 205.555 3.2915 205.711 2.65242C205.864 2.06725 205.691 1.82209 205.165 1.88089C204.737 1.91497 204.047 1.82751 203.581 1.68531C203.116 1.54311 202.812 1.64242 202.862 1.90501C203.064 2.6948 201.856 2.80635 201.655 2.01656C201.523 1.55054 201.308 1.40224 201.005 1.62556C200.749 1.82212 199.992 1.86555 199.242 1.71852C198.503 1.57513 197.627 1.49943 197.223 1.5408C196.847 1.5769 196.176 1.46795 195.809 1.30102C194.882 0.880061 194.211 1.62292 194.606 2.63639C194.826 3.23937 194.738 3.56965 194.277 3.8408C193.792 4.10465 193.688 4.01794 193.853 3.47774C194.402 1.68126 191.531 1.5178 190.47 3.2815C189.921 4.22616 189.759 4.28656 189.36 3.62889C189.11 3.16775 189.068 2.57813 189.287 2.20529C189.552 1.76436 189.379 1.47788 188.699 1.27005C187.554 0.920024 187.067 1.82902 188.064 2.40842C188.518 2.67098 188.333 2.76541 187.472 2.6808C186.536 2.58686 186.32 2.43857 186.61 2.04627C186.852 1.72205 186.695 1.46798 186.167 1.36145C185.742 1.25897 185.173 1.41463 184.957 1.69224C184.703 2.05414 184.188 1.99259 183.319 1.50719C182.279 0.941972 182.073 0.933889 182.217 1.52755C182.358 2.13378 182.286 2.1119 181.84 1.43965C181.389 0.738625 181.199 0.762955 180.486 1.60267C180.02 2.14695 179.327 2.62196 178.939 2.65441C178.368 2.68607 178.363 2.61596 178.926 2.22485C179.501 1.83739 179.349 1.69476 177.895 1.29128C176.957 1.03201 176.12 0.954679 176.062 1.14312C176.005 1.33156 175.687 1.26189 175.351 0.994463C174.94 0.676386 174.786 0.711657 174.869 1.08042C175.05 1.80902 171.927 1.82956 170.763 1.11644C170.304 0.825119 166.406 0.649998 162.051 0.692125C137.635 0.96136 106.237 2.99725 75.8696 6.26862C70.2712 6.8786 64.2367 7.46512 62.4266 7.58482C57.5586 7.89608 47.8329 9.16737 47.7254 9.51913C47.6754 9.68244 47.2758 9.75259 46.8469 9.66266C46.0406 9.48484 34.2788 11.2738 33.0589 11.7663C32.6878 11.9138 31.3228 12.1559 29.9927 12.3262C28.6546 12.4803 22.0442 13.7562 15.2407 15.1516C2.07306 17.8707 0.537026 18.4589 0.604283 20.8834C0.646479 23.1767 2.50873 23.5262 7.80325 22.2464C10.3221 21.6428 16.1763 20.4517 20.8763 19.5808C25.5764 18.7099 29.3605 17.8063 29.2989 17.5814C29.2449 17.3314 29.5346 17.365 29.9613 17.6328C30.376 17.897 31.5654 17.9309 32.6015 17.6982C33.6338 17.4781 35.4896 17.1663 36.7443 16.9866C41.1971 16.3699 43.1722 16.0945 47.0388 15.5184C58.3145 13.8692 86.7376 10.7727 107.551 8.9351C124.318 7.45367 134.141 6.84413 151.55 6.16339C161.7 5.76373 167.384 5.3446 167.503 4.95516C167.599 4.64109 167.902 4.41778 168.128 4.48706Z" fill="#131514"/>
</svg>
