<svg width="26" height="26" viewBox="0 0 26 26" fill="none" xmlns="http://www.w3.org/2000/svg">
<path id="Path" d="M16.8012 4.34259C10.4115 0.22539 1.66195 5.29822 0.535695 12.792C-0.682494 20.9069 7.63797 26.37 14.6253 25.5338C22.3712 24.6021 27.3435 15.6987 24.7003 8.11735C22.057 0.535971 12.6563 -1.65403 6.75689 3.19582C5.17094 4.4939 7.40812 6.78742 8.97108 5.49731C13.4148 1.84997 20.5477 4.27092 21.9957 9.98084C23.4438 15.6908 19.5057 21.9741 13.7136 22.3563C9.18561 22.6589 3.57734 19.5452 3.56968 14.2653C3.56968 8.48368 10.4651 4.09572 15.2382 7.15375C16.9621 8.2607 18.5327 5.44157 16.8165 4.34259H16.8012Z" fill="#10100E"/>
</svg>
