<svg width="24" height="24" viewBox="0 0 24 24" fill="none" xmlns="http://www.w3.org/2000/svg">
<path id="Path" d="M15.7367 4.2546C9.88471 0.486743 1.87154 5.12916 0.840076 11.9871C-0.275592 19.4135 7.34463 24.413 13.7439 23.6478C20.8379 22.7951 25.3918 14.6472 22.971 7.70908C20.5502 0.770972 11.9406 -1.23321 6.5377 3.20514C5.08523 4.39307 7.13413 6.492 8.56555 5.31135C12.6353 1.97348 19.1679 4.18901 20.4941 9.41446C21.8203 14.6399 18.2136 20.3901 12.9089 20.7399C8.76202 21.0168 3.62574 18.1673 3.61872 13.3354C3.61872 8.04433 9.93383 4.02868 14.3053 6.82724C15.8841 7.84027 17.3225 5.26034 15.7507 4.2546H15.7367Z" fill="#10100E"/>
</svg>
