<svg width="23" height="23" viewBox="0 0 23 23" fill="none" xmlns="http://www.w3.org/2000/svg">
<path id="Path" d="M15.0329 3.67588C9.41502 0.0587382 1.72238 4.51545 0.732176 11.0991C-0.338865 18.2284 6.97655 23.028 13.1199 22.2933C19.9301 21.4748 24.3018 13.6528 21.9779 6.99218C19.6539 0.331598 11.3887 -1.59242 6.2019 2.6684C4.80752 3.80882 6.77447 5.82378 8.14863 4.69036C12.0556 1.48601 18.3269 3.61292 19.6 8.62935C20.8731 13.6458 17.4108 19.1659 12.3183 19.5018C8.33725 19.7676 3.40641 17.032 3.39968 12.3934C3.39968 7.31402 9.46218 3.459 13.6588 6.14562C15.1744 7.11812 16.5553 4.64139 15.0464 3.67588H15.0329Z" fill="#10100E"/>
</svg>
