<svg width="20" height="20" viewBox="0 0 20 20" fill="none" xmlns="http://www.w3.org/2000/svg">
<path id="Path" d="M7.39424 16.7489C12.1754 19.8263 18.7222 16.0346 19.5649 10.4333C20.4764 4.36769 14.2506 0.284281 9.02234 0.909292C3.22654 1.60573 -0.494019 8.26061 1.48378 13.9274C3.46158 19.5942 10.4957 21.2311 14.9099 17.606C16.0966 16.6358 14.4226 14.9214 13.2531 15.8858C9.92812 18.612 4.59093 16.8024 3.50744 12.5345C2.42395 8.26657 5.37058 3.57005 9.70454 3.28433C13.0926 3.05814 17.289 5.38556 17.2947 9.33206C17.2947 13.6536 12.1352 16.9334 8.56372 14.6476C7.27386 13.8202 6.09864 15.9274 7.38278 16.7489H7.39424Z" fill="#10100E"/>
</svg>
