<svg width="16" height="16" viewBox="0 0 16 16" fill="none" xmlns="http://www.w3.org/2000/svg">
<path id="Path" d="M10.2628 2.60629C6.28348 0.0441494 0.834524 3.20099 0.133127 7.86439C-0.625528 12.9143 4.55623 16.314 8.90775 15.7937C13.7317 15.2138 16.8283 9.67326 15.1822 4.95534C13.536 0.237425 7.6815 -1.12542 4.00751 1.89266C3.01983 2.70045 4.41308 4.12772 5.38645 3.32488C8.15387 1.05513 12.5961 2.56169 13.4979 6.115C14.3996 9.6683 11.9471 13.5784 8.33996 13.8163C5.52005 14.0046 2.02738 12.0669 2.02261 8.78121C2.02261 5.18331 6.31688 2.45266 9.28947 4.35569C10.363 5.04454 11.3412 3.29019 10.2724 2.60629H10.2628Z" fill="#10100E"/>
</svg>
