<svg width="28" height="27" viewBox="0 0 28 27" fill="none" xmlns="http://www.w3.org/2000/svg">
<path id="Path" d="M10.0153 22.8902C16.8095 27.2634 26.1128 21.8751 27.3104 13.9154C28.6057 5.29589 19.7585 -0.506847 12.3289 0.381327C4.09274 1.37101 -1.19437 10.8279 1.61619 18.8807C4.42674 26.9335 14.4225 29.2597 20.6954 24.1083C22.3817 22.7295 20.0029 20.2933 18.341 21.6637C13.616 25.5378 6.03161 22.9663 4.49191 16.9014C2.95222 10.8364 7.13954 4.16241 13.2983 3.75639C18.1129 3.43495 24.0762 6.74234 24.0843 12.3505C24.0843 18.4916 16.7525 23.1524 11.6772 19.9042C9.84419 18.7285 8.17415 21.7229 9.99897 22.8902H10.0153Z" fill="#10100E"/>
</svg>
