<svg width="13" height="13" viewBox="0 0 13 13" fill="none" xmlns="http://www.w3.org/2000/svg">
<path id="Path" d="M8.28091 2.40589C5.21383 0.429632 1.01406 2.86459 0.473462 6.46161C-0.111269 10.3568 3.88255 12.979 7.23648 12.5777C10.9545 12.1304 13.3412 7.85684 12.0725 4.21777C10.8037 0.578712 6.29135 -0.472488 3.45963 1.85544C2.69838 2.47852 3.77223 3.57941 4.52245 2.96016C6.65543 1.20943 10.0792 2.37148 10.7743 5.11225C11.4693 7.85301 9.57908 10.869 6.79885 11.0525C4.62542 11.1977 1.93345 9.70312 1.92977 7.16878C1.92977 4.39361 5.23957 2.28739 7.53069 3.75525C8.35813 4.28658 9.11203 2.9334 8.28826 2.40589H8.28091Z" fill="#10100E"/>
</svg>
