<svg width="23" height="23" viewBox="0 0 23 23" fill="none" xmlns="http://www.w3.org/2000/svg">
<path id="Path" d="M14.835 3.89566C9.212 0.272522 1.51243 4.73662 0.521334 11.3311C-0.550673 18.4723 6.77133 23.2798 12.9202 22.5439C19.7365 21.724 24.1122 13.8891 21.7862 7.21745C19.4601 0.545835 11.1875 -1.38136 5.99598 2.88651C4.60035 4.02881 6.56907 6.04711 7.94447 4.91182C11.8549 1.70215 18.1319 3.83259 19.4062 8.85732C20.6805 13.8821 17.215 19.4114 12.1179 19.7477C8.13326 20.0141 3.19798 17.2739 3.19124 12.6276C3.19124 7.53982 9.2592 3.67841 13.4596 6.36948C14.9766 7.34359 16.3587 4.86276 14.8485 3.89566H14.835Z" fill="#10100E"/>
</svg>
