<svg width="15" height="15" viewBox="0 0 15 15" fill="none" xmlns="http://www.w3.org/2000/svg">
<path id="Path" d="M9.87501 2.53018C6.15124 0.132602 1.05227 3.08668 0.395918 7.45056C-0.314009 12.1762 4.53493 15.3575 8.60696 14.8705C13.121 14.328 16.0188 9.14324 14.4784 4.72835C12.938 0.313464 7.45947 -0.961845 4.02146 1.86239C3.09721 2.6183 4.40098 3.95389 5.31183 3.20262C7.9015 1.07865 12.0584 2.48845 12.9022 5.81353C13.7461 9.1386 11.4511 12.7976 8.07563 13.0202C5.43685 13.1964 2.1685 11.3831 2.16404 8.30849C2.16404 4.94168 6.18249 2.38642 8.96416 4.16722C9.96877 4.81183 10.8841 3.17016 9.88394 2.53018H9.87501Z" fill="#10100E"/>
</svg>
