<svg width="18" height="18" viewBox="0 0 18 18" fill="none" xmlns="http://www.w3.org/2000/svg">
<path id="Path" d="M11.6243 3.39075C7.4324 0.691737 1.69238 4.01721 0.953514 8.92972C0.154334 14.2494 5.61289 17.8307 10.1969 17.2826C15.2784 16.6718 18.5405 10.8352 16.8064 5.86527C15.0724 0.895338 8.90511 -0.540306 5.03486 2.63899C3.99442 3.48994 5.4621 4.99345 6.48746 4.14772C9.40271 1.75672 14.0822 3.34376 15.0322 7.08688C15.9821 10.83 13.3986 14.949 9.59874 15.1996C6.6282 15.3979 2.94895 13.3567 2.94393 9.89552C2.94393 6.10542 7.46759 3.22891 10.599 5.23359C11.7299 5.95924 12.7603 4.11118 11.6344 3.39075H11.6243Z" fill="#10100E"/>
</svg>
