<svg width="81" height="81" viewBox="0 0 81 81" fill="none" xmlns="http://www.w3.org/2000/svg">
<path d="M77.8768 6.24629C76.1559 6.24629 74.7537 4.84407 74.7537 3.12315C74.7537 1.40223 76.1559 0 77.8768 0C79.5978 0 81 1.40223 81 3.12315C81 4.85469 79.5978 6.24629 77.8768 6.24629ZM81 21.8089C81 20.088 79.5978 18.6858 77.8768 18.6858C76.1559 18.6858 74.7537 20.088 74.7537 21.8089C74.7537 23.5298 76.1559 24.9321 77.8768 24.9321C79.5978 24.9321 81 23.5405 81 21.8089ZM81 40.4947C81 38.7738 79.5978 37.3715 77.8768 37.3715C76.1559 37.3715 74.7537 38.7738 74.7537 40.4947C74.7537 42.2156 76.1559 43.6178 77.8768 43.6178C79.5978 43.6285 81 42.2262 81 40.4947ZM81 59.1911C81 57.4702 79.5978 56.0679 77.8768 56.0679C76.1559 56.0679 74.7537 57.4702 74.7537 59.1911C74.7537 60.912 76.1559 62.3142 77.8768 62.3142C79.5978 62.3142 81 60.912 81 59.1911ZM81 77.8768C81 76.1559 79.5978 74.7537 77.8768 74.7537C76.1559 74.7537 74.7537 76.1559 74.7537 77.8768C74.7537 79.5978 76.1559 81 77.8768 81C79.5978 81 81 79.5978 81 77.8768ZM62.3142 3.12315C62.3142 1.40223 60.912 0 59.1911 0C57.4701 0 56.0679 1.40223 56.0679 3.12315C56.0679 4.84407 57.4701 6.24629 59.1911 6.24629C60.912 6.24629 62.3142 4.85469 62.3142 3.12315ZM62.3142 21.8089C62.3142 20.088 60.912 18.6858 59.1911 18.6858C57.4701 18.6858 56.0679 20.088 56.0679 21.8089C56.0679 23.5298 57.4701 24.9321 59.1911 24.9321C60.912 24.9321 62.3142 23.5405 62.3142 21.8089ZM62.3142 40.4947C62.3142 38.7738 60.912 37.3715 59.1911 37.3715C57.4701 37.3715 56.0679 38.7738 56.0679 40.4947C56.0679 42.2156 57.4701 43.6178 59.1911 43.6178C60.912 43.6285 62.3142 42.2262 62.3142 40.4947ZM62.3142 59.1911C62.3142 57.4702 60.912 56.0679 59.1911 56.0679C57.4701 56.0679 56.0679 57.4702 56.0679 59.1911C56.0679 60.912 57.4701 62.3142 59.1911 62.3142C60.912 62.3142 62.3142 60.912 62.3142 59.1911ZM62.3142 77.8768C62.3142 76.1559 60.912 74.7537 59.1911 74.7537C57.4701 74.7537 56.0679 76.1559 56.0679 77.8768C56.0679 79.5978 57.4701 81 59.1911 81C60.912 81 62.3142 79.5978 62.3142 77.8768ZM43.6178 3.12315C43.6178 1.40223 42.2156 0 40.4947 0C38.7738 0 37.3715 1.40223 37.3715 3.12315C37.3715 4.84407 38.7738 6.24629 40.4947 6.24629C42.2262 6.24629 43.6178 4.85469 43.6178 3.12315ZM43.6178 21.8089C43.6178 20.088 42.2156 18.6858 40.4947 18.6858C38.7738 18.6858 37.3715 20.088 37.3715 21.8089C37.3715 23.5298 38.7738 24.9321 40.4947 24.9321C42.2262 24.9321 43.6178 23.5405 43.6178 21.8089ZM43.6178 40.4947C43.6178 38.7738 42.2156 37.3715 40.4947 37.3715C38.7738 37.3715 37.3715 38.7738 37.3715 40.4947C37.3715 42.2156 38.7738 43.6178 40.4947 43.6178C42.2262 43.6285 43.6178 42.2262 43.6178 40.4947ZM43.6178 59.1911C43.6178 57.4702 42.2156 56.0679 40.4947 56.0679C38.7738 56.0679 37.3715 57.4702 37.3715 59.1911C37.3715 60.912 38.7738 62.3142 40.4947 62.3142C42.2262 62.3142 43.6178 60.912 43.6178 59.1911ZM43.6178 77.8768C43.6178 76.1559 42.2156 74.7537 40.4947 74.7537C38.7738 74.7537 37.3715 76.1559 37.3715 77.8768C37.3715 79.5978 38.7738 81 40.4947 81C42.2262 81 43.6178 79.5978 43.6178 77.8768ZM24.932 3.12315C24.932 1.40223 23.5298 0 21.8089 0C20.088 0 18.6858 1.40223 18.6858 3.12315C18.6858 4.84407 20.088 6.24629 21.8089 6.24629C23.5404 6.24629 24.932 4.85469 24.932 3.12315ZM24.932 21.8089C24.932 20.088 23.5298 18.6858 21.8089 18.6858C20.088 18.6858 18.6858 20.088 18.6858 21.8089C18.6858 23.5298 20.088 24.9321 21.8089 24.9321C23.5404 24.9321 24.932 23.5405 24.932 21.8089ZM24.932 40.4947C24.932 38.7738 23.5298 37.3715 21.8089 37.3715C20.088 37.3715 18.6858 38.7738 18.6858 40.4947C18.6858 42.2156 20.088 43.6178 21.8089 43.6178C23.5404 43.6285 24.932 42.2262 24.932 40.4947ZM24.932 59.1911C24.932 57.4702 23.5298 56.0679 21.8089 56.0679C20.088 56.0679 18.6858 57.4702 18.6858 59.1911C18.6858 60.912 20.088 62.3142 21.8089 62.3142C23.5404 62.3142 24.932 60.912 24.932 59.1911ZM24.932 77.8768C24.932 76.1559 23.5298 74.7537 21.8089 74.7537C20.088 74.7537 18.6858 76.1559 18.6858 77.8768C18.6858 79.5978 20.088 81 21.8089 81C23.5404 81 24.932 79.5978 24.932 77.8768ZM6.2463 3.12315C6.2463 1.40223 4.84407 0 3.12315 0C1.40223 0 0 1.40223 0 3.12315C0 4.84407 1.40223 6.24629 3.12315 6.24629C4.84407 6.24629 6.2463 4.85469 6.2463 3.12315ZM6.2463 21.8089C6.2463 20.088 4.84407 18.6858 3.12315 18.6858C1.40223 18.6858 0 20.088 0 21.8089C0 23.5298 1.40223 24.9321 3.12315 24.9321C4.84407 24.9321 6.2463 23.5405 6.2463 21.8089ZM6.2463 40.4947C6.2463 38.7738 4.84407 37.3715 3.12315 37.3715C1.40223 37.3715 0 38.7738 0 40.4947C0 42.2156 1.40223 43.6178 3.12315 43.6178C4.84407 43.6178 6.2463 42.2262 6.2463 40.4947ZM6.2463 59.1911C6.2463 57.4702 4.84407 56.0679 3.12315 56.0679C1.40223 56.0679 0 57.4702 0 59.1911C0 60.912 1.40223 62.3142 3.12315 62.3142C4.84407 62.3142 6.2463 60.912 6.2463 59.1911ZM6.2463 77.8768C6.2463 76.1559 4.84407 74.7537 3.12315 74.7537C1.40223 74.7537 0 76.1559 0 77.8768C0 79.5978 1.40223 81 3.12315 81C4.84407 81 6.2463 79.5978 6.2463 77.8768Z" fill="#BFCDFF"/>
</svg>
