<svg width="27" height="143" viewBox="0 0 27 143" fill="none" xmlns="http://www.w3.org/2000/svg">
<path d="M4.27764 0H0V17.5199H4.27764V0Z" fill="#BFCDFF"/>
<path d="M15.1449 0H10.8672V17.5199H15.1449V0Z" fill="#BFCDFF"/>
<path d="M26.0111 0H21.7334V17.5199H26.0111V0Z" fill="#BFCDFF"/>
<path d="M4.27764 24.9515H0V42.4714H4.27764V24.9515Z" fill="#BFCDFF"/>
<path d="M15.1449 24.9515H10.8672V42.4714H15.1449V24.9515Z" fill="#BFCDFF"/>
<path d="M15.1449 49.8951H10.8672V67.4151H15.1449V49.8951Z" fill="#BFCDFF"/>
<path d="M26.0111 49.8951H21.7334V67.4151H26.0111V49.8951Z" fill="#BFCDFF"/>
<path d="M4.27764 74.8468H0V92.3667H4.27764V74.8468Z" fill="#BFCDFF"/>
<path d="M26.0111 74.8468H21.7334V92.3667H26.0111V74.8468Z" fill="#BFCDFF"/>
<path d="M4.27764 99.7985H0V117.318H4.27764V99.7985Z" fill="#BFCDFF"/>
<path d="M15.1449 99.7985H10.8672V117.318H15.1449V99.7985Z" fill="#BFCDFF"/>
<path d="M4.27764 124.75H0V142.27H4.27764V124.75Z" fill="#BFCDFF"/>
<path d="M15.1449 124.75H10.8672V142.27H15.1449V124.75Z" fill="#BFCDFF"/>
<path d="M26.0111 124.75H21.7334V142.27H26.0111V124.75Z" fill="#BFCDFF"/>
</svg>
