<svg width="172" height="52" viewBox="0 0 172 52" fill="none" xmlns="http://www.w3.org/2000/svg">
<path d="M1 12.861C1 6.86259 5.92485 2 12 2C18.0752 2 23 6.86259 23 12.861V15.7998C21.1579 15.0719 19.1471 14.6711 17.0417 14.6711C8.18205 14.6711 1 21.7624 1 30.51V12.861Z" fill="#22C55E"/>
<path fill-rule="evenodd" clip-rule="evenodd" d="M17 46.5088C25.8366 46.5088 33 39.3453 33 30.5088C33 21.6722 25.8366 14.5088 17 14.5088C8.16344 14.5088 1 21.6722 1 30.5088C1 39.3453 8.16344 46.5088 17 46.5088ZM17 38.7374C21.5445 38.7374 25.2286 35.0533 25.2286 30.5088C25.2286 25.9643 21.5445 22.2802 17 22.2802C12.4555 22.2802 8.77143 25.9643 8.77143 30.5088C8.77143 35.0533 12.4555 38.7374 17 38.7374Z" fill="#1A202C"/>
<path d="M41.796 36V13.6H50.132C51.3373 13.6 52.4306 13.8507 53.412 14.352C54.3933 14.8427 55.1666 15.5467 55.732 16.464C56.308 17.3813 56.596 18.4587 56.596 19.696C56.596 20.1973 56.5266 20.7147 56.388 21.248C56.26 21.7813 56.036 22.272 55.716 22.72C55.4066 23.168 54.98 23.5093 54.436 23.744C55.14 23.9147 55.7053 24.2347 56.132 24.704C56.5586 25.1627 56.884 25.696 57.108 26.304C57.332 26.9013 57.4813 27.5147 57.556 28.144C57.6306 28.7733 57.668 29.344 57.668 29.856C57.668 31.008 57.3693 32.048 56.772 32.976C56.1746 33.904 55.3693 34.64 54.356 35.184C53.3533 35.728 52.244 36 51.028 36H41.796ZM46.212 32.24H50.564C51.1506 32.24 51.684 32.1013 52.164 31.824C52.644 31.536 53.028 31.1467 53.316 30.656C53.604 30.1547 53.748 29.5893 53.748 28.96C53.748 28.4267 53.604 27.92 53.316 27.44C53.028 26.96 52.644 26.5707 52.164 26.272C51.684 25.9627 51.1506 25.808 50.564 25.808H46.212V32.24ZM46.212 22.128H49.62C50.324 22.128 50.9266 21.8987 51.428 21.44C51.9293 20.9813 52.18 20.3893 52.18 19.664C52.18 18.9173 51.9293 18.352 51.428 17.968C50.9266 17.5733 50.324 17.376 49.62 17.376H46.212V22.128ZM70.7362 20H75.1522V36H70.7202L70.5122 34.336C70.0962 34.9547 69.5629 35.456 68.9122 35.84C68.2616 36.224 67.4989 36.416 66.6242 36.416C65.4296 36.416 64.3149 36.192 63.2802 35.744C62.2456 35.296 61.3336 34.6773 60.5442 33.888C59.7549 33.0987 59.1362 32.1867 58.6882 31.152C58.2509 30.1067 58.0322 28.9867 58.0322 27.792C58.0322 26.6507 58.2402 25.584 58.6562 24.592C59.0722 23.6 59.6589 22.7253 60.4162 21.968C61.1736 21.2107 62.0429 20.6187 63.0242 20.192C64.0162 19.7653 65.0829 19.552 66.2242 19.552C67.2056 19.552 68.0856 19.76 68.8642 20.176C69.6536 20.592 70.3416 21.12 70.9282 21.76L70.7362 20ZM66.5122 32.176C67.2376 32.176 67.8936 31.9893 68.4802 31.616C69.0669 31.2427 69.5309 30.7413 69.8722 30.112C70.2136 29.472 70.3842 28.768 70.3842 28C70.3842 27.2213 70.2136 26.5173 69.8722 25.888C69.5309 25.2587 69.0669 24.7573 68.4802 24.384C67.8936 24.0107 67.2376 23.824 66.5122 23.824C65.7762 23.824 65.1096 24.0107 64.5122 24.384C63.9149 24.7573 63.4402 25.264 63.0882 25.904C62.7362 26.5333 62.5602 27.232 62.5602 28C62.5602 28.768 62.7362 29.472 63.0882 30.112C63.4509 30.7413 63.9309 31.2427 64.5282 31.616C65.1256 31.9893 65.7869 32.176 66.5122 32.176ZM92.2712 25.824V36H87.8552V27.04C87.8552 26.4747 87.7166 25.968 87.4392 25.52C87.1726 25.0613 86.8099 24.6987 86.3512 24.432C85.9032 24.1653 85.4019 24.032 84.8472 24.032C84.2926 24.032 83.7859 24.1653 83.3272 24.432C82.8686 24.6987 82.5059 25.0613 82.2392 25.52C81.9726 25.968 81.8392 26.4747 81.8392 27.04V36H77.4232L77.4072 20H81.8232L81.8392 21.184C82.3726 20.672 82.9966 20.272 83.7112 19.984C84.4366 19.696 85.1992 19.552 85.9992 19.552C87.1619 19.552 88.2126 19.8347 89.1512 20.4C90.1006 20.9653 90.8579 21.7227 91.4232 22.672C91.9886 23.6107 92.2712 24.6613 92.2712 25.824ZM109.389 36H104.301L100.909 30.16L98.957 32.48V36H94.541V12H98.957V25.616L103.661 20H109.421L103.933 26.576L109.389 36Z" fill="#1A202C"/>
<path d="M121.511 36.416C119.997 36.416 118.573 36.1173 117.239 35.52C115.906 34.912 114.733 34.0747 113.719 33.008C112.717 31.9413 111.927 30.7093 111.351 29.312C110.786 27.904 110.503 26.4 110.503 24.8C110.503 23.1893 110.786 21.6853 111.351 20.288C111.927 18.88 112.717 17.648 113.719 16.592C114.733 15.5253 115.906 14.6933 117.239 14.096C118.573 13.488 119.997 13.184 121.511 13.184C123.325 13.184 124.994 13.6053 126.519 14.448C128.045 15.28 129.309 16.3947 130.311 17.792L126.375 19.92C125.778 19.216 125.058 18.656 124.215 18.24C123.373 17.8133 122.471 17.6 121.511 17.6C120.605 17.6 119.751 17.7867 118.951 18.16C118.151 18.5333 117.447 19.0507 116.839 19.712C116.242 20.3733 115.773 21.136 115.431 22C115.09 22.864 114.919 23.7973 114.919 24.8C114.919 25.792 115.09 26.7253 115.431 27.6C115.773 28.464 116.242 29.2267 116.839 29.888C117.447 30.5387 118.151 31.056 118.951 31.44C119.751 31.8133 120.605 32 121.511 32C122.482 32 123.383 31.7867 124.215 31.36C125.058 30.9333 125.778 30.368 126.375 29.664L130.311 31.808C129.309 33.1947 128.045 34.3093 126.519 35.152C124.994 35.9947 123.325 36.416 121.511 36.416ZM138.505 36.416C137.033 36.416 135.689 36.0373 134.473 35.28C133.267 34.5227 132.302 33.5093 131.577 32.24C130.862 30.96 130.505 29.5467 130.505 28C130.505 26.8267 130.713 25.7333 131.129 24.72C131.545 23.696 132.115 22.8 132.841 22.032C133.577 21.2533 134.43 20.6453 135.401 20.208C136.371 19.7707 137.406 19.552 138.505 19.552C139.977 19.552 141.315 19.9307 142.521 20.688C143.737 21.4453 144.702 22.464 145.417 23.744C146.142 25.024 146.505 26.4427 146.505 28C146.505 29.1627 146.297 30.2507 145.881 31.264C145.465 32.2773 144.889 33.1733 144.153 33.952C143.427 34.72 142.579 35.3227 141.609 35.76C140.649 36.1973 139.614 36.416 138.505 36.416ZM138.505 32C139.187 32 139.801 31.8187 140.345 31.456C140.889 31.0827 141.315 30.592 141.625 29.984C141.934 29.376 142.089 28.7147 142.089 28C142.089 27.264 141.923 26.592 141.593 25.984C141.273 25.3653 140.841 24.8747 140.297 24.512C139.753 24.1493 139.155 23.968 138.505 23.968C137.833 23.968 137.225 24.1547 136.681 24.528C136.137 24.9013 135.705 25.392 135.385 26C135.075 26.608 134.921 27.2747 134.921 28C134.921 28.7573 135.081 29.44 135.401 30.048C135.731 30.6453 136.169 31.12 136.713 31.472C137.257 31.824 137.854 32 138.505 32ZM149.682 36.416C149.064 36.416 148.536 36.2027 148.098 35.776C147.672 35.3387 147.458 34.8053 147.458 34.176C147.458 33.568 147.672 33.0453 148.098 32.608C148.536 32.1707 149.064 31.952 149.682 31.952C150.301 31.952 150.829 32.1707 151.266 32.608C151.704 33.0453 151.922 33.568 151.922 34.176C151.922 34.8053 151.704 35.3387 151.266 35.776C150.829 36.2027 150.301 36.416 149.682 36.416Z" fill="#22C55E"/>
</svg>
