<svg width="32" height="45" viewBox="0 0 32 45" fill="none" xmlns="http://www.w3.org/2000/svg">
<g id="Shape">
<path id="Subtract" d="M0 10.861C0 4.86259 4.92485 0 11 0C17.0752 0 22 4.86259 22 10.861V13.7998C20.1579 13.0719 18.1471 12.6711 16.0417 12.6711C7.18205 12.6711 0 19.7624 0 28.51V10.861Z" fill="#22C55E"/>
<path id="Subtract_2" fill-rule="evenodd" clip-rule="evenodd" d="M16 44.5088C24.8366 44.5088 32 37.3453 32 28.5088C32 19.6722 24.8366 12.5088 16 12.5088C7.16344 12.5088 0 19.6722 0 28.5088C0 37.3453 7.16344 44.5088 16 44.5088ZM16 36.7374C20.5445 36.7374 24.2286 33.0533 24.2286 28.5088C24.2286 23.9643 20.5445 20.2802 16 20.2802C11.4555 20.2802 7.77143 23.9643 7.77143 28.5088C7.77143 33.0533 11.4555 36.7374 16 36.7374Z" fill="#1A202C"/>
</g>
</svg>
