<svg width="1920" height="1080" viewBox="0 0 1920 1080" fill="none" xmlns="http://www.w3.org/2000/svg">
<rect width="1920" height="1080" fill="url(#paint0_linear_519_12602)"/>
<g opacity="0.05">
<path d="M483.652 240.054L579.724 143.982C580.594 143.113 582.004 143.113 582.874 143.982L653.746 214.855C654.616 215.725 654.616 217.135 653.746 218.005L557.675 314.076C556.805 314.946 555.395 314.946 554.525 314.076L483.652 243.204C482.783 242.334 482.783 240.924 483.652 240.054Z" fill="url(#paint1_linear_519_12602)"/>
<path d="M593.899 254.229C583.896 264.232 567.678 264.232 557.675 254.229C547.672 244.226 547.672 228.008 557.675 218.005C567.678 208.002 583.896 208.002 593.899 218.005C603.902 228.008 603.902 244.226 593.899 254.229Z" fill="url(#paint2_linear_519_12602)"/>
<path d="M568.295 231.877L581.163 227.908C582.339 227.546 583.586 228.205 583.948 229.38C584.08 229.808 584.08 230.265 583.948 230.693L579.98 243.562C579.617 244.737 578.37 245.396 577.195 245.034C576.848 244.927 576.533 244.737 576.276 244.48L567.376 235.58C566.506 234.71 566.506 233.3 567.376 232.43C567.633 232.174 567.948 231.984 568.295 231.877Z" fill="white"/>
<path d="M483.652 240.054L579.724 143.982C580.594 143.113 582.004 143.113 582.874 143.982L591.536 152.645L492.315 251.866L483.652 243.204C482.783 242.334 482.783 240.924 483.652 240.054Z" fill="url(#paint3_linear_519_12602)"/>
<path d="M495.464 242.417C494.595 243.286 493.184 243.286 492.314 242.417C491.445 241.547 491.445 240.136 492.314 239.267C493.184 238.397 494.595 238.397 495.464 239.267C496.334 240.136 496.334 241.547 495.464 242.417Z" fill="white"/>
<path d="M500.977 236.905C500.107 237.775 498.697 237.775 497.827 236.905C496.957 236.035 496.957 234.625 497.827 233.755C498.697 232.885 500.107 232.885 500.977 233.755C501.847 234.625 501.847 236.035 500.977 236.905Z" fill="white"/>
<path d="M532.532 382.495C533.762 380.364 536.486 379.634 538.617 380.864L577.195 403.137C579.325 404.367 580.055 407.092 578.825 409.222L568.386 429.729L578.079 435.279C578.608 435.585 578.988 436.094 579.131 436.688C579.418 437.884 578.681 439.087 577.485 439.374L561.147 444.206L544.859 468.054C543.629 470.184 540.904 470.914 538.774 469.684L500.196 447.411C498.065 446.181 497.335 443.457 498.565 441.326L532.532 382.495Z" fill="url(#paint4_linear_519_12602)"/>
<path d="M531.962 422.03C529.135 420.398 528.339 416.484 530.184 413.288C532.029 410.092 535.642 408.723 540.35 411.442C543.489 413.254 546.381 420.067 549.026 431.881C537.472 435.498 530.126 436.401 526.987 434.588C522.278 431.87 521.657 428.057 523.502 424.861C525.347 421.665 529.135 420.398 531.962 422.03Z" fill="white"/>
<path d="M640.938 585.594C640.938 585.594 656.099 572.734 667.221 564.654C678.343 556.574 692.782 555.794 700 557.757C708.133 563.831 729.398 580.375 738.166 588.91C732.995 589.913 728.403 589.913 721.546 591.698C696.9 598.113 688.194 619.738 684.903 621.104C678.762 623.652 681.36 622.481 677.653 622.968C673.947 623.455 640.938 585.594 640.938 585.594Z" fill="url(#paint5_linear_519_12602)"/>
<path d="M642.376 577.521C642.376 577.521 628.415 592.311 636.817 598.149C642.844 602.336 661.453 614.727 670.028 619.992C678.34 625.097 685.369 620.345 685.369 620.345C685.369 620.345 676.2 624.168 673.529 617.108C670.857 610.047 680.89 602.752 680.89 602.752L642.376 577.521Z" fill="url(#paint6_linear_519_12602)"/>
<path d="M1126 676.236C1128.71 673.855 1128.68 669.665 1125.94 667.32C1119.34 661.671 1107.85 651.981 1100.29 646.491C1089.17 638.411 1074.73 637.631 1067.51 639.594C1059.38 645.668 1038.11 662.212 1029.35 670.747C1034.52 671.75 1039.11 671.75 1045.97 673.535C1070.61 679.95 1079.32 701.575 1082.61 702.941C1088.75 705.489 1086.15 704.317 1089.86 704.805C1092.71 705.18 1115.63 685.358 1126 676.236Z" fill="url(#paint7_linear_519_12602)"/>
<path d="M1382.83 592.079L1289.83 527.38C1289.83 527.38 1252.84 609.643 1180.51 644.367L1260.08 719.278C1260.08 719.278 1353.46 684.644 1382.83 592.079Z" fill="url(#paint8_linear_519_12602)"/>
<g opacity="0.517119">
<path d="M1225.73 639.096L1218.48 643.977L1277.62 692.845L1286.47 688.111L1225.73 639.096Z" fill="#C5D7F3" style="mix-blend-mode:multiply"/>
</g>
<g opacity="0.517119">
<path d="M1287.62 559.736L1357.39 603.865L1352.66 611.391L1283.2 567.37L1287.62 559.736Z" fill="#C5D7F3" style="mix-blend-mode:multiply"/>
</g>
<g opacity="0.517119">
<path d="M1277.15 577.82L1346.93 621.949L1342.2 629.475L1272.74 585.454L1277.15 577.82Z" fill="#C5D7F3" style="mix-blend-mode:multiply"/>
</g>
<g opacity="0.517119">
<path d="M1300.23 620.171L1335.29 641.827L1330.56 649.353L1295.81 627.804L1300.23 620.171Z" fill="#C5D7F3" style="mix-blend-mode:multiply"/>
</g>
<g opacity="0.517119">
<path d="M1267.41 592.892L1290.08 610.021C1289.48 611.467 1288.7 613.113 1287.74 614.958C1283.37 623.394 1277.19 630.752 1269.65 636.508C1266.59 638.853 1264.01 640.895 1261.91 642.637L1238.6 624.313C1239.73 623.635 1240.99 622.862 1242.38 621.994C1252.1 615.911 1260.02 607.328 1265.33 597.133C1266.13 595.602 1266.82 594.188 1267.41 592.892Z" fill="#C5D7F3" style="mix-blend-mode:multiply"/>
</g>
<g opacity="0.517119">
<path d="M1287.24 635.787L1318.65 660.835C1315.03 666.261 1310.99 670.846 1306.53 674.591C1302.06 678.336 1297.35 681.085 1292.41 682.838L1260.55 658.272C1267.26 654.284 1272.56 650.637 1276.45 647.33C1280.34 644.024 1283.93 640.176 1287.24 635.787Z" fill="#C5D7F3" style="mix-blend-mode:multiply"/>
</g>
<path d="M808.778 606.8C808.778 606.8 808.778 576.175 819.204 556.853C819.204 556.853 858.336 609.027 901.988 604.087C902.883 630.132 882.646 713.685 975.208 728.785C948.06 728.785 926.531 718.266 926.531 718.266C926.531 718.266 857.808 689.101 834.407 665.212C811.006 641.323 808.778 606.8 808.778 606.8Z" fill="url(#paint9_linear_519_12602)"/>
<path d="M808.377 604.131C808.377 604.131 814.904 672.506 882.902 642.32C882.902 642.32 906.408 717.173 981.439 728.551C981.439 728.551 903.802 727.281 858.144 694.456C812.486 661.632 808.377 604.131 808.377 604.131Z" fill="url(#paint10_linear_519_12602)"/>
<path d="M1388.67 351.26C1386.76 335.432 1379.54 321.239 1368.85 310.516C1365.1 306.086 1360.05 302.205 1353.59 298.933C1348.12 295.864 1342.2 293.511 1335.94 292.003C1336.16 284.886 1341.07 250.701 1346.16 216.289C1439.49 229.465 1420.99 317.271 1413.99 330.678C1410.85 336.69 1402.41 343.551 1388.67 351.26Z" fill="url(#paint11_linear_519_12602)"/>
<path fill-rule="evenodd" clip-rule="evenodd" d="M1346.08 216.159C1389.21 221.96 1422 250.879 1422 285.681C1422 299.881 1416.54 313.101 1407.15 324.171C1411.8 315.725 1414.38 306.438 1414.38 296.689C1414.38 263.492 1384.54 235.648 1344.35 228.116L1346.08 216.159Z" fill="url(#paint12_linear_519_12602)"/>
<circle cx="1353.91" cy="224.261" r="2.78413" fill="url(#paint13_linear_519_12602)"/>
<circle cx="1363.49" cy="226.983" r="2.78413" fill="url(#paint14_linear_519_12602)"/>
<path d="M1346.45 355.152C1381.42 350.334 1409.52 330.319 1418.76 304.323C1419.46 303.515 1419.83 303.075 1419.85 303.089C1419.85 378.269 1395.38 421.056 1346.45 431.452V355.152H1346.45Z" fill="url(#paint15_linear_519_12602)"/>
<path d="M776.977 119.745L853.138 181.419C854.572 182.58 854.793 184.684 853.632 186.118L810.035 239.955C808.874 241.389 806.77 241.61 805.336 240.449L729.175 178.775C727.741 177.614 727.52 175.51 728.681 174.076L772.278 120.239C773.439 118.805 775.543 118.583 776.977 119.745Z" fill="url(#paint16_linear_519_12602)"/>
<path d="M729.806 178.559C729.564 178.362 729.415 178.073 729.396 177.761C729.358 177.147 729.826 176.619 730.439 176.581L794.77 172.66C796.488 172.555 798.004 173.771 798.273 175.471L808.479 239.768C808.529 240.08 808.444 240.398 808.245 240.644C807.858 241.122 807.157 241.196 806.679 240.808L729.806 178.559Z" fill="url(#paint17_linear_519_12602)"/>
<path d="M776.497 119.357L853.631 181.818C854.109 182.205 854.183 182.907 853.796 183.385C853.609 183.616 853.337 183.762 853.042 183.792L786.042 190.521C784.224 190.704 782.597 189.392 782.389 187.577L774.69 120.349C774.62 119.738 775.059 119.186 775.67 119.116C775.967 119.082 776.265 119.168 776.497 119.357Z" fill="url(#paint18_linear_519_12602)"/>
<path d="M1023.58 228.304C1023.58 228.302 1023.58 228.299 1023.57 228.297C1022.61 227.526 1022.46 226.124 1023.23 225.165L1037.72 207.156C1038.45 206.255 1039.74 206.058 1040.7 206.702L1045.85 210.159C1046.7 210.732 1047.84 210.646 1048.6 209.953L1110.24 153.52C1110.25 153.509 1110.26 153.499 1110.28 153.489C1111.2 152.677 1112.61 152.769 1113.42 153.694L1159.72 206.467C1160.49 207.353 1160.45 208.69 1159.61 209.519L1089.87 278.552C1089.06 279.346 1087.8 279.415 1086.91 278.712L1023.58 228.304Z" fill="url(#paint19_linear_519_12602)"/>
<path d="M1086.59 278.565L1047.44 230.301C1046.72 229.407 1046.79 228.108 1047.62 227.304L1128.66 148.124C1129.54 147.265 1130.95 147.281 1131.81 148.161C1131.98 148.33 1132.12 148.523 1132.22 148.735L1160.92 207.093C1161.34 207.956 1161.16 208.995 1160.48 209.668L1089.87 278.754C1089 279.614 1087.58 279.599 1086.72 278.72C1086.68 278.67 1086.63 278.619 1086.59 278.565Z" fill="url(#paint20_linear_519_12602)"/>
<path d="M1088.28 271.249L1086.12 268.95L1107.06 248.981L1108.76 251.638L1088.28 271.249Z" fill="#A3C1EA"/>
<path d="M858.416 228.363L989.652 193.199C990.84 192.88 992.062 193.585 992.38 194.773L1018.32 291.587C1018.64 292.775 1017.93 293.996 1016.75 294.315L885.51 329.479C884.322 329.798 883.101 329.093 882.782 327.904L856.841 231.091C856.523 229.903 857.228 228.681 858.416 228.363Z" fill="url(#paint21_linear_519_12602)"/>
<path fill-rule="evenodd" clip-rule="evenodd" d="M991.248 207.76L1013.44 290.589L886.509 324.601L864.314 241.771L991.248 207.76Z" fill="url(#paint22_linear_519_12602)"/>
<path d="M867.464 236.315C866.276 236.633 865.055 235.928 864.737 234.74C864.418 233.552 865.123 232.33 866.312 232.012C867.5 231.694 868.721 232.399 869.039 233.587C869.358 234.775 868.653 235.996 867.464 236.315Z" fill="#F2F5FF"/>
<path d="M874.994 234.297C873.806 234.616 872.584 233.91 872.266 232.722C871.948 231.534 872.653 230.313 873.841 229.994C875.029 229.676 876.25 230.381 876.569 231.569C876.887 232.758 876.182 233.979 874.994 234.297Z" fill="#F2F5FF"/>
<path d="M896.765 306.68L892.007 303.788L910.26 273.758L931.79 277.623L947.519 245.604L966.551 251.761L981.593 224.271L986.477 226.944L969.223 258.478L950.391 252.385L934.937 283.845L913.035 279.914L896.765 306.68Z" fill="url(#paint23_linear_519_12602)"/>
</g>
<ellipse opacity="0.02" cx="1581.74" cy="372.371" rx="327.743" ry="322.371" fill="#E2EBFC" fill-opacity="0.34"/>
<ellipse opacity="0.01" cx="359" cy="612.787" rx="277" ry="272.459" fill="#E2EBFC"/>
<defs>
<linearGradient id="paint0_linear_519_12602" x1="290.443" y1="589.342" x2="290.443" y2="1342.59" gradientUnits="userSpaceOnUse">
<stop stop-color="#23262B"/>
<stop offset="1" stop-color="#1D1E24"/>
</linearGradient>
<linearGradient id="paint1_linear_519_12602" x1="333.206" y1="105.245" x2="189.553" y2="576.232" gradientUnits="userSpaceOnUse">
<stop stop-color="#F7FAFF"/>
<stop offset="1" stop-color="#6B9AD9"/>
</linearGradient>
<linearGradient id="paint2_linear_519_12602" x1="583.779" y1="177.618" x2="524.652" y2="254.441" gradientUnits="userSpaceOnUse">
<stop stop-color="#E5EDFF"/>
<stop offset="1" stop-color="#6B9AD9"/>
</linearGradient>
<linearGradient id="paint3_linear_519_12602" x1="554.202" y1="73.6575" x2="428.929" y2="236.421" gradientUnits="userSpaceOnUse">
<stop stop-color="#E5EDFF"/>
<stop offset="1" stop-color="#6B9AD9"/>
</linearGradient>
<linearGradient id="paint4_linear_519_12602" x1="512.672" y1="407.472" x2="541.205" y2="455.06" gradientUnits="userSpaceOnUse">
<stop stop-color="#F59BA9"/>
<stop offset="1" stop-color="#F25267"/>
</linearGradient>
<linearGradient id="paint5_linear_519_12602" x1="624.242" y1="518.489" x2="590.68" y2="641.724" gradientUnits="userSpaceOnUse">
<stop stop-color="#F7FAFF"/>
<stop offset="1" stop-color="#6B9AD9"/>
</linearGradient>
<linearGradient id="paint6_linear_519_12602" x1="643.975" y1="570.785" x2="619.664" y2="631.424" gradientUnits="userSpaceOnUse">
<stop stop-color="#E5EDFF"/>
<stop offset="1" stop-color="#6B9AD9"/>
</linearGradient>
<linearGradient id="paint7_linear_519_12602" x1="1219.97" y1="623.997" x2="1257.85" y2="815.086" gradientUnits="userSpaceOnUse">
<stop stop-color="#F7FAFF"/>
<stop offset="1" stop-color="#6B9AD9"/>
</linearGradient>
<linearGradient id="paint8_linear_519_12602" x1="1096.54" y1="484.695" x2="941.195" y2="842.115" gradientUnits="userSpaceOnUse">
<stop stop-color="#EEF3FF"/>
<stop offset="1" stop-color="#6B9AD9"/>
</linearGradient>
<linearGradient id="paint9_linear_519_12602" x1="739.699" y1="518.608" x2="592.468" y2="829.639" gradientUnits="userSpaceOnUse">
<stop stop-color="#EEF3FF"/>
<stop offset="1" stop-color="#6B9AD9"/>
</linearGradient>
<linearGradient id="paint10_linear_519_12602" x1="842.9" y1="585.556" x2="785.083" y2="760.567" gradientUnits="userSpaceOnUse">
<stop stop-color="#E5EDFF"/>
<stop offset="1" stop-color="#6B9AD9"/>
</linearGradient>
<linearGradient id="paint11_linear_519_12602" x1="1262.24" y1="186.298" x2="1102.43" y2="513.679" gradientUnits="userSpaceOnUse">
<stop stop-color="#F7FAFF"/>
<stop offset="1" stop-color="#6B9AD9"/>
</linearGradient>
<linearGradient id="paint12_linear_519_12602" x1="1310.99" y1="267.705" x2="1430.54" y2="357.113" gradientUnits="userSpaceOnUse">
<stop stop-color="#E5EDFF"/>
<stop offset="1" stop-color="#6B9AD9"/>
</linearGradient>
<linearGradient id="paint13_linear_519_12602" x1="1354.78" y1="217.902" x2="1348.35" y2="226.252" gradientUnits="userSpaceOnUse">
<stop stop-color="#E5EDFF"/>
<stop offset="1" stop-color="#6B9AD9"/>
</linearGradient>
<linearGradient id="paint14_linear_519_12602" x1="1364.36" y1="220.625" x2="1357.93" y2="228.975" gradientUnits="userSpaceOnUse">
<stop stop-color="#E5EDFF"/>
<stop offset="1" stop-color="#6B9AD9"/>
</linearGradient>
<linearGradient id="paint15_linear_519_12602" x1="1394.6" y1="220.688" x2="1247.86" y2="329.698" gradientUnits="userSpaceOnUse">
<stop stop-color="#E5EDFF"/>
<stop offset="1" stop-color="#6B9AD9"/>
</linearGradient>
<linearGradient id="paint16_linear_519_12602" x1="739.539" y1="122.209" x2="745.743" y2="222.004" gradientUnits="userSpaceOnUse">
<stop stop-color="#FFE579"/>
<stop offset="1" stop-color="#FEC644"/>
</linearGradient>
<linearGradient id="paint17_linear_519_12602" x1="697.4" y1="98.4409" x2="690.865" y2="237.384" gradientUnits="userSpaceOnUse">
<stop stop-color="#FFEDBF"/>
<stop offset="1" stop-color="#FEC644"/>
</linearGradient>
<linearGradient id="paint18_linear_519_12602" x1="770.366" y1="111.339" x2="770.366" y2="190.538" gradientUnits="userSpaceOnUse">
<stop stop-color="#FFE579"/>
<stop offset="1" stop-color="#FEB755"/>
</linearGradient>
<linearGradient id="paint19_linear_519_12602" x1="1112.96" y1="71.8845" x2="970.863" y2="272.984" gradientUnits="userSpaceOnUse">
<stop stop-color="#E5EDFF"/>
<stop offset="1" stop-color="#6B9AD9"/>
</linearGradient>
<linearGradient id="paint20_linear_519_12602" x1="947.14" y1="118.182" x2="822.988" y2="470.61" gradientUnits="userSpaceOnUse">
<stop stop-color="#F7FAFF"/>
<stop offset="1" stop-color="#6B9AD9"/>
</linearGradient>
<linearGradient id="paint21_linear_519_12602" x1="962.799" y1="105.541" x2="813.958" y2="334.645" gradientUnits="userSpaceOnUse">
<stop stop-color="#E5EDFF"/>
<stop offset="1" stop-color="#6B9AD9"/>
</linearGradient>
<linearGradient id="paint22_linear_519_12602" x1="733.984" y1="181.797" x2="654.651" y2="513.775" gradientUnits="userSpaceOnUse">
<stop stop-color="#F7FAFF"/>
<stop offset="1" stop-color="#6B9AD9"/>
</linearGradient>
<linearGradient id="paint23_linear_519_12602" x1="953.981" y1="171.371" x2="862.91" y2="307.016" gradientUnits="userSpaceOnUse">
<stop stop-color="#E5EDFF"/>
<stop offset="1" stop-color="#6B9AD9"/>
</linearGradient>
</defs>
</svg>
